<mxfile host="65bd71144e">
    <diagram name="ページ1" id="kV_jf0nQlMC201pr5hpI">
        <mxGraphModel dx="677" dy="509" grid="0" gridSize="10" guides="1" tooltips="1" connect="1" arrows="1" fold="1" page="1" pageScale="1" pageWidth="827" pageHeight="1169" background="none" math="0" shadow="0">
            <root>
                <mxCell id="0"/>
                <mxCell id="1" parent="0"/>
                <mxCell id="-04ID43S7tZkHjtVrY1N-1" value="AWS Cloud" style="points=[[0,0],[0.25,0],[0.5,0],[0.75,0],[1,0],[1,0.25],[1,0.5],[1,0.75],[1,1],[0.75,1],[0.5,1],[0.25,1],[0,1],[0,0.75],[0,0.5],[0,0.25]];outlineConnect=0;gradientColor=none;html=1;whiteSpace=wrap;fontSize=12;fontStyle=0;container=1;pointerEvents=0;collapsible=0;recursiveResize=0;shape=mxgraph.aws4.group;grIcon=mxgraph.aws4.group_aws_cloud;strokeColor=#232F3E;fillColor=none;verticalAlign=top;align=left;spacingLeft=30;fontColor=#232F3E;dashed=0;" parent="1" vertex="1">
                    <mxGeometry x="77" y="250" width="657" height="428" as="geometry"/>
                </mxCell>
                <mxCell id="rYBwMgKa4S3AZHbmEtn9-35" value="Security group" style="fillColor=none;strokeColor=#DD3522;verticalAlign=top;fontStyle=0;fontColor=#DD3522;whiteSpace=wrap;html=1;" parent="-04ID43S7tZkHjtVrY1N-1" vertex="1">
                    <mxGeometry x="116.5" y="52" width="503" height="344" as="geometry"/>
                </mxCell>
                <mxCell id="rYBwMgKa4S3AZHbmEtn9-4" value="EC2 instance contents" style="points=[[0,0],[0.25,0],[0.5,0],[0.75,0],[1,0],[1,0.25],[1,0.5],[1,0.75],[1,1],[0.75,1],[0.5,1],[0.25,1],[0,1],[0,0.75],[0,0.5],[0,0.25]];outlineConnect=0;gradientColor=none;html=1;whiteSpace=wrap;fontSize=12;fontStyle=0;container=1;pointerEvents=0;collapsible=0;recursiveResize=0;shape=mxgraph.aws4.group;grIcon=mxgraph.aws4.group_ec2_instance_contents;strokeColor=#D86613;fillColor=none;verticalAlign=top;align=left;spacingLeft=30;fontColor=#D86613;dashed=0;" parent="-04ID43S7tZkHjtVrY1N-1" vertex="1">
                    <mxGeometry x="155" y="93" width="426" height="280" as="geometry"/>
                </mxCell>
                <mxCell id="rYBwMgKa4S3AZHbmEtn9-3" value="Docker compose" style="swimlane;whiteSpace=wrap;html=1;" parent="rYBwMgKa4S3AZHbmEtn9-4" vertex="1">
                    <mxGeometry x="27.5" y="59" width="382" height="197" as="geometry"/>
                </mxCell>
                <mxCell id="rYBwMgKa4S3AZHbmEtn9-9" value="db" style="swimlane;" parent="rYBwMgKa4S3AZHbmEtn9-3" vertex="1">
                    <mxGeometry x="146" y="57" width="90" height="115" as="geometry"/>
                </mxCell>
                <mxCell id="rYBwMgKa4S3AZHbmEtn9-53" value="" style="shape=image;verticalLabelPosition=bottom;labelBackgroundColor=default;verticalAlign=top;aspect=fixed;imageAspect=0;image=data:image/png,iVBORw0KGgoAAAANSUhEUgAAAQcAAAEICAYAAABS/TFyAAAAAXNSR0IArs4c6QAAAARnQU1BAACxjwv8YQUAAAAJcEhZcwAADsMAAA7DAcdvqGQAAIEBSURBVHhe7b15cFzXde67JU6Y53kgQJDgBM7zJJGaZU2WPCZ2BsuJ7827zzfJq/sqL5Wyq/LeS+WPe6vy37tJ1U1uYt/ETmI7sWxNlmTNEkVSHMR5BEhiJgGQIAASHCS99VunF7DRbIAgCTS6gfNRR91oNLrP2Wfvb39r2Gvf03/12ucuRIgQIaJwb+QxRIgQIYYgJIcQIULEREgOIUKEiImQHEKECBETITmECBEiJkJyCBEiREyE5BAiRIiYCMkhRIgQMRGSQ4gQIWIiJIcQIULEREgOIUKEiImQHEKECBETITmECBEiJkJyCBEiREyE5BAiRIiYCMkhRIgQMRGSQ4gQIWIiJIcQIULEREgOIUKEiImQHEKECBETITmECBEiJkJyCBEiREyEpelDTCiuXr3q+np73fmODneuvd21ydHe3uba29pdR2eH67540V2+fMX19/e7q9euuqvyyPMrV67o3/ZzyPMbN264zz77zKWmprr09AyXmcmR6dIz5DEj02VlZboM+TlDfpcR+V1uTq7LLyhw8+bNc6WlpS4tLc1Nnz49cmYhQnKI4PPPP3effvqpdrJr16656xw3rsvrwe+nTbvX3XuPHPfe6+6Rg8eRjnvuuSf4wwQD18egunL5srssg0qv9fp1HVhcvx2fR37mdbum6TNmuBlRB4Npxozp8jj0Nb8N+Hy+p6+v1/X0cPQoIfTKz729fe5yX5/rvtTtLgoRdF+Ux24eL+p7+y73uWtyvnyGf1y7dl2uJfhcftZzlps1c+ZMl5KS4mbNShGiSNHnEEaKHKkp8pgyS3+eJa+np6e7rMwsV1Ja4goLi1xubo7+nJklh5AHh/6tvHcqIiSHCBgEzEaXpTNelA7a3d3tLkmH5XU6+cwZM7XjzeCQAaDPI4Nh5kx5ZHDIa7zO4Jg2bVrkkxMLfTIQu7q6XGtLi2tqbnaX5Dp7enuCWVhm5GtXr+lzPWSmZvDZ9TIDM+tmMXj0OQMomJl5zusZMlMzA/N+CAJABpcuXXL1p065hoYGV19f706fbnBnzp51XZ2dQhC9MtCFlD4TMooQkhETB4PeDuD/HP0698qIyR5Heu1euU/cO5RFeXmFq55TrUpi7tx5+lhSXKzqgvdPNUwJcqDTMLsw+C9cuBA5unRm6pWOG8jTQKrqITL2ssysV/qvDHQ4BrsO+nsjj/azPOoxPXj0f8fBbJUmMxSDKJC0MpCQuvJzWlq6zky8byzBgGagnz9/3nXIcannkgzOHtcjAzSYlbsH2oDr7e+PzMwyE6MsbshzfYwcdj3Mtik6IwczsM7QvCZHMCvzc+T1WbN00PG3kA/fee78OT2fc3J0ihnRIcSAaqD9bYBPBLi/nG+OmBkFBfmuqKhYjkJ9LCgscAX5BS43L8/l5+eJuuAxX95XoKQ5mUljSpADsw8zJoPlxInj7tixY+748eOu8Wyja25u0oGCUqCTMkjuFnQYOg6DKE86VWlZmasoL9eZqbyi3FVUVMpRoXYuv2cwjWUnY5bmmvbu3esOHjjgTp857c6cOePOyoFqoC1ok/EChGAEwQHR0r7JCIg8NzfXLViwUI4FbtGiRW7x4sVuydKlapZwrZMVk44cmOmYOVtENiNdz7Wfc+3n2mXG6nCdXZ3uggyOLhk4F+VgEPUycyGn5W/427EYNAx0JCuzLYOEThSohcwhzjKV5TjLsrNk1spx2VnZLlseC2VWKigs1BmK9/F5w5EHMy6D79y5c665qUmu+bQ723jWNTY2uvPyGrM0ioFrRd6jKCDA8ZypOVeunYHDQbtCvCOB9uK9arLINfNIu0EumCj+YWYOh30P943r4j5y+M+jX8OM4cDHweNIbcF3cQ8hCIgc5VBWXuaqZle5BQsXKlGUlpTo/ZpsmBTkwM21DtgrEhafwQGZMXd//LEqBWzctrY27QyjGRQ2GM0+NfC39vfRz+8EdGo6Px0PFcFRIsecOXNcdfUcfSwqKnKzGBCRQcHBgLCOfuXKZVFEHaqEUAm7d+8euGb/HKOh9nbk+uxxuAPYZ3FE+wH42Y6RYATA+dvBzxwMdNqiUAYZ18zBYIQg8GFwoMR4ZLDac/6GNsFHMWAWeoeah94jR6eYMx1i1jCBoCZpSw76kB3m84gFzol7tmHDBvfAAw+6JUuWqH8Cp6cRlrVbMiPpyYHOafb14cOH5DisR3NTs4bEVB3I7EDnoAPw/pFAB+bm2oxPx6Pz+h0nuiONZmDEAh3IBkYqnV++kw4fqIwsGRy5rqi4WE2QysrZMlvNVhMFEkEZ1NefUtMBYmhrbZM2OKcdH4XAMdK12vdw8NwGp/9oh12n+makrTn85xwagRAVZoQRC6gBFFK5mFhcA0SAOoIEVDllZ+u5BD6NFP3uaCKxR/857ch3MqA5ONeRHjl3DiYLzC8mjtbW1iEHr9N3YoHvpY3wO0DmtbW1anKsWbPGzZ+/QK+J8092JCU5WAfU0JfYssjn+oYGt0dmzU8++URUw37trAxiHzYYubE2+3DYbMzBc34PMSBvrYPa7BJ90OE4jCA4L3vO67yHGZ7OaPKWg9fpqMMNJM6V82CGqhYFgYqYO3euq66qdrOFJE6ePKm+k+0fbXcnhBxiXS/XwsG1+gefy2Dksy3CYG1iv/cPuw6beTkgBHsO8fp+GzuAtSntyGAqFrKrqqoSsqtUgkAh8DrnwsF1c8QDnCMTR3Nzs5Ktf2CmoS7sGm2C4bq5bz64Du7Rls1b3IqVK/VelYipQRtb/0lGJCU5cHPorJgNH+/+2O2T2ZPBws3sxraWgw4dPfC4SQx6OiQDzI7AlswN/ADeTMr7rbMaIfkEYK9xPhw2iGwgMfPgAKSjoWw47Dmvm73LEQuoGAaWzaY8cv6oDPIEIAQIkhk71vXSOZnFGIioD2ZsjjJRHzZb2wzMd9nBa/7Pdq1cI89jPXK9nAfX197ero/8jjZl8JuZQDsbKUM8tDMH12ntHS/YuZv64RrsuamKpogfBzVKH4NIuE4fXAf3hmsrl3auW1ynKmLjpk2qjiDgZERSkQM3klkXZj916qTbtXOX2thHjx5RKcgA4YYD6+R0TAYIA8FmS2YvBogdyFkOBh43mZvN344WDBy+18iBR5uV6GRIfciAw56bbPVtYjodf8PrPOd6owc8g8cfsD44bxuMdEojAg5mMq7bDiPBsQLXzL3h+sym5/xoU9qce3C73/mZtquQEoM48vjZp1E/8x45oJRpSmaiDrn3kUf7OXiUtrsH/0rw+SMBguAe0K8gBIjhVCRPg58hP1OuPiAClFFdXZ1buWqV5ktUV1dLm0OO+Xrv4kmAd4OkIgcGUU/PJffqK6+6f/3Xf3Vnz55RpxIDMXrmZDZCIq9bt86tXr1aQ1A1NTUqARlAzFI2W/kzpQ2+24V9N492MIBtdvIPIw9mfjqZ2byEG5mlTpw4Idd2Vgcb742GKZloQApco85aGzeK/TtfOyrX6B/+9Y4V7Jr96wT2Pbf7nXzWDSGAa9duuP7r0l5y9Mvzq/xsr8njNWmfG5+SxSlmmFzbrJliNs6c7lJmyHP/kNdm8jid87j14LT7R/ubGoQMuEf79u1zH3zwgTt48KCadv694Proe6b0VqxY4dZv2ODuv+9+JQtr/2RAUpADg4RkJdgbM2L7hx/qzTFnI+Cm0PBIVyQ0bM2Bs4gBw+zJbIpC4OZNNBg8EATXwOzDwYyLyQFZcJgpwixsszF/Q0cFdDKuF1XANWLrmm+Cw6T8aEFH+DwyIzPgdIaWmVpn3WnSvjrIRz/7jgbXb0g7XP/UdfddcV09Yor19btLl6+6y1evuf6rweC/fuMzfd91OScyKXkc+FkOBjGEOV3OcQaHEEDwHJNJzlse7XWO9JQZLiN1pstMS5FjlsuSIyNVTINZTBbTVIXEAm1vpgYETn/kwCGMouBeMoEBm2Toi3Pm1OgEBTksW7ZMzTxU3miJcqKQFOQAAcDYb7zxuvuHv/97vTnMuj4gBtiauPPWrVvdfffdp4c52JIJzFZcM53uyJEjGpZlljp06JB2TrN5uTa85OvXr3dPPvmkW758uZIgiuhOgDz/VAbbwCwdmZ0ZUMy6qTL7MgMz6EYz+94KzLhXrsqM3NvvTrV0umON511DW5c7037RdXT3CUn0S1sEpsNY4F4ZsJBcUU66K8vPcrOLc93sohxXVZzjyguyXVGumD1CEKOV/ZA1yvWnP/2pe+WVV5QgIPFYgCQWL65z33r+ebdN+ic5LokwSY2EhCYHFANEwAD54P331b9w4OABVRH8DtDAzJZIaFiZRxSDOeBGknF0zN7+azpb9chspXL12nV3JfLIz9i8dGJYnlnTt2fVho3xs85akRkqPWWmy5CZKW3mDJcix2j6HTMh6gAiwD9BJ+Qwhyaqgg4MOaCMUAm0AcoIuz56RuIGM9P2XZFrlQHHYLzYe0Ufe69cdX3SBtfV3JGZWNXCzcrBrstmZ2ZkSMIkfDADp7is9Fk6I2fLz6ly7SkzglDjcBhQDnI+KAdI4mRLhzt69pw7e65b7wvvGQtwGpwLBJAh56bKQc4X5aDnLo85Gal65GYGR2FOhsvLTNPr5v76MCcsJI55sX//fiVxnJfcL+6hmRzmC8LkWydkvnnzFu2nKNlENTMSlhxoWFbmfbRjh3v3nXfcyy+/pPY4cpwGt8GBo2vz5s2qEh5++GG1sVEKfofkAq3D32AQaMf/3F2QDtkpM1T7hV53/mKfdkQGD489Mmh45L18nw4MZCmDQx6DQRI82uv+71OlA+ZmpLi8rDRXkJ3uctLpfKkRghkkFZ3NIs/vifwcC5wDB8SAP4Lr4zot2uKD/ijvDqS3DHikea8Qg11ra+cl19LZI8cl13Gpz12QQQkZXpNBSrtYh44FvpdznSmDHrJjkCHRi2QQFcrMyyMzcLE8MrggjZlC0NpeSHy5VsjGvz8Gvva0KIeTQhC7jzepkmjv6tX7gIoZKwURC1wTvgmIoKwgU5UER01ZvioLzA7uKffW7psPSGLPnj1u+/bt7vXXX1eyQEVgipj/BRLAYbm4rs59/WtfV5KA1PFN3KnaG08kLDlgRhw5ctj94he/UB8DHmKkttmXDC7kNMemTZs0Sw1no82cfudjgCNTGRjNHd2uravHnZefu2Xm7BYy6BcFgUowOzYYVAGJaIeU/4KBGwwOOoYekU5+03M5kK8MIDocsycdK3XWTJctJBF95AiJ5EqnTJdBxqw2HBi0NltZGxANiDabOG/O/0z7BRlsF1SqtwoZMMh6+6+qYrrcLwqJ65ZBF5ACtnvg+b8V7HohNRv0EEUKKiLymApxyPVkp6e6krwMVyoyvqwgS55nukwZaLwnFlAy+Bw6uy/rvYIgUBFH5OCcx4sgaE8jvTS5T9yHNCE+CD5fyH1OaZ6rkWNOSZ4SPudPOxgwBSEDyJvs1B0yqb3xxhtK5Cg+wHdAAqRgz6ud5zas3+AefexRjWigdBMNCUcOsCyq4b333nXvvP2O2HIvq60N9AYK+6IWCMc9/vjj7sEHg/RVTAgf12RwMNv0Ske7KGZDo9ixZ89ddKdlwDSf73atQhDI7CsyY8YDwSCaFsjVjDR9zLMjK13UhbwWkbT+IMPWZ/D5HTEWlDiE4CAAJDqq6ERThzvR3OGOy2NLxyUlQEggXoAYUQ6BfY9tn+sqCrNdgQwurpPBlyamFwNRCT3ydwAO6Jb7drzpvNt/qtV9fKxJlU7npcsR5Ref6+C+YRrOLc93teUFbuHsQrmGHFcohJElxJ4pBCgdc+DcIQnIm8zVX/7yl6omMDV4zZyVXCskQb997LHH3abNm9zatesSzj827Xvf//6fR54nBIj347l/8cUX3S9eeEEdPsScAQ2K05Ew3Te+8Q01JfAzkL+Ab8EHUhkS2CWd6p1P6t1HRxq1k53F2SUd7HLEzh6niegm8DWoHuxrBnCnyHkI6nTbRR3EBxva3NHGc+64DOZzYuIwgzJL0jlNlg8HiOHGp5+ruYAc/+DgaffG7hPugHxmfesF1yXXq/6Tz+NHDMBMG0y0c6LaGlo73eEz5+R6O12T3JsrV28o6WHrY25A/gaeor5QVphl5UIqqBXMIEwfPjce4L5BRj0ykbSJ+uJeNQvRXhbVhQlZkJ2hxGDnziN9EfNB11vIgIcYLLHKQF+gr6MsKAOAI3mWKBYW5iUKEoYczM7F44ske+vNX6sD0mdbGnDt2rWqFh566CG113DycDP4czr/RSGF+tYud+RMu/tEyGB/fatKUjojpgU3ddC21o+OG/g+fB+oGgYrjkCIAucgMyIOwsFwnpg714IBwABBRfiDB9BmmEEQIepgn1zv3hPNwQBs7pTPuqzqiIFk7RtP6PVKO9PeXCtK4IKc08W+K3JclXML/DqQBz4RzpMrnCHSXoaZynyum5mbNkDyz5B7jQILkqMgxfEnPEhaVaiYZBd6AicuJhmRHF7nvCFvyCt4FDNLSIG+afk23DsUMcoCouB+4I+AMKgs9rn0XXwPmBz8fSI4KRNKOWBSvP/+++6HP/iBRiiw4WhEY2Nixd/+9rdVMeChpzFpSKAD5cZn6sx6/eMT7n2ZPT88dMY1iSnBYNMBou9MXEAcmDkMavwiEJ30f5Xi2WmpOsv6/MDvLsugOtXS5V7ecdS9d6BBSQJ7HccrgzPRwDlxLyAFzAT8IUcbzyspAnwz+CnukdtqZBiQxAyNHCDryVvQwRohlXiCfgaxn7/Y65rk/ImsQAoBgQemIODcOXAWk4AHQQCiGH64k88jP+L4sWMabaqqqlZCSQTzImHIoaPjvDskttnbb78tx1saxoNZAeEezIdt27apasC/gCMOYlAGlpkJZ+O+ky1u19FGmUFb1JnFjMrMCvMnOjEAzpFznSkzY44MkGVzS92ymlK11XFW0gkNRFcaRCF9LGbEjiNn1SyBUDCXCEcmMuQSB0wDBrk6R4UUTTmhpJAQs0Qp4PTkPnPtKAachUSJMEXwV6Am+Bwlfz44DuAe0a9QgLQ3kR78WlwLSBHzl3O1SQ1TmEfCmZyjmRTWv1ET/EwdTkrzsSKXPh9c98QlSiUMOZC3/uqvXnUffPiB1iWwPAaAOUGSzwMPPKBOHBrZwI1iFjopMvqlHUfcR4fPukYxIZCxyQq84dUlue7J9Qvd5iXV6tRj9vRxsrlDieGVncfcB4dOq18hGdRRNHSgyXlDCkRWyG1AUeCwzJd2mCWzsflbGGyQBD6IKmkffg+R4s8gwqGmor4zPkDpoSI4X/IzIAzIinAuplBE+ChsARwKAoVMNM58EJAFBMGSewr2YC5Xzg6yKCfSvJhwcsD+IrFn165d7uWXXh5YfgxwQBLHx5wgMgEx2EpCgK2KU+/9A6fdewcb1NGlakHMi2QbJIBZks61dkGl27q8xs2vKHA5mUPNCQbCsabzbvuhs6oYyFfA/p0sYPInL4MwM+FmZmOun8FG+xhoD0iDBDMyHlESpFurj0PIJt6gv3HePX2BDwWiwNTgHM084pEBz4FqgBBwvlseBCA9nKra/Vf61WcRKzQfL0w4OUAEp06edB9++KF75dVXdLkvoEEwHUgJ3rJli5oTZJRBDDrwpRdBDNjYeOZ3HW1SYqBjJCMxADIqCW0+sGKe27ZirioIZkb6BaE7HHvYuEQkdoj5tL++bVIRA8DBiFTn3p4Tu55rR6KTwajJYqoiAgVBKDQvK9VVFGRrXgVmyZWILwLEsx/gIMXh2tlzWXNnCG4WCmlx/yB8LoS+y+Rm5gXOdqJxqGQIguPq1X4xsUme6tdcCBQHPoiJMC8mnBxIEHn33Xfczh07NHnEzAmIAd/CM8884x555BFNEjGnDnIOdbBdTIg3955S2xunIxI1mYFSQDEsn1vmKotyZFCIzRmZMSA+wmg7jjS6d/c3qH8BSTtZwZ2EKBjwRHI4eBWTwswLwHMIA2dgcW6GDtL2C30D5kq8QRfEB4GjFL8Q50nyF7fR7iX+Bwu/44xEPeNjM6AoUM05ublasZz6lPwcb0wYOcCcNAJx3ldffVWXweLFNYkFGWBGPPXUUxq+xKlj7InzBzvvPRkkH4m0RoJOREcYKzC7kJ67srbcPbhqnqsszHHZGSnamejsOFzPtl/QRKA9J1rU+TiZicHAPWU2tgPCYB0HfQenpBIDakIOohwkJrHMm/Uy/C2P/FE8pwzuF/dG09Uv9alqwDdChAV1Az8w0KlxwSNjgMxfFASg//Ma6ihFzA/K5c+N5EvEGxNGDjhhaBSKob704kvu2LGjaoeZx5mUaBQD6+HJhvTtLlJq395Xr4OEhBRmmHh2gLFGTkaaZuCtWVDh1i+sVKII5LNTYiA/AxMC84kMz6lADD5Y/GWDrb6tS/sBTlqr1QDoGrQZ2ZaYGSQttV/oUR9EPLNCDUoSYuJg5qL6WJBGCjk9mPPnYMJjEiRJiqXfkIIl/AHGQ35+gVu9epUqaev/8cKEkQMJIVY4A7MC5oQYsMuwsSCGxx57TBsPpwwNg1zrvHTF7T3ZrKqBjECcP8lMDFxXuchOnJBLako0f59OzjVhPmHDHmhodbuPN7sDQhB45acaMBGCsOF1jcqod1/ahnbS9HJ55DlKi1WipKEzMHkPREriW2TOiRtUGcv3Y/6S0JaRMkudqiRxWS4E/RzzgqgF+Q/43ywHgr+HHAoLC1zdkqWa0xNv9RB/L0cE+BYomEHeOY1iioEGw2GD85HaDDSeobvvqubaHzl7Xh8tcSZZobOIHNjRq+aX6+o/A+2BA5KUXYgQJyThWWunqQgIgsmAlPifv39I/S8oKd8pC1EwCNdIez61cZEqMuR8dCg4XugRYiBlf9exRvfOJ6dcexd9PfgdEwOTISuJcbgT6jSgIhgXra1tusLTHPXxxISQAx28v/+KmhQsqsK8MBC+IeHJEp1w2hiQZ6REn27t0hlhIuTiWIJZDmcVBUdKWa0oUtmAzVzf2qmqgeInXDsSeSqDfoNcJ5rRfrFXU8U/OnRWs2JRFPQHBhxOQBa2sYJy/aLZbt2iSiVgDStGPitesNAquTeYhqTyN56/OGTBH2bzqlWrVCVjamhETq4V/wPJgRRQpiRivDEh5IAsvHKlX5XDkcOHh5ADy65Zhk3iE41kdhZsi8d634kWXV05GYATrbo411WX5mpIjhnOQHz/sHQkzAlsZ8hwKqsGH7QCaoGMWBbVHTrdrhmyyHgD0QvqSmxZUu0eXDFXl4pb1uJEgPwUiIHFcCSwYSIZbEKEHJgQ/cgEYU1KI55uOB15JX6YEHKgmCob0LS3tWus1yIU3DhIgVWXPBoYKAwQfAyYEpMhts+1Eruvqy7WpcCsvDQwq0CEKKRo2RxiEJAE61BYhfr+wQYNaWvqdQQoCNQYtRgeWjVPVQTOXguDxhuoQYrZHGvs0AVxBpztTISY0igIv3hPX1+va6iv14po7EjuOyzHGxNCDi3NzVpKi3RRnC4oCRoHhwvmxMqVK7U4qoHVb4Qumzu7HYVILYc9WQExEL5E+i6oLNJUYGY1A+ngJAGhkKwOQ4ibgZIixImC2Hm0UWdmFISupxE5b5mVLFzbVFfl1syv0MQkVMVEAOck5gXmIolSmskrDEd/MN8D0bmh5NCnzvqW1hbX2RXsih4vTAg5NMvF4mvw17ez/p16iFb2zF+V1iczJ1LsTNsFufHJm89gwGlGh51Xlq+dNX3WTOnIkV8KqOC0R8yJju4g8SfE8DA/ROO5bvfqruPqpMTpR/VqQ5BrkO5qKwrcxsVVGhGaCBB1QTEQmqbWCI++3wy1jBOeRVc+uMYrly+7jvPnJ79y0O3rRCr19Az6Gqw4BnaXX1OPxqOaE5KRlZYUQU12oBJYaTm/slB9DXReZg+uFVWEA/JgQ7tKZGaWECODQYfDlrwXVMQn9a1aFo+2xCFIkhQl6yDk1fPLlZSDsGJ8FzUxyDkn1A5K+Hx3r4arDaRKMzkSuo8GpMDu8JOeHC71XHLtbW0asTAQvoQcfHOCm45JQckzVuu1dQ11OiUjIAHi3KRK42/ABjZwraQLN4o5gVIiPh5idKDQDzY91bT+/d2DGtW6IG3JYigDKz3rqkvcgtlFrqIoWwljImBm8vmL0p895YBZzSQZK1X6upAKJgb5QfFCXMkBxyP5DT2XeobUawB4aYnz+vYWchGW7bjYp7MoySwQRjIDB1lJXpZ0zhz1oFuGH8DZSjHVJlFIXDd5DiFGB7oF/YWQJjkwqIdPREVQ+Mb6DPUh8PPMLcvTpDNqW5L/AGHHE0xw3N+ey9f0nA2Y0ha+jz4nSIH9Uf1SBuONuJIDiR0UtWCxCYfPgsR3CWP69haSC7usTUN5g3sAJDNYXjyvPN+V5GZoFWZ/GTLRGOpRtHZcmhTXOhHANMOBu/9Ui3t993EtD8gAtPZkzBE+fnztfCGJfDUt4h28wNThHDEx/PtMAiDjILZyuO56+3onr3JAFlG7gYtERQzesCDPnGSQIeQgv2eRFeGqa5PA1wAoSFojMxeViwmp0VmZSch+RGoSsw9WIIa4E9ClzAdB8RgiGKxm7fPyCjDlUA0LKgvd0jkloibGbkPh0cDM5ejyAowDohaQBCrCX6Z9/YYoBxk/NyYrOaAaWlqaVR75oFFwQkIO2FwGQpysJcAOx56cDCA6Qeaeb+9ybZf6gpqK2MyQYYi7AyYo9SAONrRqlqnVeAA4gCHnRVVFmvtA9mQ8gZJBNbCozlcOjAMIAd8DB0RhuC7mRF/vJPY56NLU5hZ5DPZ6BEgo1k9w0CB+ujTyizoNzALJ74iUxhalQDEXFloRvjTQcSm0yvp/OovXX0LcBYIU9C7NSiQ8jGPbT0FnleQSUQ6YF9SC8P0/4wmUQ7CZEGZF5MUIIAdUA0p6iHLArJDxg4KIF+JPDq1CDmJWGCAHnJCsb0dO+Q0Cw0IOOCOTXTngW6DzsWKQjpgya7AjshyZzDnKooXEMHYgyajp/CVd4s/6iyDFerAfUf+B3Ifa8nzdqMZWS443UMSoBjUrom446gFyuEk5RHwOk9YhSSooyuGy2E4GCIGS3BCE3xgAhmUlJsoh2ZOfsHNRDNlCDoETbNALRlESknjwtIcYWzD46D87Dp/VdTl9V67rpGPAxFg4u8gtn1s6ZOHbeIJ+fQ2fA2ZF5DUD5AAxRCsHSAFzfBKbFaSCBnteGoYjB0sIQnKzTNdPFklG0PEo/UbRUVQEnYCOQUcla47wJbI3xNiD9qUo75Gz7ZpI59fEoKIUW/GTkIbvgcVw3Jtxhdx4CGI4ExJSYCz454HagCDiOQ4mwKxoVZIwDEcORgykwWKb0ZjJDEgBRySPhs+FGFBEdFZqQhL7DjH2wF/VIwqUzNNdx5vU/2Agz4Ed0MvyMjVrlbLyVgp/vMCgRz0GlakjL3og5A8RQAgG/obx4auJ8UZcyeHa1au6rf61a4PMjQOSdFF/9ypAHJgFSNhmOJGSnBu0dDqrAykXZoAY2F6NLeJIEQ+TnsYHKuPFvid6QWIUIU7amn7FoMO0yM1K09AmBEFh3/EEjmm+M0ibj7wYAWqC5EBbkGjAN8cYmR7HlO+4kgO5DeSGBwU0A0AIOGBQEL6MYpky6cOTJYQZKIfcIcoB4mMpOlEKVhJGO6dCjC3YXpD1Fzh/+0SR+n2LhLQlc4rFvBi6fH48gL8pdUZQ/5IS9j4gBMYIYX8rZQAgh4zMTB0n8UJcyYELhxii5RLqIdoZCavjbfadR8kIpCNFT3FEstcj27kZLMeeGc33oocYH0DARIYoSnywvs1RsNZAanVxbqZW/sZxTB7EeAHlQBWwYE+Sm8mBZdkc/jiBFDIzhBxmTFJyYGbEoeLPkDROLAcM74EYkn0uhRzSZVbKyUjREuV+uAy/SktHt6qHZM/jSAZo/5MBByFTh5KFfAZ8ANwfiAHTgnyU8QJ+jlmiBCiO63MD58cRUzkIOWRkZsRMrR4vxF05+GnThliOFt6iTsio9yYbIIPC7DSVrdGAHIi9U7fBT84JMb5gvc6B+lYlCcxXPwLAwizCmtT1HC/ce8+9LlX6BXtw+BMiYUoUA4+MFX+coBhYuQxJxAtxVw4srfUvmsaJTQ6RUE/k52QFdiUhsujlwTQBPgf8DcThmdFCxAe0N9sootpIsMNZadBl3XNKXHkhu1yPz4pNPpdJY+bMoYu+iFCgGDC9/TECUAxqVkxqcohSDmZWcAw1K1AaAUEkM5COdDj2dTRwSfgYWGnKgitqRib7dSYTUKS0P6FNKkJDFgbyHEpzM0XtBatm8QuMNZQcZkUckl6fJ0IxXM0GSCE9YxKbFeiAaLk0rHLgvZNgwNC52NoOp6SB6ydUSwViiAGvecgN8QPtjxlHQtSRM+fcxb5BcuB+4YzE/0D16rSUsR+M+ByoYxkdrYAcyAXyo3mGmfL+zMyMya0c8Dn4XlhgysEHxBAoh8gLSQo6G0k2PjlwbaRME6oNHZETB8rFn6DiVh/bMEZeFDCZ43uYX1Goqm+sgc8BcsC08ITDgHKIRQ4aykyfzMpBB3zsaEVMs0L+x79kxowZKIdUkauDjA/pkfTEorLbJQdVWtJWzDr4MYiC0JHJn4CAiI746zamCog2sH6lOC9TV1myXoJaDexYvqq23K1dWOk2LJ6tVagpMrtOfmbRlW6TL/dI+5rX1QJyKNCFcmMN7hHp9NSxxMQw4Izs7u5W30M0gmgFPodJTA7R0YphzQp5z6RRDupzGKocWC9CuvTtkgOSlAw+OhcVlcvys11lYbaWnKNoCaThd7ipAq6bgb6wstBtXlLtHl41zz25YZF7dkud++rWZe4bD65wv/PoKvftJ9a6331stfvGwyvdM5sW66Y3BWJCaIjdm4ggBSWHcQhpUn0cUidr1idynJFUZI9FDprnQLRiMuc5RCsHADFAED70vcnODIKYZgXK4QpmxVV1jEXDZkGqJVOEls7++LoF7sv3LXFf27bM/YZ09C/fv9R9cXOdDICF7gvrF+q+kM/JQPjaA8vdV2Qw8LsHV85zq+dXaN0CJOxkIQ0mFJKIyEegFiRt88XNi93TMtjZvAaFwN6jy2pKtP0Wzi5UlVBTmq8l4khjZyMh0qV5HWVH2/itky6qrCQ/U2f3sQRkMFPOHfKB4P1JEdXQ1tY2ZG8Kfo8pkZaa5nJzcjSbOF6IKzlADCMph2izgvdFE0myIVa0gnBunyiH4cwKdWIKodCZ1y2a7Z5Yv8D9phDCf3h6vftPX9zkvvvsJvedJ9fpTPh1IQNmRn7/rcfXuP/0zEb3B09vcL/3hbVCIEvctuU1OiCCzWTjervHDQxkogoM7gdXzQ2u/bE17psPrZC2Wqgmw7KaUl1pyR4VrIZFWRFS5l7gbKSmBq9DMLR1sAhqsP9B5izC8kn9bsHHc+5kY3IemWms0B38TlQDu8FFk4NGKtLl3HNzdTl3vBDX3kLj+zcAQBg4YpBSPhFgB5JqzE1LRugMIddAoguP/sBUh6QoBxaWffrp5xoyqy7JdZvrqt3Xty1X2fttGdzMhpuXVGkpdTq37rVwi/ageel8eNzp+CtqyyKqYolbOa9MPydZ21QjCTLbrpfB/xVRTqgEfApcE2Qx1r4WnZwiz8cCOCIhojwx/+gT0UKOiuzNzc1qXhgGaqvmZMccP+OJuJMD6yh8KYWSoDGic8mxIRkM06PMjWSBzhByrQxUzAR/hoADr94IVgUiLUm4WVxV7DbWVbknxEx4ZlOd2sNbZdZfIZ2fmT9IvZbZfxQDOzBLRBbLoMEG37psjntkTa1bs6BC1QizFu2bLGA80J4QHmsfUAaPrV3g1i+qVL+ApaXbwGFQo8jIQCVkTBYkNSXJKbGDn60CNO9V/5b+dQA+I/B5jR090AeMHOgb/kDne2Iph1QxJ0pKS11Odk5ciQHElRxSU1K1bgNsaCDho7OzUxvGJweIITeLTpyc5MCNZJCyxDb6ltJJcjNS1BZ+dnOd+4bIYXwE6xdXam5/pgzsMesHnIe0YXFehrtPSOILYp8/sGKuevSTBUwQ9AfSmmkr/AykpM+K4bmHcKlUTop0Q+sFLRHHSky26991tNF9eOiM7qu590SLVvo+1ULtzl6tG/KZZ+Kx6I+Vm7frMB4JEJyZNf6ycDO38Tm0twebSxtSU1NceVmZmhTxRlzJgfXo7GiV4pED5oSRAw1kQCbCsjiegspJkV8kCZC4Sg5RtizgNWb1xdWBWiC8tkIkP8VgdFaXazZggjC7YYKQas16ADbYZXtAYvR0fjbCofw6xVT5HfF7IiH8Hd9M+7GjN064VWJm4LDDEadmipxjoiM9ZYYqhiXVJdpeOBRx2GJi0T7UZuB62aPiRNN5LSi792SL+/h4kxICZLDjyFndE+Sjw2f0kZ8Dkmh2DW0XNEvSL0UIKaA4WMk5VuA+EKXIE3LARDIwQZL8BDlw+BmSjJnSUiEHMSvijWnf+/73/zzyfNzB/pjHjx93ly4FjQBwsFBclt2ulixZMqAqGFzkvH9yqkW3h0NUjKXEG29YuBEZv0JmPMjOgO1J52YJN6v/UuR3wxEgbUDHbTp/0R0VIiCj70B9m273tvt4MBuy6e5hef2UkAW1KIMQ6afqDI1e0wEZEJ6DbFq6Lml2JvI6kWG7ZONkpKQbppURLjM810sB2Q8Pndbt+N/ee8rtEWWAYmANxSn5HSrijPQjCISdrqkGxW7XjdKutD3VwHOkXXDcAswOkqMoDgMJjwUwfYieLKgo1AiS9QmLUrz11ltu7969Q/o5O2+v37Deza+drzvQxxNxVg6pYj+VqOfV4CsH36xAgsGu6SmzdMnztGnJJR3MrFD5GHXqXBuqCHlJFIM6hvR1Yu0MVErGoQg+Ptbk3j9w2r3zSb17b3+D2y6SmBmP5cYQwx6Z9Zgh9wmBsoHsbqTzsUZ933sHGuQ9Tfo5VpKdPoevAZuXVYf4OTiHRAUkALmRy7G0pkT3t0R1MXHgDyBXpKnjoioEVMDhM+2qmmhM/o70Z8KRDEQ2scHxixpg0yAUGETBAfmyzoXPNHAvUF5juSAuUA5iWotJ5Cs2VENTU5Pr6em5aQJMNeUw2c2K9LR0V1I8lByQUB0dHeqp9c0KQCdg9iVPgAGUTFCzQjqymhU3eR1iA5XQe6VfBvQ59+bek+5f3vrE/c+Xd7r/9foe9/MPDumAhwzYC/KszHxqPvT26wzHsu8mUQ2YGNjVv/zwiHvpo6P6OQwAZLLvciOTcM38Ci1wkqhgciD8WFWcI2ZQoYYWDWxAi5mFCfHi9iPuLVEL7KwNITy2dr770n1L3DcfXqkHfgpCvjh4i+R6mcEN3BkGKiqLe2awbfXG0ueAr8nqeuAHMkAKjY2NukVkNPDTqc9hAsyK+CoHIQWUQ5qQhAFyQDWYrRWtHiAHFi4lW/htQDlEVEEsmD+BTs0s/8aeE+7f3jvkfr3nlP4MCTR1sBszGwn3a/hTy5nLGK8qyVUHI1GN33hwuSZHPScD4qmNQfgTLz6mxfHGDnfs7HmR0V06axpIwsHvUCokQRv7M1migDBwuagGZv50keDWB5jhL/dfc4eEGD4+2iQqoFsk+nRNfMJZSdo06dPzygqCo7xAHbCopRIhB7+2ht4n+Vyu3/cN3fg0uDdjVWcDFYQvCd8P7T1dVIQBcjh79qw+Giy/gcVWefn5MqHevC3/eCOuI45CsiUlpUOUA4tMjBwwMYaQg9wsbmR2emrSkQPnzsxHxxtOOdDJGbDYv2/vO+V+9u5B9z9f2eVe3XlMzIRWLWdG2M2XtnQyZj4891/assT9/pPr3B99eYv7469scf/5S5vd//b0BiGK5e6BlXO1E56Wzz4kchuS4LMMmDU4QBl4OdK+voMsUcB1YkpAYH5IG9WAzwQVhTlBZenygmz38Opat3lptSZHQQQkOukhiqMoN12fl+RlaLv4UOUghzdetc0p4+cXgrkb0A/wZ/Dd9Gm/P5tyiCYH/HGspyDCh2My3ojriOMCS4qLhRwGLxQbi4PSWJgX/p4WGtuWxqQjJ+LMNhK4+WTA4S+5R67DB6SAEw1l8LJI/5d3HFUywNfA73z5Hw06MR0MG5rEKZ7bjIdNS50Afre0ptRtWz5XSQKnI041Fnv5Ken8GYOKLeGwhRMNSG8kOI5C3+fE5j9EZXhEQVyRQQzxUUC2T9SV5i1E+hWmGqtfIdpTrV3uWFOH1uw0BApPZmn5riFmBT4HyMEj5rsBSo0wdawl4JgTp0+fHmJWoBrYsiE/L18nhIlA3MmhuETMClEOvoTjJhLbPX/+fBR7RnwOSWhWcO7MfORpRHGDdl7KwxFnf1MUA74ENl0hNh906sgbY4BBglORhCBCYpoHEnk/Ni2/K8hJ17Dlytpyt3JeucjjYM9IHJPB/oyDX1BWkKkbytLGiQaIkMVlEJc/cLkOIg48QgzIf/wu1GfA0ci2gqSmQxgQCK+fFFIgzEnlab+4Cx9rysHvk+pzkM8dK58Di+KIuvgFhrkPppyjlQNrKIpkIs0vEHK4d2ImxriOOMKUBQUF6piMXomJcmB7fp89p90ThANRDsmWKUmnYsaiboPvBQcUeCEEiROtWTo5ji9/wI6EK/3XNWkHh2R9S5f6IujI/t/zFJJhUyAGBwOFR3IjmEH92P3AjOaFWhMF3HPuPTLc7ysoIIgUUjBACq/tPuH+/f2D7qfv7HdvStticry267h74YPD7pfbj2iEJzpsCyFAqEE+zSA5cP8w+caKHPKz0zSd3Q8ts2wARzyTIslPftr0zJmzVGUX5Be4aeNcKn84xJUcbNmpbWLjr8SMRQ6qHNTnQLQiuZQDA5ZKT/3SwXwpD5D5+BmIwTO4b6cSFDIZe5vMPkKZJD9hjvTJd+GspPNDBkQy+I5TLR26pT9/w2xLpWvfjsb0IQowHmsT7hacD+oLye+fGkrIzAdDd98Vd/j0OSHdIPxrYd/th4NHwr2YIrS1Dz4WcsAf4BMQ+ROYLGNBDnwHCogcDRLPDJBBS0uL9ntUg79UOyVllisvrxClXaxLDiYCcR1xsDRHZlamKgh/hRlmxU3kwHtRDjK7TffSTZMBKhmlYw2XYce1TaPH3+F4PHKmXX0Vr3183H0knb+t65IOkI7uXk36Id+B3Ij3ZKBAFJAKj53dl9WhZ2Dw0ca2biORCALfC1mLSmYeeTJpYF4NNU2DNu/rv+paRUXsr291Hxw8owRMXgPXHwt8FsTIoPWVg5Iw0aFh/m600D4vpIPvhLobPjnQ10kKJAEqGqjsquoqV1ZWPjXIASg5iHooKCx0szxyMOXg2128l85L+izMHoSbIr9McNBZrWNHqwKui1mKwXin14PdzLZuxPmZGd8VInhr3yn39r56mTkb5LVGd+TsOdciZgTZfsyYKIiLoip8MwdfDjMnnZaDwZIo4DxxCl6lGrPHDnbO/mA26Iwv1wsh2P6jqKlo0w7w94Sa+axoh6QptLvdopBwLKYbmbD4Tvgeg5EDJoWBvqGVprOyAuVQXDR1yAFkZWa5IiGHFK9wRSyzgnuF3cmsRseFIGi8ZIApB2bpWNEHOjhq6E6vh0+kA5PgtFOI4Mdv7nN/9/Iu98PX96h9jazGv2D+CIiKhCk6fPRAYZBkiHpgH89EigqpaSYDvf8qGylHXhTghA1m+rvrvkHfCnaeCtLXPXK4znqWfmnju0stz0ib6SoKs5QY1DntnTN9/dixY0OUA+eAasjNydXkp3x8Dp75HU9MCDkQu0U5+GZFLHIA3C9CTXjnceYkkuwdCfgZUA3RkhhwCchiEmFGmz0ZCzrohSDwyqMkmC1xPDJb8ppvX9+IrEEg5ZhB50N9OwOO3wnpEjFBAhLkEF26n2zGsaj1gROSik/0r+huRdtBpNE+itsFSU/BgroUHfh8Dbk8+BdwRhLCJIRvQCWUlJS4ytmVOk5QERM1IU5IT8jKyhTlUBSTHHyzwkAnoHHpwIkke0cCfRnlQDGXKG5QMFMFNn7khXEG59ItMyEdPlhnMXhWzGZZqaSpJ1ayGYNInbpR0RxqIbAm5W4jWIE5NTQhyRD4HO7erEAx1JTlC/EO5pH45HDmzBldW2SADDAnqqurJyTxyceE9IRMMSsKi4YqBxoL1QA5QBR+eW7sQg1pCTkQ3kwGBFI+MCuiwfyBatDsyTjNClAUKkajGUISfkhvwPGrUaFEMivIIL0WRHw8uwK7HT/UXSsHIQfUaCySgRTU53CXyoF1QaRu+3kkON9RDCy2IpzpEx/kUFFZ4ebMqdFaDhOJCRlpWVlCDigHr64DZEB2pB3+mnY6gZFD0igHOdSsEHLwb75CLgGzIrBzI6+NMzgFBhu5AZgXSHWDmhWEjBMs2Yz2owhLtFmBOcCgvtvwNv6GDFEg0Z/DV+FrQDncqVkB6aMMUQ5U8iLT1+CTA5OiXRt/M13IobKiUpUDVaAmEhPSE1hMUoRymHUzM7KpBw4aPyEEm1DNCk2GSQ5ySFRADhd6LmuegIGQKo4z/DqJFDKGzMjfuBLlkLTwaxC9uvP+gINQlYN3zSgUnLcoByIld5rnwGfnCTFQOwNHL34SA+TQ0NCg5OArZByPqaKmy8rKXKWoB19ZTwQmpCewwgwvLLIJe9e/wUYOPBoGMuVQDnfRGeIJzhIiC8436pylo9MJb5UqPR64Lp2eqAWOPgNrP/D+U57OXy040UB1QWKc6xDlEPEVMLDZrfpOoxaQi+Z3eH/PPUEtYE5gFkYnsI0WfC7L4UlxJ4/CFBnXwcRn5BBd9Yn8H9Km8/LyNWlwIjEhPYFQTXZ2tq7OpAGiyYEim0PJAbPC6vwnCTnINSFXOfdYfKZhTumAN5kc4wxmRWxp3+fAuTLg6NCJ1L60EXt7UMbfH6S0KQuYyOykfoOfO3A7gLi5Xr//GTmgWu4GEFdVSY4mP/ngftO3MSuoNO0rBxZa1dTUaO0Gohb+eU0EJoQcuHDSQ0n0wDnpJ3nEUg7mkMRuCwZb4hMEp4ji0fONvGagg9Dx72ZmulPwvX0yExPHN3B+DDAIghJ2iQJm785Lfa6rhwVj7LEatBWDGtlOHc6Kgmw1M+4EtD2HT9C0BWr2bjkSExhHpF+gxorIEpVjPQXP/QJHKIZ582p1TCRCH5+wnoB9Rbnt/Py8IfIJyXWzWSHKIQNySHEzhUiSwbTgHPGVcO7KFB7oigzSa9Ix4swN0hk/V++/72ijI5IIFCTpJE7bQmCsXiXtG9PCj/xAvGUFWbpeweo+3i5wePqkAyAGSPJuw6T4b+aXFyqBGVAJZEOyAtPql/jExEKr+fPnq6pOBEwcOdwrakDkE1VuCN8YCGVii/l1HbCJUQ9INWQaj4kOBhw27XDKAXk/EWYFdjwmhb/mA+6CdAPlkDjkwKCFINgi32o9GmjX0jwhhyKWQd9ZopAStNwDX73BjXw2R3TW5GjAPadGJ+ZOYW76kL6Kf4Eiy0ePHtV+PkSxyPcUF5e42tpal5WZGKX7JowcWIxCimh+Xp6Qw2AD0mjRa9u5PcxoZMWVSKPDyomOgBxIkY69HkTNihvxNyuwpZUcfOUg/wbMigRSDrQM50uthoa2Ll2mbVByyM/UkvWpKawojfziNoASgXz86mPcN9LJCUPyHbdLligwiIHqVeaMNKAUTp486Q4fPjx08pPvUHIowayYp+Z2ImDCyAE/AynUFH+Z5RXAMHIge4zG9G8cDR2UNUt8cghmIFEO6gkf2sHgg4AcJkg5yICAmAz0f0jBBkSsBU0TCfIN6ls6h1Zwkn/M0jipqXxFgRvO/XZgyiGW85H7hi/jdj+TzM2gXmWuql2DJfmhHCAIP1Sfk5OjpEDWMIWQfB/cRGLCyAGfQ2FBgeaR+zsHm88BcsDv4Htz8VArOWQkXkmzaDAT0LE4oicfshXpmBxx5gbPrBia3MMMaecbz+Ss0YDiLiiH80IOgQMxIDTOlf0/KHWH4w9yux3Q/uR9xFJvJKmxovJ2iJJ7Tkg42Lw3W5WjgX6NE5IoBZMfuQ4G9m1ZsGCBTpTkNjA2EgETRg6wI41BNpif7MFMigeXxSg0ou+YHFAOXipqooKOgsRUcoi8Brg+bGmcYbpiM0bHHE8wSVKVOtZsyXkqOeggSxx2wBlJqTeqcLPWgvM3UDNzdnGOqofbzZhUhyQ+h2GUA5mYtMdoYPc7O32Wnk9QFHfwb+nLn3zyifbr6C0YSsvK3PoNG3SiTCRMGDnAjlTVxc5Kz8hQpyQNzGDhoBFZlOLbZnilqR5M8RdmusTpvjcjmIkDctBpLgJmKWZvDjplfKkhGPK0s3dKA+BclKvifVK3AKnMF3r6XcclmX27hSCELAz0CSpNox5u16GqZsX12EQJQQal40Y3RDDLyIREwZD8RHTNX55N6Xl2s2KRFaYyfZzfM0mWCimsXr1ad9NOJEwYOdAwlIvDKZmXm6fP/caEHJBgPjlgA9L45Dxw86KrOicS6KMWyvTPMlb4LJ6gszOgmOV8mKLBQcdsGrBEYoBT4fwuCDkcj+zgZaBPVBQG5KD7Z0Zd10gwcvD9WgbaScnGm/1HAqqloiAnso8npQWG3ncmOiMHAxMkiYDsaLV48WKdLBMJE0YOzF6oBVQD6oGG8W2tWOTAQMPvQDKU7jEpNy9RwfVxvkoOXi+hQ+KIjHeUwjBdbGlCf/4g4lR0oMh58agzW+R3iYTOnsta3YqaFQbal/7AnhQUcM2LykgcCVwvRWRjOiTlczFjR2uq0J74GXBG4newe45vwUxkUqb9/kxFNPbCZBVmsJwgsXxpE0YOBvwNFeUVrqS0dIiXlgaNbkwGHIxOMhQ2JjNFogJ5S4ehk8mZBy8KbjA7D2PnxgOqHKTT+8oB44ZzCvZpiL+pM1pQ//JQQ7s+GqxPUN15KftpioIYLTBXNLlKCDEa3Dtdsek5FUcCkQnICXLwK3mT7GTrKOjTlCMwEKVYtny5mz27SidGXzknAhKCHNg9mOwwnxyo5U9lXsI/JI8gKw1B6S1kZOImQzFz0GHwO9gsAswJ9umEKQfIISiNZqBtIQY2k8UXkqig1D5b37V2XdKwpq0PoX2p01hXVRxstivXNpp8DbJFIQhTTH4fgxS0SpSnZocD/bAoJ13VC8rFV2VkRH788ce6XojIm/8d+fn5bsWKFUIOs5XkEg0TTg4sUS2vKNfsMJ8cYFwjh+h8B/LWsTOJcScq1GySTqLk4CsHyGEifQ5CDsxs/mIl+ivl3tkgZqLMndGAWZ50aiIX7PdB6XgD4e3F1cWaFAXxjWYWhggx8SCIwNSL/EKgygFy8Ab6cMAHRip3YXb6wPofA6Swfft27cvRyM3NcytXrHRVQg6JiAknBypQV1RUqt9h2rRBcoBhUQzkPLB6zZdjATkEDqhExWDegBCDNynQIdWsmKBBSIiOTFPSpQ2qHK4HymGiSOt2cKb9om4fSDVtA0qBtSFkTS6vKdWBOhpwGyhgC/H4ExAEQ/+KdtzGAuH1hbOLXJYXYidcSZ+FFCyEaTC1PLtqtissKlK/WyJi4slhVrCzT3FRsWZKGuMbOSDLosmBSsnYliiHxBNjAQLlcHO0gtwGEpAmahCqWZESrRyMHMZub8jxBFW1KcnfwR4cEXPAfDwsdGKTYWT+aPoGJA0pXhEV4l/7aJSD+Tvwf7F5LwrCgNpF/dJ3KT9PUp8Bx2OlqAWckSwfSDRHpGHCyUHDOcKcObm5WuiCkKYBGw3lgDPHJwdkse6WLMyOTL6d2Ha8wCkFymFotAI7l0rQE6UcArNClINHDvAUxEA5tmRQDhd7WYh10TV3dut6C5SYAbt/9fwKJQkNd9+ib0AsXPtlUQ9+1CIgh5FDoygVchtQsTgi6Y8GyADFQAiTSc5PfCJ8uWTJEldbO9/N9LKDEw0TTg4oBdQDFanZnp/6kgbIAZstmhxITiERCvsuY5jqwRMNm1U4fLsC6Qo50CknAqocNFoRw6ygHFsSkAPhR8rwnxXzgi3+zDEJqKA9tyxP8x7ysoK9IkaCkUM0MeKIJCQ5EjmgXFlDwXcV5mQMqSvR1dWleQ2QA8Rg95vJkCXZCxcu1MIu/orkREPCjKrMjEwtqol6MAynHFAK5LxDEMWiIFK80FGiADqAGKK95igG5OtEkQPnpA5Jr9NzJgNmxQSd1+0CtXCyudMdOd2uUQwD9SBZ/ETWJH4AX+rHgqomufYg38EzK4RE00VhjZTnUJKb6dYtDFQKfdJUCveWdRS7du3ShVYGmwgpU8DS7MrKypAcRgNMC/YGJBnEYGssrGycHwriRpAIxQ7R6YlIDhCYdCwGY6TPKAbJIfJCnMD5oBqY3Zjx/FluYPaMGiCJDKIL1HhgX1BUBOfPdZgjmPUNy2pKXX52+k33YAjkPqAYOPxbQntB7DbgfTAxkT2JI3L53LLAvxF5G6Xm8ZORwMfqS98RiWogRRpfA9E5VHKi5Tb4SJgzw9dQVYVyyI+8EpADtpttdoOTx59xiSkzQxCPTjTQWehE0crhc+mEE6EcGDR0aOxoKiJjWhgYGBADu2R99mmcWesOQRueu9jjzpy7MLAnpu8zqBK5v2peuabbj7jtoLzMLVIiiLwEuD/kpMTyDRGexlnJxFRXXaw7aBuYxHBAUtAF1esn8VHxrKZmrpoURgzDnlcCIHHIIT098N56yoEbhFqggTEtYGTfsVOQneaqSoZua54ooKsxY7EJj9/t6Gwc8R6CVnORwQJJ+EuRGWikJJNYxKa1yQDGLDUpqA51+Mw5VRCoCQNp9vgB5pXlu5qSPDWlYoFWwK9AZMkfqESVaItYSgpTBZOFiYnvsSxK+isRit27d7sDBw4oUVh4lM9mnxaIYdmyZVrtKZGJASQMOVDkohpy8JQDoMGHK+VdIIzNhiEJme8g931AOXh9gE6tEpYncQSVpfGqkweAv8HvmMy45y726QyM7yGZQHXqT061uKON54acOwOeSML8ykK3qKpIS9nHAu3Ae3WRVRRhqg9G1EM0UKwrxJygfmVgsgz+HZm9O3fudPv37x/qJ5P3kfC3aNEizYpMlGpPIyFhyAHHDARBSikJIixKMcDAp06d0mWvPjnQ4XFKUlcSqTySZznegADoXKxy9ImA1GXWhsT7XKl7UCkzXXSdAZx5KAY2uuF5rMGQyCDtu7WzZyByQZjTAAnOEWW5SGZ5VCYEED1b8yPvI7Trh8Rph2CtyWB7QPaYY4RLF84u1LY00C/xM1ACjkkMBeEnVVVUVCgpsMgqI0PugRctSlQkDDngrCEZBLOiqrp6CDmwsg2vL+Tg+x24ocSWyYaDIBKLHD5TOz5wlEVeFLBcmhqYo8m8GyswIJDVlaIcMC18cqA+I4qBZdBkCcZaoZjIIGpBrkPjuYuuoTVwThrwDaCW5pUX6HXjiPUJAGDyqXKQwTqEHCB3IfYbng+GNRukaaO+2By3wMvCpF/SRw8ePKhZkZjCvkmBP23V6tWurKxcN6+hvyc6EoYcDIWFBW7p0qVDQpq2t6CV1/IZmY7Ojb+b/QvGA1R3ZsCxs7U/+6QLmUFknGv0LDYe4DsgokxRK7QTqxeRwgZUA/UZ2egmmUERmB1HGl19a1fklUAVcK2oSiIXZDFG5z3wHshBlYNnVpB5Ga0cWKW5WEyUWiEbdtrybx8mBElPmBSoBgPtj0kxf8F8t3nzZldcXBT5TeIj4cgB5bB0CeRQGHklYGVCQjgkKZbhl44bIIfCnMQiB5nRkOqX+vrVxDBYKNGWTUfPZGMNOjzJYgVCSEFZ/6G7hjGoGFB+rkAygi3+jpw55063dWnkwvwPdv34HVAQRLZ85WTkyV6WQ5VDUIgX84JXIZnAEVmoBV18E4X+SN8kQsHhRyhQCUVFRW7u3Lla0CU7Oyfym8RHwpEDioHUUj+kiVIgakFY88SJExraNBg5IJnvdHOT8QDrJ1Q5QA6eXRHEyIOqyZlpQzvqeICFVto+RTlKSNFkhCSneGuPt7FuMgLzjRqT+B5ONHW4i0IWBtaSUPSVzElMAT+MS2uocpDDV3LmcyBqweuQOuSKaiBKgYlhIA/n0KFDqm6ZvHy/GMSwatUqV109R4lhove/vB0kHDnga5hdVaXKgdwHyyCDIPAEE0MmfmyA0W0TEQZcLKfTRMDCbBp/l45m4NzojIXZQa1Bf/fl8QBhtgrpzMx2rKkwYKvj6Ycczl/ok8E12KGTEcz0pEA3dXS73SeaXfuFwU1jSIXGz0NeAiFIMhv1dbkPZNcy8GOZFXwejzYBVZfkuWJ5xETzQ8H4Gnbs2KG+BpKgfF9DRWWl23LffVqzAWJI5KSnaCTcmZoMKxLbDBXhl63Hljty5IgytYEbCilgS2NbIhvHW6qPBpgV7PHIDBasHIz8QoCjjI5KGNafxcYDDAC+B0lNTN5ALQQGEA68S5f7lcwmA1o6LrkPDjZo9iTkYARBnyDvYd3CSiVKAClgctAu0SYePqOg0vVnMkFN04VVi6uLNNLkEwOff+zYMffuu++qaWGAGCACSOGhhx5O2JoNIyHhyIEGDSryloqdNm9I1AJyQDlADrDzwI2Xm8WsyNLZwpx0x54DE40glHldQ2stnZdEQQyG2JjNkaZzy/M10268yIxIDuoE73qhkKevUqiFcPTsOdcpygHPvLVlsqNXSI/Q5pn2C+60mBj8bGBgQ5IkzmEi0F/KxRwNaj4OvQds/d/a1aMkr4u55F5hUvgJdyhZUqQtzO77GsiAZKMafA0V5eUuw+vHyYKE1TglpSWaTeZvKkpVKCMHf6UbYBYgbIVkZGaeaOBnoOITfgc6KrUHDMzm1Buks2l4TchtPPiBHBCiOBAEITh/EVHHxcvuQH1QE2EyAT8B5tyZtovuWON5dQgbIGLyHqqKc9RMgKCri3I1CuGDbkX0hvAoCoLVnWRazi2DHAbVF05yQpeYFagGP+mJ+pBE3dg1m4VW/t4syYLEJQdRDuwClOWRA4TADWDFG45Jv4AG5ECJMGbJ8Xby3Q5QDodOt4vc9cJb8g8bFzPIHFyjqVV4u6gozHJLakq0vqIBlUBJuPaLverdp6LzZMRpIeTdx5s08xN/hC+MUAyb6qrdsrmlbk5ZnhYPMuBnILxLu7DWBJOM90Imak54LI4D8rXXXtNl2T5QIWzYtGnzZl19maxIWHIgHlw7v1a36SdhhAbHlCCsCTlEV9ehxgN1/NTJJzNztEycKDBzId+bxbTAfkVRcGqoB2bzBRWF6uiC3MbKvODa6cjUGSAuzwYrBqIozIr4GwhhEgKcjICMDza0a4JXkNw16FNBXa5dWOGWVJfclH5P4lpb1yUldUxDfr92QaX6K1ThyXuInFlK/3vvvafVngyWzFdeVubWrlmr64WSFQlLDoR9yCYrKCxQ+y26bD0LW/zlsDPlphC1IFSFk+lWRT7iBZxa+Bywg21psQEbePm8Ui1rVpiboSG3sQDkyGejoli6jJw2QFbHGoWsOiCriatlOd4gGoOf51Rzh4Y2/WK0RC4w6zBDiT6Q0GTovXLNNbRdUHNiXnm+ZkLShr45YYVcSJWGGHxfA1We5s+fL6p3oSsqLtafkxUJSw6wb15erjomCwsLh8SHY5EDtRNwFiGhCRMmymIsOikRC8qp17d2ykzt7dbEPo9iUrA4aKEcxTI7jYXioR2QwazAzBfC9B2RmiwkSgav/mRyREYDlYZTkdWa7JLFTt12rag0HJKYdUwkqDh+g1Ig9FzfEmRZUquhuiRX64YQIufvMW3xL3z00UdKDjglCV8C7h0O9LolS9zCRYvU7+BH25INCUsOgGrUlbMrdQ18atrgTkbmCOKRG2Y3nXHFLIk32s97TwS0inr48OAZVREGzAhIjRnswZXztLQ65sDdmhc40BbMLtQBQIe1T6OdcJCyxJn9HyY7tFqUDPRDZ9pjhpR9UGeD97N0/YSojVlCGNtW1GhynQGzFp8XvobXX39dycFAOxNpY+e2dWvX6bLsZHRC+khociABqrJyttbaS/Mq9JKuSsIJDI7Eww9hQDLOryjQlXOJBJKNDjS0ykzWpXsv4PgCEEGOnDN5/+T/r6wtH3B+3amKyBW1QLIPjwYGBklPZBFij09WX4MPlBEp7OQ8EDEy52QsYO7xPkw/tlkkqY6sSt9fQ7/D14Vq5RHflwGzt6ysTJ3oCxYucKVRO7glIxKeHEgimTtvriZHGSAD7DzIIXqbfgYaMzDOyUQCu0SfaOpU52QQYhtcy4DMRemsmFfmnttcp0SB1MU5fidABvMZPBpYawAp4aBjFvV9H5MVKCUiMwz4w6fbdYEZ6iAWWFtyWBQGJM7kMqckTzMh8d8YcIB/+OGHurgqelLCfFi0aLFbs3atTmj4yZJh5eVISGhygHmJWrDpTXbEfmM2NduPdfNm9xmo8UAiFGvtccglSpUoZiwGKJJ1x5GzGkPHScbrXBPhV5aeM+NvWDzb3b9MJG2RXLPMYqM1MyAUOjRly1Af/rVDBnwnZg3nMVkdkdGgrxCdwbTA10LSVyxiZA0FPgrau25Oiba9qTf6Gn0Mc4Kt7cjSZXWwmbNaNFbMiZUrV2qEIjc3d0Ri4O8wUfBVUP6Qz+7q7BzymYmAhCeHwsIiLf7CVv3YcH5uOuSAxPPJQfMHMlJ1cOCRphpQIoGKye8fOD2w2Am5byAhCs/4lqVz3FMbF2vSjS6WGqWEsNwJVAhE46dmE6I7CzkQpZgkqdKjhaqC0+c03+ScqCc/cmFgTBK9wUG5FHLwfA2QA/4tsiH37NmjOTa+akDVUjiWeg2r16xRR+RIsMkNMqDv8tnt5865y6KA+V2iEMS0733/+38eeZ6wIDOyob5eGvKCNiYNC0xFsBSWMt8QB68BElgos46DCTmdaMAzzh6NpDizmhTlYOeOUiCSQWiWCsd0WGaxK5F9JYbrOizLxpxYMqdY04QNqATyGnCInhTlgu9hqigHH5AsOQ/kxLBdPq1tbc7/WYTFpAK56h6n8iL9CxP2zTffdG+88YYqVWZ7H7ocu65O06RvRCpCHT9x3B08eMjt27fP7Ra18dFH2zUn4q235HNef8O9/tpr7tfyeW+//ZZ7//33xFz5wO3auUuOne7I0SPuzJmz7vz5c2oycx6cZ7zL2Cc8OdAoMGxnV6dKL9SCsTav83z58uW65wXyzuQcN5UBxmxJKm2igDGJWiBkRkdlwZgSBAqBYrTSETAPCMUSxcB3wlqMz2Wyv3z1mhIgEQ6WYt8Tkb0KeSyV966cVyY2c6GSCqAdSONuOtft3t1fPxDDn4q4eu1TdUpmp6e62ooCbW/LpsW3kCfkCiGz0Mqalf6Fb+vf//3fZWC/pbO8vyQbzKutdXNr5gppCwnLe3FWHjl8RMjhgDuw/xNRG3vdx7s/djt37FCfxfbtHyoZ4LvYt3evFomh5uSBA/s1CkcfP3+u3V28cNH1Y2rIhEAoHz/GwP2OA5JCOaAUWJp9QRprv5gRkIIB0wOzAymHrWeOS96Pzd3Q2uXOnr+oM+5wnuqJAOeD7csCKEqRMZgxCzhvQB/gIK0ajzkpvyz+YV0A+QtEZWx5OoQDafA7/BWYJmRfAoiIAXG8qcPtOdGsaykSRbbGG0bMliAHIUMICmlH2pLD9/FgSuBngBgo5OIvyTZc7b/q2tpa3UkxN1AWR+TA9LCiyPyOOg8sHCSzks8w9euD+0L2ZZ+8h0jImTOBAjl8+JCSA+oExIsgkoIc6PiU9Ya19wvL0sC2wQ2/o+4Dx5w5FNQQuSiNx+ybOmumKgc89FbPMVEAUUEKdFb8BAurinQBEKrAYNdBBSKkLgSB0mDgM/vxOtEZOjiEwWesri3XVF8iIICl2Dgi8XWcbOlQ59wU5YZg8EVUE6FkwpXl+UF/gRB4tIEHATCAqdMAMeBrIHweTQzg8uU+7ZvUGbEQO4ObiAaEgFlipIDqiPUZwMiB92I+U9SorbVVI3JsgrNixXLp79PiVjAmacgBkwHTov5UvTY2fggDDY6zkuq+1IKwG8wDYTsqQBPO8isTJwJwQBI2WzKnRAc2dQXs3KPB66gItnqjJH+F2Mz6tzWlbpUQwtoFFW5ZTYkrzcsa4sQkMkEI77SYE1w/aysYIJ8hgqcoSbAMm35Bdiq+B/wL0Yv16FMkPP3yl790L7zwgg58y4SMJ4wwysvLNI8iNVUmh1s4PMcKSUEODAzMh56eXrHDLrgLFy+oXAM0HjcScwLHJKXt/agGA4ExwOyJvE4E4Fxk1ieasmZBpe6ahFmBSgA2a9EZ6RhcC+YGAx7bmMEPsaAgyIIkdIty4OfoikaYL33915UoNYqTm6l+DB7V8SafR6Uq2nGyOylpN66ZQjtVJXna7hAEbRZNDnYP8AewJJv+xwSFU5D+6M/+/Iyvi9+T9k8KNQoWM5fUfyIZDGzK07MQi6Q+aj1QkoA+y8pNnJr0Xf6e/mx+Nb0v8l2E8vldsUx+5fI58UBSkINBfQ9yE2BxQpjAmJWGI2JBvJlG5mYCPNPc/GONHa65I9hLYKLHADtck+K9Ym6p27ZirptXXihmwOBKUiMG1BGzF53Orud2ARFBGhARRVZZL7Bmfrmu58A3ATGwGIvkIH/HqMkGmhbFRR7JlqXV7umNi1xtRaG0TYoSg7W9wQY80QJzBtLHuA/0Oe5P0Jc+1/dBGryHvgcZQAQ4ySEBCIDaDtSSXL9+vVah3rZtm3vkkUfcF77wBXf//fe7jRs3qurlczBHOHzwHVcuX3G18+crqcQD9/RfvZY00wWDBTvsxz/6kfvv//3/U8ekFdjAKfnggw+6xx9/3D355JMDRWKw7Qln/uSdA+69Aw0a5yfMOVFgxmeW31RXJaqhwi2uKlafA6CjcTBbUbDUitow25SUlGjHg/w46LB3QhjBdzhdiETEhNAmqxZJEGpovSDmV+wkoWQG621IamJxGynqlHxjQRUL0qIVgw/aCqciVZ4YrPgB6IOEMjnoe8zykLephlsdqFpUrv8a9xilwPcQ6fjVr36lkQy/upQpkT/8oz9yv/mb39DVnuPte0gqcgDcsP/1wx+6//bf/qs6gaymA1IOpn7mmWfcH/7hHyoLG0iCeWd/g9t+6Iz7+FiTpshOFOik5CJ86b4l6ivw11AwE3H87d/+rfuXf/kX7Sh0Pqpxc9TV1el2aswcOGD9lPI7BeSJ/f3m3pPuQ2mfQw3tGkGZTMCMelAU2vpFszVFHfPibmD3icmJg3vBII9WH3cCHJgvvfSSe/XVVzW3wq8VAf7Lf/k/3beef17VCUplPJFUZgXgBpzvOK+M2iMs7i9+YSBh4yHjGDi2Kg72w/amhJjtaxBv0CGR9xsXV+lqv5rSfJeZPnQHJgqVkmjz61//WusFMFMhX5mhuE6Sa4iD40Hn9yTYoDIIt0GSdFg6KhJ0tODb77n3Xk3EIsJxUdqGyA5RDog4mYEqKMnPdIvFlNi0RCR+eYHWufB9MlwjeR/UcaACFNcepKwHOSfDgX6ILwj1hilwO20+ElAREAQTH/3BL2gEcExmZWWrihxvx2TSkQPo778qN366a2xsUtkHaFRCQEgv7DxkGPIbcCPp+NjVbLhKVWjhiriADkZnxHGIjQ8xkB5NnoLlNEBqnDs1An72s59p2Izr4nX8KUhZ/Cw4xjA32MUZVQEpcNCRkLVcM+ToZ9LR+bluTAWSrnRdhZAI4PtpG2pL5sn5Efo9392ru3SxMCyR8kLuBPibSHZCLVB1mspYRgy0C5vWQAqs3Gy70KMRnd7L19TcGFjnPgAUXuSZPOEwX8NIxMD3wLGsEKU9P/1UHuUF+QTtHNFfw73BZCEcCvFzb33kFwTFj1DJqIfxRFKSA52a2pKkmR47elRvgHV4bDEkHsQASQBuACxPNWh8DnQIBgpqYrxBBIJ9KldJB31i/UJ1BJKF55sTxMa3b9+uiuHtt99WlXCrsJk5LfkMOsmWLVu0AhEdxyI1AGKg4AnFZD8+3qSl4ch14D0oGQOnQmuQjQmBsDkMIeBkBklwmBKrais0GmS5HwxU1MKB+lb33sEGXevywcEz7pNTrdo+TecvqrqkTYh2oe4gFSPz0cInZnw8F3v61aTFzKVfmCPUJwh8DyhEEq4gh2jHZN3iOrd0WVC41t8ycjyQlOQwI+I9ZnXcKZk5mWEt9AOL8zMOSgpu0PgWCqRDMDB6RXlQ12A8vfMBId2j4cM5pbmaubh1+VwlBqInnBfniYTEVMAJZdWFbkUMgI7HteKs5DrxgBOtYSYz0mENBQlg+062uD0nm93BhjZdlcnqQyVYUS+810KonC8l/iFPnJR06mRVDySTkSB237IaLcOHI9icj0ENzV6342ij+/DAGXdA2uVE03ktyNNxqU/U02WdPCwfgnJzFzl43ntF25U2Co7AsUsRHape49Bli0FMlLauXm1v6kRQlo97YTuLWYYrbW7kwARHdARzEbMRdWj5PNwn7ve69evd+vUb9F6HPocYsIbCWdPdfVHtMgYZMBmO7Fq7dq0Sw4DMlrvADSFaQcYgPojx0g7cdJKWSFR6fN1Ct6ymzJXkZehrNniNGN555x11QmFKjIYYAAqJ2PmXv/xl98QTT2h2KH4WXzVQXXrnkUa3/fBZd+h0m3ZaJDTqiToHzIj4QixawjlDXHR2iqMwQKiBmYyg5iPFhjcvqVK1BgFau1Ou7yNpk70nmrW2hi2dpy+gKjA3uqSt6lsv6ErOfaIoPhGCRX2Rhk5lawY72bdnz3VrTU7qRXwiSmTPiRa361iTfv4HB0/rI05wPgc1RqIbZQwLctJVUdo5ASYLzAj6An0C08ImPfow0YkvfOEJ99hjjw1ErMYTSUsOHCxxvSYNevbMGbXJAXIbBx7KgVkVp6QxLINh1swZ0umDjU+QzzigxhqcGzPVvLI8t3p+hdtYV6WpzwxEfmdOJ/wFeKTff/99zduIXu0XCzjA8C/gdN20aZN79NFHVTn4jkibGXfJzMjsSIYkxMACLNQAM546aOX6WYXI8mRrU2ZX/h75G2yXl5yRCwivTK6LcDE5HlybgbDtu/sb1MdAu0AIBhQZpgTECEkSuaENaA9URdcl1EHwc5uoApQBRApRkGjXKCoBs4ScGkiYz6Hf5cj5kHzFMnwW1AUJaxEzR/oDkxoOSNQj5iUKEj+Umcu5QgbsmkVuBOqBPuBPBOOB8f30cUb1nEAdsK+mdW5uLo1NjBj7nbx0A2my2emzdH8L4t04qMYDdIaC7DQt2LJ5SbUSg194hRmC82JBz8svv6wdwl9MNhIsIWfr1q3ut37rtzTESRjXiAEgaZkV2TNyv8xmXTHSxil4y5b1dG4yI2k3Ax792vJCnXmTFekps9QJjFKMBrb/yaZONRNGA9rGIhosfWcx30FREXsx146LKmhoVzMMZdBOpS35fPVpyd9RVwOH6FMbFrnfenilKhnIyg+nQgzcf9TCD37wA/U1oH553VBaUuLWrlvnKiorlBj8+z1eSGpyyMzM0vL1kARKwUKXgPRq9i/EbsPsQJ4xeWBrk268srZMWDxPb9JIiTC3Czzk5DGsW1Cp5eogIBxhSHbATTfiImyJKUFY1mYIH5AdZGDOVZTCs88+677zne+4hx56SNNuiVAwg/BeVBBbuCFxcbKdFlnMa/5GvgZUBHtkBn6FoesskL4Qmr8ZTrJB08xFJeL4jQaKCVXA42gBQaC2UBWqOK9d17aFBHjOa7QjaqBI+hd7YjyyutY9sqZWJok5un+IbcKrKe5yv0zlEoEirwVyQD1YzRK+k/uKWiwvFwW6YaMrLS3T1+KBpCYHbOyC/HzNVdcK1amDnRl/BMU18Ppix1kmJaBcOwlIxL1ZCWkOubsF94w9EFbMK3X3L5+jdRWYvXwvN0QFYZHk8sorr2jGpz9r+6ATQHhEI0i/xdZ8/vnn3Z/92Z+pvOR1/5rZF/KsSFy87u98Uq/ydjgwq9HRIQ46Pf8MECb5ATjNkhUQPhWkY0lvVACDmsexgg5i+U7MSZQBDuivP7DcPbelzj2wcq5u3ouK8ckKZYDpsGvXLvfXf/3XSg5ErnjNYD4zFMOGjZBDaeQ344+k9Dn4oJNfv35NHXmnTzco6xoYdNjizMrE/zkAg5ibiUOShUeEOPEy3y1QIqvmlWtMnbx930OObOTcKGnOKj98DKzx5xxRB5wnxXQhAUwl8u3xJ5B7j0pANeBbwNFK8oupBYBXnbyEI2fa3Vt7T7nDkVqJsSknAOdF5SM6MWXR1Gse+TxCmEjoo43n1SxJRlD7YsHsIt0b0xyuBup40la0/e0QBK3D4GaQYyYW52VoIdq6OcXq2yAlnoMK4qRqqzmZKpNPlAlAX4AEyFdh1SdLwvExEKnA5ARGCoSnv/DEE+6BBx5UE5LJ4E7S5u8ESU8OwewarGQ7fOSw6xSVYJJMb768DhMjwa2UXHDA9EHNRZxLOCjl7TqL3i50oIliIJ5O52AJNh2D1+08yF3AhPj5z3/uXnzxRTUvuPlEHYhXs1CHm79O7MoNGza4++67T9eK4FtYvXq1pk3zHt+M4Hype0gMvfl8t4Yr39hzylF6/lYrLCEuzKu1QmQLK4tU5howNTA58OQT5ktGLBJiWFRVrPeBMnsGWgU/C+YXOR1MDkQNUEuWJYppyHMOQruYWZABe2rij8kTNcj6GNTAwtmFbnlNmTqe2WKPSlw1MklgQrC83oiBCQqlAAEQhYAMMHupMGUThRFD0KdTNAuS/vDVr31Ni9eiFONFDCDp1lZEg0aHicl5YEHWBx+8r6aEmRHMyAyqb33rWyrLMUEseoGtSKgO+3z74TNqq9Nxbhf4FegoW8WUQDVgq9MxADeccyEqYR0BnwPnpGX3587VqArP8S2gCjhnDoiDToLzyWZ1HygGMvtONXdq+IzS6jxncA9HDnwORMAmshAZ58vSZR944/HAv7rzmPu39w5GXk0uPLp2vntgxVy9NgjCh23Rj2KkrYIj8Bv0X/tUH1EIDOxZMzmEMEQt4E/AVLEEJkiF+wxxcPCz5bBEg0gU5i0mhG2lx2SBbwzCsJAlf4vDkT7xyCOP6ma8KEn6Bv0hnkh6cjCwghEn3+uvv6YJRdR9QEEAyAB5jkx/4IEHVEH4A44Zkjj02/tO6SN5ENjjtwKdhvqPKAVmjlW1ZeqMBKYY6BCkPaMWcDpxLtxoFk/ZQY4CZHGruDWfR8YdnZc0XxJv8JyzF8auY0QeerSj877hQCdm5sNJ9vi6BboFHz/7INqB9/2N3SfcL7cfibyaXHh87QK19Vn1yhYFsaAORiYXnIpyQBAU8SXPAXLAqclWB9Qi1UcIQl4z5/JI8JUCxEB06tSpU6oWMCfoE5bgZEARMhkwUVDF+itf+YqYkssHlnLHG0lvVhgY7My6qIhDBw+qKWEyjcHCz5AFXn9LIDFyQFJSwl5nDjmI8/P8VmBgkX2H3b5lSbWWZ6PzAL6T70cp/PM//7MWEOUcIClCkJgNFMalI7AexD+fWEAJ0JlZfn62vdvtPHpWyKxeHhvd4bNsxnJZfQUjmRN8PKtCWduBjbxAzAkkc3RaMGYKGaTszoV9noyYV1GgO1ZxTyDwmJAGQUUFCiHwIxBNyM2UIyNNS/FhfqEIUA6sQdGivpE/Hwn4wBj8qNgPPvhAJ4df/OIX2h+YyOgL0REqFAN+sWee+aJ76umnxMxcqibnrfrGeGFSkQPRiytXLqtNR+NjxwEGKqTBzUCu29oL2JhGD8JeQbFWntttgCAYbP544z10IhJa2PwEWc7sxDb6PjHQMTB1iJgQmeDv8BvgXIQYyG7EpuSc7TwMzGI4BEnAae/q1fRbVpOeEJOBfS7JfNxf36aLyDCDSNvFsTYcLzALMkAoMEOxlw2Lq3RVKLkY0cQA+G6Sg1AlZJImI/A5QH5cI/fLwL2xtub/PA/8T/equYBZABEEZsSgCUEb8t7oIWoTD0ltDHrWRRCOhARYQEcOC7UZeE5/4H2YmT4x0Cd1NXFdnRaDefiRh9XHQP9ASfh9I56YNGYF4EYh3bZ/+KF76aUX1flnQLLhzMMxyez9+7//++rgMbnG30IGzJhk0JHy+v7B0+6iDDykPOAWMZgI82GvY0qgHHBS0ZEM3HiqD6MYMHWwMTFnfvu3f1udjvgZzKkYDQY4G6+QbKNZdjL4MRfaui5p1iMhOKIsnBM+hyBHYSS1EBAetRKxwcnvmF9RpAVQ6PSxwBoATJVf7znpXtl5LPJqcuGrW5e5J9YvcBWFOQPRCtqJQwf5GAw4+zwiD5gNkAJhau49fiXIgkkJFcGBkox1r4hALVy4yD3y6CNuy5b7XLlMHDmiJn3TdyIwqcgBkEdAjsMLL/zc/dM//uNASXCAPIMgYOfnnnvOrRG7jvCgD2ZtbG6z5VmEQ2FWJD33ic1psWHxLVQV5epzy5PgxjOL4Gyi5gJSkrUTKJlvfvOb7k/+5E+UkJgRfFi6M98LMWiqrhx874Xefn0kaYcIAr6Q0URU6FKcKzMndRKR2RAZz9kuz4jBOrg/YAJyOO9+vVfIYcdRfS3Z8NuPrHJf3LxYrj9d9wABrHA8c+aMPtInkPEczM72nD7CAcEzmHEUcjC4o59zr/EpEInSStFtbXpwv/kO1KP5vXwQccC5SM4CEwXEgKpctHixmr0oW85hojHpyMFA/PgH//D3OlBx/vjA+QcpfPWrX3W/+7u/G5OdGYQ494IZ/JLO1NPkfUQl2MEbzzVS0wcdgY7yT//0T5rgxOo6M22++93vur/8y78c6IA+yMsnDZdFO6Q9s6bhbkrZcVZcEwuO6qqLNIUbmZ1NPn+EyAycMwOBWQo1AyAHnLQoh5eTlBy+8+Q69+WtS9WcwkQA2P9kpepqXlGY+Kj8A98PDmNkPsTArM8Ah0h4tMN+5l5DBBAE7x0tMCVxMlI38pkvPqu5LVZeIJEwaXwO0aCjs89mb2+PsPp5GQDB4hbAYID1+dlq9NExGFA2QBhhOKvIhSCRhaXWZDsSpsRzbTYoYIDRmdjNyFbUmX1p30lUApMCYqBz+OBTSEjCG07BFb6P5zjJpk0L1ov4YoGvxU7GxEG14FDVhUb5wcY3K+aWKSGsX1SpPobZonBY6MN7LZ/BZj5mONSWzZgAYsLBiXpKNock94R22VBHSbhydTZadIGwIetZIAnuD5EkpD8mARMIZgGTCWsbMAV5RPnxXhbJ4U/gvagDiIGkNtqQe+/7EGIBtQDxLFu+3N2/dat74skn3dZt21QxoCT9TNdEwaRVDtww5N8/iHr4yU9+4hrqG6QzQBKDN5GcB+oyUneShCMIglmDGxlLTURDB618HrMIA+zHP/6xZj8Sv6bj+Xjqqac01wKCYJbwfQ44PakQ1NKJ4/GCxuAbz3VrxarApLiiKkbNCfkT/ooBoNviyUGyDuQQbNKSpeoGkqCegUlqA+dL20AKSGGb8ZC3lkGKWkI5vIFy+Ci5lANtQlThu89ucl97YLm2sd1JnIM//OEPtbAOqm48wPdxb+lDHPi0pmFGyIRA+27duk1zF9asWS3qoXhwMkpATFpyYBBw0Al27drp/u3f/k03NIUwzA5kNSNycsGCBSrtKBdOeBHJNxomx+tMDNt2RSJ+zSIaXuN7fPAdeKC/9KUvuYcfflhtTpuphRt0bQMJWRQPYebmYHEUTlIO9TXIG5n5ObQT8iiz4nQ5MHPI7iOjLzNNDiEF9nyMTt1FzTBbMkBIzKJcOueFsqHCNcD/EZgVJ9xLSUYOqKiMlFnuO0+tc8/dt2SAGAA5Bn/zN38zUGZvPMA9zRSFUCREwKLAsvIyVy6PJaUlumiKBYJWSXwiIxGjwaQlBwOzOlKQitW//vUb6kXmNWZ9AySBc4iy9qQuoygIdXLzzFllDA8hcGBnohawOYlI2CIqXosFvgNlQmKLFWfBOcnnY+8PB87SnIYoByUHVR3B728F/g7ThnOGGLh+pDPEQLLYb/zGb7gvfvGLqmgIrwLI4XiTKIfdyUcO5Caw2/jvPLbaPblh6P4O+Bv+6q/+SsOMtinSaKEKJNL2dpgy4B4ymXBADIUFBUIKQT2R2bOrtA5DqbQtyoG/Gel+JxImPTkwMJjJ9+zZ7d59512NYuCM4nUjCG4YBMDNw1mJ7OfG8pwBA3Hwe0DYigFmG6XyHBsUYsCOR7LHgnUkM2UwMyAiPv9WabF6lgNkRieNPB0FUEmWoceMic1NCi+DA7sZhyyO2clCDqx5KC/Mdl/btkyXTPugdsZf/MVfqG8Bs2q08E0FdSjLMUsUApEvQo70leqqak1oKy0rdXm5eS5DJoOAMJhggv0qUBVGMsmASU8OACJg8B46dNC9/NLLbrcQBQ6oXhk0zKgGbhrOQgYJ0o+ZHRODw0wAPgeCICTGI8oBQjCisY7E7EBnwrTBxLDf8/lkvbHqEklPjNtkJuqCgw5o+Re3g0BdBM5WHK04zBgEEAGEyIyJcw1JzXXz/m9/+9vu61//+hByIJwakMNJ9+JHyZU+TZWleWUF7ulNi9zW5TX6GtfJQYbi9773PSV12gjQ1kwGOK95j927wWPwXnJPqF9KX5g5Q8wH7ldWptZaCPayLNf7iN/qTu5fomFKkAM3nRm0WwbLaRnU7733rpaAV8ehzJ4+bIawwzqGsT1EwwEh2HM+38D7zBxh5rgqasJf52GdD5LAdEGd4LGGKGzPRMwPOt7tzjB8B+rFyAv/B952UrfxtPsJOXbOw5NDh3tjzwn3YpKtrWA3KxZbPbpmvqa1A66V+8Q9/9M//VNVUZAoyJPB/Py3ntdaCYBVmnr/Zok5GbmPqhaEELhv3BNuy8AkcK8QSKSvQAi8h9dv994lIqYEORgY0GyEQ1hq566dQbhq3z7XKmYBS73vFnQgSuavWrlKzQdmkOaWZnWEojj8WhOA9+MQRTkgTU2pmILg7yERzA46H6Cjm7PVnkMKXJupBSIlmAwkg9mBL8QGhI/nn39eyQGHrE8OLLx6PQnJgXwOMlcptkNBH0Db4CPCKf39739fyRPQplzzn/zJ/+UeefRRfY3BPWOGDPTpM9x0lIIcNkkw6KcSphQ5GGwwvf32Wxp63LVzp86wdwvi2Nid3/nOf3APPPig2KRZauf/8Ac/0Nk7OhlrODBTQQqQhpk3/MxsxLlHqxfUAsQAITArYjKYUrkVjBxQDnjSgZEDyiHZVmWSBUqOB2teWC0LaA/ahnR6EtGsGDHKDsfw//3//L/u6aef1tdCDGLSJkGNhEAa3iMz9yxXWlqis3WxDMLc3DwdmGwPBxhgvslgYAZhRsnLo0TdHJl1l7lNmze5hx96WNfgs9yWgZaaGmyYymczuBnMlGVjFrsV+G4b9GRZEn40FcDMx8+WqosqsTRxTIfREgMgjImDFAKC3EBf/1XXdanP1bd0qXmRTKBE28KqIq2xQdIagBxoI3wuhHCt/VFmkO/WbVvVpAsxFFOWHBjgSHrkP9WrGRx4ls2+tEM9zd7rSHwK2xYU5Ls5EMOyZW7turW60pLMNxJckKqWx4BHGz/CzJkzZOD2u+s3SMvt1599meqTEM8Z4Ja+y8Bn5qOD84jZwGuW3YgpQUSC90ebDlwrkhhpzMF3+t+1YsUKVQ1DyeGa7ttwqhVySK5VmSSALZ1TqglhtqMXzkcIFXVItMackew5SSSKe8c9CjEUU9KsiAYDkIPBhk+i7zIFOnrdJZmJOzo7XMd5GYxdne6KdCq82iS0VJRXuILCApeTnaN+BkiAmQhSMMcVYCBynDvXLpK/SR2FDQ31Gj2oP1UvpsYp/V5mt1g+gbsF50K4LVPODbJi1oRkUDGArM2vfe1rutZk0KzocSfOtrvX95xyL+5IrlWZD62apzuYoyDYkwNApiyZJrX9H//xHwfCmJA4NRP++P/4Y/fggw/payEGEZLDMMCj3yeS/pzM1G1trTJjd+jPEAOhK6IMzLTMxEYEowEdk8FJSPFoZK/PZpnViGhAEJgSmi+BX0EGMIOYw4iD77LDvtsOVQhi7hCDt4gJZIUq4JHPJ6xJEpSlTcckh65L7kSjkcP4ZBKOF76wboH75sMrVTmwHgZgfrFxEIlqOCXNMYwTmOv+37/7Xbdt2wP6WohBhOQwDBiM5uy7JkRx7fo19Rcw8CzEhUxnUN4OGOhKPH29rrc3KCGmquJsoxDROdfZ0akqpauzy3VdELMB00E683U5DyOAadMwEQZNBQ5ehwCyRcmQiFNZUamDncw8yvdf6b+izlFqXZBGzPcCyIEkKNLGh5JDW4QcTuhryYIvbq5zv/fEWpedJsSYGuSmQIivvRaUD6TwDioRYErgc/mP//EP3H3336+vhRhESA4TCDM56Kw4FgMiwIfQ7dgDlBmuW55f6rmkJDVIDkIMShABKdiRmpaqIVAW9JSUFItiKNEc/3QxKfBRvPXmm1pjkxkU5yUgQ9KUA2oInOvqFrOizb2xt979MknIAY4W/eS+snWp+4NnNgb1HiMFeMjxIFLBtgAQo63EZT0JzuPf+/bvqa8oxFCE5JAAwPkY6/hc1MunnwX1FsyHaELFFIv/yL97jTw8VYH5gbRmKflrr/3KvfTii0PIwZTDEHI40yLk0OB+ufOkvpboYM0Jy9u//sAK95+f3SzXPNg25LX86Ec/0j0ofYckuR3sO/k7v/07bv2GDfpaiEFMrayOBAWDGWchYU+cmjg3yZ7MLyiIqIBS9apz8JwDVaDKQH7PgaO0QFQCf8ffY2IQYeGzlThknJjSsEEzPGAiO5IDLF2nTLxtPehfI+YhZhTOWN/pSziaTEgINcTNCMlhigD1YErCh5k2Q6C8IP+Lfj2BgQ8mM2WWmhPR3Ac5YLphTvjkQNqzEWiImxGSwxQBM6mlAt9aOYDkIQZAgRd2pKJKVzSGIwfaA3KAOEPcjLBVpgjwR2iEY9poyMFUQ/IQBCXwKHCDWeEDVeSbFb5KYv3ELFEboXKIjZAcpgiYHS3L8ybdHQOjEhcJBHwOVMDyyQEiQClYGjqOSF85oKJCs2J4hOQwRcB6kVkzA3KIVg43+x34vR3JAZQD9TKjyQFiIOGLgxyTIcoBh2TKyJW4pjJCcpgiUOUgA4GZ0ieHoaQQgF/znmRSD/gc2FzI9zlwbZgSmBSYFtHXytJsohUhOcRGSA5TBAwAZskZMnjwPxgYMJpTETVwAgJJHnZQ5RBlVmBCYE7gjIQcosFKWdbFoCBC3IyQHKYIzOcQrRwghuhZFfJIOuUw/d6bHJK3IgcyR1ldm5IyzEa7UxwhOUwR+A5Jnxyww1mQBUkY7hWJniLvmxGVE5HIYPMhdsSORQ5mVkQjIz1Da3JQ1yPEzQjJYYogIIegMGo0OeCs8wePbpSTIuQgNnmyYNAhOWgiQA74HIZTDmSjUhAW0gxxM0JymCIIyMHKo0deFJg331cOFE1NgUiSSDngkBytWYH/hXZIS0/TZfehzyE2QnKYIoAcGBCUVr+VWUE5dsghWcwKLidIgpo5sGkuGI4cyG+wdSysQQnJITZCcpgigBAYBBzMnJAFiKkcMCtEaieDWcF1sW8oy7NTU2YM2UV8OHKAGNg7JDUldQhRhhiKkBymCHQQCSkwa6IgLLYfy+fAYJsltjuzse7HGXk9EcH5oRa0foNcG8RmGIkcCouKXGra0N3OQwxFSA5TDAP5DhEpHUs5QCSQCAeDjc16ExXT5NxYqs0GurbVvsHIITpaQX4DRXB4DDE8QnKYYmDxFTPnrciBgUbUglkZJZGogLzSxZyAHOS0h8BXDv71QQooh7S0W++kPpURksMUA8qBNGockyCWWWGAHFJmiYLwpHqiAeJKF+WQhnKIYodhzQohh+KiYpeWGiqHkRCSwxQD/obcnBwZGMGsGUs5GDTfYeaMhCYHMiNzM1NdVnrKELMCYoD4yHPg8MmB5CfdWyQjI/JKiFgIyWGKgZWZbB5LGA9ADixlHk45INcTmxymaQl6NrDxzR+uJ6jyHZCDT34ZGemuvKJci/GGGB4hOUwxIKnLSstctqgHQI4DsptZNhokFOXKoCMSkKjAJ1Kal+kKs9OHkAP7g5w9e1bNCls3QvgWJyvkOG9erdbaDDE8QnKYYsAZycY87NQFMCnw5jPLIsX9BVikIueJZI9Vei0RgOMUAmNnqwLIwVM47HLF7mKoBgP+FpKeCvILXGVlZagcboGQHKYYlBxKSmXWDPbFhBQgB9QDs+wQr76YFMUy8NJSEo8cIAZSpnFGFuZkqMIhrGlgT1G2HOTaDJBBdXW1KyouGkgGCzE8QnKYYsARWVpSMmBWYJujHthAh8M3LyCF4px0JYlEAzzAjlaQQnZ6ip6rH61gy8H6+voh5ICfhV2uKOkPMUAwIYZHSA5TDCmQQ1nZgFkBUAvsiMWAwkFpgBQKhRxwSiYa8C8UZKWLsslws8S0iB7osZQDi6xqa+cLORRFXgkxEkJymGJgeXKOqIYsMSswMXDQjUQOxSLZSTJKtFmWCAqb5ZblZw9ZiWlKCHJobm4e2N0KUPWptrZWlUOIWyMkhykGyAB5nZWZJTNptpIFAyomOYg9z8ycnhJUj0okgoAccERWFA4lB84f/wkOSa6HaAzg3LnmgByK9bUQIyMkhykGBgkhvYzMTFdWVurS0tJVOTCY2MwXB6VhhtjlaUIMzNAVBVkJ43vISJ0p55Tp5pTkutlFOZqoZcBvgjlBKBPSIwJD4hdbCxaXFOtjuKZidAjJYYoC9cCW+5mZGUoOyHA22/XJgdAgYczS/CxXU5avZdgSAVSZrijMcnPlnKqKhRw80oIUjh49qo8G1BFOWPI7csS0YOFZiFsjJIcpirzcXLdgwULdeJcZFmJoaGhQKU5IkxnXgHRfVlOiacoTCVQPjsgFswvdfcvmaJjVTB3yM7gOtttnN20SoAwkO61Zu9YtWbrUzQxLwo0aITlMUZAluGjRIi2wyqBCOTQ2Nrqmpiaddf18hzJRDouril1hdoZmJEYvjY4XZs2YpmsoFlYWurULKjXxyYCvwUyK7du3u9bWViUO8hmoE7lq5Sq3ePHisF7kbSAkhymKQrG9ly1f7gqLCtUHAS5cuOB2797tDh48OMS8wMbH+Te/ssDNK893abOCFZ3xAlREDkNlUY7btqJGzqNQ11L4VZ9QPu+8847bu3evEh1RCpyvOB9xQs5fMN+VlpbqayFGh5Acpigys7JcVVWVKykuUdnNoMHLv2/fPnf48OEhi5VQC6RRL5pd5JbOKdHcByIEJunHCzrzCwHkyHfPKc0T06bUbVw821UX56pzlIgF5g8RCcyI9957zx06dEjNIpK5cETW1MxVc6KycraGcMOsyNEjJIcpCuQ26wxKy0rdnDlzNHrBoIIYzKHnqwcSjermFLuNdVWutqLA5Wex0Gl8yYHBT0XphUJKz25e7B5ZXeuWzy1TcjJgTqAUjh07puSAWWGgbsWqVavcxo0b1REZ4vYQksMUha1QLCsrdwsXLXLZoiQYaOQ7nDx50u3atUude7YQC0dgfmaaq5EZfHVtuVtcVaSpyxR2HUtAOBBRUU6Gqy0vcOsXVbpNQkir5leoSZOflaYRFIBqwM+AKYE5xEIrfgaohNmVlW7hwoW6AjNNiDDE7SEkhymOyooKt1RkN1ELiABTAlJ44YUXdNDxmhEEMj9PBueWpdU6YAlxpo+x/0F3rhK1ABFsWVrlvnz/UvfomlpXXZLrMtMGQ5B2ruRmvPbaa+6DDz5QU8jOtaSkxC2uq3M1c2tcUVFR6Ii8A0z73ve//+eR5yGmKFAR9SLHGWhELjgYaKRXkw+BCcK6hOC9MrOL4pg+/V5d7MQuU+RD4DC8fuNTx9CMjM8RoZ8zY7oumiIagiIhIrJ8XqlbJcpk2dxSNSeqhBRwPlolbEB6NElbO3fudG+++aZ79913ldBwQkICnOuW++5zjzz8iKtbskSjFePtH5mMCMlhioNlzFRGOnbsuGtubtIBhu8BnwOzMERRWFiozkvAIIMMcjPSNN+AhKTP5H3912647r5+kfqf63EroBBQHaiPhfI5K2srVJGQv8BBuBLS0KrSUQMb04GcjJ/85CfuF7/4hTtx4oTr7u7W84UYUArPPfuce/a555QYQifkneGe/qvXRsHzISYziFKQOPTGG6+7X736quY6AKQ5RVG+8pWvuCeeeEIzKnNzc/V3DERIoaO7z7V09rjzF3vl+WXX1XPZXbrc764KWVy9/qm7dv2GEgoDnAgH+2GkyiPh0ez0VFEFKaoM7JEsTCIRsWb6lpYWVQgff/zxQMiVn23lJUpn48ZN7pFHH3Hr129Qcyms23DnCMkhhDoiIYQPxW7/m7/5a3fgwAF9zez3L33pS+6pp55y69at03oIhAgtN8IAUVwTMmi/0OO6Lon66L/m+uS43H9dBrooBXk/JgiDnwNzInBoEhKNfEgU+H78CpwL4cpPPvnEffTRR+7111/XRCfClfyec8EBSR7Dl778Zfftb/9eRBGFBWTvBqFZEUJnaWbYGzLYWttaXa/MxMzGlufAwCRcyHvMD3Gzg48FXRR8na4OxdzMNM2oLM0LllWX5mdqunNeVrrL0eIswS7eI2VbQgr4FlAIv/rVr9Tx+NZbb6lJwfkRrUAVsFYC38JXvvpVt2XzFlc9Z46eXzSBhbg9hOQQQsnBBntfb6/r7e1RCW/qgYHIIGWw8bMNOh4DHwRVleRn+Z/uWSlmAWZDFgpB1EG2mAwoBZQDTkxClb6DEfBdOEHJ0mR9B7UYqORE3sWOHTvU8YgpceTIEfWJAM45NzfP1dTUKCk8/fQzmg2J3yEkhrtHaFaEGAAkQK7Aq6++4v72f/wPXZ9AIhQEQE4Ezj18EKxRWLt2rduyZYv6IdiU9k5hpgvKhO8jickO1npASjhHcUJCHkQqACqG1OhFixa7hx952K1ds9YtkvOy6EqIu0dIDiEGYCHMXbt2up/97Gfuk337NPOQWd1qS5JVyYYwLNpas2aNmz17ttr62PzY+czm+CQgEwYpj+Y74DP4LDswV/g+Ig2sjYAcSIPmgKRshah9N2qAA1Ior6jQBKdly5apE3JOdbXWxQydj2OHkBxCDIBBzNHZ2eFOnz7jfvHCC+7HP/6RDl6LCDA4GfCQALY+YUPIAbJA0pNMBVFAIsziPJpTkdmfz+IR8wFVABEQikQd8DuIwA7+Dr+CqQvIBuLZunWbu3/r/W7D+g1u/vz5uheHOUljRTlC3BlCcghxEzAl8D18vPtj9/5772uy0f4D+/U1f70FYPBj46MmmNH5GaclxAGBcDDAUSWYBORRcKAYLJ+C5Ctei/5sVAB/n5mZJSZNnqiUKldVXeVWLF+hi6lQC1R2CglhfBCSQ4hhEQzgHvd3f/d37mc//ak6CW3tQjyAGsjJyVVCwM+B03Hrtm2qTCxjM8T4ISSHEMPCfAQHDxzQ3AdWa2IC1NefUgeiH+68W6A4UAglJcW66Q71HllOzgY0BQWFqhxYJFZRUaGqBOIIMb4IySHELQEBoCIgib379rqdO3YoSbS0tLr+/itKIpgO0YcB2W/OxOgD/8X06TNcYWGBmCUl6kOgMMuCBQvcnDk1mqUZFoSdGITkEOKWwCGIz+DixQuus7PLdYhqIMx4ShQEmZVNjU3uUs+lgeQpiIQDUoEA8EGkpqaJOuBI1+XTmRmZLjc3RwmhcnalkEOREkR2VrYWoqEADQ5N/hYCCRF/hOQQ4rYBWbS3t2mYk6QkEpUgjI6OTtfVxTEYeYAcMBdycrLVV5CdnaOkkJ8flIqn1kJdXZ2YEMVa1zJE4iAkhxAhQsREmGMaIkSImAjJIUSIEDERkkOIECFiIiSHECFCxERIDiFChIiJkBxChAgREyE5hAgRIiZCcggRIkRMhOQQIkSImAjJIUSIEDERkkOIECFiIiSHECFCxERIDiFChIiJkBxChAgREyE5hAgRIiZCcggRIkRMhOQQIkSImAjJIUSIEDERkkOIECFiIiSHECFCxERIDiFChIiJkBxChAgREyE5hAgRIiZCcggRIkQMOPf/A7n4cIGodaMGAAAAAElFTkSuQmCC;" parent="rYBwMgKa4S3AZHbmEtn9-9" vertex="1">
                    <mxGeometry x="5.399999999999977" y="28.24000000000001" width="79.2" height="79.51" as="geometry"/>
                </mxCell>
                <mxCell id="rYBwMgKa4S3AZHbmEtn9-8" value="backend" style="swimlane;" parent="rYBwMgKa4S3AZHbmEtn9-3" vertex="1">
                    <mxGeometry x="32" y="56" width="93.75" height="114" as="geometry"/>
                </mxCell>
                <mxCell id="rYBwMgKa4S3AZHbmEtn9-10" value="frontend" style="swimlane;startSize=23;" parent="rYBwMgKa4S3AZHbmEtn9-3" vertex="1">
                    <mxGeometry x="256" y="57" width="98" height="115" as="geometry"/>
                </mxCell>
                <mxCell id="rYBwMgKa4S3AZHbmEtn9-23" value="Amazon Route 53" style="sketch=0;outlineConnect=0;fontColor=#232F3E;gradientColor=none;strokeColor=#ffffff;fillColor=#232F3E;dashed=0;verticalLabelPosition=middle;verticalAlign=bottom;align=center;html=1;whiteSpace=wrap;fontSize=10;fontStyle=1;spacing=3;shape=mxgraph.aws4.productIcon;prIcon=mxgraph.aws4.route_53;" parent="-04ID43S7tZkHjtVrY1N-1" vertex="1">
                    <mxGeometry x="30" y="99" width="58" height="89" as="geometry"/>
                </mxCell>
                <mxCell id="rYBwMgKa4S3AZHbmEtn9-51" value="" style="shape=image;verticalLabelPosition=bottom;labelBackgroundColor=default;verticalAlign=top;aspect=fixed;imageAspect=0;image=data:image/png,iVBORw0KGgoAAAANSUhEUgAAB3wAAANoCAYAAAAripstAAAAAXNSR0IArs4c6QAAAARnQU1BAACxjwv8YQUAAAAJcEhZcwAADsMAAA7DAcdvqGQAAP+lSURBVHhe7P0HmJ3Xdd/7/4DpvfdeMei9d4IEOynSVLFVXJXYSW6K48TX/ye5yWPnuXF8U67ja1m2XGRb3eqFpCj2TpAA0TswGEzvvc8A/732nKEpiaJIApg57znfD3w8M+87gCRgzn733muvtZakp6dfFwAAAAAAAAAAAAAgcJaGPgIAAAAAAAAAAAAAAoaALwAAAAAAAAAAAAAE1JLMPWso6QwAAAAAAAAAAAAAAUSGLwAAAAAAAAAAAAAEFAFfAAAAAAAAAAAAAAgoAr4AAAAAAAAAAAAAEFAEfAEAAAAAAAAAAAAgoAj4AgAAAAAAAAAAAEBAEfAFAAAAAAAAAAAAgIAi4AsAAAAAAAAAAAAAAUXAFwAAAAAAAAAAAAACioAvAAAAAAAAAAAAAAQUAV8AAAAAAAAAAAAACCgCvgAAAAAAAAAAAAAQUAR8AQAAAAAAAAAAACCgCPgCAAAAAAAAAAAAQEAR8AUAAAAAAAAAAACAgCLgCwAAAAAAAAAAAAABRcAXAAAAAAAAAAAAAAKKgC8AAAAAAAAAAAAABBQBXwAAAAAAAAAAAAAIKAK+AAAAAAAAAAAAABBQBHwBAAAAAAAAAAAAIKAI+AIAAAAAAAAAAABAQBHwBQAAAAAAAAAAAICAIuALAAAAAAAAAAAAAAFFwBcAAAAAAAAAAAAAAoqALwAAAAAAAAAAAAAEFAFfAAAAAAAAAAAAAAgoAr4AAAAAAAAAAAAAEFAEfAEAAAAAAAAAAAAgoAj4AgAAAAAAAAAAAEBAEfAFAAAAAAAAAAAAgIAi4AsAAAAAAAAAAAAAAUXAFwAAAAAAAAAAAAACioAvAAAAAAAAAAAAAAQUAV8AAAAAAAAAAAAACCgCvgAAAAAAAAAAAAAQUAR8AQAAAAAAAAAAACCgCPgCAAAAAAAAAAAAQEAR8AUAAAAAAAAAAACAgCLgCwAAAAAAAAAAAAABRcAXAAAAAAAAAAAAAAKKgC8AAAAAAAAAAAAABBQBXwAAAAAAAAAAAAAIKAK+AAAAAAAAAAAAABBQBHwBAAAAAAAAAAAAIKAI+AIAAAAAAAAAAABAQBHwBQAAAAAAAAAAAICAIuALAAAAAAAAAAAAAAFFwBcAAAAAAAAAAAAAAoqALwAAAAAAAAAAAAAEFAFfAAAAAAAAAAAAAAgoAr4AAAAAAAAAAAAAEFAEfAEAAAAAAAAAAAAgoAj4AgAAAAAAAAAAAEBAEfAFAAAAAAAAAAAAgIAi4AsAAAAAAAAAAAAAAUXAFwAAAAAAAAAAAAACioAvAAAAAAAAAAAAAAQUAV8AAAAAAAAAAAAACCgCvgAAAAAAAAAAAAAQUAR8AQAAAAAAAAAAACCgCPgCAAAAAAAAAAAAQEAR8AUAAAAAAAAAAACAgCLgCwAAAAAAAAAAAAABRcAXAAAAAAAAAAAAAAKKgC8AAAAAAAAAAAAABBQBXwAAAAAAAAAAAAAIKAK+AAAAAAAAAAAAABBQBHwBAAAAAAAAAAAAIKAI+AIAAAAAAAAAAABAQBHwBQAAAAAAAAAAAICAIuALAAAAAAAAAAAAAAFFwBcAAAAAAAAAAAAAAoqALwAAAAAAAAAAAAAEFAFfAAAAAAAAAAAAAAgoAr4AAAAAAAAAAAAAEFAEfAEAAAAAAAAAAAAgoAj4AgAAAAAAAAAAAEBAEfAFAAAAAAAAAAAAgIAi4AsAAAAAAAAAAAAAAUXAFwAAAAAAAAAAAAACioAvAAAAAAAAAAAAAAQUAV8AAAAAAAAAAAAACCgCvgAAAAAAAAAAAAAQUAR8AQAAAAAAAAAAACCgCPgCAAAAAAAAAAAAQEAR8AUAAAAAAAAAAACAgCLgCwAAAAAAAAAAAAABRcAXAAAAAAAAAAAAAAKKgC8AAAAAAAAAAAAABBQBXwAAAAAAAAAAAAAIKAK+AAAAAAAAAAAAABBQBHwBAAAAAAAAAAAAIKAI+AIAAAAAAAAAAABAQBHwBQAAAAAAAAAAAICAIuALAAAAAAAAAAAAAAFFwBcAAAAAAAAAAAAAAoqALwAAAAAAAAAAAAAEFAFfAAAAAAAAAAAAAAgoAr4AAAAAAAAAAAAAEFAEfAEAAAAAAAAAAAAgoAj4AgAAAAAAAAAAAEBAEfAFAAAAAAAAAAAAgIAi4AsAAAAAAAAAAAAAAUXAFwAAAAAAAAAAAAACioAvAAAAAAAAAAAAAAQUAV8AAAAAAAAAAAAACCgCvgAAAAAAAAAAAAAQUAR8AQAAAAAAAAAAACCgCPgCAAAAAAAAAAAAQEAR8AUAAAAAAAAAAACAgCLgCwAAAAAAAAAAAAABRcAXAAAAAAAAAAAAAAKKgC8AAAAAAAAAAAAABBQBXwAAAAAAAAAAAAAIKAK+AAAAAAAAAAAAABBQBHwBAAAAAAAAAAAAIKAI+AIAAAAAAAAAAABAQBHwBQAAAAAAAAAAAICAIuALAAAAAAAAAAAAAAFFwBcAAAAAAAAAAAAAAoqALwAAAAAAAAAAAAAEFAFfAAAAAAAAAAAAAAgoAr4AAAAAAAAAAAAAEFAEfAEAAAAAAAAAAAAgoAj4AgAAAAAAAAAAAEBAEfAFAAAAAAAAAAAAgIAi4AsAAAAAAAAAAAAAAUXAFwAAAAAAAAAAAAACioAvAAAAAAAAAAAAAAQUAV8AAAAAAAAAAAAACCgCvgAAAAAAAAAAAAAQUAR8AQAAAAAAAAAAACCgCPgCAAAAAAAAAAAAQEAR8AUAAAAAAAAAAACAgCLgCwAAAAAAAAAAAAABRcAXAAAAAAAAAAAAAAKKgC8AAAAAAAAAAAAABBQBXwAAAAAAAAAAAAAIKAK+AAAAAAAAAAAAABBQBHwBAAAAAAAAAAAAIKAI+AIAAAAAAAAAAABAQBHwBQAAAAAAAAAAAICAIuALAAAAAAAAAAAAAAFFwBcAAAAAAAAAAAAAAoqALwAAAAAAAAAAAAAEFAFfAAAAAAAAAAAAAAgoAr4AAAAAAAAAAAAAEFBLMvesuR76HAACpTAnTytr6hSzNCZ0Bbfa1Y5Wnb1yOfRVZIiNiVFCXLxSk5L957j1ZmZnNTk1paHxUV27di10FQAAAAAAAADwQRDwBRBY+zZu1e984tNKiI8PXcGt9q1nntBnvv6F0FeRISUxSdlp6aoqKvWf49YbnRhX90C/Lrc3a3J6OnQVAAAAAAAAAPBBEPAFEFj37tqvP/yXv6ukhMTQFdxqn//e1/Vf/vL/C30VGcryCrW6pl7377tdxe5z3GrX1dHTrcNnTuprTz2qgeGh0HUAAAAAAAAAwAdBwBdAYD10253609/9fSUlEvBdKJ/9+hf1e3/yR6GvIsOyskrtXrdJv/nRT6mmrCJ0FbfK9evXdaW1WU++9pL++99/Tl39vaE7AAAAAAAAAIAPYmnoIwAAAAAAAAAAAAAgYAj4AgAAAAAAAAAAAEBAEfAFAAAAAAAAAAAAgIAi4AsAAAAAAAAAAAAAAUXAFwAAAAAAAAAAAAACioAvAAAAAAAAAAAAAAQUAV8AAAAAAAAAAAAACCgCvgAAAAAAAAAAAAAQUAR8AQAAAAAAAAAAACCgCPgCAAAAAAAAAAAAQEAR8AUAAAAAAAAAAACAgCLgCwAAAAAAAAAAAAABRcAXAAAAAAAAAAAAAAKKgC8AAAAAAAAAAAAABBQBXwAAAAAAAAAAAAAIKAK+AAAAAAAAAAAAABBQBHwBAAAAAAAAAAAAIKAI+AIAAAAAAAAAAABAQBHwBQAAAAAAAAAAAICAIuALAAAAAAAAAAAAAAFFwBcAAAAAAAAAAAAAAoqALwAAAAAAAAAAAAAEFAFfAAAAAAAAAAAAAAgoAr4AAAAAAAAAAAAAEFAEfAEAAAAAAAAAAAAgoAj4AgAAAAAAAAAAAEBAEfAFAAAAAAAAAAAAgIAi4AsAAAAAAAAAAAAAAUXAFwAAAAAAAAAAAAACioAvAAAAAAAAAAAAAAQUAV8AAAAAAAAAAAAACCgCvgAAAAAAAAAAAAAQUAR8AQAAAAAAAAAAACCgCPgCAAAAAAAAAAAAQEAR8AUAAAAAAAAAAACAgCLgCwAAAAAAAAAAAAABRcAXAAAAAAAAAAAAAAKKgC8AAAAAAAAAAAAABBQBXwAAAAAAAAAAAAAIKAK+AAAAAAAAAAAAABBQBHwBAAAAAAAAAAAAIKAI+AIAAAAAAAAAAABAQBHwBQAAAAAAAAAAAICAIuALAAAAAAAAAAAAAAFFwBcAAAAAAAAAAAAAAoqALwAAAAAAAAAAAAAEFAFfAAAAAAAAAAAAAAgoAr4AAAAAAAAAAAAAEFAEfAEAAAAAAAAAAAAgoAj4AgAAAAAAAAAAAEBAEfAFAAAAAAAAAAAAgIAi4AsAAAAAAAAAAAAAAUXAFwAAAAAAAAAAAAACioAvAAAAAAAAAAAAAAQUAV8AAAAAAAAAAAAACCgCvgAAAAAAAAAAAAAQUAR8AQAAAAAAAAAAACCgCPgCAAAAAAAAAAAAQEAR8AUAAAAAAAAAAACAgCLgCwAAAAAAAAAAAAABRcAXAAAAAAAAAAAAAAKKgC8AAAAAAAAAAAAABBQBXwAAAAAAAAAAAAAIKAK+AAAAAAAAAAAAABBQBHwBAAAAAAAAAAAAIKAI+AIAAAAAAAAAAABAQBHwBQAAAAAAAAAAAICAIuALAAAAAAAAAAAAAAFFwBcAAAAAAAAAAAAAAoqALwAAAAAAAAAAAAAEFAFfAAAAAAAAAAAAAAgoAr4AAAAAAAAAAAAAEFAEfAEAAAAAAAAAAAAgoAj4AgAAAAAAAAAAAEBAEfAFAAAAAAAAAAAAgIAi4AsAAAAAAAAAAAAAAUXAFwAAAAAAAAAAAAACioAvAAAAAAAAAAAAAAQUAV8AAAAAAAAAAAAACCgCvgAAAAAAAAAAAAAQUAR8AQAAAAAAAAAAACCgCPgCAAAAAAAAAAAAQEAR8AUAAAAAAAAAAACAgCLgCwAAAAAAAAAAAAABRcAXAAAAAAAAAAAAAAKKgC8AAAAAAAAAAAAABBQBXwAAAAAAAAAAAAAIKAK+AAAAAAAAAAAAABBQBHwBAAAAAAAAAAAAIKAI+AIAAAAAAAAAAABAQBHwBQAAAAAAAAAAAICAIuALAAAAAAAAAAAAAAG1JHPPmuuhzwEgUB667U796e/+vpISE0NXcKt99utf1O/9yR+FvooMJbn5WllVp3t336aivPzQVdwq192vzp4eHT1/Wt945ocaHBkO3QEAAAAAAAAAfBAEfAEEFgHfhReJAd/khERlpaWrsrBEKfwsLYixiQn1DA7ockeLpqanQ1cBAAAAAAAAAB8EAV8AgUXAd+FFYsA3NiZG8bFxSklMUoz7HLfe7OysJqenNDIxrmvXroWuAgAAAAAAAAA+CAK+AAKLgO/Ci8SALwAAAAAAAAAAQbY09BEAAAAAAAAAAAAAEDAEfAEAAAAAAAAAAAAgoAj4AgAAAAAAAAAAAEBAEfAFAAAAAAAAAAAAgIAi4AsAAAAAAAAAAAAAAUXAFwAAAAAAAAAAAAACioAvAAAAAAAAAAAAAAQUAV8AAAAAAAAAAAAACCgCvgAAAAAAAAAAAAAQUAR8AQAAAAAAAAAAACCgCPgCAAAAAAAAAAAAQEAR8AUAAAAAAAAAAACAgCLgCwAAAAAAAAAAAAABRcAXAAAAAAAAAAAAAAKKgC8AAAAAAAAAAAAABBQBXwAAAAAAAAAAAAAIKAK+AAAAAAAAAAAAABBQBHwBAAAAAAAAAAAAIKAI+AIAAAAAAAAAAABAQBHwBQAAAAAAAAAAAICAIuALAAAAAAAAAAAAAAFFwBcAAAAAAAAAAAAAAoqALwAAAAAAAAAAAAAEFAFfAAAAAAAAAAAAAAgoAr4AAAAAAAAAAAAAEFAEfAEAAAAAAAAAAAAgoAj4AgAAAAAAAAAAAEBAEfAFAAAAAAAAAAAAgIAi4AsAAAAAAAAAAAAAAUXAFwAAAAAAAAAAAAACioAvAAAAAAAAAAAAAAQUAV8AAAAAAAAAAAAACCgCvgAAAAAAAAAAAAAQUAR8AQAAAAAAAAAAACCgCPgCAAAAAAAAAADcAnGxsUpJTFJaUrLSklNuySvV/dlJ8QmKjYkJ/acCiDZLMvesuR76HAAC5aHb7tSf/u7vKykxMXQFt9pnv/5F/d6f/FHoKwAAAAAAAADvpjA7VwVZOT4gG3OLArIzszPqHxpU77B7uY8Aog8BXyDC2GmutKQUxcXGaOmSuST+2NhYJcTFKyU5xU0qbm1i//jEhMbGxzQ9O6vr167NXZua1JhdnxzXbOjazUDAd+ER8AUQNEuXLlVGSqqSExIVGxOrJaHrxp4fKe65aQtu+76FMOuej5NTUxoZG/Wfz5uYntLQ6IimZqbdQv0frwMIttz0TD8//1ky0tKVnJQU+mpxzI1LkxqfnNSUG5/ebsiNVaMTY25smtH162wdAMC7sTmnZfBZJt+SH5t13nyjE+MadmP01OyMrt3EfRYA78wCtclu/Zjk1pU2t7M9VsukjY+LU0J8vBLd/Tj3uf/ehCSlp6b6z+dlpqYpKzXdf//8fu3NNnttViPjY35sGHYfjY0PNtezfdmJqQl/zdajo+6+rTunp6c14eaAE37vdtyvSW0fd9rN/QAEDwFfIIwtXbLEb0AvcR/nX3bNf26LB//RfVga+topyslTWV6hn4TExcT6a4luMpLhJhbF+QVuYhHvr90qvQN96ujpcZOF8bc2rHuHBtTtrnf29/mNbNssste10Ef/65p9fc1NRELXQtffDQHfhUfAF8BisGehPf/8525xPPdMdF+4/zd3PfS1M39/nm24VRaWKC8jyz8b55+XJiczS4W5ef45acHghWBBlaGRYbV2dfiF9ryBkSE1dbb74Iotts3cs3JuA899+tZm3vx1/8y0X6HnJoAb8/a5to0rZqmbZ799U25u/PnHMcfYuDJ//SetqKxRSU5+6KufVl1arrzs3NBXi2Nqespng/QPDmjQjU9vd9WNSx39PRoZt4Obc3P7+Tm8mR9//Mvm7jZWufHJvn5rru9eALCY5vZW/jGjzoZrG7N/MuhiY/47jeV+nLe9mdDXP0uVm3NaFp/NOW9VQGdeR1+PWro7NTIx9nMDMzYK24H80Mjt//88G6Lfaayev+Z/vXVr7trNPMgPLDb//nbvez8mhOZ977QXa4f48rOylevWlYU5eSrOK3DryASlpqQoMz1dmWkZSk1O8X9mbma2yoqK/eeLbf5gX3d/n/rcXM8MDg+po6fbB3rtILLNA/uGBtTjvqepo0097nM7VOLndKE15/x+7dw69BrjABCmCPgCYSzbTRYqCoqUlpLqXzZxSEueO0WW6j7aBnV8bJybWGS8lRngT5y565atZJMSE+MWNnFxsf4U2q3OYLKsAJsw2IaQbfL4a9NTmrQTY3ZCzH20iYZNJgZHRzTqJhYjY2P+6/buLvUPu+sjwxpwL8t2ejcEfBceAV8AC82eZ4VZOcpISfMnp3MyMv0hJjvAZM8+ex7ac9GehybPfW96Wpr/3Nji3DItrNLFT5bOsmu2SI+xBf0tfj7Ou2anqGdmND458WOL5OmZaX/qenp25q3rthC3Rbexhbgtym1xbc/RNntmuoW4PUv77ZkZChID+OCsSo5lX1iGlmVfmKK8Aj/mGDtAYvPv7IwMNx4l+GvGxqPs9HQl2OER9z1vl5Gc6seZn8XGsLf/WYvBxpUpN0e3OftPBg0s02PCze9n3Nzeb/K577V5u1X0sd9j2SE2Ptl83sYmWwf0DvTPzend+GRzetswBIDFlJNueytzwRfbE7E5oO2jzI/v8+wgYPpPXDPJbi6Z5b7fsvferRSrzTkT3Xw11oLLof2YW8XmfjaftIP283svP8u4G4dt7LZx++0VZmxct2uWDWiHfuzrefZnD4/a+D7iv8dMuueEfW9HX68/zA9EAnvPZrq1po0Htg9rc7/crGxlufmeVYOyMcHe/0luPmdjx/wa0vZYbR1pc784txaNj4t96xBxvPszbdwIB/PzN5unzb+XrXLLhHuP2/UZ97m9n+2eHUi2ud+kVZ1y17v6enyQ2OZ5A24M6XWfW6JPq1uLXu1q938WgPBCwBdYBBaITXQTBJsc+Ffi3MsmEra5ND9RsFNjtijxAV8L9qZYoHcu2Gub24nxif77beKx2KXg3iubMMwHfK1MyPwGkU0c2ro7/fXB0WE3iRj0CwlbxIyOj89tNk1M+NIk9rK+FA/uP0jAd4ER8AVwM9jC2C+W3ULYnof2TLOvl8Ys9aWw7Lo9C+2wkn1dmJXrFuCp/nty3LMxI+3HA76p1sogFJyxgK/djwQDPxHw7ezp9sHguYBv6Jk5MuwDvvbMtMCLBY79ISu3gLfnp/0+C7ZQkgvRwubZttFu44htvNt4Y+OD35SLifEbcf6gR2jD3r5nPrhr8+23Ar6xc1VxivLyfdllMxfwTVB2RuaPBWltbLL5uN37yYBvpLExyObtNt7YxuDo+Nxc3gd8rRygG3t6B/vd+DTk5/QW8LXAr988nLKA8rQ/AGrlo218misvOPlWQBkA3s18QNUOtduYa2OxjfM2L/Rju/vcxvf5fRUrt2py0jN/PODr/gzLxvvJOeO7BXyz30PAN1zZGGxjt43bb28dMh/wtaBu3+Dgjwd83e+x+eXI6OhbQaK3Ar79Pf6afbcFjHxJWDeW+6/dn+/HdTf3tGeGBZjtey2AbGxOOuT+82hhgoXmW+C5uZ7NCW0dmeJeNobYvC8vM9vPAbPdWGFzv1y3prSAr/2e+YDvrU6gCTeW1dvVOxfwtWQdW3v2DljAt1+tPZ2+Coy9198qB21rz9BBQJvf2XgBYOER8AUWgS06Ctxkoji3QGX5Rb7UcmlhkSpLynx5SdtUynQLD9vktoXMfAmRn3q5P+vtXweFP13mXvZx/jVfEsQ+t0XBhFtc2EZRZ2+3rrS26Gp7q9q6OnWxpUkXW6/6skX37TlAwHeBEfAFcDPYRl1BZo5bWGcp3y2mq8sqfNkr26izjba5oG2634SzQ0+2eTf33HO/fJkt/wT8sWfg/FNwvvxWJPDPR/dMfOtzXybVf+WflXPX3HP02nUNDA+qqa1lbiE+2K+O7i41uufnxeYrauxo9UEXIBrYGJCamKQCN45UFBb7TT3b1C/Oy3+rSo6NM0nue0xFUYmy3VhkbOyYL+k8P6q8fUyZ+zBX7u8fRx3nbb8vGrw1Ftn4Yy/75T9/+1g1d83GKNv4u9rWqp6BPg26scrm+Davv9Tc5MsGWllSm9vbuAYA72auZHKOkhPcOJ+Tq3z3snE+KyPTje35fi5pQZz5YO58eVUbo21v5S1uuLayrT85btuYPzfP/HH+uRB6BdH8mGy/7P/ebm44n2sV8nb+u0O/b/73zF/zezf2tfvcDvvYPLSjt8d/bQd/rCqNjf0WCBqfmPABo7buDv9MsENAp69covoDFlxdSYXq3bqzJL9Q5cUlfg+2ICdvLps3PcPv1dp7fG7taWWd5+Z7c+vP6Ar2zrP3+j/u386NE28v6WwHkm3ftqO3S01u7Xmp5aouXL2i5q4Odbl5H4CFR8AXuIXslFixmzzYxrVNIOaDuenuupUKsY/pyVaqOdlvaNs9W6zYaVN7BfHk6M1iGbyTk1M+e8Cyl6zfoWUOWHk4X0JksF/VpRV6cN8dPtsCC4OAL4D3wrLdrMeRLZwzQ4Fb/9xzr/nnn320bAnL1LCeR0kJSYqNjfHVLuz63LMw4a3MO7w7y/odGhnxm2yWQTFq1TPcs3OucsaIf372hU5kW2kuyxDu6u9Tn7sOhLt4N9fz1W6S5qrd2LhiB/4seyvXza9tHm3zwflKOHbdxhYba3xGrxtPrL/afBUdG2fmM3FtXLL5N24dy+q18cmyxaw8tI1XVibUqhgMjc5lANt9ywgeGh72gWGrbtDV16seN+8fHh8N/UkAIo0FV6zaS7obv616go3vNkbbeG3zSHvNVURLcvPDRL/HYuO7je32fRbcna/ckOLGfwvY2O+1OaTNJZlH3loWAPb9QSfnKrPZ1zMzs29VgZidnfGZvDY3tQDw9etzWcI2tlsbE8sGtmDwfPbvsK8CN+azg20OO99v1DKC23q7fdAJeDc2H8xNz1JeVrbvt5vjXnnZOT6wm5eR5TP1bb6YnmrrUTfeuHFjfh82qAc6FpO91+dfNoezuV2fP4A84N7n/W792e/Xnzava+nu8AdDbAzgkB9w6xDwBW4CW0RYNu78JMG+tpJCRdm5qiutUHlRicoKi1VaUKR8N9GwsiDWz+HHTpjiPbP+wD39/f7krQXSmZQtnEgM+NqmgL1nUxLnNghw69mi3yb5Vu5nPnsRwWLjrp1yTgg9/+yZZu8jW2Db88+CLKW5BSrKzVOhW1zbs88W2vMHoCwAbL8nWk9KLwbbQGvt7HCvdl1pa9X5pstqbG9Ra3enL8FlpVbtZRtu9vX8SW7gVrNxxDbn5zfpLRBrn/9jWc54X04vN7Txb2U5LavLgry2oW/z65ysrLmyyqFgAYLFynvaGGUb+3YgpaWjXc3tbbrixijrD2eHUyxwYD2G58cpXx56llL1QLizOWNcaHyPdy8riWwvG/stUGtzRzvQk+8roOX7oEyW9UR347tVY7DSqmkpVvHFWlylhv5URApbF7a5+akFg40d+LGAkR3+7+jp8gcU/fXBfl1oveq/39aPdpDIAs32spYAFmS2a3bPB5htLss6M+LZ+JKcMNcqz9aWti61dWhlYbEqCktUWVyiUve57clWl5ZHfNuNcGLZ/dbGz9ae9mruaNPZK5d1seWqP+BnAWIr+zy/9rT3LWtP4OYg4AvcBKV5BaosKtWyimo3kZgL7BYXFM5lH7gJx1wQeC5r1xY0trCxiQmByg/GJgGWAeyGMP/3iYUTiQHfrNR0leTla239CjaJF4KbdQyODOmqm/C/ce6kn+QjeCwYY4vr0rxCVZeUqdwtpAvd+8gCutamwIK6tqk3FwSeCwT7DT776J6BFsSJth5Ii22+f5odtpgPmFgvJquicdktvK0ctC3Ez1y5pMa2Vo1NjnPyGguizI0jBdk5ynTPYzscYuOHZd1a5kV6SppK3JzaAr02dlgVgLkAgfVQtLKbS/0Gn92zcnt2j8NbwWNzezvQOb9h7w+ghMYqCwJYILi1q8MHgq3Ny9mmS2ru7FDP0ACbg0CYszHZqr4UZOeqyA4B5riPufm+pZWVXU5zY72N/5a9Oz9vtN9j80SbO9p80uaN84eAEFlsDPeZwO4ZYCyz9+1BXbtn7GCQP6Dong1jY2Pq7u/za0oLKFlWoWUTWq9Rm99aVZsLbm475j5HZLMkmtXVdaorq/R7sVWl5e5jqa/+YocF/V6se9lHCwazB7tw7D1sa8n5w3r20cq7D4+P+ffq5ZYmnb50QWfd2rPJze1sTmfvfQA3joAv8D75rAK3WMnNylKOlQPJsK9zfAaT9YGwzW4r3ZydmeknFEAkicSAr200r66p1wP7D6okryB0FbeKTTrstPbhMyf01Scf9Se4Eb58GVS3WM5Km8usmyvNnD4XjElJ9dkY9ky0kllWvcKu23Nxvl8awttcEHhKHb3d6rbSqf19PojS3NWuls52dbrFuF3z/TXd4hx4P2wTzkoxW/lNK+Ge6cYQy8BITJgr1z5XTi/Nz62z3EcrzelLvrtXclKofGdCkp9T2z1EJ9v8tw1Ca+fSYyUB3VjV0tXhx6XugT5fqr6nv1ftPd2+RP1wKEsMwMKwAIqN9XNl9N1Yn5buX/P9c+fmkelvzSXtnq/WkJkVKqWa5Es2c1gH74U9Eyzwa20AxiYsQ3BcY+MTvk3AoFtXTs3YQaExX/7Z5q7WQsCCTZZNaPfHJyd95qG1QOkfGVI/a9FAsbEkz60/LfvfDgjmZmT5w8el+YX+6/l+vDbf5IBIeLLDHfb+tb6/Le1tfk5nFadsXmdrTwsGd7l5nbX8GCU5APhACPgC78JOldpm1dxp0rnPl1fUaOOylVpRW6eGqhotq6xRoptMUBoE0SASA77Lyiq1e90m/eZHP6WasorQVdwqdor7SmuznnztJf33v/+cn8wjPFim3HwGhT3/li5dopy0TJW4BXVdeZV/f1SVlqmyuExFeQW+7zybc5HJsiWOnzulUxfO69TF83r93Em/GPcZeLNWPu+arl0n+zfazVersbHDxou5j5Z1O3fdDj5amc6KgiJVFZequrTCb8JZz27b8LdxxErsAR+Ebdjb5r2Vpz954ZxeP3VM565e8QdWLKPEl/m0/pBu3kEWMHBz2Ng+P0+c/2iVFaz/bmF2rhvvi0PzxXJVlth8Md9n2iUkJPi9FGAhjY6N+SzggeFhdXR3+TVo39CA+gcHfI/Ri61XdaGlyT8j5l82v7127cc/t488Rxbe3BzTjTluvWlrThtDbO9mdc0ybVy5Witr6/0a1cYXG4cQXHawzwLANp875tagxy6cVWNbi9r7uv26c34NyvsQeG8I+ALvIj8rR/WllaooLlF5cbHK3ALGMnktk8nKzFkPmbTkVD8BsckIEOkI+OJG2SSdgG94stPS9swrys/3pfbshLSdnrYqFj5DIznZZ9klu1eSW1hbyT2efZHJyuZZIGVoZNhvkrV0Wd/fFl1qbtI5X/K5Wf3unn0fopeV37S2CDZ25LqXZWtZb13r121jhVUBsIxd+z772l5z7U2s3HusPzCZnJgU+tOA98eCutPT077ks5Wmt7LPlvFr2SEtHW0+EHz8wln1Dg1qdGI89LsAfFDWliMpPlHlBUW+KpIFc22emD+/P+LGfBvTLaPXMndtzE9080Xrr26BYeaMWGgWILKy0NPTMz6jd3R83GcA27PDSkVbBrAdcrTrI+OjPkBs2YVW3caqRcw/VyzzkOfIwrOqATnpGWqorFFdRbXfq7Gxx6pLzVWWSvVrVAsEM74Emx3Sm8vct7Xn3CENW3/a2vNqW6sutjTp5OXzPkMfwM9HwBcIsRNhNqGwjINsKzWUnu4WM8VqKK9WRUmJz0AoKyxyi5hksnkRtQj44kYR8F18tvFmzztfai8pxW/KpaWkqCS3QPXu/TC3gTe3iWflma28KqKXvWetDF5nT49bdF/RuSuXdf5qo660t6itu0tdfT2amJ6i51IEsg36uBjr152klCT3SnbjhftoG/qWvZuRmurLMedl5vgMrp8M+M5v+AMLxbJ+bfO+uaNV56806viFM77Uc6eba/QO9Kt/aNDfn8/8BfDOrG/u3KGduUPuNpbb19Zrt6ygSKX5cwHfgpx833vdgi/xbn4JBI3Nc60EtM11R8dG59qZDPRpZHTUZwNbr+AO9wyxg0W+FPTUXDnoubLQk75nsAWDrbcwc+Ebl5GSNlcC3o0pRW58KS8s8gHf+lDA19aldpAEka/fvf+aO9p1tb1VF69e0bGLZ9Vh7TsGB9Tr7tkBDVuDAvhpBHyBECs5V1VYovXLVmjTyjVa6z4Wu4WMBXitnPPSUGlnTo4hmhHwxY0i4Lv4rO9uZWGx1tQ1qLa8ypfdW1ZVo5yMTH9C2pdknX+5Zx7PPdj79pqVSA2VSe0fHtSxs6f07Buv6KnXXvbBlBEyHyKOHQ5JS0r2JTori0v9M7KqpEzlxSW+4s3cpluiGyvmyjnbWDE3drhxw34xfmCB2Vg1P17NXLPy87N+c9AyRF45eliHz5zQycsXNDoxpikqFAA/kx2AX1lRo5U19VpeXasKN/aX5BeqIDdPMfPl+98+V3QfGe0RVPPPDv/8CD1D3Fe6HirnbGWdh0fneo7aq6OnS+1dXWrr7lRrV4eaOtt9JrDNhe3PwAe3urpemxpWacOKuZLN9ZXVfn0633aIuWX0sPeSrT2vufmcZeTbgYxj587o1eNH9NrJo7rUclWd7n0H4KcR8EVUsgmCbWLlZWb5E6o1pRWqLClVWX7RP5Ymys71J1lp9A/8IwK+uFE2cSfgu3DslHRuRqbPvijOK1RZUbGKcvLmsvCyspWVlqGMdKtskclpabxnU9NT6urrVXNHmxrd+/lc02WdbbyoU5cuqH94SGOTE6HvRLizOXGxlePMzPZVbqw3t1W5ycnI8l9bUDcjeS7LKzPdjRfua7tmmb6WzcU8GeFubGJcA0NDauvqUGt3p1o6232lgovNTb48/eDoMCUCEbUsk9dKMFuZZjvsbnshNv7bHLEwO8/3XbfqDTb2W+nUZDf2A9HIAk5j4+NzmcChbGDLDLbSz0NjIxocGdGQe54MuY+WDWylaa2yRLdVmBga9O0HLAuYDfgfZ8Hc2tJy1ZdX+QPI1cVlKi8s9odLbOzJcnNPwPaQrDpLt1t/WoWpdvdqbLvq16Cn3frzSnurfy9agBgAAV9EETt56vvOJCYp3S1WbBFTU1KuldV1Wr98le8JkZuVRbN/4F0Q8MWNIuB769ipZ9+ewEqvJiX7sqvFufmh7LwS1bmF9PKaev/8S01JCf0u4MZYBt3Zxgs6fPqkXjhySJfbmtXW06XB4WFNzkz7LAksLsvAinNjgx3qsM39+Dh7xft+uvaqc/PhisJif9gxPyfH92O0TK7sjCxf7h2IFDMzM37T/ejZUzp27rSOnT+jps42dfT2+MDv5BQlORG5bJ7o90NC/dPtZWWa7RD8iqpa1VVUubVQpUr9+J+pePd8IJMOeG/s+WFZwD0D/epx69vuvj61drbrakerGtta1Nje6tuhRHtAyirCxMfFKi3Z+u8m+8Mkm5ev0dZVa7V17QY/90xOTAx9N/CzWab92csX3PrzdR27cMatP7t9/18L/I5PTfo1KhCtCPgiaiS6BUtueqZbzNRp3bIV2rhitc90ykzL8BvjSQkJvjcvixrgZyPgixtFwPfWsb689pxbW79cq+satLymTkW5+b4snwV1rPSqLaDtWWenqYGbwd7Tvn/Z2JjvjXn03Cm9dvxNPXP4VZ9NR+bc4ktx7/3czGzVFJfN9VzMzVNpQZFKCgpVnF+opPgEX/kmLi5WcbFxPiBgAeHYWCufx1iByGHjlW22W3bWmM/SGtfpS+d9qefnDx9SU0eb+keGQt8NRBYr0W9VXxoqa7W8qlYrautVbBm9mVm+V7sdCvIHg0LjvwVmALw3VgraAkx2sGh6dsZ/tCDw+MS4r4bz9Osv66+/+3XfAzia2ZyzIDtXO9as93uya9y61SpNWYUZO2Roh5ftoCLw81jWva1Bh0dGfCZ9U3urXj95TIdOHtWFliYNunUpEK0I+CKiJcTF+cVLdWmZqkvKVVNa7nuPVRW7l/vcStXZxjeA94aAL24UAd+bIzYmxgd4re9uflauCnLdyy2erVyz9dqsKCpVaWGR0lJTlegW1sBCsTLPF5oafebc8QtnderSebX3dmtkfCz0HbgVLIPXDnRYmXYrf5eZlqa0lFR/qNE20nIzs1Toxggry5zl5r+2wZ9tLzeGANHMejDavMRKAp6/2uh7wtnmvG0ejk5O+HkLEDQWMImPjfVzw+K8At/Kw3qvF7qPlsFbml/k5onF/nlBmWbg1rEA77OHXtEPXnha//DUY76sc7Sx6jJ2ALmiqERVbp1qey4rq+tVW17h16y2J0uQFzdi0r3PegcGdKn5is42XtJZazd05ZLOXL7o5nLjPjgMRBMCvog4lqE7X67INr2sL9mdO/Zo94YtWlO/QkmUBwE+MAK+uFEEfD+4+bKsMTFLlZKY7J5vuVpeWetPRq9rWKnq0nLlu2tUqsBiszLOtvB++c039J1nfqRDZ477sqm22L7u7rH4+ODs/W1ZVzbXXerGAv/RfW09GAuycnwftFr3XKsqLVNJQZEK3DzYXpRmBn6+yy1NevPMSf3w5ed19LyVB+zSpBu3Zq/NEvhF2Jtv7WHzRDvsl56cqg1ufrh15Vo/T6wsKfPzRAALw54b1sv3z776d3rsped0qulSVJWZnduXjfMHDRsqqnXb5h3avnaDVtTUKcGNUQR5cSvYevNqW4uefeMVffWH31dbb7f6hwc1PTPjq7wwn0M0IOCLiGP9eS2DYdPKNVpjJS2r6/xpVuvPm5Ga7hZAlKYDPigCvrhRBHw/OOvHu8o90+wktG3a2ano3Az3bHOLaKtYYZl8VooPWGz2Pregb+9Av5o723Xiwlm9dvKonj70sgZGhjU1wynrD8rmuVaS03rsWtZWoZVodvPcvKwc5WRk+A3+VPc91svbDjnahppt/FPRBvj5rNRz/+CAWty4dfbKZd/r983zp33Wr/WDoyc5wpll7s7NE0tUUezmisVl7tmQ7Ss5zM0Tk/wzAcDCsJ7xVvnmjz7/53rmjVc1NDYSVcGmioJira5d5oO8K2vq/dzVKsxY73AL9nJIGbeCzdXGJsbV3dfr16FnLl/Q8Qtn9PqpE+ro6/E9foFIR8AXEcH689qkwQK7FYUlqi2r0KYVq9VQXavqUgI4wM1CwBc3ioDvezNXsjnZn4jOyrDyrOm+HcHa2gaVF5eorLDYvYp8nzUgnNmiu7mjXcfOn9ZTr73oFtzn1NjWrFG3EJ+JoiyH92PpkiU+SJucmKQ0C94mJ/sDHbZZb4c8CrJzVJJnAd98H/DNz85Vtrtu98mWAG6MzVOmZ6bV0dOts5cv6o3TJ3TUjV8Xm5vUM9CnYcrTIwxYf3XbA7HWHrlZ2X6eWFNSoTW1y1Re5OaJRcW+V7tVPQOwOJraWnT41Al95utf0OGzJ0NXI1taUoqy0tNVlFfgD6BsWr5am1at8eOSZfsS5MVCs+ot1rbDevuea2r069DW7i4fFAYiFQFfRIQCt8hZWVXnSzdvWrVWyypr/OLGsnltMQTg5iDgixtFwPe9SUtKVmVhidYvW+ErVqxtWOFPRae4RfR8Kdel7vnGkhlBYOWzJicnNTw6oi89+m1946nHdaWj1Qd98dN838XMHFUWl6iuvMqXa7esfsvWysnM9L15LbBrpZz9R//5EjbRgJvIxi0rvdk3OOADv9/40Q906PRxnW9pCn0HsHiSExL9Hsi21Ru0a/0mrXXzxaLcfCW7+aOVdLbnAvsgwOJ66c3X9Z2nf6gnX39Fje0toauRrb60wgd5791zwJdutoOJcy2JGI+wOKwtx9TUlM+4P3r2tF44ckjffeFpNbm1KBCpCPgikGxDKzEuXiV5BWqorNG6hhVaUV3ns58KcvOUlZ4R+k4ANxMBX9woAr4/W15mturcz6CdgLZyfNUlZXMlW91zzTL4LMOPxTKC6tr1ueDJmcsXdeT0CT17+FWduHhOl9uiYwPs58lJz9SKqhr3HKr0Y0BuZpay3XzW5rSZqelKT0tTRmqaL9tuGRIAFsbU9JT6Bwd1vumyTjde1MmL532JeivTOenusZmChWJtq2pLbZ5oVV7cq6DIfyzJL/DzRKsKwTwRWHw23x2fnNDXn3xMf/H1L6mluyNiy8ja3qy1G6lwY9HaZSu1qqbe79HWlJUrKyPTj0vAYrM9qJnZGXX39fn524lL53Ts7GkdOXPC9/i1lkNAJIlJrCj4z6HPgUCwCYP1LrON8E0r1uj2LTt1x7bd2rxqrS9nlJSQGPpOADeblbV76tBLoa8ig40ntkCx6gDW4wq33sDwkC63Nuvl40eiNsPPsvHi4+J8pp4Fdory8rW6Zpn2rtusvRu3ao97bV61TlWl5b5Uq/Vco1Qrgsw2hCzbyPrN2ga1vQdmZmZ8P7PpmVn3mgl9Z3SyQ4x3bt2lg9t3u9cebbTWJFW1/u8qLztH6alpbhyIJ2MLWGAWQLO+2NYT1XqkFmTnamx8XOOTk74f+bVr1302MHAz2TMz1o339rNnZZsLc/O1tq5BezdscfPEbf5lfTHn5omZ/vnAPBEID5NTU2rpaNfTr7+ix155TlPT06E7kSU5MdEfWF5WXqntazbo/j23a8e6jVpZW+/nrRxQRLiYX4fa3ouVG7c2kDnpGZqdnZmrROXmczNuPWqBYfsFBB0BXwROfVml9m3Yql+6+0HdtXOvm0ws843/rd8hgFuLgC9uBgK+UkJcvPIysvzm3R1bd+pjB+/X/XsPaOPKtaosLlVWeqYPCNviBIg08bFxKi4oVHFuvvLcHK6jt0vd/X2hu9GpvLBE9+7a79uS5Ofk+Hkt738gvFhQzQ5h2cHjvMwcjYwMa2xyQiP09cVNZiVQUxKTtLqmTgc279Ajd9yje9wzYsvqdSp380Tr2WstrHhOAOGnb7Bfzxx6Wa+eeFOX25pDVyNPXWmFbt+8Uw8fuMsn4VSXlSs9NZXDiQhr9ti0wwh26H5VXYM/tGBr0x63Fp2YntLM7GzoO4HgIuCLQMhMTVNlUam2rVmv/Ru3afeGLW/1M7RTrwR7gYVBwBc3Q7QGfFOTklWcm+fLXG1euUb7Nm3XznUbtXH5aq2sqVdJQZEy0uZKthLsQSSzLCSr2GJlyrPSMjQ9O6PpmWn1DAzoWpRmylnm4D43x/XjgJv38v4Hwo9tYlvQNz0l1b9PczKylBif4LNBrFxntFcqwI2xuZ/9PFnm0cblq3zFl93rt2jLqnVaXdeg0sIiX+bfvod5IhCeLLu3qb1N33r6hzp+8ZwGI6xUrPUPL8zJ1bbV67XfrWX3bdrqx6fi/IK5svIEexHmlrhftha1CmoZaeluPZrkn63Z6ZlKjIvz/X6n3HyOwC+CjIAvwppf9CQkqLqoTNvdhOJjdz6g/Vu2a039ch/opWwRsLAI+OJmiKaArz3H4uPi/eaclWxdX7vcL4wtS+OB/XdoXcNKlRQUKjkpmWcaoo5tDOVl5yozLc2aK+lc02Vf9i4ag77Wr3vn2o2+5HVaSkroKoBwY0G2uLg430rIMkMs+Cs3ZLV2d2pscjxqD63gg7GfJ5sr+o3nlDQVZOdo38atum/3bT6rd7NVfikt82UoLaMXQHgbdOvcM5cv6ks//J4aIyi719aplgVpvcTX1jbo43c/oDu279aaZSv8+ESgF0GVmZ6h8qIS33/aKqwNDw9reHxUE1NTmr1G0BfBRMAXYa2quEwHt+7SQ7fd6ScTVWUV/jR1LIsdYFEQ8MXNEE0BX3uO2YGlg9t2657d+3Xnjr1+g9iCvJbdSJAX0c42uy1bIC05xQd+rTRqe0936G70IOALBJMdXMnPyfXvXcu37HTj17Xr19yLHnD4+dKtP7Rbh1h7jwf33aGP3Hm/74VZU1bpK2DYvgeZvEBwnLpwTq8cPazDZ0/6yg+Rwsrebm5Y5VsQPeDGqhU1db7FAQdREAn8Yb7YON8usqaswrccsn6+V9pbQ98BBAsBX4SdpIQE5bqJw/KqWl/q0gK+W9asU215lS+1QLAXWDwEfHEzRHrA17J9LJvXylvtXLtBu9dt1tbV67WmfoXqKqqU5X7OkhKTCPYCji2wExMSlZqc7EtpjbkxwbIjxiYmNDMbPeVRCfgCwWQB38z0dL9+tY1vK+s8Nj4xl+1L0BfvwDJ6rQdvdUm51ru54Y41G3z55m3u4/rlq/wBAnsOxFC2GQgMCw5ZNuCLRw7pmTde1ZWOVl/eOchi3Fp1rsx8uTavWKPbNm/37fWs4qKVwrVsSCAS2LPWns2WYFaQm6eMlFTFx8dr9vo1X4VqcnrKV3BhVoegIOCLsFOQlaM1Ncv0qfse1v17bve9eullBoQHAr64GSI94FtbUqa967fon/7CL/mMXivbXJSX73v48iwD3pmVs8zPyVFSQqJbcC9VY1uLhkZHQncjHwFfILh8AC893b2PC1Xt5gBX2prV0dPt+5MDb2ezQDskUFdWqQ/tvcOXbX5g/0Gf0WtlJZcyTwQCyYK9k5OT+u5zT+mJ117Q8NiYr/YQZAlx8cpJz9SHD9zjxqq7tW/LDremLVBcXKwbqzi4jMhk5clzs3NU5eZzdihrcGjQzem6NObe30F/TyN6EPBF2LCSRRsbVuqu7Xt1354DWl23XAU5ub6HLxvkQHgg4IubIdIDvqtrlmnzyjXatHKtLwuUEB/vs3l5lgE/m70/7H1i7xcL+g6NjGh8YkL9bryIBgR8geDy49eSpb4SlVUrsP6+malpvlrBzMyMJqenQ9+JaGRBXMuSszYfls171449utO9bJ5YUVTqD7dbNi/BXiC4egf6dezcaT37xis63XhJs7Mzgc0GtF69loizxY1RVmp+14bNqimvVHrK3Fi1xB9dASLT/JrUqrakuDldVnqG8t287vq165py8zlrPwSEO47kYFHZosZORBfl5mttfYPu3LZb9+09oIM796qypFTJSUmh7wQAIBisxFV+do4P2lDqCnh/8rNzfam4/Zu2aU3tMqUkJvm5IgCEOwvq2Rh2x7Zd+tD+g9q1dqMqCkt8yyKyoaKTPcNsr2NlTZ32rNusB/fero8evE/3u4/W+sMOBgIINiv12tnXoxfffF1X2lrnyr8GtKR/SlKySvILtLFhlQ5u262HD9zl5+W5mdm0I0JUiY+L98HeHes26sF9B3XH1t1ubdrg+1mzx4Nwx2iNRRUbE6v0pBQ9uOeA/vmHP6kPuclEfUV16C4AAACijWU73b59t/Zt2qaqwhK/YQ4AQWCZIbZJ2FBVq3/yyC/5wyuluQVsDkYpK/F9z469+ref+LR+8yMf1/6tO1VaWKw49/NA5Rcg+Kx37/TMtFo72/XUoZd1tbMtdCeYakvKdde2Pfq1hz6qO3fuUUFurj/MBESruNg4lRWV6JGD9+iR2+/W/g1bfalzIJwR8MWisDIgNkBuXrFav/LAI77H4dplK3w5O7J6AQAAopeVRbWsJ+t/bVlQVgbTystRQg5AEFggLy0lVdWlFdq/ZYfu2bVftaXlSk+mXHuks3/7/Mxsra9frkcO3K1Hbr/H//tvWLFKle5ZZu1jrGUVGd9AZLDevU2tLTp75ZKau9o1MhbMcq/Z6ZnaunKt7ty+R3ft3KtVtctUkJvnDzCR2YtoZs91e27b+2HjitW6d/dtutu9R1a79wgrU4QrRm0sOCvLl5aUMndyzE0mfvuTv6Fd6zcrLzvHB4IBAACAuvIqffjO+7Siuk4ZKalaspRlNYBgsA3y+Ph47Vi7UR8+eK82L1+t4tx8vxYmszPy2L+pHUxKS05RfVml7tiyS//iI5/SJ+97WPu27PClvu0wE4DIYn3aT1++qFMXz2tobFTTszOhO8Hgg1m+x3ip7tt1mz9ouWfTNt+L3ioyAvhHVaXlumPnHt+aYf+mrUpPTfMVXJjXIdwQ8MWCqyoq1Z3bdvkSV3fvvk0JCQkEegEAAPBjEuLjfabvjrUbtHXVOkqiAggcC/KVFBTpF+9+0Gd6VlKmPuJYcD85IVHr6pfr0x/6iP7phz+uh2+/W5Ulpb4fJoDINT0zq7ONF3X2ymXNXrsWuhocdlDl9q079Et3P6CDO/aovKg4dAfAO7H1aG15lZvT3abf+eSn/YG+5Hir3EHQF+GDgC8WTHpKqtbULdO+jVt194592rVhs2rKKvypMU7DAAAA4O3sQGBKUpLWN6zU1tXrfB9MAiUAgsSCgempbh28bLl2rtukXWs3qtCyPcmciggZKWm+ctm+DVt1z859usu9dqzbqGVVNcpIS+egEhDBRsZG1drVrostV9Ta3aFrAQn42v5rXGysKotKtX/zdl/Geff6zaouq/AZiwB+tpilMb49g1WgunvHXh3YslMblq/yMQ+7B4QDAr5YMMV5+frFg/fpE/c9pLv33KbcrJzQHQAAAOCn2cJ5WWWNtqxapzU19crNyArdAYBgsH6tVt55dV2DHjl4r2rLKpXkvubQc/CVFxTpwMbt+jef+HX9yoMf9r3ns9IzQ3cBRLKuvh4dO3dKV9pb1T8yrOvXr4fuhLcY90yyqgR71m/W//krv+UzFS3Yay0HALw3qckpqiwt18MH7tbH7rzft+1I4JAXwgQBX9xSdnI5LSlZd2/fq0/e85B2rt+i8sISf9KVcgcAAAD4eSzTtzi/QHfu3OerwwBA0CxxvyzTt6asUg8fuFN3uvWxldJE8CTGxauutEIfv/tB/fL9v6AH3b+n9fWzzV+qlwHRo7GlWU+++qI6ensCE+y1vdjSgkLfg/RuN6+uKC5RWkoKmYnA+2TP+pilS5WXla31Dav8fGDH2o3+MIVdBxYTP4G4JWyJYwNcbkamVtcscxOJvbp3921qqKpVZnrG3DcBAAAA70FORpa2W5nMymplpaVTDhVA4CTEJyg/O0d7N23Xga07VV1a7ksAIhgS4uKVk56p+ooq7Vq3SY8cuFv37LlNW9es9+Ud7XASgMg3Ozur4dERXWxp0msnj6lvaCB0J3xZcMoyeEtyC7Rp+Rrdv+d2bVm9TpluTh3H4SPgA0tOSlJVaZnu3X1A+zdtU0NFtZvbpRH0xaLipw+3xBI3sNmplk3LV+tff/zXtGfjVhXm5lMiBAAAAO9bQny8CnJytbauQVuWr1FackroDgAEh/X0zUrP0PqGFfrV+x/Wyuq60B2Eu4KsHO1YtV6/9cjH9Vsf+YTWL1+l3EzaDADRZmxiXGcuX9D5psvq7O/T5NR06E74sr3Y1MQk3bFtl371wUe0vLqWfr3ATRIfF6+87Bzd7t5fn374F7WsvMofEgMWCwFf3HS2AVddVKqD2/bo4I49vo9NQU6e36ijvBEAAADeLwuS2GK6obJW29as96VRASCI4mJjVZSbr13rt2jLyjWqL6tUYnxC6C7CSVxMrHIyMrVz7Qbdv/eAHr79bm1bvUGVJWU+O5vMOCD6DI2M6JVjR3S28ZKmZqZ17fq10J3wYzuw1j6gqqhUH9p/p/Zv2q7lVbXKSEsjIQe4SaxlpS+Xnl+kzavW6t49t2nHmg0+ES6WculYBAR8cdPMlwgpys7VpoZV+tid9+nO7Xv8KZfEBBawAAAAuDHVZeXatGqdL/FsQRMACCLLrFpeXadtq9dry4o1ynRf28EWhIf5vY0M9+9i/Xof3HO7fvGuB/ShA3eqsrTMB3o5zA5En9lrs76E88vHDut8U2Poaniy3vFWaj7bqkosW6lfeeARbVu7QVkZmW58Yw4N3GxW3rmiqEQP7b/T98guyslXcmIS8wUsOFYUuGmSEhJVUVCsO3fs1S8/+GGtqmtQRlp66C4AAABwY2y+WZSbp60r1vhNeAAIslW1Dbpj226tqKpVbnpm6CoWm2XlVBaU6P7dt+mf/MIv+b7LZYXFobsAolVHT7cv5dza3amh8dHQ1fBkByMt2GvBpw/fcY/Ki0qUkpQUugvgVvCHLDIztX3tBt/icuPyVUqOT9TSJYTgsHD4acNNkZqUrCo3ebht83bt27RV65evVH52ji/jDAAAANwMsbGxvv/lxuWrVVtWGboKAMFUkJur1fUN2rVuk2o4xLLoLAsnPytHq2uX+V6XFozf6f5tfAln+l0CUe9qW6tOXjin3qFBTU2HZ+9eG8cs2FtZXOpLON+2ZYfvOW4JOZShB24te//5hDj3/rP3nsVJLOhrbSBiKO+MBULAFzfML4oys7VlxVr9+kMf1bY1G5QQn0BJKgAAANx0lp2wbvlK1ZQRHAEQbLb5Xpibr3v3HNCGFatCV7FYYpYu1cqqWt2/6zb95oc/rr2btio3O8f35gOAi1cbdeT0CY2Oj4WuhB8bx6xKwfbV6/TPP/opbVqxxh+WtD6jABaGBX0Lc/P0wL479LG7HlCJm+slMJfAAiEihxuSZpm9hSW63y1QH9x/h4ryCpToBjUAAADgVrAsX6skY+U1KwqKlJJIeToAwWXBxMK8fG1oWKU7t+5WQXZu6A4WUk1puR45cLceueMe7du83Qd6bW+DIAmAsYlxNXe06WzTZV1oadLE1GToTnixgFJZfpE+dvB+3bVzn8rdXDklmR6iwEKz95wlwuVmZmtVTZ3u3b1fK6prQ3eBW4uALz4QG7jiY+NUkl+onWs2+nJH1vw/LSWVzF4AAADcMlYOy+acpXkFaiivVlpySugOAASP9XuzUn8rq+t00K2ry9wa28px4tazvQvLhKsoLNG2Vev0ob13aP/mHVpRW6/kxCT2NgB4g8PDOnXxnC40N6m9r0fTMzOhO+HFgktWkv7e3bdpqxvTKOMMLK7kpCTfP/vA1h3avGKNii1RLj4hdBe4NZi94gOJXRqjnPQMXyLktz76Sa10E4q4uDhOjQEAAGBBFOTmafOqtcrJzApdAYDgKs4v0Pa1G1VTUqas1DQySxdAQmycygqK9Mv3PaxP3PuQP8SeyzMFwE/o7O3Wk6+8qKvtraEr4Wl9wwrdt2e/assrlUbfcSAspCanaEXNMt2xbbce2nuHCnOo5IJbi4Av3re4mFjlZGRq78at2rNxm++flu4XpPw4AQAAYGHYpvyqugZlsKEFIAJYRmlRXr62rFqnNXXLFePW3bg1LIM60z07tqxcq4f236k9G7ZoWWXNXDYcPfYAhFy7dk39Q4NqbG3W4bMn1dXXG7oTXvKysrV3/Rbt3bBNG5av9j17Y2NiQncBLCar5GJB34aqWu3fsl2b3Hu0vKBIHOvDrUKEDu+LZfBauanqknLdt+eAdqzbqPj4eEodAQAAYEFlpmWorqLKfUz3ZZ4BIMjmNwQty3Tr6vVKTkx0Yxvr7JvNnhfpyamqLirVXdv36BfvfkAr65b5AAkAvN3stWvq6O7ShatXdLa5Uf0jQ6E74cECRtZur6q4TA/fdqf2btyimrJKJSZQMhYIN3aob/PKtdqzfotWVdf7cutUc8GtwOoB75mdDktNTNK+jVv16Yc/ptU+oyI9dBcAAABYOAnx8X6D3vpdFmXnEvQFEHgW9C0rLPb9fNdU1ysnPTN0BzeDbawWZOVo55oN+lcf/1Ud2LZLuVnZPmACAD9pZnZGF5oadan5is/2DTexsbFaVVOvves3a+e6TSrKKwjdARCOkhIStX3dBl9ZpKa4TGnJqaE7wM1DwBfvmWX2rqlr8JOIHWs3qjA332+0AQAAAAvNAiNJiYkqyStUcV6++5qlDYBgs4paaW7dXVlSqu2r1/uxDTdHYny88jKztXXVWt2xbZd2rd+iqtIyX0qbimUAftLM7KxGRkd18tJ5nb1yWbOz4RXwTYxPUL6NaSvXavuajSorKvFVIgCELzukUe7eqxtWrNYdW3eporDYt5mw+R9wszCrxXtWkJ2rB/Ye0NbV65SXnaN4etsAAABgES1dstQHRErzC8nwBRAxCnLydGD7LpUXlYau4EZZGef60gr9woG79MD+g8r0PS7pkwzgnU1OTqpnoF9Hzp3SqcaLmr02G7oTHjJTbEyr1P7N27V51VofNAIQ3iywGx8Xr+XVtfrVhz7iE+uS4xMp7YybioAvfi4bjLasXKv7dt+mbWs2qDi/gJMnAAAAWHSWlWXlT+2ktLUfAYBIkJKUrKrScjVUVPles5adig/GMnjX1Tboof0H9Vsf/ZTWLFuh5CSyegG8u6sdrXrh8Gvq7OsJq2CvjV3JCYla58ayj939oOrcc8Iq3rBPCwRHonsPWzLd3k3bdPu2XWTn46Zihot3ZSVCrMfNrrUbdfvWnaqvqFFmWkboLgAAALB47DR0UV6+ii3Dl4AvgAhhrZPy3Dq8obJGq6rrfNAS719qUrLKC4q0a/1m3b1zv+7evd8fEiKzF8DPcv36dc3MzKixpVnPHzmknoG+0J3wYAeAKotKtXnVOh3YttMn5TAHBoLFDirb4b5NK1Zr/6Zt7j1dojSCvrhJCPjiXRXl5mnfhi1+gbSyZpni4ynjDAAAgPBg2QxWljM7I8OXdwaASNJQXavt6zYpLTk1dAXvR01JmW7fvEMP3XanNqxYFboKAD/b7OyshkZHdL65US8dP6zewYHQnfCQnZ6pB/bdrt3rNysjLU1xsezTAkFVlFeg9Q0rdcfmnaorqwxdBW4MuyJ4R3bSJNdNIlbX1OvunftUW16plORkNtIAAAAQNizgm5SQqMy0dBXl5PpsLgCIFEW5+aqvrFJ+VrYv4Yn3Jj0lVSurarVv03Yd3L5HNWUVSnPXAODnGR0f04nzZ3S+qVEDI8OanpkJ3Vl8FYXFvuXettXrVVVS5qsVUMoZCC6r6GJB3z0bt/gYTGZKmuKoQoIbRPQOP8UmCwlx8aoqLtXmFWt0YNsuv9AEAAAAwk1sbKwy3OK4sqDEfwSASGEVDMoKin1Z4qy09NBVvJs490woysnT3vVbdOf2Pdq9aasy+LsD8B5YOefBkWG9evxNXWhqDF1dfLZPG7M0Riur6nRg03atrKlXblZ26C6AIEtPTdWmlWu1tn65n+8lJSSE7gAfDAFf/JT42DgVugXSXTv3ace6Tb6ROP0gAAAAEK5svlqSX6D0FHofAYgsaW5c27p6nerKq0JX8LPELF2qupIK7duwVQ/fcY+WVdWE7gDAz2e9eweGBnXy0nm1dHWEri6+xLh4FWRla33DCm1ds16p9PoEIoZVU42Pj9f65av08O13q5CkO9wgAr74KaX5Bdq8YrW2uEVldVmFD/ZSIgQAAADhysph5WXnKIWSzgAijI1ra5etUFVJaegK3kmiPQcys7Vl1Vrt2bhVK2rqlJ2RGboLAD9fT3+fLrVcVVN7q/qHh0JXF19OZpZ2rNmgNfXLVVZY7Oe9ACKDz+CPiVFFcal2rN2o1bXLfKXVJe4X8EEQ8MVPWV3XoAf33a5lldXKSKUsHgAAAMJbXGycstIzlEgJLAARJjkxSSuq61RaUBS6gneSnpzqs3sPbt/te+ElxvM8APD+XGpp0pEzJ9U92K/J6anQ1cVnQd6P3nm/36+1TECScoDIk5mWrrqKKt+SYl1tA+9zfGAEfPEWWyCtqVmmTctXa5WbRKSlpDK4AAAAIOwlJyWqvKhEGan0aQQQWZYuXerL1pfmF/kNwEwOZf8Ya0lVnJOnPRu26Ncf+ohW1NQrMTGRvQwA79m1a9c0OTWpU5cu6LWTRzU8Nhq6s7isJ/m6uuXauWaD6iurlZmWEboDINLYvCXZzV82rlitTe5lZdyTOLyGD4CALzzrdZOXleUmERu1ftlKlRYUcyIWAAAAgZAYn6ji/ELf6xIAIoltAMbGxqo4L1/r6pcrk4Mtb7FgeFpyiv97uW3Tdh3cuddnQsfGxIa+AwB+vvHJCXX0dOvslUv+NeG+XmyxMTFKS0rRpuWrtG3VOt/XMykxMXQXQCSyqlU15RW+fPvqmnpfwQp4vwj4wrPgbmVRqR687aCW19SFrgIAAADhzzIgrBVJAgcWAUSo3Mxs35c2PTU1dAUJsXEqzS/0pU73b9nhnwEWBAaA96O3v1+vHj2sK20tGpuc8Bm/iy0lIUklefnaunqd7+NuAWAAkc0O+cXHxaumvFIP336PqkrKQneA946ZMLR0yVKtrV/uSyBVl5YpPYUFJAAAAIIjLi5WGWnp9PAFELFyMjPVUFXrWy9FO6tQZofWNy5frQf23u77WuZmZ/tgL6WcAbwfMzMzauvu1DNvvKqrHW2avXZN10P3FpMFeu7cvkfLKmuUmZ7BYRYgStg8xg75bVq5Rsvd+9/aVsRRuQTvA0+LKBezNEZJCQnatW6Tbtuy02+UxXBqDAAAAAFi5TutnHNSQqLPgGDDH0CksQ3/mrIKZbo1e7SXLE6Ii1d+ZpZu27xdj9xxj4rzC6L+7wTA+3f9+nVfzrm5s00vHnvDB34X21yGX5yWV9fqwf0HVV5c6sv6A4getq61Od+qmnrVl1UqIT4+dAf4+Qj4Rrn8rGxtXbFWa+qWu0lECYskAAAABFZOeobK8gp9MAAAIokdzE5OSlZ1UakqC4r84e1oZf2MH9p/UJtXrlFeVo7veQcA79fM7Iya21t1pa1ZQ2OjmnJfL7aUxCStqa7XmtplKnfjfbL7GkB0Wt+wSrs3blWKm/8B7xUB3yhlJ8as15n17bUSIfUVVb6UMyVCAAAAEFSpbjGcnZ5B2SsAEcdaMVnWV1lBke9bG41rd/s7KMkr0Lr6Fdq3eYdqyyuVlJjIPgaAD2R6ZkanLl/QqUsXNDE1GRa9e61s/9ZV67WqZpnv2W57twCikyXnralfrrqySr/GBd4LZsVRaumSJUqOT9SK6lp9+M57VeEGEAAAACDI4mPjfFnnpUsp6Qwg8ljvWitfXJRX4D+PNpblvL5+hW7btN33tivIyQvdAYD3b2p6Wq+fPKYjZ05qdnY2dHVxWdn+fVu2a2XdstAVANEqIzVN1aXl2rl6vaqKSkNXgXdHwDdKWSmAHWs3aMPyVUpNSaGUMwAAAAIvKSnJL4yZ2wKIREuXxqggN9+98qLuYEt2WoZWV9Vq/+bt2rJmvRITEunXDuAD6+7r1YnzZ9TY1qK+4UFdvx66sYisX6cdaCkvKqGEKwA/z8lKz9DODZu1vLpOKW7uE80tPfDeEPCNQlYGKjczS9vXbNCaugbf74YSSAAAAAg663tmmRGxMSyEAUQeW7cX5uT6zFYrbxwNbLPTNjetlPWeDVu0ZdU61ZRVMM4DuCGtXR167cSbau5q1+jEhK67X4vFxjkb01bX1GvP+s3Kz87xe7cAkJqcopW1y3yV1tL8IiUlJITuAO+MKF8UspOxy8oqtXnVWrdQqgxdBQAAAIItKdEyfNMVQ78zABHIsnrzc/JUkJMbNYe2fTuqhEStW7ZCn7jvYVWWUNIQwI271NKkH73ygrr6ekNXFo8Fe1MTk7WsslrrGlYqJSkpdAdAtLPxIT01TSuq67R3wxZlZ2SG7gDvbEnmnjVhULQCC2n32k26Z+c+3bfvdpUWFIWuAsDP99mvf1G/9yd/FPoqMtgBmN3rNuk3P/opny2AW+v69eu60tqsJ197Sf/97z+nrv7FX2DfbA/tO6j7d9+mA9t2+Yk5bsy1a9c0ODykyekp//Xo2JjGJic0MzOjmdlZTU9Pa3h0xPfgmmff2zXQp2n3PTeLbbzkZWT5jKq4uDhlp2co2V1LSkx091KUmpzsS69RXnJxvfzmG/rhy8/pG8/8UK3dnaGr4W/T8tX6d5/8tFbXL1dRXn7oKgC8s2def0X/+c/+l5o6WjXonoGRLNPNpbavXq8H9t6hhw/cpdjYWCqUAfjAJqYm1dnTrS8//l395be+omG3tpia+cd1xGIoyM7V6up6/cqDj+jg9j1+nGNNAeDtrra16PDpE/rsN76ko+fPLPq4hfBFwDeK2KIoLiZWv3L/I+71sMroCQHgfSLgixtFwBfGJp/Xr13zPw/Xrl/T7Kx7+a+v6dq1+Wuz7uN1TbuFTHN7m4ZGh/3v7ertVd9gvyampjQxOaGx8XG1dXdqZGzM3zdDYyM603RZoxPjoSs3Lj8zW8srqn1ZSQv+VpdWKC87W5np6b60ZmFOvgrz8hQfG6+42FgfFI5xcy82axbWq8eO6ImXn9c/PP2YWro6QlfDHwFfAO/H4VPH9Zdf/5IOnTmhy+0toauRJz42TtUlZfqtD39CO918nbk6gBvVNzigQyeO6OtPPu4PCC42Wyusrlmmj95+j/Zt3q4VtfWhO4hUdqB5bh3sXu5zW/u6C++pqPgS98v+zw4h2z6/VcFYsnRJ1LR5iGZ20L2ls13/5XN/omcPv6Z+6z0euge8HQHfKJKVlq6Gsmr90j0P6sHb7lRyYqJi6HsD4H0g4IsbRcAXZmZ2xgdoLVt3aGRYHT1d6h0c0MjoiIbcq39oSJ39Pf7E/fjUhMYnJt7K1rXsXVvsWIDYFsgWGLbAr2X7zpt2f/7w+Ji/d7MkxMUrLTnZL7Jt/mSH5qy3lr0S4uOVmZru+ypWl5SrvrxKK2qXKS8r22cBY+GcvnRez7kF8Oe+/VU1urEmKAj4Ang/zjVe0nefeUKPv/q8jpw7Hboaeda4Z+medZv14Tvv8/N0DqwDuFHNHW36yqPf1o8OvaTXz5wMXV0cFuxNik/Qvo1b9TtuHlhZWq6s9IzQXUSi2Wuzb62DR8ZG/UHm4dFRTU5ZNaufH6JZsmSpX3+mp6YqOyPL93dNcWvUVPd8pPpFZLO9j/6hAX3x+9/SD195Qa+eOuoPDQA/iYBvFKktrdDD+w7qju17tGnVmtBVQBodH9PE5KSfeExOTvkSN8YmHMNjI+9lzvGubGM8LjbOHzKYP4GW6D63E9tzm+ZJSnCTXIQ/Ar64UQR8o8NcEHZS45MTc6+JuY9jE+MaHJkL6tqzx7Jz7TnT1dvjFi+DfvFrC9+BkSF19/dpxH3/fCnncJfonmOZKamqKCpRjZtzLauqUWVxqcoKilTiXplp6X5xjlurseWqXj52WH/85c/rQvOV0NXwR8A38tghFTuMYuOhfW5joJWit/m2VTWwebaNiTeDzaeTE5N8dQHr82Wl5m3uPX84xQ6lILJY5YuXj76hLz/xfT135LXQ1chhP8f2XH1wz+16cO/t2rR6HUEQvCc2xk5Pz42/thFua48pN5e01h9vb//xQfkWHskpBFcCytYeJy+e0//n5omHz55UW2936M7iiI2JVUNFle7euc9XMrC1oz27EXx2QNnmfoMjwxp2619b8464nz9b69p62D7aetgCeLYGtu9/Lzm+dkjA1pRpyanKdM9Fm+dZ0DcjLc2PS2nuleHWnWluXWrjVWKCzQljQ78bQWdrh9eOvanvPf+k/u7Rb/tnHvCTCPhGke1rNugPfuu3VVdeScYRfszVtlZ1uonu+OSkuvt71d03F4Dp6e/TpatXbvjEUJKbYNjkoyS/UPHx8X4BX5RX4De/ExMSVFFcqtys7NB3I5wR8MWNIuAbHWyTraOn22fu2qutq9O/Wjs7dPLKRTV3d/jDRPOLWvu5mHv5r/xHu2fXgsQW4L6sli+xtcSNL1Xavmqd7t17u1bXN/jnHiWeb62Wjja9euJNP76ca2oMXQ1/BHwjz9DIiDrd+Gfza6tk0O4+t829iYm5wzC9A31q7eoIjXs3xioJ2Dw7LcWCECkqzM+fm2fHM8+OVLZes4oGf/Gtr+rRl54JXY0cKYlJKszK0W9++BP66F33+wMNBEHwXky+NeZ2a2ZmWjPXZjUwNOirx9jhwhtVVVKmqtIyN7aWcZgmgJrbW/Xi0Tf8PLGxrWXR1xo2tv3iwft0z6592rVhK4dDI8jg8JDau7t05vIFnWu8rEvNjWp0P3+t3Z2+EtW0r0T19jXw+zBX1Tm0rlyi+NhYH+gtc3PBmpJyrapbprqKalW68aowN88HfxEZ7CCplaX/xlOP6T/+2f/yldOAn0TANwrYA8ACGge27NRvfuSTKsjJ5XRPlOkd6PebSpYt1T9oi51B9Q0NaMAthKzPoWVaWfaVlcO0j7ZRb/xptGHrmXhjw0RMTKwvhWmZvLZQt59JXwrTgr9LY/zmlJ1Ay8vIUnZ6pntlKCM9XTkZmcrNzFZ6WpqfCGPxEfDFjbIFDQHfyGEnlnvds8UOCHX19bpXj9p6utTtnjt2+tRe85m89tFOL/cND2rEfR4N5ss8N1TUaH3DCu1Yt1GVxWUEX24hC/i+duKo/h8f8L0cuhr+CPgGh5VTs/myZWrYPHlwZMhvvFh/8cHR4bnMDfey8c7GQNuYsewy+9yyN2y+bS+rqGPl/G50nm0sQ8jK+Vn1nFi3zvvJebYFf22enZ+dq4LsHOW6l60JC3PzOYQSUAPDQ2pqa9H//vLn9c0w6EF5s9WXV/rs3ju27db65aveWkMiell2ro2jFsy1QMqAG38tkGtzURt3+606jJt/WraTH3PHLcP3mq5fu67J6UlfVWGuZOqN2bN+i3a6+dzm1ev8WItgeeLl5/To80/rB688px7387KYbF821z2bf/vjv647tu9WWWExWeMBZRVcxtzcsKmtWZdbrvqy4a128NlXsRpwY9WQny8OjY5qdGLMV365maV47ecmzs0FLcM3IzVVOe7nyvZYrexzYXaeKoqK1VA5V33K5n42V+RnLZhsP82eZc8dflWf/Ycv6mzTJf9zBrwdAd8oEOMW+g/uOaD7dt+mgzv2+s0ARJ65U2HX/eaRbULZYsh/nJxQa2e7Wjo7fBaBlc20V0dft18Q9VqT95s40figkhMSVeImHoU5eX4zKi87209ELFshPztH2RmZfkGVlJDgs4KTEubK1jFJWVgEfHGjCPgGz/yiwp4vk+5lwVt7ttg1qwoxn7nb4p41tri95Ba6nRH47/pB2Qa1PeMaKqt1+9ad2rNhq1bVLvPPNLKVbj4CvrhZ5koxT7uxb8pnjM2NgVP+QGTf0KA/UNkzMHfgpbOn249/1ou8382tbX5tvy9czM2zC1ReWORexSouKPKbfjbvSU9J9UFhy/6Yb7eC8GdrPfsZ/MPPf1Zfeuw7oavBZ89MOyy1y83N/4Wbm9e6n9HszKzQXUQDOxgzaS835lp7EL+/4cZd63FpBx3ePvZaprt9tFYgNve0AMutRiWfW88ORdlBUftZsAD+0iVLfZW4uLg4LXG/LJBvBwBsvLDA1fxhJ/uen8X+TPuZ+stvfFnfePIxv16x9cxismBvfVml/u2nPq1d6zcrLn7ufx+CwYK29jM1Ny4N+IPPpy6e18kLZ3Xu6mV/CLrP3VtM9h7JSctQlZvzbVq5Riuq6/zczxJrrE2CjWH2vmFfNXjOXr6oJ15+Xt95/kkdOXcqdBWYQ8A3ClhQ7P/3a/9cD+0/6INnNhFC5LFsA5tstHS062LzFZ2/clkXrjbpYmuTz+S1bCqbMNukxEo+zH+0iW84sEm8/azOvyxTwX/uJvXpySk+ELzKTU6qS8tVXlTiF/85Wdn0/l1gBHxxowj4Bo+dWLZgrj1fLKBx9sol95xpUnNXhz+hPOXu2/PFNl4sOGIBkWlKC/0YW0RbadX0lBR95PZ7/CG85TX1vt8Sbi4CvrhZLGOsu6/PjX9tutruXm1Whq9D7b1d6uzv83NrP5eemevROz095efVVj7UgsU3M3PjRs3Ps61U5PzLskCyUjO0oWGlNi5fpQ0r1visXw4HB4Ot/ezn7T/86X/X5771ldDV4LOf0z3rNuuu7Xv08B13u3lU+rsGcRB5LIhrbUH82OvG3SvuZXsaXW7cHR4f9WPu3D7G3PhrH/0BHffRxuJbjYDvrWdZ3Fay3qoHWSUMK51t2YqWCGABLFtrWHDNetX7SnFZOcrKyPAHmOz+O7FM8Fa3lvmTr/6tvvPcj9yfMe0Dx4tpY8Mq3bVtj+7fd7vqK6t/5n93hCer7uJLhB95XW+cOaEzbt1h1ROtYqIdVJnbc138/VZ7hlrFRWv/YetRy/7dtnKtb/u4bd1G/76xpBoEix00aOvs0B/+7Wf1veefCl0F5hDwjXBWEreqqFT/6uO/ptu27PC9VJlERA479WgnXK0vhGXvXu1sV0dv11wGr1skdbqPdtJ1MrQBFVR2YtMmIaV5Bcpzk/yczLmSdLY5dfeu/X5jAAuDgC9uFAHf8GWBXVuczrUB6Pfl/zv7etTe2z3XCsAtavsGBnwfSrtuGW4Edt+/LSvX6MDmHXr4wN2+dBv9324uK/N49Nxp/YfP/A+dvHQ+dDX8EfBdPDbujYyO+owxa31ibU+szKNl69qrb7Dfj3+9/W5cHB70mWS+99oCBBZuJdsAtDl2ZVGJz/a1Pm91bk5UV17le1RadR02AMPff/3rz+hvvvM1f8A3En4m05JT9RsPflh379ynVXUN/vAvItdcZpxl6vbNzT/deGulKW19YGOvZc35tiHuawv2WubvYiPge+tZ9aAfPP+kTl++6HsxW9JKcmKi+/u2PqRL/JrFAmtWkcKuW4UK2y9KT0lTpvs3yUxLU1a6VYhL8nugKckp/iDBkdMn9A9PPaqXjh+Z+w9aJEuXWM/VOH8A9FcfeETLqmr9HhfCn1XXsDnhhaZGnW+6rHOhj03trWp362M7fBLuLOhbXVzmk2jqKqq0tm65llVWq7SgUAlu3mdVQhH+bM5n1S/+x9/+hb7+5GPqHuwL/DwQNw8B3wi3uqZed27drQdvO+gXTAg2C5TMn161U41t3Z0613hJR8+c0pvn3OvCmajpi2geuu1O/env/r6S3CQfC4OAL24UAd/wYP8Oc9lB8xUfZv0Jegt0XPAVIq7oSkuzjl86p9NNl0K/CzeDlVZdXbtM//YTn9b65Svp53sLWBb6P/uv/1Fvng1OeSsCvgvPKhJY+xML7lpZ+vNurLvcfFWX3dh3vrnRH5ocnRgPfXd0WFVdr11rNmjv5u1qqK712VSWFUKZ5/D15//wBX350e/oYltz4H9e05NTVVZQqN/7tX+mA1t3+kpOHFaPHH4vw809fVUYN/7a/NPWBOfcM9v2NCxoYhVkugYskzd89zQI+N56F9065M+/+vd64dgbOtd8JXT13VkANSUxSWX5haooLPGV4XKzsnzmb0F2nk+GePbQKzp8/pQa21tCv2txWMJCdmqGPnX/w/rXH/81P9bxnA1vvjf41LRPtDnbeFGPv/isz+p9rz+f4cqqUN27Y58/jLxt7Xrl5+T6g1f288jzNxg+/+2v6VtP/1BHzp+OqngA3l1MYkXBfw59jghkGZC/eNcDvgSulW9AcNnGvC2O2ro7dOL8GX3bDejfffZH+tFrL+nExXNqCZXWDKfycbfa8qpa3UuG74J64/QJPXXopdBXkSE3I9MtCou1adVan82CW89O819ubdbLx49E5Gb68soaLauo8hsN4Vp23gIdljVx9vIFvXz0sJ5x7+sfvPCMvvXsE3rx2Bs6duGsLrVdVfdAny/VjJvHntNLly5RSmKiMtPSVVZUHLqDm8UCeD948Rlf7SQoivMKtHPtRhXk5Pl+qrj1zl9p1LeefFzfeuYJfe+Fp3To1DGduXLJV8yxnmtTU1NRNa82lu1sJavPNzWqvbvTdxJMcmtIy5xCeLJ1oQXMegb7fRAtyFbV1uvBvbdrs5uT21hIT8HIYplxlmX5+omj+tErz+sbTz6qx156zs87T1264MbeNvW7sXdiOrzH3iDM84POMigPnzrufyZ6hwZCV9+d/cjMXJvxa0tbv1hQ94wlR5w/rddOHvPP+HPNjf7PW+wsOGtZtqZ2mXa4ed/aZSv8WEdwLbxZpYFDx9/0a+VvPPW4TjVenFsnB/y5awZHh3WlrUVn3fvF1v22PrUKL+yzBsPgyJAvWX/+6pVF70uO8EHAN0LZwFzkFkm71m3SfXsP+BInnBgLLiulebW9VYdPn9AhN1l99cSbevHo3Ib8FTeRtYWRlXKItk0pAr4Lj4AvbgYCvgvLMirsGWHlmJvb23ThaqOOu+fH4TPumXLimF4/dcyXwLXDQxbssNJpluk7PDZKsPcWmM+utnYLlj23orpOS5Yu9eXdcHMQ8MV7cf7KZT3+wjN6/fRxnWq8oO7+Pv98sueSbQZH27za2LhkpYG7+3v9+mNkfNRvQlvmlG3+WcldNqXDy+WWq36d2NrT5QP2QRQbE6vs9AztXLNRH9p/UKWFRUpO5LB6kM1l885qaHTYtwKxfqxvnj3t9zNePnZYh04edfPQk743b1t3l9/PCMrYS8D31vtAAV/3a35+bVlu9jNl88HOvl5fGc/a0djaZrGDvSY3M1sHt+7S5pVr/MFPnqvhydbBI+5nxqoPHDpxVM+8/orfhz1x6ZwvKR4JwV5j7xcrp9/p1k1W+cbeQ0uXLJ3Lmk9ODn0XwpWNHmPu3+3IuVO+RU00rl/w0zgyGaGSE5K0oX6FLxlop3Pi6X0TaFfbW/wp2P/2N5/Vf//7v9QXHvuOm2Rc0ODISOg7AAB4Z7bhZhsnpy6e0w+ee1Kf+crf6vf//I/1+5/73/qLb39VTxx6SccvnVfnQK/foMOtZ5sHr5854YNMFmCyCh4AFtbs7IzPOAtCv7WFZM8ByxA423RJX/rh9/SVx7+nJ195Qb39fb5vIsJLXlaOr+YV5H7wie6/e11JudbWNWjtspXKTMsI3UFQWeDNqiTYQcMXjxzSn7q55x/8xf/WH/zVn+irTz6qw+dOqXd4kIOFiEqWkLNt7UbVV9aEriAc2RyxpbNdX3/iB/rM176grz31mM+ijETWH71rsF+Pv/q8/rcbr7/zzBM6c/lC6C7CWVlRqRqq65Tt5k7EfjCPgG+EshPYy90bvrKkjNNiAWS9FDt7u/Xc66/oj/7mz/zk4jvPPaXmrnZZ2Wa7f+36NX+KEQCAt7OTuc0dbXr20Mv62+/8g/7wrz6jP/zrP9Nnv/kl/eDl53Ts4jnfm3J8ctL38LWAsH+mEOxdMPY3bZuhPf39vmeyBYABLA7m0+/MMgRszWGVHx59+Vn9jXueWGaeL3Xtxi+EB1vrz1WICO6aPy05RdvWbtCKmjpKmwaYHZ6ZmJzQqQvnfPupP/r8n+uPv/x5feWJ7/uDhb7s+PR0aO7JvBPRySoxLiurVEFOLm33wtTU9JSa2lr05Ksv6jNf+3s99+Yhvxc76Vt9RO78x8Zkm/f1Dw/q2SOv6ZtuHP/2U4/rcnOTP5zMmB2ebA6YmZqmjQ2rfOVCwBDwjUBJ8QnKzczSsqpqleYXhq4i3NnD0zZPLAvrYlOjXjtxVI+//Jy+/Nh39ehLz+jw2ZO+xJo9gAEAMPbssNJkliVqJ5DPXr7oS6+/cOSQHnvpWX3TLdIsO+sbTz/me74fvXBGLd2dvnQTG/aLr3egT2caL2h4lIodAMJTe2+3jpw9pR+88LReevN1NbZe9VkvCA+W2WtBg6D2u01JTPIl7TcsX6WqkvLQVQSJBXptD8PKi1vJ5mfeeEXff/4pfe1HP/DjxsvH31Srm3vSWxCQSt14Z2XBrYw92XjhZ9zNb6wEuO3HPvHK824Me8YffLO92EgO9r6dBbbtf/NzR17T95570v1dvKkrrc3+OkHf8GRVA9Y3rFR5YUnoCqIdAd8IVJCdq1VVtaotrVROVnboKsKdPTgnpyZ1xC2S/uZbX9Mff+lv9PWnH1dbX7dbHAWzHxMA4Nay8prDbgF64vwZffeZJ/Q//+5z+oO/+GP94ec/q28++4SOnD+trsE+SuaFKesZevriBQ3RogFAGJuYmtLVrg69ePSwvvv0jwLVHzvS2UHvkoIiJQQ0cFBeUKyNy1aqrrxK2e5/C4JnfHLC91v94g++pf/0Z/9Lf/Xtr/nsMMvonYyQHpfAzVJRUqpVdcuURJ/ysNTq5jp2uO3z3/u6njz0kkZCFRajkR34e8aN5V/4wbf1racfV99AP609wlRqcrIfV4oLSPrDHAK+Eag0v0Br6hqUnZGhuNjY0FWEs8HhIZ26dN5n81o21gvH3tD5q43qcQ9U26QnCwsAMM+eGVZayRajX3vi+/rMP3xBX3r8u3rs5ef02qlj/kRuc2e7f4ZYJq9lAFtpToSfgRH3b9nW7Ns14OaxcqCJcfGKZx4M3BSW1TI5PaXLrVf1/NHXdejEUTW2XCXTIwzYej/BjXdLlgRza6ehqka7N2xRXnYOexcBMjE56SvLPPv6K/r7739T33j6cT17+DU/B23p7vDZcDb/ZIwA5sQsXeqrMVaVlKmhulbJiYmhOwgHo27NbOvrZ954Vd97/imda7qsfrfmjuby87YXbX8H56426sWjb+jbzzzh962nZyjvHG4S3NhSnF+osoJCFWbl+HkhohsB3whinW6sdntZYbFW1y9XakrK3A2ELSt/ZL0Wr7S16IXDh/QX3/iSvv3cj3Sm6ZLfpAcARDdbTNmhHyuhZGV/ewf6dcktRg+dPKrvP/uk/vJbX9H/+MJf+v5oLx47rKtd7Tw/AmR4bNSXObR+yrh5bFMtNSlZSfFspgE3U9dAn28N8Nzh13Ts/Jm5g6ls+i0qC/TO9b0NXQiImKUxSkpI9H17t6/b6MsRIrzZnNSCHxYYsZKnR8+d1reeelyf/Ycv6DvPPaljF8/6ss20oAJ+mgVgctIzVVVcpurSCh+gQXiwAGZXX49eP3VUP3z5Of3w1RfVNzQYuoveoQE39zurrzz+Xb1y9LDP9LWevggfdmAuOyNTZflFqnZjDAdKQMA3gsTExPgeOJXFpW7hVK+UpOTQHYSr7v5e98B8Q3/3/W/qC499W609XZqi7BEAIMQOBlmg10o2f/PJx/RfrFzz3/yZ/uwbX9Ljr72gxraW0HciiKZmZjQyMc7m6E0WHxunktx85biFL4Cba2JqUi8eP6znjxxSW1enxsfp57uYkhITfbDUAqhBYuPzrjUbVF9e5f/7x8YE679/NPLZXoMDeuyFZ/RnX/07/al7WbnP7sF+HzAB8LPlZGZphxvzinMLQlcQDuxgtVUsefb1V/X5739Txy6cC93B21np/qbONj31+sv6xo8eU2dfT+gOwklJQaE2rFilzNT00BVEKwK+EcSCvbWlFb5Jt00m4mKD2ccnGtiCyDK0Xj56WN974Wm98ObrvvyRZWXZqVkAQPSyDbW+wQGdvnReLxw5pO8//5S+/8JTevSlZ/WjV1/US8cO6/iFs7rS3qrBUXq/BpltMthBLwug2L87bg7LdrODj4lkTwA3nR1Qsey+U5cv6NCJN31WDBaPBXzTLeAbsIBpbma29mzYouqScsXHxflS/AhPVpq5vbtLb549qR+88Iwef+k5X/b0sPvaWohYlZJo2sMYnxjXyNgYbbfwvmSnZ2rzyjUqzM0LXcFim3Trr+7+Pr1y/Ijv13vs/Fn1DPSF7uLtbO43NDaq027u98wbr+iNU8fV3NEWuotwUZiTp5U1y5RGxdeoR8A3gmSlZWjryrUqKygKXUG4Ghuf0HOvv6KvPP49ffHx7+hSS1PoDgAg2o1NjKuxpVk/eO4p/elX/k5/8Lk/0ee+9VV/oratr8eXy0PksBKJo2Nj/kU/JABB0drZru8+84SutDaHrmAxJCcmKS01xZeyD5K87Gzt3bxDFcUloSsIV9av9+SFM/rGk4/pv/3NZ/TYq8/pcnuLDwRHo/7BQV+pjeoseD+y0jO0fvkq368c4WFoZESXrl7Rd59/Sj985QWfxYp31+HGvsPnTun7zz2lN04eD11FuMjNylZ9ZbVSkgn4RjsCvhEkMz1dm1ev8z18Eb7ONl7Ut59+XE+89qJONV7wCyV6XwFA9LINo86ebr167LD+6htf1v/z+T/X//ziX+kHLz+r01cuamBkWBNTUz57goBg5LF/05HxUd8Tj39fAEHRPzyk45fP6+j5M7rQdNlnymCxBCc71kpPr6is0fr6FcrPzlFiAn3mwpGvQOLmnq8dP6K//uZX9PePfttXJbP3/aS7Hs3zlanpKU1OTjJnu4WsUov1uI2EqoVLlyxRZmqaCnNyVZRfQOu9MGBr6pGxUR0+fUJ//Z2v6cLVK+4aBzjeCxv3RsfHfdD35eOHdcx97B8aCN3FYrM5VU5GlsryC5Wfme1mh1RPiVYEfCOElazLy8rR8uo65XJiLCzZJkhrV4cOnTimx158VkfOnlJbT1foLgAgmszMzGhweEhNbS1uoXTal2l+4pUX9I2nHtPXn3xUj770jI5dOKv23m5NTk/p2nXKxkUqWzjb5qnNE667XwAQBFZtoqW7U6cvn/cHWi0LEIvDAgoJ8fGKi40NXQlfVnp6Vc0yrV+2QhmpaYH47xxtrMVET3+fn58++eqL+s6zT+jZw6/p3NVGTbg5abS3oLKDmtOzM8zZbiHr6W2l6hMTgt+aw4LXhdm5Ks0r8FUZbazG4rLDLJdbrurQyaN68rWX1OHW23jvrB1RU0erjpw7peffeE2tXZ1+b4NDMIvP5lTpqamqLi5TiRtziPdGLwK+EcD63RRkZas8v0jZGZlKZAIRlrr7+vTY80/r0Ref1isn31T/8GDoDgAg2lhG56mL5/TVH35P/+Uv/rf+2+c/qy8+/l0dv3RefTwfAAAB0djaotMXLxDwXUS2wZebnqn0pPAv4WeBnLXLVmhdwyqCvWHINuztQKL1Z/yjv/1zfe3JR3W2+YpvNwIslPjYOBXk5vlDIUEXGxPre5VXlZT54C8W3+DIsH708vO+d+/IxBjl2T8gC5p/9Ykf6PSlC3N9zQn4hoX4uDgtr65VbXmlPxCI6MTTJgJYwLequEz1FVVKSkhgEhGGzl6+qKcPvaQfvfaSTl2+4JvdM6kAgOgyNDriy14+9uIz+rvvfVNf/uH3/Kni4xfPqrGtWV39vRqdGOf5AAAIjJauDp25ckmd1mOeoNCisIBCdlqGUpPDu1RoRoplnZSqoqjY95lj3yK8DI4M6bx7Lz/+0rP67nNP6nio0oz1tYz2rF4srCVLl/gDIXZAJOjsf4MFXmpKKwLXaz0StXS2+wMth04d02W3/qZl0gc3Mj6mps42vXr8iPs7PcbBvzBhc0Jr9VnsM3wJ+EYrnjYRwE5s1JRVaFllteLigt/jIpJYf17rDfHaiTf1gxee1ssnjvjSZwCA6DAzO6PxiXH1Dw3qckuTXjl2WF9+7Dv6i69/0Z+Iff3MCfUND/nnBQAAQdPZ36uLrVfV1N6qweHh0FUsJAsiWAm/5ISk0JXwlJuZpbU1y1SYm6/kxER/cB2Lz4Id1pe2tbNDLx19w7cXefSlZ9UzOMD8FLgB8+X2q0vLVUGG76Kycc56k59rvKxnX39FJy6fV1d/X+guPgg7pG6H1W2/+7k3XvW9fHlmLD5rnVGQk6f87FzFxcSS5RuleNpEAFsolRQUqaK41J/kQPho7WzXD559Uj967UW9ef6MJqY48QQA0aSju8tvnn3mq3+n//G3f6HPfftrOnT6hHqHBzVzjUxeAEDwWSm/UxfO+bUP8LOU5Bdq54YtysvKDl1BOJicmtT5K5f1xKsv6K+/+3WdvHxB41MTun6drF7gRqQkJqkwK1eFuXnKSs/QEgK+i8YCkXYo7Y0zJ/Sj119S/9BQ6A5uhAXSm7s6dPTCGX+wvaWjLXQHi8UOAVq7Txt3CrNzlJSQGLqDaMLTJuAS4xOUk56potx8XxYpJoZ/0nAwOzur7v5enbhw1p+OPX7xnLoH+ijTCQBRYGR0RI2tzXr29Vf16IvP6PvPP6UnXnleL7pF0MlL533Zy4mpKcpHAQAiwuj4mE6551sblYzwDiyrzQIfVmJwXcNKZaZlhO5gsQ2NDOtSc5Oefv1lPfvGq779VO/ggN+3YJYK3BgL8taVVSgnI8tn+pJnt3gGhgd92WHbo73a0UYyzk007OaAjW0tfu/jYvMVX+GMfY7FY0mBiQkJbtzJVFVRqdKSU0J3EE2IDgZcunvj1hSXqSA7R6nu86VL+CcNB1PT07rY1KiXjh3Wo68853tbAQCiQ2dvj14++ob+199/Tv/ri3+lLzz+XZ8tMThCqUsAQOQZnRjTmcaLBHzxjuJiYpSTnqHKwhI1VNUoLTU1dAeLra27Y67dyA+/pxfc3BXAzZOflaPVtQ3KSE0LXcFiaevq1Lefelxn3VwFN193f5+eeO0Fnb50QVNTU758NhZXekqqllVUKzMtPXQF0YToYMBZTfYtq9b6fjgID1bSrKm9RU+88oJeO3FUs7PXON0EAFHEerWfabqspq52DYwM+6oP19xzgCcBACASTU3PqGugT90D/RoaGdEMPdwWlGXQJsYlKC42PNs7pSalaPOKNaqvqPKZJ2S5Lb7h0RGdunhOj774rL7+1ONq7+lmgx64yTLT01VVWqaUpPDurx7JbC+2u69XF5ubdPzSeT9Xwc1nVSGGx8Z0ofmKjpw+6Z8xWFxpKSmqKa9QOofsohIB34Cz/jcblq/y9dkRHjp7uvTmmZN65fibOn+1UWzxA0B06RseVFtvt/qHh3zpZgAAItnstVlf0s9Kwfb092pymmffQopZGqO0lFQlJYZnnzYLdqxvWKmasorQFSwmq0bW3tOlF44c0tOvv6LXTh2jCg1wC2SmZ6jajXspScmhK1hos9eu6XLLVZ28eE5NnW0aHhsN3cHNdO36NT/3u3i1Sa+dPKq+oUEOES0ymxfWVVRRYSBKEfANuKyMDC2vqVd6Kin64eKEm0h886nH1djeTF8IAAAAAFHBeuRdbW/R+MRE6AoWQlxcnPJzcpURpmX7khKT1FBd63v4YnFZttvA8JBOXDinv3/sOzp6/kzoDoCbzXr31ldWKzWFHpqLxSptvXbiTd9uicNot97Fliv+MFFXbw/VXhZZRmq6VlTV+V7iiD4EfAMqZulSZSSnKtdNIPKzc3xDbiyukbFRnTh/Vm+ePanTjRd9OTMr4QkAAAAAkW5gaFBX2lo0NjEeuoKFsHTJEsXHxSk2JiZ0JXwUZOeqvqzSf0ymrOmismyryalJvXDkNT320rO62t6q0fGx0F0AN0tifIJqistUmlegpIREX4UBC88Ot5y/ckmnLl/QFTfeWdlh3FpDY6Nq7urQ6Uvn1dzRFrqKxWDzQjsIaL3E8zKywnKOiFuHgG9AxcbEujdttn/jWpp+uPbriRZWvqJ3oF8vHjmkI2dP+VKeE5weAwAAABAlBoaHdbW9jQxfvKWioEira5YpMy3D72Fg8dj7sqO7S0+88oJ7Pa8x3qfALZGSmKSVVbUqzS8KXcFisN69R86c0MWWJnUP9lNieAFMz8z49lZvnj2l802XfVUJLI6lS5cqPj5eBVm5Ks7NJ24UZQj4BlSie9PWV1SpnLJIYWFsfEKNbS169JXnfHYvAAAAAEST8ckJn+U7PTMduoJoV1ZUolV1y8juDQO2+f633/26Tl++oPGpSV2/TvADuBUS4uP92JeblRW6gsXQ2dutN04dV9/AQOgKFoIdLjp0+riOXzirCTcvtLLaWDzZGRkqyM7h0F2UIeAbUPFx8aosLlNhbl7oChbTpeYrOuwmEuebGn1zegAAAACIJlY+samjTWOTZA5GO8ssSYiLU1lhke9hmZyYGLqDhTY1Pa3m9jYdOXNST7/+ilq7On1pU/KuEK4sMGF9J5OTkkNXgsUHfN3Yl5NJwHcxWCavlatv6ezQsfNnNTAyFLqDhWCH/lq6OnSp5aqa2lp8+0MsntzMbBXlFZDhG2UI+AZUnFs8lRQUKi87J3QFi+nQiaN66rUXeZABAAAAiErdA/06c/WyhsfoCxrtYpfGKCUxWWUFRaouLVdiAgHfxWI9tS3L7eVjh3Wi8QLBD4Q964FbWlis7IzM0JVgsYBvaUGxcjII+C6GmdkZ9fb363Jbs05euejGvOHQHSyEa9ev+4N/FvQ9cvqE+gbJsF5MFjey+FFcbFzoCqIBAd+AsubblcWlKszND13BYrAAr51YOnPlki61NmuK8mUAAAAAotB19+vateuanp6irHOUy0hN09q6BhVk52rJkiWhq1hotl9xpbVFTx56SUfOnfL9FMnsRdhzQ4aNG0EcOxLi4pWekqb8nFylp6aGrmIhjY2P66gb7y41N9FDdhG1dXf6qhIdvd2hK1gMmWnpPss3NiYmdAXRgIBvACUlJCgnPdMHe+2Ni8XTPzSoY+dO61JLk7oG+nxpJAAAAACIRteuX/ObrdbDjY3W6GUB3zW1y5SfRUWyxdTR063j58/o8NmTutLeGroK4FZJSUzy+7VZaelUNlgENgexgy7Hz59VY8vV0FUsht6Bfh0+c1Lt7jk0OTXFnHCRZFjANyvbVx6wdhuIDvxLB1BhVq7qyyqUzORh0bV1deiJl57zvSEAAAAAIJpZ77y+oQENDA2GriAapaekqqG6TjlZ2aErWAxnLl3QU6++QElNYIHkZmSqJDfft+HDwpuZmdHgyLBON17Q1c620FUshrGpSXX09/qDR/YMmnXzQyw8O4CXn52j9ORUJVDWOWoQ8A2gPLdoqi4u47TYIpqdnfWnlS42X9UbZ0+qZ7A/dAcAAAAAopPlb0zPzPjKR+RyRB8rwJoQF6eczCw1VNcqJ6A9OINubHxMl5ubdOzCGR2/dM5nvOHmsMpurT1dfpwDfpJl0pUVFvlxEAvPAotXWpvV3tut4bGx0FUsBjsAODU9rab2Fp9tPe0+x8KLiYlRcmKSinPylJFCmfloQcA3gLIzslRWVKLEhITQFSy06dkZtXS068LVRp1vadLQ6EjoDgAAwM9m/XPi4+KUGB/vXgn+FbM0hh6HACLD9euamZmda3VD+b7o455lqYnJKsjKUVVJmS8liIVnGW5vnj2pExfP6UpHm8anJkN3cKM6+3vV0t1JwBfvKM+NfWWFxW6uHx+6goXU2dvt92n7h4c0NUOAcbFZ13gLwJ9vusy/xyKy/YaS/ALagkYRAr4BlJaaqvzsXL9ZiMUxOTnpe+Gca7wUugIAAPDz5aZnqr6kQisra7Wmus59rPHl36z02xKfGwUAwWWB3vaeLnX29viNPkSXmKVLVZZfpLKCIv85Fkd3f5+efPVFXWy+EroCYCFYhm+pG//Yr10c7d3dOn+lUeMTE6ErWGxX2lr8s4gM38Vj41FhTr4v74zowAw8gOxERlF+vhI4MbYo7CSnnZg9fvGsLrQ00XgeAIAoYpm5mW6xVJidq7K8QlUVlWplVa3W1i33r22r1mnvhq26bfN23bF1l+7esVcP33anPnLHvf718IG79aH9B/WhfQf1oHvds/s21ZZXKjU5hSxfAIFnayMrJzs+MT5X3xlRZakFfIuKVVFU4ssIYmHZ+69vsF+NrVd18tJ5dfX3hu4AWAhZaekqyMlVHL0yF5SNfda/t7mjTacbL2rM5iBYdPbv0tXfp6ud7eofHtTk1FToDhaSxY8KcnOVTsA3ahDwDaDsjAx/YjYhnoDvYpiYnPQnZk+4BdTltubQVQAAEA3Sk1NVllegFRXV2lC/XNtXrtM9O/bpF/Yd9K9fvf8R/cuP/bJ+5xO/od/71d/Sf/on/0r/87f/g/709/7Av37/n/22/vWnfkO/9Yu/rH/60U/q1x/+mNYvX6Ws9AwCvgCAQLOs3oriYvcq8e0KsLBsc93KZ566dN73mR0ZJ+gBLCQLqFiWb1xsbOgKFoL1i52cmlRje4uOXz7vxj7694aLgdFhdfT2qKO7m37yiyQ+Ps4fRElPpYdvtCDgGyDW9D8vI0uZqelKiE/wp2ex8OzE2Bsnj2lgeMgvqAAAQDDFx8YqIyVVNcVl2li/QnvWbtLd2/fokdvu0i/f+5B+6xd+Sf/2E7+h//gb/4f+6//x7/XH/+4/6b/8i9/R7/7aP9M/+9gv69ce/pg+fv9DunfvAR3Yvsu/Nq9ep+XVdaotr1JFcamK8vKVnJTse/fayzKebBPcNsXtZfM5Ar0AgEiwdMlSFeTkqTA33z/jsLCuXb+uN8+e0qETxzRB315gwVgFoILMbGWkpirefc7cfmFZRu/V9jb2acOUBeAvNF1WT39f6AoWUmxMrD+MkpSQGLqCSMcMPEAsBb8oO1cZKWmKjY1lArFIWjvb/SJqaGQ4dAUAAIQTC6ymp6QqJz1T+ZnZKs0vVHVJmRoqa7Siuk5r6hq0ZdVabV+zUbvWbtL+Tdt8+eW7duzVvTv364E9B3zJ5V84cLc+csc9+tid9+vjdz+oT977kD58x726190/sG2X9rjft2PdJq1dtkIraur9q8r951iQNy87R9kZmX5xxSl/AECks2dvcmKi8rLs+ZfFAfUFNjU9pYGhQZ2+fFFnrlx0X9MvEVgotl9ra47UpBQfXGG/dmGNjo/pUkuT+t0YiPAzOjaqs42X1NXXE7qChWQl5nPd+JSSnBK6gkjHDDxAEhMSVZJf6DcwsXjae7t9iSRKUQAAEJ7s9Gp9aYU21M2VXL53+159/M4H9c8//En99i/9mv7Dr/8L/b+/83/p//13/5f+73/57/VvPvVp/erDH9VH7rpf9+w9oL2bt2vTqrVaUVOniuIyH7xNSUpm8wYAgJ8h2T17C7NylJORqZRknpkLrX9oSGcuX9TVzjb1DQ/5EqcAFoYFfHMzs8igWyTDo6M668Y/MkjD0/DYmE5fvqDOXgK+iyEhIV6lhUW+hRSiAwHfAEmMT1BxXgEB30UyPTPjT8x29HSrrbdLE9M0mwcAYKGlJCapMDtHy8oqtalhtW7buM1n5P7SXQ/qnzz8i/pXv/ir/vXLDzyij939gB45eK/ucfdv27pD29du0OZVa7Vu2QrVut9fWVyq8qISP7/Kz85VTmaWXwhZVm5qcoqS3H9WQny8z9AlUwkAgJ8tJyNLy6tqlZmWQTnnRWCBjjfPnFRXX59mZmdFUVMElWXIZqWlK9nNw4PCDoZaKxd6ZC4OS8i5cLVRvYP9oSsIJ+OT476/cpd7Tk1PT1N2e4FZu434uHglJSQoKT6BOVoU4F84QBLdG7M4v0BpTCAWxeTUpNq6OtXe2+VPzFoAGAAA3FxWEtKCrBbYtUNuWWkZ/sR8QU6uStw8qLasQmtrG7RzzUbduW2XHtp/pz5x94f0Tx7+mP7NL/2a/v2v/Kb+7ac+rU/c97AevuMe3bfvdu3ZtFXrGlaqxv1eC/Baxi5llgEAuHnsWb26dpkyUtNCV7BQLJu3s7dbr588RsADgWdz9OzMTKUmJ4euhD8L+FYWlzH+LQIb/4bHRnWp5aqvdIDwMzE1pTb3jLLn0/jEuGZnZ0N3sJAS4xL8/oodqkFkI+AbINYPx06MkYK/OEZGR3Xiwlkf9P3/s3cfgJFd533o/8AMpqH33oHFYnvv3EIuuawiqUZ1WZJlObYVW0mcxM9xnpO8OLGf7Rc7jixLslUoiSpsktjJXZLbe28AFr1jBoPpFeXd7+CuREkUteQCU/+/9RjAudglqR3ce875zvd9REREtDhK8guxrK4J21etw0M79uBT9z+CLz72afz57/wh/uE//Ff8j3/9H/DvP/t7+NwHPor3770PezZtw9r2FWisqUNhfoEKFhMREVFs5efmoaG6TgU+KHZmZmdUOdO+0WGcvH4Jk26XfoUoOUk5eJM2nzcm0eHMrCyjtg7J09YhZn2EYkEyRf3BoLrvjU1Nwh8K6lcoEUlgfsI5yR7zcVKQk4u6skqV6UupjQHfJCITnps95Cj25MF05UYHRu0T+ggRERG9FyZjFsoKi9AqfXbblmPn2k24b9suvP/Ofer1yJ59eN+uvbh/x53Yp43fvWUH7ty0DbvWb8bWVeuwrn2F6q/bVFuP6vIKlGh/lpxWlWAvSxQRERHFXq4tW3smV6qD6hQ709PTGHNMYGhiDBNTkwhFwvoVouQkAV9DpkGVIU0WpqwsVc7ewoOnMSUB3ymPC3Y92BudYSXGRObyelQSlVTQpNjLttlQVlSseo5TauOOWBLJMmQhPydP9fKl2PMF/bjS04VRbTFFRERE751sBrfVNGDnmo348F334Q8+9An82W9/EX/zpf8L//kLf4g/+Nhv4aMPPIL77tiDLavXYWlji+qxKxtARERElHhsVhsqSkpVKyqKnXA0ir7hQYzaWYmMKF7kMGtBLjN8Y00CvhOTdow7JlgmOAlMuV0YGB1GMMyAbzxYzRZVNTYrK0sfoVTFgG8SMRoNqh+EmQuomAuEgnC63apEiC8Y0EeJiIjo7UiWrU1bUDRUVGHr8jV4ZOdefP6Rx/B/feb38Jf/+j/gL//wP+KLH/8sPnzvQ9i9aRuWt7ahqqwc2dZsZBmzkKn9fjnVLwHemy8iIiJKPNJ7vzgvH6UFhaqsszzHKXZC4RAud3eid2hAHyGiWJMDL9KCLzcnRx+hWJidm1N7tZMul/b5rD5KiWrSNYW+kSEEtecWxZ4K+Kp5Gnv4pjoGfJNEtsWqaq3brFb+YMaBy+PB+KQdU14PQtGIPkpEREQSjJXgrvTera+oQlt9E9YsWYZtq9Zh9/qt2Ld1Jx684048umcfPnzPA/jYfQ9rHx/E3VvvwKaVa9DW2Iyqsor5TeKs+WAvERERJQfZnygrKNLmAQWqgofBYNCv0GKTjDZfIIDO/h4Mjo/qo0QUS1J+Wu59xdp9UAIqFDuS4et0u1QgcXaWAd9E5/S40D86rA4qUexZtftUgWT4Mq6U8rijlgQyMzJUU+3Gimr+UMbJyMQY+oaHEJ1mY3kiIqK3MmYaUFlcivVty/Hornvwhfd/FH/y2X+Fv/jiv8cff+YL+PiDj2Lv1p1Y3bYMlaXlsFms+u8kIiKiZCelTCuKy1CYV6CPUKxIWUwJdPSPj8KufSSi2JKDr1aTWbXeY0Gi2JOA76R7Cg6XEzMM+CY8SaIatI8hFGEiVTxIy4383FywEkvqY8A3GWizhmyrDTm2bJY0jBOZQEiG7zR7QhARUZqS0+tyal0OoUlw976tO/GpBx7FFz/yaXz+/R/BR+59H/Zt34XtazZgVWs7GqtrUVVajpLCIrWwkColJmbwEhERpRTZOCwvLlH9Kym23F43hifG4A34EZ2Z1keJKFakBY1UNyjOK+B+bRxIwNc+5cS4c5IZvkkgGAnD7fOqks7TfGbFnBxMkbmakcmEKY87bklApgxWs1l7WVW2L8WelAiZ0CYQ09N8IBERUeqT2YZsYJizTOrAWWFePipLStFcXYv1S1dg78bt+PDdD+ALH/go/u0nfxu//f6P4pG79mHL6nVY0tCE0qJiLiSIiIjSgFQhk4BvYR4DvrE26XZhgOUxieLGkJmJkoJCFfSVtRPFjgR7JWholwxf7cUM38QXnZ5GQHteBYIBRJjlG3Nmk+zt5MDI1hspj0+jZJCRgSJt8lBSWIjMTP5QxsOoYwIDY8Pq4URERJTqZL6RbbGgtaYe92zchs88+EH8h9/6XfzlH/0J/uiTn8OH7n0QW9esR11ljbZwMDNrl4iIKE2ZTCbUlFeq/pUUW+MOOzr7ehAIBfURIoqpDKgDsibtRbEVjkQw5fHA4/epzFEJAFPik8qZky4XXF6vPkJEC427c0lAsmxseknnzExm+MaSlASRrF7phyMlQljSmYiIUpW0j2ioqFYZvHdv3o7333kvHr1zHx7YeRf2bduJPRu2YuuqdVi1pB3NtfUoLy5VcxODwcASZkRERGlKZfiWlKpqIBRb404Hugb6EAgxw5coHiSrNy8nF3nZOVwPxZgEfN1eD0LhMPdqk8iM9nclPZfl745iy2qxqrkae/imPgZ8k4QpywizKQsZKvxLsSIBXymP5PS4Mel1Y2aWkwgiIkpNJXkF2Lh0JR7b+wD+7Sd+G//9D/4YX/rkb+PRu+7FxhWrUV1ewY0MIiIi+gUS8JWSpnk5OfoIxcrE1CS6hvoRZMCXKC4kKadYu/8VaS+24IutcDQMl9eNyHRUH6FkMJ/hO6X+7ii2pH9vbWUVrBaLPkKpigHfJCCbq3ICoyhfSjrzryyW5KTsqMOuLaBYIomIiFKHxWRGbVkF7li9AZ9+4P34z5//Iv7T5/8An37kg9i1cQsaaupgNpvVHOTmi4iIiOitzFlZyLbY1OYhe/fHjlQh8/i8cPt8CISDPJhOFDcZMGn3QbkXMj8ntvzBIMYcE+xhnmSk9HY4GkEkypaJ8cBEwvTA6GGSsGmLKCm1yJLOsRUIBTA0NqImEkRERMnMajajorgUbfVN2LBsJXav24x7t+3EI7vvxmP3PIj3aR+3r92IJQ1NKlPHaDDov5OIiIjoV0mwtyg3Tx0kM2Ry3hArktHmdLvhDfgQjkYxy96VRHEhWb2yV2uzWhlIiTEJ9Eov2HCEGb7JRCpp+vx+9p6PF+02ZdTma5yzpTYGfInegVd7CPUMDmgfffoIERFRciovLMHuNRvx+Ucew59+7vfx737rC3js3vdh48o1KC0qYS8XIiIieleK8/JRXVoOU5ZJH6FYkN6V4047fIGAPkJE8ZCRmYmi/AIU5hVonzPgG0vSC1b697LCQXKRks72KSemPCzpHA9SuU0SASwmzttSGQO+SeBmSWfpC5HJExgxFY1GVakk9oQgIqJkIi0gJNumpaYe92zegc89/GH89vs/ovrx7li7Ee2NLaonr8wt5FS69N9j2WYiIiJ6N6QfnFQPMfHQWExJwHfC4YAv4NdHiCgeZPUkVZHmKyNxLRVLgWAQE5MOhMNhfYSSwdzcrMruZSnu+JDM3tL8InVgj/s/qYsB3yQgZUEK8+cDvgb28I2p6Mw0vNoiSnrkEBERJTIpKWY0GJFry0Z5YTEaK6uxZcUafODOe/H7H/oEfvvRx3DP9l1oa2xGfm4ey/gQERHRbcnNzkFJQZE6OEaxE46EMWofh9fHSmRE8SYHbeXF0ElsSdBwfNKusnwpecxKwDcoAV/+vcWDxJWKpSpBbj7vWSmM0UOidyAPoaHxUfbwJSKihCcZvRWFxSqj9/c+9An82ee/qLJ671i/GeWlZSzZTERERAtK5hZms0mVNaXYkX2K3qEBOD0ufYSI4kEy5LJt2apikvaFPkqxIKWBg+EQSzonmej0DEYn7bC7p/QRIlponJUnODl5Yc7KUqfFKPZk8jCmPYjkIxERUaIxZ5lQnFeA1a1Lcffm7fjg3vvw4M47sVf7fPvajVjevASVpWWwWaycSxAREdGCysthhm88hCTD1zEBr58ZvvEwPTOtymlLpjWlN6mwlGO1IdtmY7ZcjEWnp1WWrwR+KXnMzs7A5feqappEtDi485fgZOEkk4csAxdQ8SALKbvLqT4SERElmhyrFY2VVXhk1178wUc+jT/7wh/ikTvvxdKmVuTl5MLIDVgiIiJaJNJ2qqaiUh1Ao9iJTEfh8LgQCPFgejxEolHYnZPw+hmwSHcZGZkq2CsZvuyHGVty8ELugczwTS6zc3MIhEMIRyP6CBEtNAZ8E5z04WuoqEa2xaqPUCwFw2GMaRN5ZvgSEVGisGSZUFtWgXu37MTnHv4w/vVHP4O9W+5AY3UtMjK50UBERESUylTA0TUFX4itp+JhdnZWJQVIwImI4sPt96FnbBg+tuBLSnP6RyJaeAz4Jjjpx1eSXwCziSdm40FOzroDPu0jJ/JERBRfVrMFlcWlWNnShp3rNuH+7bvxwB134u5tO7GseQmKC4qQwWJiREREFCOyTyGZbZkGbi3FyvT0tDqY7pGSwsyQiou5uTn19yCBX1o8pqws5Gr3F6PBoI8Q/VwwEobDPcX7YJKamZlhSe44kEoEJmOW3oqDe0epirNyIiIioiRQXlSMXWs34Xc/+DH8209+Hg/uugtLGpphNpnZn5eIiIhirii/EFVlFSzpHCMSaPSHgqp/7Owcg42U2gpzclFfUQWb2aKPEFGqkGDvmN2OEFsTxJT0Hc/NyUGOLZvx3hTG3UGityEnNT0+r7aQCugjREREsSetHZqravHgjj346L6H8Ohd+7Bh2SrVL68gLx8Ws5n9ooiIiCguJPNOsvA4F4mdQDAwH/CdZUFMSm1ykCTflgOjykRLPJJ9LNWXpDIjEb07UiXBH/QjytL4MSWJAnnZ8wFfztxSFwO+RG9jZnYWLo8HXr9PHyEiIood2UCViXhjZQ22rFiDx+5+EB+992HcvXUn6qpqkGXk5ioRERHFh2wYSqDXwAojMRcMhbVXCHPM8KUUZzQYVSUjQ0Zi3mdybTmoKS2HzcyAbyzJURfZs2VJ9eQmf3/hSIR/jzEme0g2qxU2i1RO4H5SquLsnOhtSKmkSDSCaDSqjxAREcVOcX4h9m3egc8+/GH8q8c+hU2r1qC0qIhBXiIiIoq7bLMFjeXVyM/J1UeIiNKL9MCUctOGTPYYjqXZmRn4/D518IWIiH4VA74JTkqYFOTmq4baFEtz8yfGeGqWiIhixGIyoTS/EJuWrcL9O/bgPu21Y91GLG9ZgrKiEljYv4qIiIgSgCnLhOL8AlhNnJvEkhxMl76H/mAAs9rnRBQ/0gtTqjLxQG5syV6t1+9HULsXEhHRr2LAN8Fl22yoLq9Q6fZERESUunKs2WiqqsHH7n0f/uhjn8GDO+9Cc229fpWIiIgoMUgpZ8lskww3ih0J8bo8bky6p1gGk4jS0szMjGq/F2CGLxHR22LAN8FJzworS4QQERGlLIvJrLJ6P7rvIfybT/0Otq/diOKCQhgMfPYTERER0U1ziExHEYlEVLYvEREREdFbMeCb4KRESJYxC5mZ/KsiIiJKFVL6S0qAlRUWY0XzEty5YSvu3bYLd2+9Ay11Dci22vjsJyIiooQkcxipQsYM39iT7LZp7cWALxERERH9Mu4kEhEREcWYlELMtlixecVqfOZ9H8D7996HNe3L2QOKiIiIEp7FbEFVaTlys7P1ESIiIiIiijcGfImIiIhiKMdqQ2tNPT5w5714aOdd2LxyLarLKmCzsF8/ERERJT6j0YAcW7aqRkZERERERImBAV8iIiKiGJCsXnOWCbVlFdi8Yg0e2/cQ9m7egebaBlUWkYiIiCgZZGZocxqTCQaDQR8hIiIiIqJ4Y8CXiIiIKAZyrNlorqzBh+9+AL/1vg9iSX0jcrJz9KtERERERERERERE7w0DvkRERESLKDMzEwXZuVjW2IyHdu3FHes2ob25Ffm5ecgyGvXvIiIiIiIiIiIiInpvGPAlIiIiWkRZBgOqiktxx5qN+L3HPolVbe0wZZmQkZGhfwcRERERERERERHRe8eALxEREdEiKczNw/LGVnzkvvdh3/ZdsFqsMGSy3x0REREREREREREtHAZ8iYiIiBaYwWBAjtWGtrpG7Fm/BXdu2oYVrW3IyspSJZ6JiIiIkpXRaERudg7MWSZ9hIiIiIiI4o07jkREREQLzGoyo76sEvu23IFPP/xBNNbUIcuYpV8lIiIiSl7ZVhsaqmqQn5urjxARERERUbwx4EtERES0gKSM84qmVnzw7vuxY90mVJSUwWI2s2cvERERpYRMbU5jMpnYpoKIiIgoSczNAdFoFNHpaflqfpBSDgO+RERERAtAArqGzEw0VFRj26r1eP9d92J127L5Ms4ZnHIRERERERERvVdyhlpaJGVm8jA10bs1NzeLYCiEUDikj1Aq4u4jERER0QLIkr69Fhv2bduJD9x9H0qKimEwMvOFiIiIiIiI6HZlZhpUD3mrxaqPENGtmpmdhd3lhNPtUtm+lJoY8CV6WxkwGgwsUUVERLesqrQC923fha2r1qGlrgFWs4WZvUREREREREQLwGCYD/jaGPAletfm5uYQCocRikTkq/lBSjnchUwK/AGMNSnLacoyqTKcREREt2JZUwv+8GOfxeq25eoZwp69RERERERERAtDWijlZmfDarHoI0RE9FYM+CY4fzCI4YlxBEJBfYRiwWDIRFFBAfJzc/URIiKit5djteGB7btx77adqCwt4+KTiIiIiBZBhjqUzoOFRESUzCRTWyqisbIm0cJjwDfBSRNtx5QTYZVqT7EiJTizrTb18CEiIvp1si1W1JZXYs+GLdiyci3yc/NgYnUIIiIiIlpgEuKVuWeOzYbMTG7nERFRcpLDS3m5udpHoz5CRAuFM8QENz0zg2A4hBntIxERESWW6tJybG5fhfXLVqG+qlYfJSIiIiJaYBkZKMjLR1F+oSprSkRElIxsZgsqSlgdjWgxcIaY4Obk19ys+kixJ6dna0rK1UciIqKbsgxGFObkYd3S5bh3x25Ul1Uws5eIiIiIFo1k+Er5S6OBJTDjaW5uDpFoVCVoEFF85FhsqJaAISszJqWMzExkGY2qwibFzszsLCbdLkx53Yw0pTD+VBG9Awn01pVVMOBLRES/QBaWDZXV2Lh8NXZu2Kz6vhMRERERLSbJ7J0v58wevvEiFfj8oaAK+lL6mp2bxfTMtDoAQLGXa7OhtrRCZYpScpEgbyb70MfFzOwM7G4nJj1u3rtSGAO+RO9ATs5KsJcnaImI6K1KC4tw347dWL2kHSaTiSdTiYiIiGjR2azSwzcbmZncLI+XcDSKiUkHvH6fPkLpKBAOweF2qfcDxZ7RYITNYuF+bZKRfROr2QxLlkkfoViSIG8wHEYoEtFHKBVxd5LoHVi0h1BpUbH2kSfGiIhoXmlBEdrqm7BpxRrUVdWo0noZPKFKRERERItI5pvZVtt8wJeHDeNmdnYGwVAIUQb60lpAew/YXU6EowycxIMEeq1mq1qLU/IwGDJRkleA/JxcfYRiag6Y1p5hkulLqYszxCTADPv4sVlsqCmv1BZVLOlMRETzmqpqsWHpCixvXqIyfYmIiIjSDUsBxsd8hq+NGb5EcSZlvSdcUwz4xonRaFTlnA3M8E0qWQYjKopLUZpfqI9QLHHmlh4Y8E1wTo8bl/u64PJ59RGKJbMpC4X5+TCx1AQREenWLl2O7Ws3qg03IiIionQjgY6+4SG4vB59hGLJlJWlKs7kWDgXJaL0lGO1oaq8HFYLKzImE6lUYTGZkMV99pjzBfywOx2IsJxzymPAN8HJQmrEYUcwHNJHKJbMJjNKC6Wks1kfISKidJVry1bZvSuXLEVbU7N6RhAtFMmUmpmZQVhbgIXCYczOzupXiIiIEotsFjrdU9yniBOzBHzzC1mJjIjSlrTeKy4o1O6HDBwmk8zMTOTYcvj8igPZY3B5PIhOT+sjlKoY8CV6BzaLFVWl5eojERGlt7qKKnxgzz4sa2xRwV+DtlghWigS4A1Hwphyu+CYcmJ6hgsxIiIi+lUmYxaK8wpgM3OfgojSk9FoUMk50hOWkof0Xi4tKkJhXr4+QrEyPT2NUIQHy9MB74pE70BKg1SWlsHGEiFERGlLlR3KMqmA764Nm9VBIDmZSvTrRKejmJh0YHh8DINjI7jYcRUnLp5Tr9eOHcKPD7yMJ195Ho//9Cl85UffwV9/+6v4H9/4Mv7qW1/F9154FscvnoXX79f/NCIiIqKfs1qsqK+qRgE3zCmFSQZgaWERTKbEzeCcnZuF0zUFp9vFvuYxJgdeyopKWHUryWRkZKq9dv69xZ4Ee71+L6I8WJ7yuFuZBGTKIOn2snnICURsWaSkc1GxNtG0qVNIGdovIiJKL4ZMA4ryC9BUXYs1S5erzym9vLXccjAUUv1vPD6vysa1T02q4O6IfRx9I0PoHRlE10AfzndcxZlrl3D6ykW8fuoYXjl6UL1+/Por+MFLP8X3nn8W3/zxj/CVH34H/993/hl/8/jX8XdPfANP7X8RZ69egj8Y0P/pRERERD9nNVtQW1GNgtxcfYQo9cg+nAroJXDJXsmUk2CvrAlmuV8bUzbrfMBX9m0peWRmZqgqmhYzS3HHmgR8XV6PyvSl1MaAbxKQTUa7cxJjDjtmZmf0UYoFg8GgTh0V5earF0uFEBGlH6vZjI3tK7G6tV31CpJnA6UPmYdFo1G4PG70jwziSncHTl0+jzdOHcOzB17Gt579Eb725PfwV//yj/jiX/7f+P3/8Z/xpb/5f/AX//Jl/PXjX8Pffvef8fiLz+KpN15Wr/2nj+PU9cu4oP05N4YHMOFyIhyN6P80IiIioneWZTSiIC9XzUuJUpVRe5+zZC/9OpL5LVUOTFlZ+gglA0mmkt7LBbmsUBFr0sPX7fWqhEJKbXxqJoU59UMpGSXM8I0tKeMpG/tlRcWoKinTHkxG/QoREaULs7aYXN68BK31jeqZIM8GSh1yGl+ydeVg3cDoMK733FAZtofOnMCLh17Hj159Hk+89BM88fJPtc9fwNMHXsKP33gVPz24Hy8eeQOvHD+MV08cxuunj+PoxbM4pr1OXj6PC13XcOlGBy53d6J7aAD92p8tr9HJCTjcU3B63fAE/AhGwphhHx0iIkoiNw9DsQ9cfEiAo6SgSJW8JUpVN/fjErnSntwLQ5HI/OFN7tfGlGR+F+TmqWxROQTDiozJQaqnScA3nxUqYi6i3af8gQBmZjh3S3UM+CYNThziqbKkTPVulEkEERGlD1k4SsC3taEJDVW1+iglI5lJyaaMvCTIK5vU8pIN61H7BDp6JdB7Ea+fPIKnX30R//L09/FX3/gK/uTv/wr//u/+J/7sH/8Wf/2dr+Mfn/wevvX8M3jywEt49dRRnLp+SWXrDkyMcuObiIjSglQeC4bDLAsYJyaTGWXFpcixZesjRBQPsq7wB/2q3Yu2ytBHKRZkjS4B37zsbNhMFvBMdnJQGb75BSjIydNHKFZkzhYKh1g9Ng0w4JsE5JDYlMcNp3uKGSBxIhm+1eUVDPgSEaWZhsoqbFu5DrXllapPECUf2YjxBQIYHh/F+euXVUD3qZefwz888U382f/5G3zxr/4c/+Vrf4+/077++rM/xI8OvITXTh/Fmc6rKojrDwUwzUURERHRz0iwd8Q+Bm/Ar49QLEmgQ3pXFuUVINtihSGTW3tE8SDrDK/fr7LmZO+WYkuywMsKilFeVIzMTLZdSnS50pe7sEgdVjJmcX891jx+H0YcE6qKLKU2zgqTgmxU+uHx+TDHgG9cqJLOpeWqhwgREaWP2vIqbFq2Sj0H2B8osUl2bTgSgdvrwZi2kOkdGsCVGx2qvPKhsyex/8QRvHLsEF48/AaeO3QAzx54BU++9oIq2SylmV8/cxxHLp7FuY6r6BjoxeDEmCq7HGbJSiIiol8g1TGkD5w8dyn2JEMqNzsbJfmFKC0ogsnIOSpRPEjAV9rvBdiCLy4k4FtaWIiywmIefEkCebYcVBSVwGaWg0oM0MeaHIKfmHSo0s6U2ng3TBKR6LT2ivLEWJyUaJOHytJyZLGHLxFRWqkqK8eqJe3Izc7RRyhRyTxJgr03Bvtw7PwZ/PjAy/jKD7+D//qVv8Offflv8Bff+DK++uwPVAbvgTPHcW2gG5Net/67iYiIiJKLBDlaqutgtVj0ESKKJdmileAJAyjxkZmRgeL8QpQUFCKTAd+EJ317q0oqVJUKir1AKAiHx6X2TSi18W6YBCTI6/J64HS7WNI5TqTchCrrXFqOfG76ExGlPCnhX5Sbh5qyCjRU18LGjbSEIn1n/MEABkdHcPryBTyz/yV8/ekn8L++9y/4+jM/wA9fex4vHjuI45fP41pfNwbGRzDhnFRzKbfPC5/2e0ORCGZmWKqZiIjo3ZLKF6FIGNMz7OEbTyWFhdo8tQZWM+epRPEg90Kn2w2Xx425Oe7Xxppk+BblF6CYAd+kkJ+Ti8qSUgZ848QXCsLuciI8zYBvquPdMAlI43/JWJE+viwpGB8Ws1mdGmutqVdlk4iIKLWZs0yoKi5VAd+y4hKYtK8pfqREmpxElR5Z9imnCvRe7+3GqSsX8Nrxw/j+Sz/BPz/zA/zTU0/g+688h5eOHcLJqxdxY3gAUz4PotPckCYiIloo0ZlpuP0+1faA4qe4oEgdTJT9CiKKvdk5CfhOwSn7tSzJGHMq4FtQiOLCIpZ0TgIq4FtWzoBvjMl9SqoQeAN+TPm83BtJA7wbJombJUIk+EvxkZeTg7VLl6OmvFIfISKiVCWVHZY3LUFlSZk+QvEyH+yNYMw+juMXzuC7zz2Nv/zGP+I//+Pf4m+/+8/4wWsv4EzHFYxPTfJkPRERUQz4Q0H0jg3D5fPqIxQPZcXFaKltgM1i1UeIKJYkyOv2e9WLPXxjLyMzE2VFJagoKWWGbxIozC9AXUUVLKxKEVPhcARDY6MqkZDSA++GSUAmDXbXFMacDpYejKMcqw3tTa1qIkFERKkt15aNFa1tqn87xZ5UNAmGQxgYHcbxC2fx7Ouv4AevPIcfv/kqXjl2CIfOncLpq5dwpacLfaNDmHS7EIyEeSyOiIgoBqZnZlR7hCjLAsZVXnYuKkrLUJibDyuzfGNGqs44XE71M0CLx5BpUG12JKiXqOa0NYscfHH7fAz4xkGG9srPzUNJQREKcnJVlS5KXIV5+aitlIAvn1exJO03pK1VMBTSRyjVMeCbBGTSMGgfQ9/YiCqdRPFhs1rRUteA0qJiVTaEiIhSV262BHyXoqqMAd9Ym8/ojcLl8eDs1cv43gvP4r9//R/wF9/4R3z3pZ/g2JXzGHZMIMJNZiIioriS8AaDHPEjm+aygV5eWIR8W44+SostFA6jf2QITteUPkKLwWg0qPd4IpfqlQxfKZEqL5Z0jj3Zm822WlGcX4CKwmJks9pBwpK/K3leVZdXwmJiwDeW5DC9PLemWco5bTDgm0RUzfVIRJ3MoNgzGozIy8lFVXEZ6ssqeYKWiChFFWTnoEKVhipTpZ0pNm4GeY+dP4Nv/fhH+G9f+3t87dnv4+ils6ovFhERESUWCXiNTIwhHInoIxRrliwTltQ3qTKZRKlE1mEVxaVJ0e8zFAlh3GGHn1nfcZFttaG1rlEFfinxSMXMpdrfT1lhsT5CsST7LBNOBzx+nz5CqY4B3yQiJzE8Pi8XU3Ei/SDkdGFNeQXaG1u0BxaDAEREqUgWitWl5SjIzUuKDYZkNzM7C8eUEx193Th8/hReOXYQPz20Hz89uB9HL55Fz8iQ6hVIREREiSWgPZ9dXg9bT8WR7FEsa2pBQ3WtPkKUGmQdlpuTo5IvEp0k58h6hiVT40MCis01dSqDlBKPapFY38yAb5xIHGlkYlybr/EQfbpgwDeJyA/ohHMSvgBPjMVTQ3UNtq1ep00k8vQRIiJKJZUlZSpLwpSV+JsLqUA2SM5fu4Ifvfwc/uobX8EPXn0eZzuuIMANEyIiIqJ3ZDVbsGrJMtV+iojiQ1rNyOGXcJQJOvEgLfgaa2pRwH3ahCTZ+kubWlBeXKKPUCwFwyH0jwxikm0I0gYDvklEfkAHRofh1iYRFD/lRaVob2pFcX4hTFlZ+igREaWKqrIKNFbXIcvIe/ximZmdgT8QwJkrF/H4c0/hyf0v4I2zJ9GrLUQc7iltzhNWrSyIiIgocUkrhnGHg33148hgMKCooABVJWWoKS2HzWzRrxBRrEh/zPFJOwJBViWKBwkozpd0LtRHKJFYLRaVPMUM7PgIRcIYHB/DFNtkpQ0GfJOIBHyHtB9Qt8+rj1A8yANKTo7VlFagIIenx4iIUk1VWTnqq6qRxUM9i0LKPnr9fnQPDWD/yaN4/KdP48Wjb+JSdwd8oSCmWRaSiIgoKcjm4ah9XPWHo/iQ1lM2i1X1Om2vb0J+Tq5+hYhiRQK+o/YJdaCVYk/ugQ1VtSgrKlafG7T7IiUGOZSUa8tGbXmVaplFsTU7O6sO0486HXCzh2/a4B0wiUSj03BpC6pQmCUO48loNGqLqDxsWrEaK5uXICMjQ79CRESpoLSwGFWl5chKgn5RyUgOrl3svIYv//DbeOb1l9E3PoIA5zZERERJR3r4ynN9ZmZaH6F4kQOLuzduYclMojiQ3r3SI9MX9OsjFEty8MVkNqGpqharmpYg22rTr1C8FWTnoKKoBBWlZSoTm2JLzdO8HngDfoRZjSVtMOCbRKQXxLjTwR6+cSYB3myrFWvalmF5UyssJhNPjxERpQCTMQv52oKkMDcPudpHWTjSwolqCwy314uTly/ghcOv49jFc+gZGYQvGGBWLxERURIKaM9w2Ujkczz+yopKsGnlWpXpK3NaHkwnip1AOIih8VEVVKHYk/udIdOA6rIKtDc2w2ZhaftEIH8v0m6goapGZflKAhXFltfvg9PjUjElyfal9MCdzCQiJULkxJiHKfhxZzaZsbxlierlm2/LYZ9HIqIUYDWbUVlUgrxs7b6exY2yhRYIysn3MTx3cD++//JPMWwfYwlIIiKiJOYPBeFiwDchFBcUYnXbclWlRvr4ch5LFDuBUAiDE6OqbQ3FT2VpGVobGmG1WPURirf6yhq01jawXVacuLxeOKamOE9LMwz4JhHp4StlD6d8Hn2E4kZbO5myTNqDqxp3b74D1dqiioiIklu2xYa68iqWgFpgs3Nz8AX8OHf9Mv7+iW/i1NWLak4j40RERJS8nB43hh0TiEQj+gjFU2ZGBla1tGF9+wqYs0z6KBEttlAkgvGpSXj8XkS0z+e4zomL8qISNNfUq4PcFH9y8KixuhZLGppU5QmKPYdzUh26l2prlD4Y8E0iEe2H0+l1qxO0snE6w9MZcZOh/ZLG81IuZM/GLagtr4RR+5qnaImIkpeU66+tYMB3oU1r85eu/l4cvXAGr544jL6RIW1OM82NECIioiTnCfhgdzlVj7hp9vGNO9mPWNbUirVty5GjzWfZeoooNuT+55US9z4f92vjKC83F9VllagprUBBTp4+SvFws11WfVW12mPJYjnnuHBoc7RR+wSi05yjpRPO/pLQlNuF4fFRhCM8RRtvZcXF2L52A+q0h5fNxLJJRETJzGa1oqa8AtksAbWgpMTZy0ffxKvHDsHt9yHKDWEiIqKUEI5G4Qn4VcnAoPa8p/jKyMxEW0MTVre1ozA3jxlVRDEmGb4SYOEBmPgwGowozMvHhvaVWFJbr49SPEjP3ubKWtSUVaIov0AlTVHsTXncsE85MM2Ab1phwDcJOd0uDI6OIhQJ6yMUL1LWuUCbTGxcvhJbVq2FzWLRrxARUbKRRUljdR1ysrP1Ebpd45MOnL9+BRe7rmNgfBQzszPM7CUiIkoR8kxXmW0+nzrgRfElx89tNhsaqmpw9+btaGbAgyimJl1TGJ4YRyTK8qnxIEk4coh7RfMS1Gv3QYqfiuIS7Fi7ARUlpQz2xtHopB29o8OqaiylDwZ8k9Ck24WBsWGEwgz4xltmZqYK+q5rX4md6zahJL+QZSqIiJKUzWpDTUUlSzovENkEHhgdwpFzp9A12K/aUjDYS0RElFqmZ2YwpT3j/QG/PkLxJBluVWXl2LdtF5Y1tqhevpkZ3PojioVJlwsjDPjGlfTvlZ6xcvDFYjKxtH0cyF55ZWkZdqzbiLKiEn2UYmlmdhbhSBijTgeGHSzpnG5410tCk1NO9I8MMcM3gcjJsbVLl2NVcxsqCov1USIiSiaGTAMsZgtPoC6AWX2Bca33Bl46dhATzkn9ChEREaWSSCSCobFROFxT+gjFW252Dla2LlUB37qyChX0IKLF5/J6MDHpYHAljrKMWagsK0djdS0aK2qQbeFh7liSA0Y2kxnVpRVY275SlXOm2JNDeH3DQ/D5ffoIpRMGfJPQpMelyiIywzdxSDaYBH33bNyKpTxFS0SUlMwmE4q1BYncw+n2hKMRjNon0Ds8iN6RIfhDQf0KERERpRLp4zs4NgLHFA93JQoJeEjrqeXNS7B55Vrk5+TqV4iSh7yPbRZrUh3GtWv3wYHxEUS0tRDFh2SXyvumrqIKG5ZJwDFfv0KxYDZlobWuUXs1qGCv7LFQ7Hl8PnT0dqtDKJR+GJFKQlPaD+uwfVxl+LI0YuIoLSzG/XfchfXtK5Fny4aRGWJEREnFarGgvKRUfaTbEwyF0D3Yh6GJMRXsld69RERElHoksDE4Ngw7q3kknPbmVty9ZYfaq+CBdEo2ZpMZeTl5SdU2bczpUIdd1X6tPkbxUV1WgZ3rN6mSwhmqwznFggTbNy5bheVNrfoIxYMEeq92d2LK7dZHKJ1wxpeEpNG2y+fF0PgoJlk2KWFIgDcvJwfrl63EQzvvRHkRSzsTESWDzIwM2MwWWJjZu2ACwSA6+3oxZrfrI0RERJSKpFel9Ieb9HBTMdEU5uWrCmT7ttyBdW3L9FGi5CClyPNzc5Mq4CtVjtx+H8YnJ+H1efVRioeSwiKsWboCjVXVKNTeRzz0svjMWVkozivA2qXL0FLXqI9SPHi1+1Bnfy/cvA+lJd7tktD0zIzKlhkeH4NjyqmPUrxJ2RCL2YylDU24c9N2LGtqRUlBoX6ViIgSVWamAQU5uci1ZesjdLv8oQCu9t7AiH1CHyEiIqJUND0zjUm3S7WekgNfMzOs6pEoJNOqSs9yk9Km+dk5SRU8o/Rm1N6rVrNZrdWShdqvDQYw5hhnKdU4y9HW9rUVVVjetATNNfXa+4lVGBdbcX4hWmsbVLC3vLhEH6VYm52dhcvnQddQP9x+BnzTEQO+SSoqp2gnxmBnwDfhVJSWYcPy1bhr4zasblmKjAyWDiEiSmRSoaGyqBSlPKSzYHzBAC52d2DQPqqPEBERUSqamZ1FIBzClMeN8Uk7QuGwfoUSgc1qxYblq7BpxRo0VdYi18oDjkSLSbJ8pSKj082KjPEm6/wtq9Zhx9qNMLOa16JrqanHTu1/awn2yoENij1p/SmtNmRO1jM6CE/Ar1+hdMKAb5KSCUT3YL8K+lJiMRqMKMjNw7Y167Fnw1asampDUW6+fpWIiBKNnMuRxSB7ry8Ml2z4Ouwq6BudntZHiYiIKFXNzs3BF/BjTHv+S+9KShzSusRitqC9qRWP7XsQS+oaVRsTHkwnWhzhSAQDoyNwTDHgG29SibGhqgYrW9rQpt37CnPz9Cu0kKRyRJH2v217YzM2rliN/Jw8PmPiRKqujEyMYdQxoVpuSLYvpR8GfJOUTCC6h+YDvvLDKyc4KHGYTSYs1yYU29duwK61G1FbXglTVhYfeERECShD+2UwGJKqXFgim8/wcWCawV4iIqK0IQe9RuxjCIZD+gglkvqqarxvz91Yv2wlqsvKVa9F7k8QLTypctA7NIgJ56Q+QvEi97jSomIsqW/EhqUrUFlcql+hhSTtA5qqarG8uRVLm1qQY7PpVyjWZA+mb2RYVRlgrCh9MeCbpCRjZtgxgTGnA+FImCc2EpScJPvwvQ9i8/LVqC4uQ5aBJS2IiBKNnPzNy8mdX5hw3+u2Sf9eb8CHmVn28CMiIkoXbq8HvUMD8AcC+gglEilnWpRfiPftvhsfuvsBlBeWwGTM0q8S0UKRtdDFnk70j4/oIxRv5cWluO+OPaq3LC28sqJi3H/HnVjZ2g6zyczDRHEk8aK+oUEMjo6C4d70xYBvkpqdm++TM+mawuDYCPxBLqoSUW5OjppQ7NqwBXdu2oa68kpkW6z6VSIiSgQq4Judgxxrtsr2pdsTCAbh9fkwM8PDaEREROnC4ZrC5e4uuH1efYQSicx3pRJZW30jtq/ZgN0btqChslq/SkQLZXpmBi6fBxNOB8YcE+xrngBytbX+0qZWrG1bhhVNS5Bt5b7sQikrLEZ7fTM2r1yD2ooq9axhwDd+ItPT6BzsQ+/oEDN80xgDvkluyuPCtZ4ueLioSkiGTAPMZjPu2rwdH9n3EFa3LEVpQaHqo8PHHxFRYpBFiSwCs60sPbQQAsEQvH4/q48QERGlkYkpJ853XsOU181NxgSWn5uH5c1L8Ng9D2J12zIYDQZuzhMtgkmXCx19Paq/OcWXHHaRLNTNK9bg7k3bUZxXwPveApC97dbqOmxoX6n6xBcXFOpXKB5k7iUtQDsGe9EzMsi5WBpjwDfJTbrduNzVCZfXo49QIjJmGdFQXYNPPvQBPHTHXVha18TAAhEREREREaWE6HQU3qAf9imn6ufPg1+JS7LbWuobce+2nXjs7gfQWFkDi8mkXyWiheBwOXG9uwsev08foXhr1e57OzdsRntDC0ryGZy8HVlGI3Jt2dixbiN2b9yq+vhSfEmlla6BXrbWIAZ8k52UdD7fcVX9UHNBlbgk01f65WxetUZl+961aRuW1jehKC9f/w4iIiIiIiKi5DQzO4tQJAK7cxKOKSdmmVmSsExZJpQWFmF9+0o8sGMPdq7diNbaBrWBn5nBbUJKJBnqMIL0oE42ci+83N3JiowJpES777U3tmDzitVY8rN7HjN934vSgiJsXLYKG5avQltDk/ZcYU/4eHNMTaJTqgqw7Wfa40wuyY27JnHy+iWMTdoRiUaYrp/A5nvmmLFp1Vp87v0fUQsr6XPAMiJERERERESU7GbnZjE+aVev2dkZfZQSVVVZObat3YjPPvIY7tu2G7kWG4xGg36VKP4MmZkozMlDQU5O0u2djTsdqsw9+5onlrzcXOzbvhtbV69HjtzzDEb9Cr0bEjj/wgc+hmXNS5CVlcW97QQgh0w6em/AzzLyaY8B3yQ3MzODQDiE4YkxjGivae1rSlzyALSaLagoKcWejVvxgb334YN33Yu2ukZ1apEPSCIiIiIiIkpGMzOzuDHYj66BPu5NJAEJdOTYslFfVY3dG7fgdz7wMWxdsRZlBUWqShlRvEn2ZUFOLvKzc5Gh/UomwUgYkx6XKu3s8fmYoJMgTMYsVJdXYPPKNXhk992o0T6nW2ezWFRm7/bV67GipQ2Fufncy44zubdEo1H0jgzh5JWLmGLbz7THgG8KkB/s/tFhdA8NqL45lPgk03f10uW4b8dufOSeB7Ft1To0VNaoSaxMPoiIiIiIiIiSiWT1yr7EjYE+hCMRlfFLiU0yKPNycrFm6XJ86qEPYO+mbVje1IqywiJYzWb9u4jiI0N7f0rPaekPmmwxJTn04g8FMTIxjgmpesCAb0IwGAzI1+55K1vb8MiefVjRvASFefmqKiO9M4vJjIriUuxetxnbVq9DRWkZrBaLfpXiZXpmWpWOl9jQ5d4ueJnhm/Z4N0sBc7NzuNrdhQvXryISZcA3mRTlF2Dt0hX45IPvV6UwtixfjfLCYv0qERERERERUXKYnZ3DmNOBgYlRON0uhMMR/QolOumRKvsT999xJz778Ifx0I470Vxdr18lovciOj2NK92duNZzQ1VopMRRmFeA5a1L8Mjue7Bvyx2wmnjA5TdprKrBnnWbcdfmbVja1KqPUrwFQkHcGOzDhDb/IhIM+KaAOe3X4PgobgwNqBMdMqGg5GDSFlWF2qKqrbEFd6zdiId3341923Zi47KVqgF+lpG9JIiIKLnYrFbkZGfzlDQREVGakb2JUCSsgr39I0PsXZlEZN5mNplQW1mFDctX4t7tu/DgHXtw18ZtqCuvhM3MLC6id0sy7zr7e9E10IsZ9jVPKKasLFWOeF37cty1aRt2b9iCuopK/Sq9VbbFitaaeuxYswH3bN2JlrpGlSVNicEfCODKjU6M2Mf1EUp33IlLAVLSecLlxODEKByuKQRDIf0KJQvpgdBc14CP3P8wPv3QB/D+3feoh2mu1QajwcB+CERElDRk8VdSWAQjDy0RERGlJa/fh+u9NzDpmtJHKFlkGbNQUVqOPZu3q0pkn3/0MaxpbUdxXr7am5CeqkR0a6Ssc/fwgPYaxPT0DPv4Jhg56FJfVYud6zbjU/c/gtXavY57sL8oMyMTxfmF2LZyHe7fvgf3bN+F4oJC/SolAq/fj4ud1zA0NqqPULpjwDeFTHncOHnxnPYDPqKPUDKqqajCnZt34A8//ll88SO/hQe27UZtGU+ZERFRcpAM31xbjuoJR0REROnH6XHj9JWLGHVM6COUjKTk6aoly/C7H/6E2pt4dPc9WFLboLJ9GRAhugVzcwiGw5iYmlSHYGTflhKP9DFfuaQdD+28Cx+8616UFhbpV9Kb3OfbG5qxb8sOfPCe+9HezDLOiSYQDGLc6cC1/h6MafcZIsGduBTi8npw8vIFVd6ZkldBbh5a6xtVOZEHduzB/drrzo1bsWn5arRqi6uS/EJV6pkLLCIiSkQ5tmwU5uXDYjIz6EtERJSGPH4fLnd3qYBvJBplVluSslosqCwtw9bV67FPSjzvuBN7N+/A1lXr0F7fPN+GypBeexMS7C7MzUOJ9t9us9r0UaK3J3e+6My0qsZ4ues6HFPO+QuUUCxms3avK8emFWtw77Zd2NC+ElXa1+ksW7u/STn/bdr9/s5N27G2fQXKi0v0q5QopG9vz9Aghu3j8Ab8+iilO+7CpZAprwcnrpxnwDcFyIIpKysLDTV1eGDXXfjDj30G/+HTX1Clnlc0tSLbbIUx06B/NxERUeKQks5lRcXIs2XDnGXSR4mIiChdBEJB9I0PY2zSrso7S1lTSm5VZeXYu/UO/P5HPoU//tTn8djdD2BVS5vq7ZhOB/wkyN1aW48VrW0MftAtm/K4cObKJYxPOvQRSkTV5RXqgMtH9z2E7avW6aPpqbK4FLvXbsZDu/di14YtsGn3eko8Nwb6cKnzqqokQHQTA74pJDodhdPrQf/okPYD36sWWZS8VNDXaFSnquRU7XJtMSXN8aWPzhc/8ml84v6HsWf9ZtSXVSKHJ0uJ3rPc7Bx1Qlt+3ojo9kkvpNzsbLTVN6FCWygSERFRepmdm0N0ehpD42Po7OtBMBTSr1CyMhqMqm1HSWERlmhzvD2btuLTD30QX/rE5/DJ+x/FPZt3YFVzm8p+TXYSwLaazKgtrcC6Jctxz6Yd+Pi978OXPv45/P5jn8LHH3i/CoDUVlTpv4Ponaky99cvY9g+hiirHiQsuc9J1cXVbe14aNdefOH9H8W6tmXIz85Ji/7lsicmh1r2btyGD+69D4/eda92v29U1R5YZTIxdQ304ULXdYTCnGfRzzHgm0JmZmcRioTROzyIS53X4WMqf8owa4sNOT26bvlKdbrqs498CB+772FVUmnzijVob2xBfWW12lgvyMmDxWRSG+5E9Jvl2rIZ8CVaYHIQaUXzEtSUpXcpLCIionQ2ODaCK92dCIQC+gglOwmIFOYXzPe73L0Xn3//R/Hx+x/Gwzv3Ys+6zVjVshSNVTWoKi1DsfZ9Mic0GbOQmZF4+xMS2JVqNPLvWJibj/KiYm3uWoGm6josa2rFpuWrsHfjVrxv1134+H0P43c/8DF1AP9B7Wspb1rGDF+6RVJqtWOwV7snjqo+vtMz0/oVSjQm7Z5QW1GNXeu34LMPfxh71m9FW12j6utrNZv170othkwDbFLCv7gMK7U1/AN37NHue3uxa+MWlPMAd0Kanp5WcZ+e4QF0DvQiFI3oV4i0n2lLffmf659TijBqk1Z5SUZokTbBptQiC6UsbcGUn5uH+qpqbaGxEhu1hcjatuVorKxRJZXkxKAE/yPTUf13pSYJdEufYwbqYuf01UvYf/KI/lVqWFLbgGXNrWjRPkrvUVp80nO+Z3gQRy+ehT8BqlFIz55lDS1orWtAU22dPkq3QzJ75Axw/9gILnV3zg/SLSktKESD9jzfsGK1etbTuye9I09fuYi+kSHY3VP6aGKTPmHbV69XmyqSIU+Lr197f8j7ZHxqkj2vFpAET9obmrVnaiOaaup4CDUGpLJX79AAOvp70DXYr48mhgzMqWDfOm3Nyr2J1CRB07zsHJXturxlCTZp85dNy1ejRfv5l0wxs9GkqtFJxrf0Mk0k0n6korAYLdV1WLOkHTvWrMfdW+7AQzv34uHdd2PXhq1Yu2ylymiuKq1QlaFk74GZbrETjkS0Z/UF3NDubRPa8zrZM2OrS8tQlJuvDgvIGpQSl8FgUBUX5d7WUFkNm8kCXzAAuyv1+jDn2XLQVtuAe7T7n2T1rl++Sq1NTFlZ+ndQopF+4JdvdODA6aO43t+LuVlWDaCfY8A3Bc3MzqgJ6IqWNhTnF8JsYv+8VCJ/t7JxIn+vqhRtYRFKtUVKWVEJyrTPy0tKUVNeiUZtgdVYXYvaskptvBgFObmwma3aBFmbNCfhyR9ZWBXm5GmvXHVSuL6iGhuXrcL2NRtg1CZiFBupGPCVQG97Qwsaa+uRY2N59FhIuICvdj9dUteAZu2+2aJ9pNsnzyp5Tg1PjKN7sE9t8rF/361hwPf2MeBLt4IB38XBgG/sJXLAd0Z79suG8dqly1XAVzKnKLXcnPPJwdnCvHyVBSd7E/JRKpDVyt5EdZ26HzRU1aK+sgrV2jNPrkmg2JplVpllcrB9ofYpZH9AsnZlD6Qkv1D7Z5Wof6bsIbQ3NmNlSxtWtS5VB+c3r1yD9e0rsaZtOVYtaVeZvVLCtKGqRgXlpLyr/LdJcE4CQAz2xlaqBXylD6q8lja2qP08Slwyf8nSnl95OTnq3ib3Apt2X5F7QYb2NpS1bSSavEk2ktVr0Z7JrbUN6l5458at2LZmPVZq90a5f1vMFv07KRF1D/XjpSOv41zHVYw72RucfhEDvilIMjtntEmQLLTLiorVg4lSmwRDZXOwUlvEtDe1YMuqtbhjzUZsaF+hghfVxWUoloWKNjmRTXd3wKcWQfKANxgy1URGFljyURYwv/y6HfK7pddFxtv82TIuJ4IztX8P9e+g/bvI1+rfTb2MMBoNqmyUlN1tqqxBnSwYtY9yanij9pJsPG4kxU5KBnxr6rG0vkkdkmDANzYSLeArm9MSYGvW3gttjc36KN0OuY/LJoZzagqjE+OY0v7OE+HvOhkw4Hv7GPClW8GA7+JgwDf2EjngKxWnjMYsLGtsUdmeBXl8rqU62WOQfo+lRSVorq3HmqXLsWPdRrVHsXbJMu3+0KTWX01VtSogazWZ1MeMzAx4gwG19pd5pFHfq5jfF/jNL/X7jPJ7jcixWlGlPU/ryqtU9u5S7Z+5srlNHTzYu2k79m3biX1bd+HurTuxe+NWVZ5Z1gBycF4OJsi/P+9diSHVAr7RaARZ2nt0y6p16r12u/tttPjknibrWtkvknLvtWUV8Pl8au7oCfjUnmcykfec3DPloI1km9+z9Q48sucePLT7bu2e3aB6tct1SlxyHzx3/TK+8cwPMGQfT8qkLlpcGQU7VzHnOwUV5ubhnk078ODOO/GgdtOm9COnqSX47w8EVF1/v7Z4CoRCahPUrb3U19rLHwxiwumAx+dVv2/S5YJDm0i/lWyWymZ9SJtsz87N6qO/mUxkJXNOFvdSLumXyaSporRMBX5VqWr99Fy+tuAT2drvkUMLMiFRCzeLVZ0QlwB3ji0HxQUFamOUk+TY+cqT38Wf/O+/0r9KDfu23KF6Tt25ZYf2fmIfpsUmk9O+4UG8duII/vrxr6mFe7xJKfzNy1bhfdrz8lMPf1BbtPGeslA6ertx9Pxp/MtPn8Rllna+Jcvqm7Br3Wb87mOfRF1ltT5K78bQ+Ci+8oPH8frp47ja362PJrYN7Svxx5/8vOqJWKnNjWjxHdTeH/I+udjTiWHHhD5Kt0sOab5/9z24f8ce3KXNrbhpuPikrN/+44fxk4Ov4YWjb+qjiUOyK+U9sW/bbuzcsFkfpXQjZZ2D4TBCodB8+6loVO1JyEv2LuSaT+/1LIfUA8GguhYKh9TYryN7AdLySrJwbx4oUEFnkwlmk1kdQpEMZNlHkAxz+T4J6EqpcRmTIDElLrfPqz2rv42Xjh7EJe15PTN76/tRiUj2x9q0uf4XP/JpbFqxRpULpuQhB6zcXo+21hhDR1+3Kqkrfep7hofUAUKpuJnIzNo9T/qVr2ppU1VBlzcvUdUMqssqVPVIztkSn2SW250O/OTN1/CX3/yKKjMuz0yit2LAN0XJJKKhohqP7tmH3/3wJ9SEVibBRGJWmyTLQ8Ef8MMXCGDMMaEmLcI+5VQB4LeacDox6XUhqC3MZt9FXwAJzFq1RVZ5YTHyc361XE1+Th6qysrnA76ZmWoBlp+bq0qlCAnqVpQwoJtIGPCl25WIAV+r2YxVjUvwyJ334Asf/iTvOQvI6/dhYHQYX3nqezh49iQGx0eT/mT+YmPA9/Yx4Eu3ggHfxcGAb+wlesBX3hOrmtvw/rvuxccfeFStEZk9Se9ENq9v7lUEw+9cISYjI1MFb6U6RiH7RKecVAv4iiptnvehO+/FPdt2YduaDfooJZvxSTtuDPTiQsd1XO+9ge6RQUx53Oo9Ky9JmEmEALA8g/Ozc1TlKGn3J2X21y1drko3Swl7SbzhXC15BEMhnLp8XgV8v/nc0wl/yIDigwHfFDWfEWnAA9pC+0sf+yxqK6tZ2pl+gWTqSlP32bk59YCQILAa1z7+8iRaTtyq73/Xm/TzpZvnyzb/6qJelXTWJxYqo077v5ulpcVbr1NiYMCXbhcDvulFnjFSTeL4xbN4/tABfPeln/AE6m/AgO/tY8CXbgUDvouDAd/YS/SAr6zpZEP5Y/c+jP/4W7+LvNxcWExm/SrRr5L1grxkHnkrexAyd795iJxSSyoGfKWE+boly/Chex7AR+57WB+lZCP7qNPaulaqFTjdLvQOD+JS5zWc77iKC13XMeZ0xL2lkdwX27W15crmJVi7bAVWa++7Vu3r+YoHUj0xi3sfSUYOFXzj6e/jpWMHcabjinpOEv0yzoZSlEyKZUN1YHQEb5w8pk4eEb2VBFZlA0ZOWMuC22axqpeUOJKSym99SW+RkoIilBYWv8tXkfb7CtVhg1/+M+UlJZ1v/nMlC91qtqhyS/LvJC9uEBFRLMgcWfqeRKIMRC40WWTKvV1OD9+5aRs+eNd9aK6p068SERFRqpPNSOnDKYdxzly5iCm3W79C9PZUADczUyUx3NwbeKeXfB+DvZQsguEQOgf70Nnfi5GJ8d9YtpwSk5SOl7LxqlVdSZla7+7euA0fufd9+MOPfRZ/8Nin8In7HsZ9W3dhU/tKNFZUI8/2q5UPF4JUOSjOzUdbbQN2rFqPh3fehc889EF86eOfw+984GP40L4Hcce6zSrYK/u7su8rFRYZ7E0uN6unXe7pQv/YiNrHIno7nBGluBH7ON44c1wtruTU0a2cjiQiIkonUtnAK2Xu43wCN1XJ4Z2qsgrVp+rDe+9TJaSkt7v0VJOAMBEREaW+0YlxHLtwFvapSe5LEFHaCkejGLKPq6BvR+8NeP1+/QolK0lcKSsuwcolS3H3tp345EPvx2ce/jA+dt/DeGT33bh78w5sXbkWq1qXorWuEY3VtaivrEZdRRUqikvV2viXX8X5BSjMzUNJfuEvjEtZ5krt90jfXfn9TdV1WNrQhLVty7BjzQbcu3UnPnDnvfjkA4/iCx/4GD687yHcqf3z25taVbCXkpfdOYmr3V24MTyACZcTc9ovordjsNSX/7n+OaWgyHQUbp8PbfVNqk9EjtXGk49E9J6dvnoJ+08e0b9KDS019Viq3SMba+qQY7Ppo7SYXF4PeoYHcfTi2YQIssqmYzAS0hZeddinLdB40nVxyCni4oJCZFutqr+7bPgGw2FMz7DvzFuVav8bNVTWYMOK1arXEr17Hr8Pp69cRN/IEOzuKX00sVWVlmP76vUoLy5VfQhp8fVr7w95n4xr9yJvgJutC0UO87Q3NKsNzSZtbsW15+ILaHOp3qEBdPT3oGuwXx9NPNGZafi0n7VVS9pRW1GpsqM45yKidyLVAU5fuYAb2r1NWgGl0mERk8GIudlZ9awsK2JrqVQjJZOl2qE879oam7Fh+Srs2rAFezdtx5YVa7XXGmxevhpNVbVoqq7FssaWX3g1VtaiqqRM9cBf1dL2s/EVzUuwWVsn7li7AXdu3IYHd96Jh3behbu33oGt2lpiZWsbGqrrVLsyiQFIFQQ+a1PD6asX8eKh13Fdm+9x7ULvhKuvFCdZvVM+D67c6MTV7k4VACYiIqKfk1KDEniUss60eGTRW6AtelctWYZ7tu3Eo3v2YeeajdpitkaV9iciIqLU5QsGMDA+iq6BXgyOjaZEL04iovdqbNKB09cuoW9kGB6fl5UPUoysfaWVnQTz6yqrsaShSWX4SuB36+p1KmB7x7pN2LtlB+7dvutXXg/csQfv27UX92sf3zouB9Tl9+zZsBV3rN2EravWYX37SqxoaUNLXQOqyytRUlikyjZL/3wevEt+0ekonK4pbf7Uh3Od11Rvc6J3wp/6NCAnxi51XceZK5fU6V9OIoiIfhXPPJI8HyX4y+fk4qrRFqE7123G737oE3jsngexoW2FymqV3kPSgy0dTiDLf6Esvg3qZdD+u+d70MnGQFYa/e9ARETpIzo9DU/Aj8tdHeowumxgEhGlq0mPC1f7utUhmDGHXbUZotQn6zwprSwtjxqqa1VVp10bt/7K657tu/DIXfeqEtFvHb9j/WasW7YKS5taUVdVrSpCSWCXa8fUFQqHMTA6go7+XnQO9bEVGf1GDPimAdm4HpgYxYUb13Hu2mVtIjGhXyEiIgmySM+VjExOkNOdlBnsGxpQH2lxSV/fvJwcbFy5Gp959MP4w49+Bp97+EO4c/0WVJeU69+VuqxmC5ZU12Fd6zJsXb4G92/bhY/vex9+/0OfxCceeBS7N27T/vfJ1b+biIgoNUzPTON81zWcuXYZPr9ffU1ElK7kIIzs057XXmxzQ0RvZ8rjxqEzJ3Cjv1cfIXpnDPimAclTcvm86B4ewLELZ1S/qhltIsEMJiKi+cCLBFYkw47Sm5ycnHBOqo+0uCS71Wwyo7aiCptWrsE9W3fiwZ134f7te7B383bcsXYjNrSvxNKGJtSUVaAkvwDZFmtCZuLLaWqLyYQ8W47271mI8sJi1JSWo7mmTvWxlNJd69tXYIv237ljzUZVfuvuLTuwb9su3Ku97pOSXTv2qP9+6b+0e+NWrGhtY5lrIiJKOVJJZXB8FNf7utE3PAiPz6dfISJKP3Lo5WrvDVy80YEpjwsRthgiorfwBwIY0uZNJ69cQP/YsD5K9M4Y8E0jjiknXj1+GNe0yUQkEtEWWywXQkQkwd6yomKV6UvpbWZ2BqFwCNPaR4odyfatKCnF+mWr8MF7HsB//My/wv/84r/Hv/nE5/CRux/EztUbsLyhVQVSE7FUVab271SYk4eG8kqsbGzBhrbl2LFqAx7ecRc+fu/78DuPPoY/+uhn8Kef/X3899//d/j//t2f4W/+zX/Clz752/jtD30Mn3zfB/Hgrr3YvnYjlre0oaGqBsWFRarcFxERUSqRQ+fBSBjD9nEcv3gWIxNj+hUiovQjWb19YyO41teNnqEBHoIhol8wos2XrnR34VJPJ8ack/oo0TszWOrL/1z/nFKcnKYNaYur0sJilBQUqiCHxWTWrxIR/Wanr17C/pNH9K9Sw4b2FVjbthyF+fmqfyYtPpfXg57hQRy9eDah+o9UFJWguaYeFcWlKMzL10cpFiTjVwKc8jMoWfc5tmwU5OapvwvpbbS8uRVrJUt21VqsXrIMy5tasbKlDS219agrr0SL9vdWU1qhAq/F2t9dUW6+ygp+N6/6iiqsbJ7/M+XPu/laUtugMnQ3LluFDdpr/VLJ1l2Lfdt24q5N27F7w1bttQXb16zHphVrsGbpcqxqa1fB25a6RjRW1aKmohIVJWUoKSzS3lt56r/PYjarcvLykr5LRqNRBb/lfwsJIrMP03vn8ftw+spF9I0Mwe6e0kcTW1VpObavXo9y7T2fm52tj9JikqpH8j4Zn5qEl6X8F4w5y6SqG7Rq97+mmjp1T6PFFdDmUr1DA+jo70HXYL8+mtjkCRcIhVBXWa0qYsj7hM89Ivpl4UhEe1ZfwA3t3jahPa9TsVKhJOPIs9NqNKG0qBiVpWX6FSJKd6+fPIpXjx/CdW2OJzEdolvBgG8amZ2d1W4OkfnNRW0yUVNeqYK+XIQT0a1KxYCvBG/WLFmGgjwGfGMlUQO+hbn5qCwqQX1VDcqKS/RRijWZl8jPYm52jgp+NVbXoq2xGauXtGPzijVYUteI1toGLG9uQZN2rb68Ckvrm1BfUY2ywiJUl5arMtASwH03r2WNLSpgK4EK+fNuvtq18c0rVmPj8tUq8Cv3i43a11J6evuaDerfae3S5VjR0qb+PVvrG9FYU4dq7d9B3kdF+QVqvmWzWtUczJDJzN3FxoAv3QoGfBcHA76xl4wB38h0FA6XUz3P5b1ikucjK1sQ0S9Jh4Cvov13+bW5iKxDpdqP3A95CIYofUl5d4/Pi6cPvIQDJ4+q9S0rtdKtYsA3DclNYsrrURumxQWF7BFHRLeMAV9aCIka8LWZzbDIRnVTK2orq/RRSjQSNM3LyVPVSiRrVjZGJMAqgdaVS5aqTOANy1djw4p395LM3LbGJu3Pqld/3s9fteqQnJy4l+Ct3CskgGvS3ivciElMDPjSrWDAd3Ew4Bt7yRjwlaCNlDItKyxGQe58exWrxaJfJSKaly4B3+jMNFw+r7oXlhYWIT83j3sTRGlseHwMR86dwoHTx9Ex2KvmTES3iquvNCSbYD3DAzhy/jSu9dzQR4mIiNKbNxBQgWhu/Cc2CbTm2GwqA1gCsOXFJepVVVaugr8SYGiurX/XL/m9Emy7+efdfJUVlaggr/zzsq029ZKy0wxiEBERvTc3A75Xejrx5pmTGJt0IBKN6leJiNJLdHoabr8Pl2904MSl83B53JhhgIco7cj8KBQOo290CK+dOKI+yvwoZasb0KLgTlWa8gX82K/dOE5ePq8ttKZ54yAiorTnCwbQNzasAr58LhIREREtriu9N/DaqaOqIoPsURARpbOrPTdw+NwpTDh5CIYoHUk7TrfPi66BPhw4fQyj9gn9CtGtY8A3TcnpseHJCVzovIYDx49gzMEbCBERpTcppeULBeD2e9Wmo0y2iYiIiGjxuL0evHL0TZy9ekkfISJKTx5tDdo/NoJTly+id3hAHyWidBEMh3Ds/GmcvHROJSLIHhXRu8WAb5qamZ1VpZ2v9XXjxSNvomdoUJUMYEYTEaUbo9EIk8mEzAw+EtOdBHjD0Sim3G443S7tWckyWkRERESLyRf0q8pj5zuuqvlXJBrRrxBRupvT1mf+YFD1Kk+H7cqwdv8bnXTg8PnTKttXehjzEDJRegiGQhhz2HHi0gVc7OpASLsfSPyG6N3i7naa6x0ZwjNvvoJLNzr0zW3eSIgovUgvTunNaTAY9BFKd/apSYzax1U1DCIiIiJaPKFIBF3DA7jS04WO3m51MJ2ISMge5bhzEhMuJ+a0X+nA5fOoUvenrl5UFRC4JiVKD44pJ650d+JMx2V0jwwwKY/eMwZ805z075USAQfPHMdrxw9pkwk3ZmaY0URE6cNisSAvhwFf+jnpmTQ8MYZpLq6JiIiIFpVsaEpAo2ugF88f2o+BkWHt62jaBHeI6Neb1e4P/rBk+IbSJvghGb1S1vVaTxdePPQ6W/ARpbjZuVlV3eRC51U8+/orGBwf5UEPui0M+BLmZudw+uolHDh5BD2D/fD4vPoVIqLUZ84ywWaxwpDJR2KsyOQ1kTfyxicdGBof4ySbiIiIKEZkg/PAqWPo7O+By+NW+xRElO7mVMudiLZ2TDc9QwN46cgb6B7shz8YYLYfUYqKRCIYtU/gzLXLeF2bBzlcU/oVoveGu9ukNtxdfi+u9nbjmf2v4GpPl36FiIho4bm8bkxqk9iZmcRsIzDqmMDA2AgDvkREREQx4g+FMKLNwU5evoDz16+kZYCHiOgmh9uFiz2dqsd5R+8NVmMkSlF2pxPPv7kfZ69eVhUNZmb5s063hwFfUmRTW/piHLlwBmeuXkLv0IBqFk5ERLTQ5PniDwZV6ZpE5PS4MWIfV73tQ+GwPkpEREREi0U2OH2hIM5cv4xjF89hdGIcAe1rIqJ0FI5GMKmtR+UQzKkrF+H2eXkgmSjFSN/ea703cOj8adwY7sf0zAyz+em2MeBLP+MJ+HCxpwPHL53D6SsX4PJ6eJMhIqIFJwtV6VGSqM8YT8CPsalJFfT1+n36KBEREREtJslgu3ijA0cunkFHXzem3G79ChFR+pFKB6evXcbRC2dVFaogD8EQpQTZC5Me5b3DAzh99QLOdFxWVU6IFgIDvvQrznddx1MHXsbFrmvqpAkREVG68fn9uNx5HSMTY/oIEREREcXC0PgYfvjK87jYeQ3hSDhhq8IQES0mCQqFtHtgR38PHv/JU7jS3alfIaJkJpXkxuwTePPMCRw4eQy+QEC/QnT7GPClXyGnxqSM0sEzJ3Gp6zr82k1neoZlQ4gotZiyslCSVwCb2aKPEP2cN+DH5RsdGNEm4UREREQUO9JeQ1Ueu3oRXf29bDdFRGkrOjOtKk+9fvo4zl67jMGxEVXumYiSk7SwGJ+046Q2zzl1+SKu9/cgHOHPNC0cBnzpbUlviGdffwUvHnkDY6psCBdYRJRa8mzZaK9vQmlBoT5C9HO+gB9XejrVISgiIiIiih0JZky4nDh6/gxeOvwmSzsTUVqT/ua9Y8M4euEMDp0+Aa+PbYeIkpFk7UejUXWY7YkXfowrPV0IhEOsZEILigFfelvSJHzS48KFzmt49sDL6B0aQHQ6yp6+RJQyMjIyYTJmITOTj0L6VbLROOZ0YGzSjknXlJqUExEREdHik32HmdlZ9IwM4tilszh15YLKaiMiSkdyT5TKixIc2n/6mCrtzBZ8RMlHSjmfuXoJR86fxpW+G5jyuhlroQXHXW56W3Kzkc3u7qEBPH/ogCobMjIxrja8eSMiIqJUJwefXH6fKuk8MDqMYJiVLoiIiIhiSbJ8L3V34uDZE7iqfYxEI5idZRYMEaWn/rERnLxyAccvnkPP8ACmp6e5R0uUJCTYO+504Mi50zh26RxGJu0qu5dooTHgS+/IE/DjhjaJeOb1l/Hs/pcw6Z5iP18iIkobEuw9dek8XF6vPkJEREREseLyefDSsYN48+xJjDnsasOUiChdOd0u/OTNV3H47CnVjk+qMRJR4hsaH8HRc6dw8NxJXOvr5mENWjQM+NI7kuCuLxjAtd5utcB68fAb6Ozt4SkyIkp6mRkZMGVlwZBp0EeIflX/2DCOXz6PSZcTMzMz+igRERERxUJ0ehpjkw6cunoRz77+CvpHh3gInYjSVigaQe/osMr03X/8sKrGyHUqUeKSQxnSJuzMtct44cgb6Brshzfg168SLTwGfOk3krCu3a3dmK5fweM/fQrHLpyB1+9TQV8iomRlMBhgtViRZczSR4h+1cD4KE5eu6h6+YYjzCghIiIiiofLNzrwtaefwKWuDgQCAZZ2JqK0JPc+aTd0oeMqnnjxJ+js60EgFGRSDlECkp9LfzCI3qEBHD53Cs8feQMTU5P6VaLFwYAv3bJgJIS+8RFVTkkCv3KyVnr6EhElI4vZjMrScuRmZ+sjRG8vHIngclcHOvt79REiIiIiiiXJ9HV5PXju4H785I3X4NY+Z6YvEaUrl9+HzsE+vHz0II6cPcXSzkQJyO314sqNTjz+/DM4eeWiPkq0uBjwpVumFlg+Ly50Xccrxw6pJuPdQ/1qkcWTZESUbLIMRuRlZ8NsMukjFCv+QAA+vz9pMjOkV9z5jqu42tPFlgZEREREcTCjzRsD2pxMSiK+cfoYzl+/AofTqV8lIkovoUgYE65JnLh8HgfPnsTV7i7V35eI4k/2jCRe0tHXjUPaz+ehc6fQPzqsXyVaXAz40rvm9LpxqacT33vxx3jt2GGEtUUX+0UQEdGtkImvlEcemhjVJsDJ8ewIaovpU9cu4WLnNYTCIT7ziIiIiOJgdm4W41MOnOm4gqdefRHX+7r1K0RE6UfW051DfXjjzHE8+crz6GJFKqKEIHtGEi9549RR/Pj1lzE6aUeEWfgUIwz40rsmGVmBcAjdw4N4U5tUPP7Tp1XPCCkfwqwnIkoWmZmZKrtXevlSbMnkVwVNk+SZIc89j9+LvpFhnLp8AY4pZpMQERERxYNk+jpcUzh57SL2nziCg6ePq/LORETpSKoxjjgm8Oa5kzh15QK6B/tUhSoiij2Ji0h8RDJ7v/3Tp3D04jkM68FexkwoVhjwpfdETpFNelw423EVP3zlOZy8fB4jE+OIRHkDI6LkYDQYkGPLhikrSx8henvyXAtrz7fBiVEcPHMSo9qCWjJMiIiIiCj2fMEAuob6cejcSdVuqnuwHx6/T79KRJRe3Nr973JPF45fOqf2Z8cn7arkMxHFjuwbSVxkZHwMJy+dxw9ffg6XuzvhDSRPOzNKDQz40m3xaDetruEBPHPgZTyz/yU4XU5Vo56IKNGZzWaUl5SqoC/RrRixj+OVE4fQPzKEaIQHnIiIiIji6cbwAF47eQRP738J565e0keJiNLTsUvn8N0Xf4Ij509haGxUHyWiWJB4yKTLqeYkz7z+Cm6MDKq4CVGsMeBLt0VuZv5gANf6urH/1FH84JXncPrKRXh8XgZ+iSihGTIzYTGZVaYv0a2QbJL+sRFc7LqOqz1dPDVNREREFEf+YFBVYDl8/jQOnDqGExfPYtI1pV8lIkovTo8bV3tv4IXDb+DQ2RPoGxlUe7ZEtHgkEWB6ehodvd148dDrOHj2pIqTyP4RYyMUDwz40m2T/Ca7ewonrlzA3z/xTTx/6ACGxkcR0BZfLFlARIkrAxkZ2kv7RXQrpJ2BPxTE6asXcfTcafj8fmb5EhEREcVRIBTChRvX8erxw3h2/8voHR5UPS3n1E4FEVF6mfK48fyRN/Dc4ddx9uoldQhmZnZGv0pEC02CvZL4dvT8GTz+3DM423EFDjcPn1H8MOBLC2ZGbYSH8MaZE/inJ7+nbnSj9gn9KhFRYskyGpGfm6dKOxO9G9f7e3Hs8nl0DfSqBTURERERxdewYxwHzhzHT954FYfPnkQ4EtGvEBGlnyvdnfjGT5/C66eOomdwQO3ZEtHCikajKpP+29rP2svHDqJ/YgTBMCvBUXwx4EsLZlaak09HcWOwH6+fPoaXtBvd0Qtn0Dc8CF+AJUSIKLFkGbOQn5OryjpTbAXCIfikCsRcclaBsLucuN7fjWPaM653eH7xzExfIiIiovjx+H3oHh7EoXOnVIDjSlcHyzsTUdoad07i1NWL2H/yKI5eOI3hiTFViZGIbp8q4zwzjRuDfThy7jReOXYIF29ch8vnRZRlnCnOGPClBSdB3xGHHT967QV854VncODEEYw5mOlLRInFqDJ8c2E2mfQRigXVBsDlxJjTrkokJ6vxSQeeOfCyKpMVjoTZwoCIiIgozqRs6ZXeLrxy/DCefPUFdPR161eIiNJPJBrFqyeO4Mn9L+LU5fOYcDr0K0R0O+TQfzgcxmvHDuF7L/4Yl3u64PR69KtE8cWALy04OeUiC61AKIiO/l4888ar+P5LP8GrRw/C5XGzjAgRJYSMDHllqj6+FFtS4kZ64UpliGQVioQxZB/HicsXtEn+YThcTv0KEREREcWL9O8ddUzg4PlTePnoQbx56hjszknVY4+IkofX78PwxDhC4ZA+Qu+W7M/KurVzoA9PvPwcDpw6im7t8xBLzhK9J/IzFZ2OqgNl3/7JU6qtZc/IkKpixyQAShQM+NKiGnc6cOTiGfz0zdfw3MH9uNBxFaN2mbAxG4qI4kPCu1aTWXtZkMlgb1xIJYhwNJrUZZAlO9nt9+FC5zW1mTgwOowgNyOIiIiI4s4T8ONq7w28cfo4XjryBi53XVdBX9mDSOb5J1E68QcD2s+tg/24F8CEdv/bf+qoKu98/NI5DE+Mav/7srwz0bshCWxyX+odGsTR86fxg1eew/nOa5j0uFTiG1GiYMCXFp0sqAbt42py8T+/8RU8+/orGBofVafMiIhiLTMzE3XllWioqILBYNBHid6bYe35dvLaRZy5egn9I0P6KBERERHFW/fIAF46fgj/8uwPceDkUbbhIKK0JsHex59/Bi8eeh1dfT36KBHdCl/AjxsDffjqU9/Dt557Gt3DA+qAGVGiYcCXYkKynsacDtXA/OVjh/CjV5/HoTMn0TPYj2g0ykUXEcVQBmxmC7ItVmb40m0LRsKqbKAcajp87jScbhciUZ5CJyIiIoo3yWCTw3lnOq7gtROH8cyBl1UZRtm0ZaYvEaUbp8eNa9o98BXtfvjK8UM4cfEcnK4p/SoRvR2pMjBqn8Cxi2fVPOLIhTO4MTQAXyiI6Rm2i6DEw4AvxczM7KyqaX/4wmn809NP4KnXXsCpyxcw5XGxxDMRxZRk+cqLYku21ebmZrWPqbXBJv2IXzt5FK9qC+e+4UF4fL6k7k9MRERElCpUT99JO14/cxxf/sG3cfT8GYw57GoDl3sQRJRuPH4fDp0/jZ+8+Sp+fOBl9GjrV7kf8hAM0a+SMs5urwfXerrw/MEDePz5p9E9NIAwD/lTAuNuN8VFIBTE8cvn8b2Xfoz/95v/hDdOH9MWXROY1hZjRESLKTMzA5UlZagqLWdJ5xiLaAtJl8eDSDSqj6QWWQT8r+/+C45eOKNOSkufXyIiIiKKPzl8PmQfx1P7X8K3f/oUTlw6i/FJu36ViCi9DE6MYf/pY/iXZ36Ap197UQW1mK1I9IukhPPLR9/EV595Qh2U8IdC7NdLCY8BX4oLOWUrk4vT1y/jJe3G+eKRN3Dg1DFc6rqOiUmHOkHD02VEtBgytF852dnIzc5BZgYfg7EkpY4l4Cul/FORtC548+wJ1SPu5OXzmHRNpWxwm4iIiCiZyB6EZLZd6LqG/SePqD2I4xfPoXugT5V4ZrYvEaUTuR/eGB7AwbMnVUDr4JkT6B0aUAk6vB9SOpOYxKTLiYsd1/DG6eN49fhhHL1wFv1jw4hMR1nNjRIed7oproLhMEadDjx14GX8w/e/hSde+DEudl5DOBLWbqCcYBARpRIV8PW6U7bHrVSp8AYDeOHw6/juC8+q06A+bSFNRERERPEnW7QhbR7aOdiPx1/4Mb7z/DN4UZu3jTsmEJ3mIT0iSi8S2B2bcqjWe//rO/+sDi47ppzqgAxROpLkM0lQuN5zA9/+8ZNqnvDqySPwBQP6dxAlPgZ8Ka7kRiq9fYPhEIbt4zikTTJkk/z//ODb2H98vhciEdFCysjMQGlhMcqKitnHN8bkIKQsKlP1QKT8Z8lzzeX34kpPl1ocvHnmBDN9iYiIiBKEzNWkbKlksV3r68bLxw7hey/8BK+fPAa7c1IdPiciSheyJ+sJ+NE7Nowfv/kavvr0E3jz9DEMjo7o30GUHvzBAPpHhvBT7efg6f0v4cilMxicGEVImxewCiklE+50U8KQ0zLX+3vw0vFD+M7zz+KFQ6/jxKVzuDHYpzbLw5EIb7BEdNukpHNhfgGKCwphYMA3pm4e8kn1e7mciJZDTC8ceV2VDJR2BU63i33qiYiIiBLI6KQdp69fwk8OvoaXjryB01cvoX90GB6fjyUbiShtyPrV5fPi2KVz+NGrL2j3wzdx9toljEyMIxAMci+WUpocAnNr7//uwQEcu3AWP3njVbx64giuD/TCzYptlIS4000JR7Kgxqcm8dLxg/jHJ7+L/+ef/h77TxzGmGNCuwmzMToR3aYMwGTMginLpH2ufUExMzM7o05HysdUJ4FtfyiEg2dP4atPPYELHVfh8nr0q0RERESUCGT/QQ7qyf7DX/zL/8EPX35Om7ddQTRFW5AQEb2TKa8bLxx9E48//wyeeP5ZdA/2qZZMDPpSqvL4vDh75SK++8Iz+Nvv/jOOXj6HCZdTv0qUfAyW+vI/1z8nSghz2i8JBviDQXXTtbsmVfavwzWFKbdLBQuyjAYYDUYYDAb9dxFRLMipd8lYTGZZxiw8sGMPVi1ph8VkRgaDvjEj/YCkr+2pa5cwNDGmj6YuWRSHwiF1WlRKWc/MTMNiNmvvQSPMJpP+XUS00Dx+H05ri/a+kSHY3VP6aGKrKi3H9tXrUV5citzsbH2UFpOUbJP3iRw09Qb8+ijdLnOWCe0NzWita0RTTR3bZ8SAlCbuHRpAR38Pugb79VG6VRLCkIPlsv8w6XapdlPyHPH6/Wr+ZtXmbgaDke9lohgbd9jRqd3XTl65gHGnQx+lxSb3PSlt6w8E4PS41f0wGA4j22qDUVvHyn4KUbKT6mvyvL9yowNHz5/BgVPHcPzyeXQM9Kr3ezokKVDq4oyVElowEsb4lBPPHX4dX3nyu/j6U0/g1aMH0dXfhylt4iFlnme0xRlPmhHRrZDgrhwUyc/NQ4H24sZNbAVDIYxpC/eQ9jFdRLSFhJwOffaNV/DDV57DiYvnMGqfUGWz+OwiIiIiShyywXu24wp+9NqL+McfPI7Xjh/CwNgIfH6f2hzm3I0oduTQ7ODYqFpDUuzJGvbktYv4xk9+hG/95Elc6ryGiUmHqoogQWGiZCTPcSnhLIe6pGT5y0fexLd+/CR+tP8FXO29oX8XUXLjTjclDcnyvTbQi6ffeAV/852v4f888U389I1X0Tc8CB9P5RPRLbCZLagoLFKZvUSxIosKOSV6qbsL/6wtmJ99/RWcuXJRnSglIiIiosQSCAfRNz6MJw+8hL/+9lfxg5d/ivPXryAsrUnYZoqI0oRax2r3vcs9nfj7738L337uabx58ijszklEp6P6dxElD0kcu9zVgaf3v4j/8S9fxgtH30D36KA6yECUKljSmZKG9EMMhEOqtPPwxJgqDSr9ECUQLK+odnOW7D3J2JMyI0S08JK9pHNBdi7qyiqwa8MWNFTV6KMUKxNOB7r6e3GtvyftynLNzklP3yBGHXaVISLPLKP2vJJnlsVsQab2/GJ5caKFwZLOdCtY0nlxsKRz7LGk88KT7LVQJAK7y4kR+zgCgQACwaBqLyWbwpmZGT+bvxHR4pCqSD3ave1aXzcmPS59lGJtdm5OlbyXlkxyL5T9Vzm4LIdfzCYpeS8t99hujxKXvFflAL5k9F7t7sShs6fw5pkTOHz+FMacDrVPwwoelEq4+qKkFIlOo2d0CC8dP4T/9/Gv4X9/75v44Us/xbXuLri8bv27iIh+kfTgKskvUpuRFHsy0ZaetumeGXHm+hX84JXn8LWnvodD2kJDypVJWSEiIiIiSiwS3Dh6+Ry+8dyT+C9f+Ts8/dqLat9BDu8REaWTq33dqvLBX33zn/Cd559FR283vH6ffpUoMclBLbvTgTdOHcVXf/RdfOv5p3Ho/Gl4tee7HMYnSjXM8KWkJafMpmdm1I1bTtpK5m/3yACu93TjhmqyHoSct7WYzfOZvxk830B0u5I9w7e2vBLrl67AmqXLUFZcoo9SrPQMD+CoNrHuHR3ElNejj6YfyRqREljeQEA9u4bGRxEOh9TJaOktzUxfotvDDF+6FczwXRzM8I09ZvguPqk2Fp2eVhXHVF9Rbe7Wo/1vPeVxafM2wGaxIMuYpX83ES0EZvgmHqlaJQeVpQKCN+BT98LRiXH4tXlUfk4ujEaDyvglijfpyS8Hs+SA1qGzJ/HsG6/i0LnT6BjogcPtQjga0b+TKPUw4EspQRZeE1OT6BzoxY3BPvQPD6oFmZzUkUwyCQpLeQbZcGDZTKL3LtkDvi21Ddi+egNa6xtRmJevj1KsdA/0qYzWkUl72m+uy4Elj/a/wYhjHL36M8tgyEROdo40S4Ih06CeWXxeEb17DPjSrWDAd3Ew4Bt7DPjGhhw4l/nauHMSfaND6pC5PxhQ+wwyX5PrQt7zMo8jotsj5VdvaOtHaQfkZMA3YcidToJpk24Xugb6MeGYUPdCm9Wm3Q9nVbKNHGTmWpbiQQ7Xy1pwYtKhzfWHcfjsSbx64jBePPombgz1qz0Y2YshSmUM+FLKmd9ED6B3ZBAXOq/hxMXz2gTEgUg0ghxbDkxZJu3F07dE70WyB3yXNjRj57pNqK6oRK6NG+qx1jc8iDNXLmLC5eTmum6+R1wYw/YxtSAZHh1BltGIvNxcWKU3HDfKid41BnzpVjDguzgY8I09BnxjT4K7Mn8bcdhxpacLlzqvq81lkykLOdoaI9tq07+TiN6rwbFhXNN+vjoGetO6OlSi82nPIMn0PXH5vLoPzmnrWzlcL9UWme1LsSZzotOXL+LFw6/j8eefwZGLZ7W5Ud/PDmgRpQMGfCnl3Dx56wsE1KTQ7nKqsktyEndgbAT9o8MYc0wgGA6po2myKSGnznjyjOg3S/aA7/LmVuxZvwWlhcWwWiz6KMVKZ38vDp4+rgIwgZB2Dyb9hPQs/NrCRAIOTrcLkx437FNO+LXnmDzTZLEsJ6W5aU50axjwpVvBgO/iYMA39hjwjT3ZNJb5280SzzJ/m/K6VauOMYdd++hUAWHZYuB+Q2rxaH/fjin5e55Q7wOb1apfoYXW1dejntM92vPaE2Cf2EQlJZ5lLTupzbklqObU1rITTgem3B5IGyMJ+krSDecDtFhkf3/UPo5LXddx+NxJvHH6uDqAcLmnU70vZe+JwV5KJwz4Ukr7WdmlqUlc1xbAxy6dw+WuDgxoE0Yp9SzlM6Xfzs0b/5zaetcWY/L/uSCjNCM/B/KSjEMp0TM9PaMm6PKSsujhSBinrl7Em2dO6L8j+axubcfezduRn5ursv0ptq50d+DFI2/A7fep9xT9Iukj49AWJFd7u3Ct9wY8Xg+MBiMK8vLVQlkWyRn6QpnPKKJfjwFfuhUM+C4OBnxjjwHf+LqZ7Ts6acelGx242t2JwdFhbV01C7MxS5U5nffzoC/ncclF1seyryRzdanII+W8O/u6YTGbUKk9v2lxyN7d4XOnMeKYUIcrKPFJsPeG9hw633FVHYqQLdZsqxU2i3V+LavfB3kPpNs13096BpFIRB0wOH/9Mp4/uB8/fOV5nLx2EQPjo+q+Lc9oonTDgC+lHTl9JsGGvrFhnOu4gjfOnMCN/j6Ma5MRX8Cvgr03y2hyEkLpQg5AyPt/yu3G2KQdHT3d2oTpCk5cOIsj507h1eOH8dT+l3Dw3EmVeZisNi5bhfft3jufMckNyJg7py38nnn9FYS0SblM0OnXk5/JKY8HnYN9OKstXsbsE6o1QX5Orgr+Sl8kInp7DPjSrWDAd3Ew4Bt7DPgmlulZaTHlQ9/oCC53d+JC51UMjY2qvyeL2aJad8iLksP09LRaH1/Q1sbPvfEanjt8AEcvnIFLm6dXlVagtb5R/05aaJ19PSpwOKE9pxnwTS5SAcEX9KNfuw9e0e6D3QN9CAQDag2bo81zpXoV91vpdky6nLjW04kXDh3AMwdexv5Tx3C5p0tV2pDDOczopXTGgC+lHTkBJOVGpNSz9JmQ02dOl0s9FGQiKaWf5aNbm8BLAExKQ8zNzqnNCgaBKVlJ8EjK67h9Hm1iNAXHlFOduBwYHUb3UD+u9Xbj8o1ONRm/3N2Bc9qCVoJzFzuvq5PqF7uu42zHFYw67PqfmFxkYVGQk4etq9bi7q13cPMxxqR6wuzMrHpf/eTgawz23oL5fvQ+tcEk7QikfJx6ac8lv/aKRqPqtGpmZgaM3DQk+gUM+NKtYMB3cTDgG3sM+CaWn+03aOutEfsEhsbH1F7DlMcNl9eDKbcLXu05JdWTkJGhgr/MeEscks0bDIXU31/v8KBaH5+9ehlHLpzBwTMncb7zmrYmnoDVpN3rGpuxrGWJ/jtpoTHgm7zk5+jmvuuwfQwTTm2u5fdr8y2f2peSg8yylpV9Gqlglcn7H72Dm5UIpYWCHITv6u/FmWuX1eGbN88cxyltPt+t3a+ltYJk9TLYS+mOAV8ijcvvRf/YCC7e6MCRi9pE/uwpDI+NYlKbWErQV0pqStavWZvUc9OCklE4EsGg9h7vHuzHte4uXNHe66cuX8Abp47hpwf349nXX8GLR9/E66eP4ejFs2ohK5mFgxNjGNcWux7tZ0Q2L5KV9OtdWtuIrSvXYt2ylfooxYpMuKXUjmQ4vHL8sD5Kt0pOSMti+WrvDVWVYmLSjlAohKws7dmkvbdzs3P07yQiwYAv3QoGfBcHA76xx4Bv4pIN6kAkpMo9yzzu8PnTai02pK3L5PCe1WxWrWZU644M/qwkAglE2Z0OnLsm5UEP4IkXf4yXjh/EmetX1EHMQDgIi8mM8sJirFrSzoDvImLANzXIWlb2XG8M9eNC5zVVqlv2BiTYm5+Tpw698AAzvRN5lsohqRsDfTh67jR++Mpz+OnB1/Cm9rnsWco8iEkFRD+XUbBzFY89EP2SLIMRFcUlKM4vREFuHooKClCmTeirS8pRVlSsXsUFRSgrLlYbc0TxJKfF3V6PmuTIaWQ5MWl3TqoT5D7tc8kIVC+fVx1gkOuhcFh9v3wtG+O+YFD16k3V/haF2s/xHavW4+E99+D9d9+vj1KsyClL+6QD39cm5v/t6/9bH6X3qrq0XL3KtedUfWU1mqrr0FrXgNqKSu3ZVQZjlhGGTJZ8ptQlzyupziKbf7JhLqe9fX6/eq7JM04yb944fRwd/b0YdSZHZYoN7Svxx5/8PFYuaUdlaZk+SovpoPYe+coPHsfFnk4MS585WhC5tmy8f/c9uH/HHty1ZYcKZNHikso9+48fVlVUXjj6pj5KiUiyePOzc1CSX4iKklI1l6ssKUNTVR1qyitQVVamjZWpILAcOmfW7+K7WbJ5eHxMVb/qGRlUB6Wl8tvw+KjqHyuZim89/FxRVII7Vm/AB/beh307duujtNCefu1F/PNTT+D6YB+cXrc+SslM9lpzbDbUV1Sr+a7cB5c3tupr2SqUFBbxMDMpEW2NJ/ubHX3dKtDbNzqkKp/J/VmqdTo9Lu3ezIMgRG+HAV+iW5RtsaK2tAJ12iSkvqpaW5BpH6tr0FRdq7J/LSYTTCYzTEYjsrKyYNJeXKTReyUlmGdmtZf2MaxNdFRZktlZbaE5rU18tNd0RC065bSklGaemHTMl3v1+1Q/IVmsjmsLV6fXg0ltIiQB33RWpi0cHtl5N+7TFuS7N23TRylWJMNcMk+efO0F/M13/1kfpYVQVlCExspqbFyxGu1NrSqbqjAvH3naQln6xEm/asm2YqlASmRyj5BnnpAArjzz1OfaR8m0EfLMC0bCqmKAnPAeGR/Tnnl+hCIh2J1OON3as87ngcvrVZ8PO8bh0p6J0pojGTDgG3sM+C4OBnxjjwHf5Cb7DCublqCtoQktdQ1o1uZyFSVlKughlVzm9xrM8/sLzIJ7z2T+oOYQ2rxC5h1yADoYDsLt86lgwvWeG6oK1qWeLjWHeCe15ZV4cNtu3H/HndixfpM+Sgvtey88i3944lsYso/DG2QljlQke6Ybl67Aam3+u7xlCRqqalFVVo4cbS6RbbWq+x/XsanvrfdnlZwSDKrElnGnAycunsPZa5dwpfcGXNpaL6Tdv4nonTHgS3SLDJmZ2iLLpDbOpbTzzZcsvlqq69BcXYu6ymqUFZeivKgE1eXlqjyJSfseondDJjoSuPVqi0/p7zQ8MaYydmWDWzaxxyYdahHq1CZAkt0kkyLZIJfgrwSIZVNcvlc2yiVAHJ2eDx6ns+qyCvzOIx/BnZu2YkXrUn2UYoUB38UjJbAs2nMpJztbWxBbVYBXNg2XN7agpb4BzbX16rS0PIuY9UuJSEp0yXNOnnlCsnMleCHk49D4qPpcejJ1Dg+oTBypRiGBYHnmyefyDFSHoPRn4PzhKG1Me/bJn58MGPCNPQZ8FwcDvrHHgG9yk30Gm2U+sCHzOHkV5eajrqxSZb211jep+Zw8G4oLCvXfRe+WmhtoaxKZc/SPDKN7oA/X+rrRJdmj2rpaSvtLkMEfDqo5xDuR7MRHd92Nfdt3YcvqdfooLbQv//Bx/Pev/4Pa75C9Dko9EsjNsdqQrb1sFovKnm+sqsXmFau1OfFStNU3z69jOZdIabJfKfdnaXfQpd2bpey33J+vD/SqPVGpXCjZvnIfT9WqhEQLiQFfogVQWVyqJialhcUoyMtTJZikHLS8SvIL1OlcOaEmpUtkIiOf5+XkqlO6lB5kE1rKTMriUQKxbp9HBcGE2ztfajmqTV5kIuOWjCRtMhPUSzQ73VOqXGU0Oq0tRH2qVPOktiiV3yPZv3PaL3pnsmj408/9Hrat3sCN9DiQzZPz16/gmddfxtd//EN9lBaLbBBK5sHNMlmSJVJbVjH/jMqdf0bJc8mmPY9kk5FoIUiZZb/2sy4BWflcZc9EwgiHpSLFtDqtLc8tFaDVrjvcLoS1j1K9Qg4zSTlmIae5PXrwVypXTLrme/DK83Fk0p6yB5gY8I09BnwXBwO+sceAb6EDVpYAAFDSSURBVOqxmswozi9AVUm5ynaT+ZzM42SsKK9AzedkbyE/J1fN62RvIcvIvYWbZM0tcwhZQ0vrI1k/26cm1cHpSW1tPeF0YswxjqHxMdVf+d0GFBsqq7X73D7s27YTm1at1Udpof3d976BP/+n/6V/RelAgr9S8n5JfaOqrFhbXoUabR1bUVyKksJCFGnX5L4ncwtm/SY32R+VNaCs9cYlqcU+pg76SslmOZQjmf1yfyaid48BX6JFVKwtxhorqtUERRZqVWrzvQyVpeWo0yYvsjCTSUqmXqJEsq/k482XjGdyMz6hqFIj8kvunPrJstm5WczOzn8u129mE8nnM9o1+T7Z9B53OH7WQ7dvZEgtPkXf8JA6aRwIBzHisGNQm+jQwsnMyFQl0v76j/4E65ethNlk1q9QrMhmy/5jh/Hcof145s1X9VGKFavZjPVLVmBZYzOaautUqayayirVM05+HiTom5Epz5xM9cy5+Uyi9KKeb/KSQ0Tq/+a/vvl8UyPytfq++a/lmjwDhTzbxrVnmBxUkuCty+tWLQZkk1WCvVMeF0YmxlXWrQRvr/Z1p327gbdat3QF/s3HPosVrW1qrkiL7/DZk/jaj76Ly303GPBdQBLwfXjnXty7bRf2bN7G6hIx4HA58fqJo3j+8AG8dPyQPkqpRlV0sdqwtL4JTXrZ0/qqGjRU16BO+yiHytWcTu0j6B/fMq+7+UoF8/MTbQ2u5iTza3GZj8xpH2X9LRlh/dp6u19bZ/cOD6J7sB8dAz24os09FgIDvrHBgC8ZDQasb1uBNa1LsaylFW0NzdpatkYdXJZWejLHuLmWlV+UmG7umc5q68CZmVl1gHfEPo6O3m5c6+7C5RsdONd5TbWjkxY+RHR7GPAlWkSSwSs9eWyqPJP035ESTfOlmmxWK/JsOSiUU7naS4LDldqiTT5XmcDagq0ovwBlxSWcuCQQ2bSWTW1/IIDI9HypJ+mfKxvaQk6oydfCFwpg3Dmp+gfKpEXKLE9Pz5ea9IeCqgSlkOxH+R7ZBFf9KpKk32CyKM0vxPqlK/Cnn/8DLGtewkMUccCAb3zJIrgwd76vb7Y8X7TnUn5uHiqLSlBVKoeRylFcUKAyR8pLSlUPYKlGQellPijrVs8qyYyRZ5xkx0jQVkgJZTm05PXPH1yS/klObVE+4ZovvyyllOVwk1S0kJdk8UrPefkoWTNR7fcHtX+GbNLKc1D670plC5rXUlOvykPK5r38DNLik16NLx15A/0To6pyCi0MWe9sXb4G69tXYNWSZZx3xYDcqy92XsPJqxdxpuOKPkqpRuZzEvzItWnzOb23pewpzJdCtars34rCEpQUFKrniASAZS+htLBIfY+aA6bA/E7W0HKwbMrtVvMQWX/LSw4+OKamMDblUCWaZa6iSjRrH+WgmZRslrZJC4EB39hgwJfkkIqsYwtypJJBjqpSVVpQNH/wpbpWZQHXVFSpvVOpcpAqh1pSidyzpVKhZPEOjo6gf3QYN4b6MWwfh33K+bNqDC7tpVr2vItqC0T09hjwJYojCQTLxCVfm7RI+Wcp4ScB3+zsbHV6VwV8i0pklgOT0ag2603aJMZoMKqgsVEbE7J5L/2EhUG7ZsoyqskON1h+Tk6USUlk2XiWcpPzY3PqZJmUm7wZvJVraqP7LRMNFbANh1VAVjKXbgZ85c8SE07HzzbEVcBX+1rIwnJiahIB7ffe/PMp9tq1xcDOtZvwOx/6OJpq6vRRiiUJIv34wMt48cgbeOXkEX2U4kmeJXLgSLJ8pfqElMcqLSpW5bIK8/NVQDjflqN6KclBJTnAJH3sVW85k1l9Lc8YLqrjSxbQUjpZnmUSSFVjeklleZbJmLzkGSTfq8b0zFwpXzj/mn8+hbRnnWyeyvNv/jmoB3z1A00yLsFeWbDLM1B+n5zCvhnwpdsj5etWNLWqTXrZuKfFN+aw43rfDUxp73Metls40lu+Xi/BKFWNJLuQFpcc2Bm1j2NgYlSVQKT0lJ+diwptLldSUKSeJZJtXyZfa6+bAV/ZYzBr8znZOzDrczuZE85nys3vHcj3vl3rKemjuRDPJwnCypzil8n85WcHxyR7Vx2GlnnKfLaXrMelMogcIJM/Q9YXEtid0kuCysuuvSTgu1CB3V+HAd/FNd8OK4gv/+hx/OU3v6KPEs2T+9CSmgY0VtfMl32uqEJ5Ucl86yJtfZur3QvlUIw6GMM5dUzJvf1mkoysG2Ut6XBr9+Yp53zAV5VrHkL30AAc2jpS7vlEtPAY8CWKo5tllW6WWfqFkkvySy+xKSQwvLyhBYXaJCbbmq1KON08oStlnEoKi9TncpI3P2e+R+PNIDDJAjKqeuXKxrWUeBIS3JXMWylBeTNg6wv45heP2sJRJipicGIMo047fKGgymC6uYGual5qZOP85kb7r5R3ltJS+jWKj51rNuK+bbvwvj33qJ8bij3Jev/qj76L104ewYXuDn2U4km23zNUCeebzx79cykBqH0s1J4jyxuaUVdRrYLC0p9eBYS1zyuKS1CYX6DKQfNgUXy5tOfVhHNyvoKE9nwSHt98GeUp7bkmB52k1OHNDVHJhJFyhxIAdrimVLDWri3ChXqqqWfW/Ffy8efPOzXys6/VS8akNJf2e+j2yfxPDu3dnAfS4pNyoHKY763vc1oYUmJRng83A0i0uOT9K/fi+SAZ78npan5fYX4+p+Z42qNkfq43f0BPHi1yvbygSGXISSaw9AOWQ+YSIJbgr3yf7C0Ua9d+mYzVVVbrX703MnsYGBlWa+1fJu2O5CCOrMHlEJp8HJ+0q0CBGJmc+FlJ5vn3vNy759feN38GVMlQNZdZ3Hs6A76LS4JF8j755k+fxFef+b4+SjRP7lMyv1DlnA3z9zhZuzZW1mBF8xK0N7Vo97FaVfpZsn8pduTgzah9Av0jg6pc85XuTlzpvYFh7V6uyvBrL5mr3DysvNj3aqJ0xYAvUZKQk7gl2mJMMqske1cCu1lZ8xm+corNarGoz+WafI8Eew2G+Z5ZxdoCTk78SpawLPpuktLRUsJTrf7ehmQKy+k5ORUnJ4AXU2R6Wp3+kk3r6PT8pvWvI5MDh3MSgdCvZmNImUg5JebQFpFv7f0gkwr5syUT6uaJYlkQyvfLCeGbJ8skoymsLS6DkRBm9H8POUksJZhlg5wTkuTz6O578IE778WW1evedvOCFp9s3vz9d/8ZB04dQ8dgnz5KiezmM+dmGWh5rsizQDJDpHyglBGUZ4xkJZYXFqlnjxxCkpPV8kyRZ5BsJEqmlzx35Bklr3TJXJTnlFSEkJdsWv4ylR2rLYjlmfPLJl1S2urnmSmyOSrf5w361bPtrc8h2QyVsoaSCXEz8CrPuZvPO3n2yffL1/K9kh2jDahxqV4hWY3MbCQiIkofN1tOyVxOVW7Rq7fIvE52BeTwuMVinv/mt5Dvz8vJ1b96b2ROItm3bzs30uYtEuiTA2yyDldtkLR1elCb5whplyTzoEQgpWQf2/sA9m7ZgXXLVuqjtFDkfdA7NIhvPfcUvv7sD/RRol9P1q5SOVEqHMiej+yRShKM3LOqiktRUVSiDi8Xa9flkIuUh5b73s2qiXTrJHFmUrsXu7xueLxedShHDiCPOe3qMM+U1wO3zzNfan9qCg7PlLqXE1HsMOBLlAaqS8pRqk16rNqE5q3ZWHKSt66iCr8uk0QWfzIRysvOVSU9F5NsRstE4deVeHqrqLYIHBwdfttSTfJ7fdqfMeQYV316iD7/6EfwqQceRWNN3c+y4im2RibG8Rdf/we8eeaE+tmk1FFTWo6Gimq1YJZgr7QhkEeKBIWryyvV4lueO9JvSV552dkqIHwzC0UOIklQ+JfdvC6L8Le7vpBk81GV+5eg6axMi3/z1FgCpqrsoPbx7cgmpdcn/W59qu/tL5Ng6/D4qArC/rLhibGfZbMI+feTQK3T61KlOn/dP5OIiIiIFl9rbQN+68EPYNeGzVje0qaP0kJhwJcWimQCt1TXoamqVlUoqNHWp1L1raRQgsJ5KpFGeqPLelMOMEvpeilzLwdgJHtYsojTiaw7JQv3Zougn32MTqsEGGkHJMHbEW29erMCg+rLOzKM7pEBeAI+bY38zvu5RLT4GPAlSgPSgydLygS+JdgrZGIjJTl/nfnygjLRMaiN98Uk5ZhkMqHKfGiTjHcyn60037Pwl8k12QyXwC83xUn86ef+AL/34U+o9zpLC8ZH/+gwvvTX/xVHLpx524xGSl7yfLFICUDtZ8uoLYilB5yQ541UhpDsXgkAz5fc0l76z6B8nm22oKywGOVFxWrsreT7JYgsvYVlQb6YJDtWegpJlQkJ4kpG7W8iPdq7hgZUdu3bkT9hvged9pr51WeRZONGtOfY2z3v5Pklz8O3kmejBKTlGifuRERERPGzvHkJvvTRz2Dj8tWoq7q9Mtf0qxjwpYUiqS03qxhI2Xo5jCzrVzlUXFZQhNqyChTk5Kms4PLiElSXV6gWRvMHlXOQI4eV00g0GlVVFSSQKy/H1CQmJicx7nSoqm1yeF8+lz0dCQBLtq+qLqWtUdVhaDlA/Rv2c4lo8THgS0REKUmyeSuLSvBHH/8sPv7Ao/ooxZosBroG+vBv/va/4eTlC/oopbv5gLAJBdpCWhbZv0z6z8kp61xbNnJzcvTRxSHBVJfXq4K3ssi9FdIyYHTSrha3RERERJQ+Vra04Y8/+XmsX7YSVWUV+igtFJfHjfPXr+D7rzyHH7z6vD5KtLByrdmq/Z3sG0mAtyA3Vx02lkqIN9sRSUsjWa9KWyJJopFS0ZIVLGzWn5e5l8PKkmBgMZl+dgA63uQA8c1WP1J9Snj9fvgDAfW5BGilEtXN8vlSMj8cDatDyVJNUQ5Du+WlrZPlNeV1Y9LjgvttKi0SUWJhwJeIiFJSdWk5ti1fi8fuewh3bdmhj1KsyULhSncX/tOX/wZnr1/WR4mIiIiIiJKPBHz//ad+B+vaJeBbro/SQpFSsfuPHcZPDr6Gl08c1keJYk8qHTZWVKmqVNL7vL6qGpWl8z/z0hO4vnI+w99kmm9vJH2Df7mN2HzFxLdvo7dQbpZilgCPfC4CoRDc0k9Xe93smy6tg0btE+pzlzY+OjGhWg2NTzlwpa+bh5mJUgQDvkRElJKWNjThw3fdj7s2b8eqtmX6KMWalMqVE9p/8Y0v42LXdX2UiIiIiIgo+axe0o4//ezvY3VbO8qKSvRRWigM+FKiyNB+2SwWlbkrWbw2qxVWs0VdM2tjkvkrpHqVVKeSXsBG48/7/kp7o4byKhTm/mpFq4Ukwd3xqUn4Q0FEpueDttJW6Gb/3Zvt8CS4GwqH1edSiU0+l2vSd1f670rQmIiSHwO+RESUkjYuW4Uvffwz2oJ8GUttxdGNgT4cu3AGX37yu7je162PEhERERERJZ/17Svx33//36K9qVX1+aSFJRmILx46gOcPv44DZ47ro0TJRzJ762MY8A2EgwjfYosiIkpdDPgSEVFK2rNhK/76j/4E1WUVMJvN+ijF2qlL5/HqsUP40YGX0Dc6pI8SEREREREln62r1uEf/uN/QWNVLTIWuVRrOhocG8GTLz+PV04cwvErF/RRouRkyMxUmb6LaU77pbJz5+QzIkp3i3vHISIiijEpp9NUWYO2ukbk5eQiKytLv0LxEAgFMeVxY3qaJ02JiIiIiCh5mbNMqpenMdPAYO8imZ6eVv1FZR1JlOxmZmcxPTO9qK+ZmRnVu5fBXiISDPgSEVFKyczIRFN1HZbUNcBqsagAMMWPPxjApHsKEW3hTkRERERElKxyLFbk2bK1NebP+3TSwpKeol6/D0G91ygRERHdOu6CExFRSsnMzEBdVRUaqmtgMHAhHm9un1f1YQpHIvoIERERERFR8ikpKERlcSmyjFxnLpaZ2TkEwyFE2YuUiIjoXWPAl4iIUobRYEC22YqGyhrUVVarrym+prweDNrHEIrwhDYRERERESWvvOwcFOblw8AM30UTiUYxNjUJt9+njxAREdGtYsCXiIhShvRUKtIW4PWV1aguq+BCPI6kh8zs7CycXg+GHRMIR5nhS0REREREySvHlo28nFy2DVpEkekIRiYnMOXz6CNERER0qzhDISKilFFaWIS1bctQVlSCrKwsZGRk6Fco1uRk9oTTAV/Ar48QERERERElr2yrTWX5GhjwJSIiogTEGQoREaWMiuJSbF6xBqVFxczujTPJ6J2YZMCXiIiIiIhSQ0FeHkoKi2Bg66BFEQgF4fX5VKUoIiIievcY8CUiopRRWVqObWs2qEU4xVckEmGGLxERERERpYyywmJUlZUjy2jUR2ghTU5NYcQ+rqpFERER0bvHgC8RESU96d3bWFmNlpo6bQFeAavZol+heAmGQ+gfGcaUx62PEBERERERJa9sm5R0lh6+zPBdDLNzs8zuJSIiug0M+BIRUdKzms1oq2tEc02dKrNlysrSr1C8BEMhDIyOwMWALxERERERJTHp2WsxmZBry0FOdjYy2cN3UUhmbzAcZtCXiIjoPeIMhYiIkp7VYsHyliVoqKrRRyjeQpGwKsfl9vn0ESIiIiIiouQjB4wrCotRXFCAXFs2MjMy9Cu0kBxTkxgeH0V0miWdiYiI3gsGfImIKKnZzBaUF5ZgRctS1FVW66MUTzMzM6p374C2WHf5PPooERERERFR8sm22FBbVok8Ww4MBgMyGPBdFIFQSK0jZ5jhS0RE9J4w4EtEREmtICdX9e9tb2pBZWm5PkrxFI5E4PJ5MWgfg9vPDF8iIiIiIkpe2VYb6iuqkWPL1kdoMUS0daS0BpqdndNHiIiI6N1gwJeIiJLasqYW7NywGQW5efoIxZvb64HTNcXeS0RERERElPTysnPQUt+gPtLimfK6MeGcxPT0tD5CRERE7wYDvkRElJSMBgNyLFa0NTRjw7JVPG2dIObm5jDpmppfqM/M6KNERERERETJKTc7G8219cjNYcB3MTndboxN2hGdYQ9fIiKi94IBXyIiSkrmLBPKCouwpL4J7U2tsFms+hWKtwmnA6P2cUzP8GQ2ERERERElt5zsHDTW1CPXxoDvYnJ4pjAyOYEoM3yJiIjeEwZ8iYgoKZUWFuHOjdvQXFMHg8GAjIwM/QrF05z2a2BsBN1DA9pCnSeziYiIiIgoORkyM1GYk4uKomJUlZbBZrXoV2gxhCIR+ENBzLA1EBER0XvCgC8RESWdLKNRLbh3bdiMuspqfZTiTco5z8zMYmh8DH0jQzyZTURERERESUvaCFUUlaCqpBwFefkwZZn0K7SQpBVQIBREMBxCOBpV60oiIiJ69xjwJSKipJKZkaFOWTdUVGN123KUF5foVyjeZrSFekhbpEsZrpFJO3v4EhERERFR0pIAb2tdI+rlkDErSi0afzCAvuFBeHw+fYSIiIjeCwZ8iYgoqWRmGtDe2ILVbctQlF/AU9YJRE5lj0yMw+3zIhyN8GQ2ERERERElLaPRiNqKKlSWlIHh3sUTVOvIMRX4JSIioveOAV8iIkoamZmZsJrNWN++Qr2yjFn6FUoEHr8PPUP98Pr9+ggREREREVHykcpS5iwTqssrUMaqUosqFA5jzGFHgAFfIiKi28KALxERJY2SvAKsalqCNW3L0VzboHoqUeKY8rhxuasDLq9bHyEiIiIiIko+OVYbqktK0VrXgKqycn2UFkMkGsGU241wJKKPEBER0XvBgC8RESWNqtJy3LFuE1q0RXdBXr7K+KXE4fJ4cK33hirpTERERERElKyK8grQXF2HiuIy5Niy9VFaDJLhO+F0IBAK6SNERET0XnCnnIiIkkZTTR0e3LUXVWUV+gglErfPg46+bgZ8iYiIiIgoqVWWlGJ58xIGe2NAAr3DqocvWwMRERHdDgZ8iYgo4Uk5rU3LVqm+vdJDyWa26FcoEczMzKgSXGOTDow4HQiGw/oVIiIiIiKi5FNbUYUNy1cjPzdXH6HF4vb7cKWvG04PWwMRERHdDgZ8iYgooUmf3uL8AmxftR5r25ahIDcPWVlZ+lVKBNHpaYzYxzFsH4PL50VkOqpfISIiIiIiSh5GgxEFObmor6rB0qYW5Nhs+hVaaHNzc4hEo6pS1MDEKLzBgH6FiIiI3gsGfImIKKHl2bLRUFGFHWs3oK2xWR+lRBKOhNHRewP9w0P6CBERERERUfKR9efqlqVoqa5HXk6uCgDT4pidm8WU24Upj0cFf4mIiOj2MOBLREQJbWljC/Zs3Iam2vkFNyWecDSCzv4e9I8O6yNERERERETJR0o4b1y+Co3VNaraVEZGhn6FFtrs7CycHhdcXjcY7yUiIrp9DPgSEVFCMmRmwmq2qL69+7bvQllxCU9XJ6BZbWUeDIVwY7AfQxOj+igREREREVFymW8nVIj1y1ehtrJKH6XFogK+7ilMeVxS31kfJSIioveKAV8iIkpIZYXF2LthK9a3r0R1WSXMWSb9CiUSn9+HUYcdo04H3H6/PkpERERERJRcakrLsayhGc019SjIy9dHabHMzM5i0uXClNuNOe0XERER3R4GfImIKKFIyaxcqw1N1bW4a9M2tGsL7tzsbBgMBv07KJE4ppzoHuyD0+NWpZ2JiIiIiIiSUWttA9a0LUNJYREsJrM+SotlZmYW4w47JpyTqnIUERER3R4GfImIKKFkZmSgvKgEK5vbsGfTNtRV1ehXKBENT4zhclcHfAFm9xIRERERUfJa0boUm1augc1i0UdoMc3MzmBIW0+O2icwx4AvERHRbWPAl4iIEkaWwYj87FzsXLcJuzduRVF+AUxZWfpVSkT9oyM4fe0SPH6fPkJERERERJQ8pJ3QjlXrsLKlDdVlFTAajfoVWiwzMzMIBIMYto9jbGqSAV8iIqIFwIAvEREljMK8fCxrbMH2tRuxtn0FbFYbMjP5qEpE09oCXbJ6B8ZH0DnQi0AoqF8hIiIiIiJKfBnay6CtN2vKKrB303a0NTSp3r2GTLYTWmyhSBhTHhfsLifcfi8DvkRERAuAu+hERJQw2hub8YkHHlF9kyT4m8Fgb8LyBwPo6u/FiH0c/lAQM7Oz+hUiIiIiIqLEl5GRCavZonr3PrT7btRVVOlXaLG5vB4MjI4gEArpI0RERHS7uJNORERxl2O1YeOyVaqU88YVa1BWVIIso1GduKbE5PX7VO/ekYlxFezliWwiIiIiIkomVosZm7X155ZVa1FdXqEqTFFsuDwe9I8MsVIUERHRAmLAl4iI4koCu2VFxbh36x3Ys2ErmmrqkGPjQjuRSXBXFujnr19RAV8iIiIiIqJkYjQYUZRXgLs378C21ethNpnZTiiGXB43+oYHGfAlIiJaQJzJEBFRXDVX12H32k2qb68Eeynx+YNBVcr5TMcVDDsY8CUiIiIiouTSWFmNnWs2YvWSdlSVleujFCtOjws3BvvV2pKIiIgWBgO+REQUFzaLFQ3aInvrqnW4a/N2tNY1Ij83T79KiUqye0ft49rivE8Fe33BgH6FiIiIiNJdlsEIc1aWehmYLUkJSN6jBTl5WNnShj0btqChugY5tmz9Ki222dlZhCNhTDgn0TvKks5EREQLibNvIiKKi5L8AuxYuQ4P3nEn7tm2C4V5+foVSmQS8O3s61b9e8ORiD5KREREROkuIyMDFpMJORabepmMWfoVosRhMZtRX1aJLSvXYO/WO1BSUKRfoViYmZmBx+fD6KQdfWMjCIRC+hUiIiK6XQz4EhFRTGVmZKBMW1SvWbIMj9x1L9qbWmA0GtUGESU2WZyHwmFc7bmBS90diESj+hUiIiIiSnc35/k7Vq/Hv/vU5/GZ930Qd67fgsriUpXxSxRv5iwT6iuq8NDuvVjbvhLZVhsMBoN+lWIhHI1geGIUTrcLs3OzmNN+ERER0cJgwJeIiGImy2hEXnYOVjQvwbbV67BFe1WWsl9SsgiFQ5iYtKtyzn0jQ4hOM+BLRERERPPkAGd+Ti6WNbXig3vvx/vvvBf3btuFrSvXor2xBdXavD9HAmws9UwxJocRjAaDCvZuaF+JPZu2obWugQeP4yCorSn7h4fgcDn1ESIiIloonGUTEVHM5GfnoK22AR+86z48cMedsJjM+hVKBg7XFM5eu4xhxwQCkTBm53gam4iIiIh+UWZmJkxmM5Y2teB9e+7BH3/6d/CvH/s0Hr7jLjRX18GqrQEYZKNYMhqMyLXa8MCOO/Gx+x9BS209+/bGSTAYQmdfL8bsdn2EiIiIForBUl/+5/rnREREi0JKZ9WVVWDzijXqlL9k9tZUVKkT1ZQ8rvfewPOH9uOq9tHpceujRERERETzgd7ywmIsqWvARm3en2OzIdtqRUFuHvJzc1FSWITKklJUa+uCkoL/v737CrLsvu/E/pvOcaYnJ0wEMCBBYBCIIAIgCDCTllhcSSuqpC1ZW+uVyuWt9YOrXK7yy764/GK/rdZle4O0lBVILikARORgcs45T/d0zjnfTr7nzAWXpEiCACb06fl8Gqdu3xOaU5yeqvs/3/P7/ZZGaXFJ2jFmZnbGg4TcEcmDBcladNumLfGNF16JLz3/YnzmoW1RU12jlfM90trdGT/c+U5cbqyPkfGxwl4A4HYQ+AJwRyVtnJcvWRrPPbo9vvHiK/G7X/pGrFi2PL/fHK+smJubi+mZ6Th2/mz8zVuvRVd/X+S0cwYA4Gd8EPgmrXKfeeyJKCstTQO3JFhbXFMbG9euj8cfeiQ+tXlrrKxbFkmNbzIyZHqmMMczzXxN9OT2SH73kocKkt+1L3z2+fjz3/+jeHjTlrTteNLimbtvZmYm6lub4rtv/UM0dbQV9gIAt4vAF4A7Kmnh/IWnnovf+8o34ulHH4sltYujuKhYG7cMmczl4npTQxw4fSx2nzwaE1M5VRgAAPycXxb4/qzk839yTjLWZUX+vEc2b40nH/lMbF63PhZXVUcu/5lzcnoqclMeLOSTSyp7k4ryP/jKb8fXX/xCWuWb/O4lv4PcG23dnXH26qXYc/JIDI4MF/YCALeLwBeAO6Kmsio2rV0fLz/1bNo669nHnohVy1ekC2xhb7YMj43G3hOH48CZk3Hp5g1hLwAA/8iHBb6JtOoyv7+2ujpWLVsR61aujmVL6mLZ4rpYmn9dunhJLKmpiaryypidnYmJXK5wJfxmkqreJdU1acD7wvan45svvRqPPfRILM7/Xgl7760rDTfixMVzcfLyhRjVzhkAbjuBLwB3xIbVa+Krz70U33rlK/Hys89HVUWloDejegf601bOR8+fjmELcwAAfonfJPD9Ren4l7qlsW3T1nj+8afiM1sfjo2r10VVaXkMjA5HV39v4Uz4zdRUVsbmNevjt196Nf7w69+KbZu3RG11jbXoPHD8wpk4fPZUXG9tjIncZGEvAHC7CHwBuK2SmzZJVe83X3wlvvJbL8WDGzZbYGdYR09XnLt2Od49vC8a21tjama6cAQAAP6rjxP4JpJ1QnJtSXFxlJeVxdLFdbFx7br8z9kSn976UGxctSaqKypjaioXMzOzMT07U7gSfl4S9D7/mSfjd7/0tfitJ56OTevWR2VFRTpSiHtndnY2cvl/v+8d2hd7Tx2N7oH+mJ7x7xgAbjeBLwCfWHKTJllEr1iyNL0x8zsvfym+/PyLsX3bp6O2pqZwFlkyNzeXbhdvXI19+UX5kQtnoye/MAcAgF/m4wa+H0jWFOVl5VG3eHGsX70mtqzfEA89sCldY9RWVafHKirK01A4mc86NzcbU9MeRryfJY8UJ+vQpIXz+lVr4vnPPBGvPvNb8dUXvhCb1j+QdpnSxvnem5iciL7BgXj7wK44dO50TEzl0rUmAHB7CXwB+MSK84vo6vLKdHH93//Tfxa/9fhT8cCadelNHpW92TQ7Nxu5XC52Hj0Yr+/ZEW3dnTE5NVU4CgAAP++TBr6/KKn4ra6sjDUrV8WjDz4cv7X96XQu64ZVa6KuuiZGx8ejd3CgcDb3o+R3rrq8Ip7Y9un4zle+mc7rfS6/Fq1bvCT/+1NiLTpP9A0MxKX6a7Hn5NG42tiQVvwCALefwBeAT2RxdU1sXbchvvbCy/HVz70czz32RDqHq6K83AI7w4ZHRuLqzYbYeexQHD53KkYnJyzMAQD4lW534Jt2ESoujoqy8qipqk5DvGTtsWrpsrSac8OadbF1/cbYlH9dXFUTszMzMZPftIq9P6xcsjQe2bglXn76ufjicy/EC08+E5vzvw/LltSlDyRbi84fzR1tsff4kTh99WK09XQX9gIAt5vAF4CPJbn5UlleHlvWPhCfe/zJ+Bff/oN47rEn0xbOydP4ZFfSXqsjvxDfc/xwHDx7Kq423xT2AgDwa93uwPcXJQFeEvyuXrEyHsz/bzzxyKfjmU8/lga+yYzfXG4q7VKTNIotKynN/3luBX4axy4ct+Y8l0dNZWU8uuWh+PyTz8bvffmb8eLTz6YPACQPHTO/zObXllcabsTru96NhraWGB4bLRwBAG43gS8AH8va5Svjpe2fjW+/+tX47Ze/FBvWrlfVu0BMTU+lrbb+/t0fx+XGGzEyPlY4AgAAv9ydDnx/UbLuKC0pjcU1tbFx3QPx5Kc+E89+5ol48pFPx+Y169ORMzPT0zGem1T1u0BsWr0uDfm//cpX4xsvvRKff/q5NOitrqxKq3qZX5IHMEbHxuLk5fPx/R3vRO/QoH+LAHAHCXwB+I0li+ikqvfTWx6KF7Y/HV967sX43BNPxyP59+VlZcLeBSCp7m3v6ooTl87Hm/t3RWdfb8yo7gUA4EPci8A3qfisqqhM2/iuW7U6bfW8buXqWLN8RaysWxarlq2INStWpg+rrly6LGqSYHBRUUzkJtPPvcxvxUXFsax2SVrF/fhDj8Tn8mvQl556Jr89G48+uC0eWL02fehY2Ds/TU1Px82W5jh87nTsPHYwJqdyhSMAwJ2wqO7l7T7hAvAbSeZnJbOS/uXv/mF8+fmXYsuGjemNnKJFFtgLRdK6edfRg/H2/t3xg13vxODIcOEIAAD8akn4un3rtvjmi6/En3/nT6Kmqqpw5O5Jb3DNzaVtZOfyn2tzU1PRPzQYrV3t0dDSFBeuX43TVy7F0cvnhE8ZUFleEY9tfiheevKZ+PILn48t6zemwX3ycEES+HvgeH4bHR+Lt/bsjDf357eDu1X3AsAdJvAF4ENV5Rfam9c+EE9/6tF4/vGn4olHHo2Na9fH4uoai+wFJLkhNjw6Ev/ue99Nq3sb2prTfQAA8GHmQ+D7i5KHGZPPsyPjozE8MhK9gwPRM9AXXf190dHTld+6oyf/fVdfT3T29kT3YH+MTowXruZuqygti6W1i2PjmvXx4IZN8dDGTbElvw5N1p5J6+ba/PrTnN5smJmZSf9t/du/+6v4yZH9ca25MW3xDADcOQJfAH6pJMhNWmMtX7I0v+BeF8986rH4wmefj5efeT7K8gvx4uLiwpksFN19vXG96Wb8H3/9/8bOY4cKewEA4MPNx8D312npbI/GtpZo6+yIpo62dGvsbIuewYGYzE3GxORk/jWXVgJ/8Mrtlaw3kzbbVZWVaWvu5YvrYsOqtfHo1odi+7ZPx6MPPhzL6pamnabIlpHRkWhobY7/7T/8Rew7dSzGJicKRwCAO0XgC8AvVVpSEtXllfGNF1+Jr37u8/GZB7fF6uUroqaqWvusBer4+bPxwx1vx/vHD8XV5obCXgAA+HBZC3yTyt/cVC6dM5q8JqFuUgHc2dsdLUkA3N4WzR3taSVwS3dntPR0Fq7kdkk6SW1/8JF4dMtD8fCWLbFt45Z0Lu/imtqoqqyKymQ+b3FJFFl7Zs7N1uY4fuFM/F//5W/SNuqqewHgzhP4AvBzkqesN65eFw9t2JSGvM995ol47OFHYtWyFVFeVlY4i4Vkeno6egb6492De+I//uh70dzVHv0jQ4WjAADw4bIW+P6i5ObYxMREDI+NRN/gQPTlPx/3DQ7GQP5zcfJZuXugL0bGxmJodDgGhobSUSjJNpjfRsbHtIL+NZJgd2nN4li2pC6WLl4SdclWuziW19WlLZvXr1oTa1asjNX5Nefi2tr871KJB4wzbvexQ/Gj99+OXSePRnNne2EvAHAnCXwBiEX5r6KiRWmgW1tVEy8/+Uy8+szn4msvvhy1NbVRWlJaOJOFZm5uLkbHx+LUpQvxo13vxn964weFIwAA8JvLeuD76yQPSE5MTqRzftu6Om+1gs6/tiWVv90d0dHXE10DfenM4Jn8lrwmn7OTbXpmJn2fVDgmx5J9C80H44CSraio+Nb3+d+H4vz3RfnvV9YtjS3JXN4HNsaW/LZp3QOxae36WLdydZSVl6XnsTDMJr/z01Px3Td+GP/27/4y/++iXztnALhLBL4ApO2bl9Usjs8++ni88szn0plJm/OL8JXLVqTHPF29cCU3r1q7OuIvX/t+7Dx+KM5ev1I4AgAAv7mFHPgmIe3M7Eza9jmZ7Ts2MZ6+ThRm/SYPUA6Pjd6qDE63/nR/Uvnblv+s3TswEAMjw2kXnYUYflVXVKYVvKuWLY9Vdctj+dKltyp2l6+8VdVbuziW1NRG9c/M662sqEhn8yaBsPXmwjGS/3dwvakh/vadN+Kv3/qHdPZ18qADAHDnCXwB7lPJwjq5KbN66fJ0TtIjG7fEc489EZ974rOxMr9QTxbjLHzJDagzVy7G/53MVrp6KW1JBwAAH9VCDnw/zMzMTDoHeGB4KPqHBtMtCYfHxsfTGcB9QwMxNDoaA6PDMZrfl84Pnp5KKyGTa5NQbHxiMv1Z0zPT+e8n0tcPgrKkQjh5P5K/Njn3TqksK4+KsrIoz78mIWwSwyaVusn7yvKK9JzS0pKoqaxOHwwuKSmOivz+2vz7upraWFG3NJYvSba6dE2ZbEkL5yTc1TXq/pD8vu84tC9e3/t+/OTogcJeAOBuEPgC3KfK8gvumsqq+MJTz8WXnn8xvvj8C2lFb9J+yxPW9499x4/EW/t2xpsHd0dLV2fMpdPLAADgo7mfA98PpG2ck8/Tt/5LdhT23TqWSKqCB4eG0nB4aGQ4xnMT0TvQHx3d3enx0bHRaM1/Lk8qJSenboXAk7mpdEZwfXtL9A4NpPtut2QNuLpuWfpAcBLcJn+fRYuKorK8MlYsXRbrVq1Oz0sqdbc8sCH/91uT/h2vXrEyrdhNV5BJSFwIitPXwrrS+vL+cb3pZvw/3/vr2HfmeFxuaijsBQDuBoEvwH0mWbhv27AlPrP1odi+7dOxbdPWeHDDpli/ak1UlJcXzmKhS2aQ9fT3x/fe+3H8YMdb0dTZnt5EAgCAj0Pg+5tJWkPnclNpBXBuOpdW+H7QJjoxNT0do2Nj6WtybiKp9E1GsQyNjcRE/ro7YlFEVXlFWuWbVPN+ENgmf69JFW91ZWV6WllpWSyuronS0tIoKSlJw97kHOjs6Y6jF87Ev/v778blxhtpG3MA4O4R+ALcB4qLivML8Yp0YZ48nf3CY0/F848/Gc8+9mQsXbLkp+25uD8kLeE6e3vixIWz8bfvvRFvHdhdOAIAAB+PwBfub4fOnIj3Du2Nv3n3jejq6y3sBQDulqLCKwALWGV5eTy8fmP8zktfjP/pj/+7+G+/9fvxyrOfS2cqlZeVFc7ifjE1PRVN7S1pZe/5a5cLewEAAODjOXnpfOw8ejCGR0cLewCAu0ngC7BAJTN6l9Ysjuce3R6/98Wvxx9+/Vvxzc+/Gp999PHYuG59LKldHKUlJelcJu4fyeyw+uamOHnxfFxsuB49g3dmBhgAAAAL3/DoSFxvaoirjQ3pqKDc1FThCABwN7nLD7CAFC1aFKXFJVFTWRWrly2PRzZujm+88IX402/9fvzRf/Pt+Pxnn491q1Zr4XyfSmZ/TeQm48zVi3H43Klo6+2OscmJwlEAAAD4zSUPFPcO9Mfx82eivq0pndv7wexpAODuEvgCLCBVFZWxYdXq+J3Pvxr/6jt/Ev/rn/3r+J1XvhJbHtgYFWXlhbO4Xw0MDcbFG9di76ljcfTi2TT8BQAAgI8qCXunpqbiZltLvLV/VzS2txWOAAD3gsAXIOMqyspiVd2yeHLbp+NLz74Q3371q/HNl74YX3r+xfjc9qfjwQ2bYklNbRQXFxeu4H6TLMQnc7mob22Kdw/uibPXLkdHX0/MzHjyGgAAgI8uWU+2dnXE5YbrcSa/xkwqfQGAe0fgC5BxtZXVsW3j5viDL38j/sc/+ufxv/yL/yG+8dKrsfWBTUJeUkkr5+HR0Thz5VJ898c/jPqWpsIRAAAA+OiSWb0Xb1yNM1cvR3tfj3FBAHCPCXwBMiaZ01tXUxvbH3wk/vjr34p//Ud/Gv/qD/80Xnn2hdi07oEoLSlNg95F+fNgemY6evp7462978fu44diYHQ4ctNThaMAAADw0SQdpLr6emP3yaNx7OLZ/LpT9ygAuNcEvgAZkIS85aVlsbJuWTy8cUs8++j2+PLzL8Q/efVr8btf/Hp87cUvxKe3PhzLltQVroBb+gcH40rDjdh59GCcunwxJvIL86TiFwAAAD6Onv6+uHD9Spy8fCFutDalY4QAgHtL4AuQASUlJbFiSV288PiT8Wf/5DvxP//pn8e//L0/jufy71cuW144C/6xS/XX490De+Jc/dXoHuwr7AUAAICP52J+ffnaznejo6ersAcAuNcEvgDzVFlJaSyrXRyf/dRj8buvfjX++bf+afzel78ZLz71bDyy+cFYs2Jl1FbXpC2c4RcNjQzH2SuX4sDp43Hg7Mno6u+NqenpwlEAAAD4aCYmJ+Jma3OcvXY5Tly9EIP5dScAMD8IfAHmqYqyslizdHm8/NQz8c++8e34s9//o/idV76Shr1J0Au/ytT0VLT3dMWe44dj36mjcfbGlRgZHyscBQAAgI8mads8NDoSZ65ciDNXL0V9W0uMTowXjgIA95rAF2CeqqqojA2r18XmdRti3eq1UVaqkpcPlyzCkyeuD54+Hq/t3RGXGxsKRwAAAODjmZ6ejvburvjxvl1phS8AML8IfAHmqdz0VPQPD8XFhutx8MyJOHnxfNxoboz+ocHITU0VzoL/anxiIq3sPXD6RLx/7FBcvnkj/zs0WDgKAAAAH09jW0ucuHguDXs7ersLewGA+aK4YtPqf1P4HoB5ZGIyF+35RdTpqxfTRdXg0GD6RG1VRUVUV1VFRXl54Uy4pbu/Ny5evxrffetHsfPYwZj0YAAAAHdJUVFRrF66PB7euDmeeewJHYpggXnv4N54c+/OuNxUH2MTE4W9AMB8IfAFmMfm8l+zc3MxPTOTzsq52d4a525cSVv29g0MRElxcZSUlER5WVnhCu5HM/nfj4HhoThy9nT8/Xs/jgv112JwZLhwFAAA7jyBLyxMSZexazfr460Du+PQuVMxODocs7OzhaMAwHwh8AXIgCTwTdo7t3R1xI2Wxujq7UkDvqnp6bS981xhsVW0qCgNgbl/JL8DSbh77trltKr3zf07Y2BkyAIcAIC7SuALC8vc3Fz6cHHSynn38UOx99TRuNLUYK0JAPOUwBcgY+by2/DYWDR3tseJyxeivulm9PT1RkVZeVRVVkZtdfWtE7kvDA0PxZXG+vjL134Qe04eid6hgZixAAcA4C4T+MLCkgS+w6OjceT86fiP//D9uNneEhO5XOEoADDfCHwBMmhmdiZdaA2PjcbI+Fj0DvZHa3dnNLS2pE/fjk2MR9GiRVFdWRWL8q8sPFPTUzE0MhIHz5yMN/fvisPnTkV7T3daDQ4AAHebwBcWlvGJidh/6li8f+RAHLlwOkYnxtORUwDA/CTwBci4JNzt6O1J57ZeuHElrjTciNmZmfQGS3VVdXywHktuwAh/F4akgndweDhuNDfGa7veix/uejd6Bvtjama6cAYAANxdAl9YOJLRUZ29PfF377wee04cia6BPq2cAWCeE/gCLCDJAiwJgFu6O+NSw/U4e+ViDI0MR2lJcSyurnHTZQFI2mr1Dw3GqcsX4q9e/0EcvXA2egb6tXEGAOCeEvjCwpE8SL7r6IHYdeJwNLS3xNS0h4sBYL4T+AIsILNzs5GbnoqB4aHo7u+N9u6uGBodjsGR/JbfNzI6krb8LS4qipLi4vSmDNkxOj4WHT3dcfzC2dh9/FC8f/RgWt2tshcAgHtN4AvZl5vKpfcSDpw+Hm8d2B1XGhticHS4cBQAmM8EvgALVBLsjk5OREN7a5y5cilOX74Q3X29UVpcHLXV1VFTVR3F+e+1ec6O9u7OOHnxbPzdu2/Ee4f3R9/woJm9AADMCwJfyL7kYfFz1y7FWwd2xZsH98TY+HjhCAAw3wl8ARa4pAVw0uo5mcHTPzyUBsAXrl9L57+Ojo1F8aJFUVVZmd6gEf7OT5O5yWhoaYpdxw/F3//kzbjcWB8D+YW4Ns4AAMwXAl/ItmQc1JWb9fHDne/E8Uvn09FBAEB2CHwB7gNJ6Ju0ek4C3+bO9jQ8bO/pTuf9JkHwzOxMWimanFdcdKvqV/g7PyRPWDe1t8ahsyfj/SMHYsexgzE8NirsBQBgXhH4QjalD4nPzcal+uux/9SxeGv/7mjqbNNNCgAyRuALcB9KwsKhsZGob2uOc9evxIUbV2N8fCKKFxWl7Z5LS0rTGb/ce2cuX4y39+2KH+56N85cuxyTU7nCEQAAmD8EvpBNyQPguVwu/uat1+J7P3kzWrs701m+c4XjAEA2CHwB7kNz+a/kad3xyckYGRtL2wMn82Ab29vialND9PT3pQu8yvKK9MZNMuuXu2d6Zjq6enviyLlTsePIgdh76mhcb26MobHRwhkAADC/CHwhW5LK3pmZmWhobYqfHNwXO47uj4sN19N7AbP5YwBAtgh8Ae5zSbVv0tq5pasjLtRfS2f1DAwOxPT0dFRXVUXS2bmoqDi/JW2ezfm9k5I2WknY2z80GOevX4kf7Xgn9pw8Eufzfy+TU1OFswAAYP4R+EK2JOvPgaGhOHL2ZPzla9+PK00N6UPGol4AyCaBLwA/b24unRGbtHs+ev5MNLe3xdj4WFRVVkVFWZkbN3fQ6Ph4dPb0xNv7d8Wb+3bG0Ytno7O/N6ampwtnAADA/CTwhWwZG5+I9w/vj58c3hfHLp9Pu38lD4QDANkk8AXg5yRP845PTkTf0GC0dnXE0MhwDOS/T973DQ7E6Nho2g46uaGT3MRR8fvJJdXUSRvti/XXYv/Jo7Hz+KE4deVCdPT1mNkLAEAmCHwhOzp7uuP8tcvx9v7dcfziuWjr7U5n+QIA2SXwBeDX6h8eiqtNN+PAmRNxpeFG9PX3R2lJSdRWVcfi2sXpjR0+maSldtLCOans/U+v/yCuNd9M5yonLbYAACALBL6QHccvnI0fvf9O7D51JG52tKbzfAGAbBP4AvCh5pKv/AIwaS3cNzQQ11sa40pjfTS2NqdtoMpKS6K8rCyKi4sLV/BhZmdnIzeVS0P0vcePxOt7dsSRC2eis7cnpmamY9aCGwCADBH4wvzXO9Af+04cjfcO7o29p49HV39v5KanCkcBgCwT+ALwG0vaCyetnZs62qI5v3V2d8fY5HgaBCdtiZNWz4niouL8pvL3V8lNTUV//v/H+ubGOHTmROw8dij25xfbTZ3tMT074+lqAAAyR+AL81sS9l68cS3e3Pt+HDx3Mq42NaRreQBgYRD4AvCxJAvD/uHBuNp8M85cvRSNrS0xPDoS5aVlUVNVFZUVFYUz+VlJmNuXX2ifuXIp/u6d12PH0YNx5vrlGB4bVdULAEBmCXxhfksqe5Owd8fxQ9Ha1fHTB7YBgIVB4AvAx5K2eJ6ZjvHJiRgZG4vBkeHo7u9Lq38b21uiq68nbVtcUlIcleXC30R3X29cuH4lfnLkQH7bHycunY/W7s4YEvYCAJBxAl+Ynzp7uuPY+TPx7qG9cfDcqWjt6oyJXK5wFABYKAS+AHxiM7MzMTg6krYkPn/jalxpuB7tPV1RtKgoSktLo6KsPGbnZmPRokVpu+f7SRLkJu2uR8ZG48KNa7Hj8P744a53Yt/p49E3PBiTU+YlAQCQfQJfmF+StejYxHicu3Y5frTj7dh35nhcbbqpshcAFiiBLwC3WVL5OxP9w0NxrflmOiPoWmNDflE5HRVlZbF0cV3hvPvD+MREtHa2p62z3ty/M3adPBIdvd2Rmxb0AgCwcAh8YX5Jwt69xw/HOwf2xPvHD6UduczsBYCFS+ALwG2XVPyOTU5Ez2B/9OQXlUkr46GxkegfGoqB/DY0MhwzMzNRXlaWVgEnlb8Lzej4WDS3t8bJyxdiz4kjsTu/0D579XI0dbYJewEAWHAEvnDvJaOXkvV4R09XOk7onYN74tC5U1Hf1mwdCgALnMAXgDsqaVmctC6+WH89zl69FGcuX4ihkZEoKSmJNctXpjeCiosXXpvnZIG959jh+Jt3Xov/793Xo6G9JYbHRgpHAQBgYRH4wr03OzsbuVwundn7+q734v1jh9KwNwmCAYCFTeALwF2RLC9n8ovP8cnJ6B7oi/rWpjhz9XK0d3fFVH5BWllRHmUlpemNoqwaHh2Jls72eP/w/vjx3vdj5/HDca3lZgyPjRbOAACAhUngC/fW9PR0NHe0xWu73o33Du2L45fOp2tvlb0AcH8Q+AJw1ySB70RuMnoHB6KlsyOuN9+MwZHhGJ+cSGcJJU8iT8/MRCxaFMVFRZkIf2fnZmMy/+fu6uuNKzfr49iFM/GT/OJ636njcbmpPoZGhb0AACx8Al+4N5JxScmaNAl7T1w4Gz98/504cflCNHd3mNkLAPcRgS8A98Rc/mt6Zjp94vhKY0OcvHQ+brY1x/jYeFSUl0d1VVWUlZXO+/m+U9NT6YzipKr3H3a9F99//+241tIY/SNDacANAAD3A4Ev3BtjE+PR1dsTb+55P17fsyPO1V+NgZHhmNXGGQDuKwJfAO6ZZI5Q8sTxeH6BOjQ2GkP5RWlXf280tLVEU3trDA0NpedUlFekc36L5lH4m7Rvrm9ujINnTqTtsvadOhbn8wvrlq6OmJzKpbOTAADgfiHwhbsrqexNOk2dvnIx3tz7fhw4czwu36xPw960cxYAcF8R+AJwzyXPHScL0mRh2tjRFmevXY5rTTdjOP8+uXFUWVERRbEorfYtKi7Of5d0fb774W8S4iYVvclM3sa2ljiYX1C/sWdHvLF3Zzqrt394qHAmAADcXwS+cPfkpqZiML/+PH/jauw4vD/+9t03oj6/Rh0aG1HZCwD3KYEvAPNSUvnbNdAXF+uvxanLF9IWVbOzM7G0dkmUlBSnFb93WzJvOAl639q7M23fvPPYwbR9cxIAa98MAMD9TOALd8+N5pux58SR+MGOt9LK3t7BgfQh6mR0EgBwfxL4AjAvJYvVkfGxdMZvZ193DI2MRP/wYPo+mZk7OjYWxUVFUVRcFKUlJYWrbr+kondweDgu1V+L4xfOxv7Tx2PfyaNx6urFtBp5NP9n9AQ1AAD3O4Ev3FkzszMxMDQU569fzq9Jj8XuY4fj+KVz0drdlT6ALOwFgPvborqXt/s0AMC8tyhp5Jz/r6S4OB7fsi1e2P5UfO3FL8TDm7bG6hUrC2fdfknQfKO5Mb73zuux/8yJuHDzero/mS0MAADcknxO3751W3zzxVfiz7/zJ1FTVVU4AtwOk5OT6YPIf/Xa9+PQ+dNxtaXRuhQA+CkVvgBkSrKgzU3loqu/Ly7evJGGsR3dXen+kpKSqKqoLJz58SQ/Z2xiIpraW2P/yaPx+t4d8dru9+LUlYvR3tsdE7nJwpkAAMAHVPjCnTEyNhZtXR3x+p6fxH95/504cflCdPT1xGQuVzgDAEDgC0AGjU9ORs9gf9S3NkdnT3f0DvTH5FQuclNTMTs7mwbCyXPOpaWlsWjRolsXfYjkuqRNdHd/b1xrbIgTF8/GrqOHYveJw3H0wtl0JpKwFwAAfjmBL9w+yYPIU9PT6Vr3WlNDHMuvSd/YuyP2njwanf191qYAwD8i8AUg08YmJ9LK27PXr8Tlmzeiua01xibG0htMy+uWRXFxceHMXy0NiXO5uNHSmFb1Jk9Nv3Vgd5yrv5oGy8k8JAAA4FcT+MLtMz09HYPDg3Hw9PF4Y8+O+Ou3X4sbrc3pw8+zc9anAMA/JvAFINPSsHZ6KkYnxtNWV/1DA9He0x1NHW1pW+ahkeG0yreivCJt+fyB5LpkEd3S2R5nr16KXccOxq7jh+PwuVNxof56/md0xVj+Z87MzBSuAAAAfhWBL3xySdeqpKr35KXz8d6hvbH3xNE4lV+vNna0psfm0l5WAAD/2KK6l7f7pADAglNVXhGr6pbGS089Gy8//Vxsf+TRWLlseVSWlcfs7FxM5CZicHg4Tl2+EIfPnop9p45Gc1dHWjEMAAB8NCXFxbF967b45ouvxJ9/50+ipqqqcAT4ddIQN//f+MRE9Az0x/Wmhnj34J506xrsT6t6AQA+jMAXgAWpuKgorSpYtrguVi9bHhvXrIsntz0an3308RgeHY2bbS1x7MKZNOTt7OuJvsKMXu2bAQDgoxP4wseTdJXKTeXi8JmTcejsyTh8/kw0trdEd39f2s3KGhUA+E0IfAFY8JKbT0uqa9L2co89+EiMjo9Fa1dnXKi/GsNjY+kiGgAA+PgEvvDRTM9MR3dfbzR3tEV9S1Mcu3A2Tl+5GJca62Nc5ykA4CMS+AJwX1mU/yo0zQIAAG4TgS98NGPj43Hw9LF479C+eG3PjhgaG027TgEAfBxFhVcAuC8kUa+wFwAAgLttYnIyWjra443dP4n//T/8Rfz7f/he7Dl1NA17p3SeAgA+AYEvAAAAAMAdMDU9HcOjo9HU3hpnr16MvSePxI/37Ywf7nwn9uS/v9p0M63sNasXAPgkBL4AAAAAAHfA6Nho3Gxtjh/v3hF/8bd/Ff/nd/99vHt4X3QN9MfklKpeAOD2EPgCAAAAANwmSUVvEvLuOLQv/vbt1+M/vPb38dbB3XHy6sVo7mqPwZHhmJ6Zjrk5A4cAgNtD4AsAAADAJ5a0rh3PTcbI2MhPW9QKtLhfJAHu2MR49A0ORH1LYxw9dzp+9P478d0f/zD+85s/igNnT0ZLd2f67wQA4HYrrti0+t8UvgcAAACAj2duLoqLiqO8tCyKFxVFZUVFlJaURlGRegMWvq6+nrh4/Wq8tW9nvLH3/Xj70J64dPNGdA/0RU7rZgDgDltU9/J2j1oCAAAA8LEtyn9VlJXF2hWr4rEHt8WW9Rtj07r1sX7lqli1bEWsWLo0ltQsjqqKyiguLi5cBdk1MzMTvYP90dHTHS2d7dHc0R7Xm2/GuWuX42Z7a3T29xbOBAC48wS+AAAAANx2tVXV8fiWh+OZRx+PZx9/Ih7dui3WrVwd5eXlsWjRosJZkE3jExNx8tK52H3sYPx4785o7+uJwdGRwlEAgLtL4AsAAADAbVdaUhJLaxbH8rqlsWLpsqirXRwbVq2Nz2x9KDasWRfrV69NA+CK8vLCFTB/JfN5u/v64lpjfVxtaojrzY3R1t0ZLV0daYXv+ORE5MznBQDuEYEvAAAAAHfF6mUr4qmHPxVbN2xK2z5vfWBjrKhbmlYDV1dWRVV+q66sVAHMPTU3NxfTM9MxOj4ew6Mj0T80GD39/dHY0Rrnr16Os9cvx5XGhhjPTeTPmylcBQBw7wh8AQAAALgrSoqLo6KsPMpKS6OivCLqamrjoQc2xeMPbottm7fGw5u2xkMbN6fVwXCvTE1NxfDYSFxvbIhTly/EoTOn4mbHrbm8E7nJmEy2/Dlzs3ORfAEA3GsCXwAAAADuuqJFi9Lgd8WSpbF2xapYtWxFrFy2PFYuXRbrV66Odcm+5Svy+5enbaFLikuiqKiocDXcHrOzs2k1b3dfb7p19vZGc2dbNHW1R0/+fdKyuaG1OfqHh2J0YrxwFQDA/CLwBQAAAGBeeXTzg7H9wUfikS0PxrZNW9IW0EnL58ryijQkLikpidLikvRV+2c+iqRd89T0dH6bitzUVIylbZuH41rTzbjaWB9XGurj7PUrcaW5oXAFAMD8J/AFAAAAYF6pqay6Nde3KpnpW5W+f2Dl6ti89oF4cMOmWL9qTaxbtTrWrFgVFeXlhavg10uqeXNTuWjr6oibbS1R39wcVxrr48LNa+m83rHxsRgZG0/bOavmBQCyROALAAAAwLyWtH9eVbcsbf28cc26tNXz6vyWvF++ZGksqamNxTU1UVud36qqo7KiMsrLygpXcz9Kwt3hsdEYGR2J4dHR6BsaiL7BwegbHoiOnq5o6+qM5o72aGxvjRttzYWrAACySeALAAAAQOYUFxVHbWVVbF67Ph7d/FA8vGlzWv279YFNsXbV6li2pK5wJvejyVwubrY2R31LU9Q3N8bpKxfjYsO1uNHWEpNTucJZAAALg8AXAAAAgMxJZvcmc3yTds91NbVR+wsVvovz329YtTrWLl8Vq1esjFXLlt+qBq5dnFb/FhcXF34SWTYyNhrdfb3p1tnXE5093dHa0xltvd0xMjqaHv+gwndweDiGx0djZna2cDUAwMIg8AUAAABgwaksr4ita9enLaDXr1qbzvxNQ9+6pWkoXFVZFRVlZVFeVp4GwMn55aVlUVJSEiXFxQLheWJqeiomJifTit1k/m7yOpHfJnOTMZ7f+gYHor27K791RmtXR7R2dkRDe0u09nQVfgIAwMIn8AUAAABgwUkqgMtKSqM0CXDTEPeDILcoViyui9VLV8T6latjbbKtWBkb162P1ctXxuJ0HnBtVFdWFn4S91L/4EA6a7errzs6e3qio7c7DXhbuzujsbMthkZHYnpmJqZmpmN6+taWS17z7wEA7hcCXwAAAADuK1XlFWmVb9IKenF1EvDWxNLFS6KmuiYqy8vT1tBL8tvS2sVpy+ikRXRlRXJNft+SJVFWWpbfStOfkYTJfDQzMzORm5pK2y2PTYzF+ORkjE9MxOj4eAyPDMfoxHiMjI9F//Bg9A8NxUD+NWnLPDw2kj8+EoOj+S1/Xv/wkHm8AAB5Al8AAAAA+BlJe+e6dAbwmlhRtywNg5PZv6uXrYiNa9el7aCTCuCV+fcV5eVRtGhRWkFcXFSUXn+rkvhWEFyU31dSXJRWHEckW6RVxsVFxYV92TU3N5fOw00C3PR9/ms2//7WduuW48zsTFp1e+v72chNT0Uul4uxifHo6uuJ/sHBGBwZSufr9g4MREdPV9qmuXuwP5q62tPgFwCAX0/gCwAAAAA/IwlukwA3mfGbVPKWlpSm78vKStMwODmezPhNKn2Tc6rKK2Pt8hWxuKomvX71ipWxcuny9Pva6up0bnDyc5KfkairXRxLamvT65NAOIuSsDeZqTs0MpIGtIlbVbsjMTw6EqPjE+m+/qGBdK5uYih/7EZbS0zkJmN2diYm8+dPFdowJy2Yp/Lvkxm9yb4kGE4qf5PAGACAX0/gCwAAAAAfUzIjuLKsPFYsWfrTub8fVAUnkmrgutraNDROQuJE0go6CYKTfYuKitK63yQMriwri5r8saJFvzwETkLjZL7w7Q+J59LgdmJysvD+F83F8HjSenkiDWOTm4lJ4Ds9nQS8Y2l75UQS3I7mz0u2D37WUP5YZ19P+n3Ssrm5uyP9GQAA3D4CXwAAAAC4h5LAN5kVvKpuWWxZuz4Ngn+ZpDL44U1borS0rLDn9kjC2+uNDdHd31vY8/OS4w3trdHR1xPDE2Npy2YAAOYPgS8AAAAA3GOlhRbStyp8f/ls36QF9OLqmjvSBnpodPjXVPjGTyt8p2dm0gAYAID5Q+ALAAAAAAAAkFG3/3FAAAAAAAAAAO4KgS8AAAAAAABARgl8AQAAAAAAADJK4AsAAAAAAACQUQJfAAAAAAAAgIwS+AIAAAAAAABklMAXAAAAAAAAIKMEvgAAAAAAAAAZJfAFAAAAAAAAyCiBLwAAAAAAAEBGCXwBAAAAAAAAMkrgCwAAAAAAAJBRAl8AAAAAAACAjBL4AgAAAAAAAGSUwBcAAAAAAAAgowS+AAAAAAAAABkl8AUAAAAAAADIKIEvAAAAAAAAQEYJfAEAAAAAAAAySuALAAAAAAAAkFECXwAAAAAAAICMEvgCAAAAAAAAZJTAFwAAAAAAACCjBL4AAAAAAAAAGSXwBQAAAAAAAMgogS8AAAAAAABARgl8AQAAAAAAADJK4AsAAAAAAACQUQJfAAAAAAAAgIwS+AIAAAAAAABklMAXAAAAAAAAIKMEvgAAAAAAAAAZJfAFAAAAAAAAyCiBLwAAAAAAAEBGCXwBAAAAAAAAMkrgCwAAAAAAAJBRAl8AAAAAAACAjBL4AgAAAAAAAGSUwBcAAAAAAAAgowS+AAAAAAAAABkl8AUAAAAAAADIKIEvAAAAAAAAQEYJfAEAAAAAAAAySuALAAAAAAAAkFECXwAAAAAAAICMEvgCAAAAAAAAZJTAFwAAAAAAACCjBL4AAAAAAAAAGSXwBQAAAAAAAMgogS8AAAAAAABARgl8AQAAAAAAADJK4AsAAAAAAACQUQJfAAAAAAAAgIwS+AIAAAAAAABklMAXAAAAAAAAIKMEvgAAAAAAAAAZJfAFAAAAAAAAyCiBLwAAAAAAAEBGCXwBAAAAAAAAMkrgCwAAAAAAAJBRAl8AAAAAAACAjBL4AgAAAAAAAGSUwBcAAAAAAAAgowS+AAAAAAAAABkl8AUAAAAAAADIKIEvAAAAAAAAQEYJfAEAAAAAAAAySuALAAAAAAAAkFECXwAAAAAAAICMEvgCAAAAAAAAZJTAFwAAAAAAACCjBL4AAAAAAAAAGSXwBQAAAAAAAMgogS8AAAAAAABARgl8AQAAAAAAADJK4AsAAAAAAACQUQJfAAAAAAAAgIwS+AIAAAAAAABklMAXAAAAAAAAIKMEvgAAAAAAAAAZJfAFAAAAAAAAyCiBLwAAAAAAAEBGCXwBAAAAAAAAMkrgCwAAAAAAAJBRAl8AAAAAAACAjBL4AgAAAAAAAGSUwBcAAAAAAAAgowS+AAAAAAAAABkl8AUAAAAAAADIKIEvAAAAAAAAQEYJfAEAAAAAAAAySuALAAAAAAAAkFECXwAAAAAAAICMEvgCAAAAAAAAZJTAFwAAAAAAACCjBL4AAAAAAAAAGSXwBQAAAAAAAMgogS8AAAAAAABARgl8AQAAAAAAADJK4AsAAAAAAACQUQJfAAAAAAAAgIwS+AIAAAAAAABklMAXAAAAAAAAIKMEvgAAAAAAAAAZJfAFAAAAAAAAyCiBLwAAAAAAAEBGCXwBAAAAAAAAMkrgCwAAAAAAAJBRAl8AAAAAAACAjBL4AgAAAAAAAGSUwBcAAAAAAAAgowS+AAAAAAAAABkl8AUAAAAAAADIKIEvAAAAAAAAQEYJfAEAAAAAAAAySuALAAAAAAAAkFECXwAAAAAAAICMEvgCAAAAAAAAZJTAFwAAAAAAACCjBL4AAAAAAAAAGSXwBQAAAAAAAMgogS8AAAAAAABARgl8AQAAAAAAADJK4AsAAAAAAACQUQJfAAAAAAAAgIwS+AIAAAAAAABklMAXAAAAAAAAIJMi/n/ZN2SvvD9HwQAAAABJRU5ErkJggg==;" parent="-04ID43S7tZkHjtVrY1N-1" vertex="1">
                    <mxGeometry x="215" y="253.46" width="93.49" height="42.54" as="geometry"/>
                </mxCell>
                <mxCell id="rYBwMgKa4S3AZHbmEtn9-54" value="" style="shape=image;verticalLabelPosition=bottom;labelBackgroundColor=default;verticalAlign=top;aspect=fixed;imageAspect=0;image=data:image/png,iVBORw0KGgoAAAANSUhEUgAAAPIAAADiCAYAAAB0vpo/AAAAAXNSR0IArs4c6QAAAARnQU1BAACxjwv8YQUAAAAJcEhZcwAADsMAAA7DAcdvqGQAADfJSURBVHhe7Z0HfBTV9sdPeu+9kE4JHSk2rCgqlifiw9672OsDe8H6xIK9967YEAsqog8soEgnlZDee082//nd3PwJkN25s5nZnZ2d7/vkZc4lQnZ3ztxyzvkdj8zRk/rIxMTEpfHk301MTFwY05FNTAyA6cgmJgbAdGQTEwNgOrKJiQEwHdnExACYjmxiYgBMRzYxMQCmI5uYGADTkU1MDIDpyCYmBsB0ZBMTA2A6somJATAd2cTEAJiObGJiAExHNjExAKYjm5gYANORTUwMgOnIJiYGwHRkExMDYIrvKcTT14+CM0ZR4IgU8otNJN/ISPIOCmXj5OlBfT091NveRt0tjdRdV0cdVRXUUV5CbcWF0ng7/1vcA7+YOApITqGAuCTyjY4h3/Ao8goKJi9/6b3y8KK+Xv5eNTdSV00VtZeXUltRAbWX7uJ/g4kopiML4BsWQZEzDqawydModMwEPqqctpIias3dTo3bN1PTlg3sJjYSAUkpFDp2IoWMGkvBI8eQT0gY/xNldDfVU+OmDVT/1+/UsOFPPmpiC9ORbRCUnkVxs+ZQ1IGH8RF1adz8N7tZ69f9Rj2tzXzUtcB7FLHfARQxZQb5JyTxUfXolGbq6lXfUsX3X7HVjsnQmI48BD7hkZQ09wyKmXkkH9Geuj9+pZq1q6hx4998RL94BwZR9MFHSA+4QykwNZOPakt3UwOVffEhVf30LR8xGYzpyHuBGzTljIvIKyCAjzgW7A+rVn0vfX1DZLHwUX0QOCKNYg6fTTGHHk0ens45J8Uqpuidl6mzqoKPmADTkQeRcuZFbCmtB3qam6hy5XK2pLR0dvBR5xCcOZrijj6BIqcfxEecS29bGxW+tlTalvzBR0xMR+ZkLbhF2uvtzy39gJu2/JvPqGLFMupz8AwdlJZBCcedQhHTDuQj+qLozReo6ufvuOXemI4sMfKaRRQ+aSq39ElXXS2Vf/WxQ25c38hoSjzxVLaE1jtFb78k7ZulbYib4/aOnHHpdRS1/yHc0j8t+TlU9tl71Lh1Ix9Rl4Q58yhp7mnSHtiLj+if/BeWUN0f/+OWe+LWjpw890xKOGEet5SDpW7bzjyWyNBVXystg1vZmKe3N0t88I2IIv/YeBZf9fTz5/+VOlSvXkkln7xNPS3qhK3CJ+5HSaecxQ601KSrrobay0qos6aSuhsbqFfa73tYesnDx498gkPINyaOApORXJPA/ws7kP6+Lff/hyWTuCtu68jhU2bQyKtu5ZYyav63iurXr6XGzRtYdpIIgSlpFDJyHIWOm0DhE6RlvAqnvnDi4g/fkH6fn/iIcnA6P2L+eaotozurK6lJel8at22i1rzt1NVYz//ENr7RsRQxaRpFHTCTgjJG81FxWnfm09b7buGW++GWjuzl60fj7n+S/KJi+IgYOEGu+OZz6m6o4yP24enry5IokC0WLt28w6XuzzW06/3XFP9eEdMOopTTzpf2xFF8xD66mxqp9vdfqF76PVryd/BR+wkbP4US55xCwaPH8hExyld8RiUfv8Ut98ItHTnljAso7qgTuCVPa2EeFb37CrUW5PAR9fCTlt4xh8yi2MNms+W4vfS2trD4KhxKDsSAU8+8mGKOOIaP2Edzzjaq/uV7ql3zMx9Rl7hjTqSU+edzS4ytixdq8jnpHbdz5MDUdBp353+5JU/tb6up4KUnuaUhnl4Ud/TxFH/U8ezU2F6qf/qWdr79Irf2JWRUNqWefYm0b0/lI8pp2PgXVUmrk8at//AR7QgZM54yL7uefELD+YhtGjf9RTlPLOaW++AVGR1/N792C1JOv5AdPomAA6XCV5/mlsb09VGrtCytRAJIVycFpWeSp48v/0NxWO7z5Ons4Ke7Yc/9adzsEyWnuEHYKfamSdr3Fr35PJV99THbCzsCVEU1SQ+MiMkzyMtfPtvOPy5Beu351FFZzkfcA7dy5MDUDGlJeRG3bFO//ncqeNkBM/EQtOTtoOpV30mTtA8FZyk/+PEJj6CYw46mrvo6attVQB4+PpRx4VWUcOzJ/CeU0VFZRrvefZmKP3rTYQ48GOzBWwp2UPTMI8jDw4OPWsc7OIxq12qz3NcrbuXISSefRkECSf7I48158n6nVtv09XRT45YN1PDPOnYo529HeAYzs398AiXNmUeh4yfzUWWUffER5T37qNNrhJEQ0y19Idogh39sHJvF8d+4C27jyF4BgZR56Q3k4Sn/RC+UZuL20mJuOZfuxnq2T++RZqXQ0WPJw9uH/4kYgcmp5BOmfCmNhJO8Zx9hVVl6oW1XIfkj7iwS65a2KngIugtuI/WD7C0PL/mXi5gsDnP0RtWqb2nTHddR/V+/8RHtKP7gDcp57B5q37WTj+iH4k/fob7ubm5ZByWWntKWwl1wG0cWTfzHQY5eQZZU3jOPSvvVV/iIumBvvuXem6niuy/4iP7olvb95SuWccs6OCiMmHoAt4yPWzgypHpCs+Uleqp//s4l6lwrf/hacrhbWHxbLeC82x5c5BJpjvhdLV1d3LJO+GT5/bRRcAtHDp0whV/ZBgX9rgJCLFvvv3XY1VCodS548Qm2nHYVIGJY/ctKblkH+ePugns4cvZEfmUdZCkhVONqoCa3fPkn3FIG5HO23v8foWwwvVG7ZhW/sg4KVUJGj+OWsXELR4aqoxwognBFgrPGUPQhR3FLCX0sMSRhzlxuuxYokmgrLuKWdUIU5mu7KoZ3ZOQyixQF1LtgqCJs7EQadeOdkkMqk53tz8ntD8NBITRrwc3s2tVo3Cj/mQXbUUnlihjekYNSM/iVdaA33eWEjKXhgP3fyOvvYJVcyvDgLrwbVGJBJUUkxq4nGrfI53ojZdUdMLwjow5Yjpbc7fzKNQifNJ1GXnubMiXLvoHamKFrZCB1NPLa28nDy3WUQZpztsrWg3sHhyguV3VFDO/IAQnyBRItLlT2FjZpmjR7/odbChDIUQ4bP5lGXbtIuitc5LaQHk4tBfIhuICkEfzKuBjekf3i5XOU24oK+ZW+CZuwH426ZiG3xOhSKDYQOk5yZoX/hjNpL5b/7PzjEvmVcTG8I0MzyxbQ2Gov03/TMCS0jFI4E6PAfus9N1PhK0v5iBh4YNgrg+RoRHLioQtmdAztyGj94uHlza2h6ayuGLR/1CfQsGKOpUDZsnnHVtqx5F4WK65Zs4opTSoBVUYZl13PLf0iUnds7pFdHN/wCH5lna6aan6lTwISR0hOfAt5ChTVDwABgJwn7tujjSvkYpGnrYSoGTMp7dwruKVPOmur+JV18EA3OsaekQXiq0r3kI7EJyKKMhfcrKgMEU6c++TiIXORUTmF0kQlxBx2FI2Yfy639Ed3vXzNsdI4uytiaEf2CgrhV9aB+oQeQfVO1hU3UUC8eKtShGNyn3qALDbK/KB8kvecuGYZiD/mX5Qw5xRu6Qu8VrTVsQVCUEbH2I4cEMivrNPb1sKv9EXm5TdQcOYobsmDg63cpx4UqgqqX7eWFUooIXneWXamgmpPj8xn6Onr51LxcXswtiP7y3d36O3YvY/UC9iXhk+ezi15kJmWu/RhaU9se2YaDAolCt94jltipJ8v/V467JEl8hmK3AuujKEdWUQWp69LXm3CkST96zS2LxWls6aa8p55hJ1OK6Vm9Uoqfv81bomReen1FJiSzi19IKIY4qlQIsnVMLQjoweTHBZLL79yPjEzZ1HiSfO5JQ/2hvnPPjosMQR0zyj94kNuyYPT88xLrtfVvrOvV+AzlAlDujqGdmSRtES9xJCR8JF2wZXcEiPv+f9Sa1E+t+yn7PMPqOrHFdySxz8xiTIuvoZbekD+MxSR0XVljO3ILvIBI2FBqWMUvvQkNQlU/4iCdjPoISUKsr9Sz7qEW85FrHhE30k/w8XQjtzXK9/hX6m8rBakS06sJGmh+MM3qea31dxSj/znl7AQliixRx5L8Ucfzy3n4SGyhRK4F1wZQzuyrXjqAF5+Sut51SXtvMuFFEwGqPh+OVV8+zm31KaPhaWU1GaPOP1CaXYW00TTCg+B1joQ/DcyBndk+ZiqktRHtcFspqQvcf1fv1Px+6+yaySMeIeEsvYwrBNFXAJL58SJcnB6FoWMHMMaoKHDRNjYSUy7KjhzNAWlZTKBd/+EpH71lKhoJvnjHdjfCRIN2/NfeoL6LOJL0fQLF0i/g/2N54aLt798vkCfQHzdlTF0N8aYQ4+SZjzbucKV331Juz54nVuOI3TsBBp9o3iTD3T6R164d2AQeQYF2aEMIgaSK3pbW6U7w4P8omP5qDxNWzfRjsec07Rk6nPvkKev9TgxHkrrLjmVW8bE0DOySIKEl4PCKAPa2rGHz6aU0y+grKuUlSQiOwkF8j4RkZo5McDM7BcTp8iJAR5M4+9ewlI50dUDDfPQ0F1r8G/YcmLQ2y49mAyOoWfk0LETpVnvLm4NTePmvynn8fu5NXzgBAHSstU/Prn/e2IyW8Z6C+R9GwNEAXbfUohxt5eXUkdFSf/38hLpq5R6WtVJjcW2YuIjz3NraPA7bFy4gFvGxNCODL2ucXc9xq2haSveSVvuvpFbyvCLiZf2oyNZL+NAaV+KTo+ys9Ce97k8+FlnR8gU/w7yLxKdEtEpo3Un/yrM3aPsUhTko2cvepBbQ9NasIO2Ll7ELWNiaEfGcnbSkpe5NTQ9Lc3097Xnc8s6yGQKYk4rOazkuEFpWeyQSFuUer2WaP+7oHVri+TcbXBwfAkku0ROP4gyL7f9IG74+0/KffohbhkTQzsymP7yx9KrtD2drF9wNln2SryHNGzomIkUIu1rsbcdrqxqn/Q/D7zTLpthxH75/ksH0dvRRk3bNlPztk3UtH2j5Ogl/E92gxJLuXppdLIseutFbhkTwzvypEdfIN9I26GRLXffwLoWBKZkMKcNzR4vfU0USjQQR0+zq4NQ+SV31VRJjr2ROTdOybubGyj17Eso9ohj+U8MTcmn79rdVsdVMLwjZy9czNqq2KJp60byTxwhJA1kF8jnNniu75Cwlyz9n0b57Fh+ewUGk3+cbYHFgleeoto1P3PLmBg6/AQ6pae4HDjd1syJgQIn1v9TVXotoi9HejF9GhalYLsj58RA77psamD4GTnpX6dT4kn/5pYVtJwx8e4q+av3+nnI9aJcEUomCNn0trWy7yxxQ7ru6+khi/SF7+i6gC9LT+//X/d190iPaw/y9PJmWwWoirLv3l79Y9z28vUnLySaSDOcd3Cw9D2QxZS9g4JZV8M9Ufii8KNOvMs23HQJa5BuZIx9ai3NsiNOv4gipx/IR/QNeh237NjK0iQ762qY88rpUTkCOLu35OTeIWHsvAFN8WIOOUrRAaA2viz/t+JBmP/cY0x40MgY0pHRpTBq5pEsw8hZYEmppESy5JN3qPzrT7nlGoy761F2QOg0cOcKvsU4KKv+309U8+uP1CU9JI2GYRwZaYsxhx1NUQcfwYoCnAG0s5Dc0F68i2IOnUUBSfJ9p0Djpr8o54nF3HIdUISRvegBbslTIzlSV20165CJBBrt4/BDg7pr/C54342Cyzsy9m/xx5xI8UefKO3rgvio9uCp3p+RhK986Xp3ZlLC8fMo+ZQz2bUclq5O2nzXDcOS63EmyK2GwqYIkOTZfPu11FHV3x0C1VdYngenZVGg9IVEG1R1CSOwXseiyNp5W8uOLVT+/ZcsYcTVcVlH9goIoPjZJ1EcHFi6tg1eotwazPbP4OaD+DuSE1ryd7AUw6FAGeG4u8R1o3e+8TxVr/6eW64Jmq2jVFKEhr//oNynH+bWviDNNXhUdn88X9oiKXLsIZH/7Jtzt7EqOJSJuiou58g4TYXzJsw+Ud1a4r2e7jgVZhlFSD7YtpE6Ksr4n9hm1I13sT26CHV//Er5LzzOLdcFhSHj73lcuF9z4evPUs0vP3DLNqFj+jPrUF0VlCGu870bkYd4Py1525lD1613vYMxl3Lk+KNPoKSTT9dMDKCjrJh9iKiIasnbwUfFiT3yOEo962Ju2aa3tYU23XEtdTcql7HVI3FHnUApZ1zALdvgtW+87WrqaW7iI2KggiwkezxFTJ7BIhFayTQ1b9/MssGw8nIVvCKj451TDa6A0DHjKePS65hQgJYaW5gd+0815fsJ7Y1vRBRrQC7X/XGAordfpJbc7dxyfdDpIjhjJFMqkQMVYj6SUzZsULY3heJLR1kJWwLjIFH2MFFsIt4H1GLHHDKLiTg0S58R4vF6R9eZXUhMSD3nUhp98z3shFRrgkfaTuW0RfIpZ0k3qFjB/8CpqdHY9eEb/EqeaMlRwibuxy3lBGcJ3A/DXGvGSSvAiQ88TdEzj+Qj+kW3jhx7+DHSm/gM+64KAh9qyEhxEbzBoL1L1EGHccs2lq4OKlZww7sSmC2LP3qTW/IkzxU77d4bCDbIFcIANfaM0ERLv2ABjbruNqeFNUXQnSMjHpxx8bVsJvYK6heEGw4I65Que4/KvpavfgkZPZaVLyolae4Z/Eqe4o/eMmRCwgAV33xOzTnbuGUbCD/Y0+URQoIi5D/9CNWuVadYAjreiEZge6dHdLVHhizsyKsXsRPK4YIDq5IP35T2oi/1azX39soukXDq2pK7jToVyMEmzJlHUQeIZZA1bt1Iu959hVvGpaOylO0xRQgZM4Fq1q5ieeOixB97MtMvswXKUne9/yrbT1f/9C31tDYzlVGv4RyUeniw1Rdm6cZ/1vNBfaAbR4Y0LJQeIPE6HBo2/sUOksq+/Ig6Kkr5aH9DbCRqyIVIuhrqWbhJBOhFZV19q3AqZsFzj1F3Yz23jAsOC9H9UK58FOC9w8FX/d/iMdy0cy6TPY+oR/SBZ24h6QYHixXffcE6N+IhINJy1xqQFA6fNI1ad+br5vN0viNLHyTapcQfN5cP2EfDxvVMBaL8q4+HnlH7+tiMD3E8W+BEtfpnsQSNlDMvoiDBzoTIo1ZrmecKIP4ec+ChQtsj7D0R6hFZCeGQK27WHG5ZB07bXlrMrd205uewWLGlvU2aoVPsdmjf8EiWEowCl7ZdhXzUeTh1j4yn6ugb7qCoA8UOioYC/Y+2P3In5T75AMu8soVIOxRkFokcpCBJIfqgw7llmw5pn46iCLfC0ksly97jhjxoJytC6LjJ/Mo2SL+0BbpQ/nPzpbTrvVepR8GyfjBYTaSffyXFzT6RjzgPpzkyntSjrr9D2g+LpfbtDfoBF77+HO1Yci81y3xoAyDQL4JIC5TEE2VqnAdRuuxdfuVeoJm6aB4zwosifaHDx8t/NpghuwQTbSpXLqdNi64aVppsymnns22bM3GKI0NkffQNd0pL3Ww+oozKH75mb37NLyv5iBjIqRWRXA0bbzu+GSXNxKInp7iR6/74H7fcj9LPxGflxBOkh6ONMwyslIIyRnLLOk3bba/M9gYZZsh53/HYPSyxxR5QJKMkeqE2DndkaEHDiXFgoBQsjbc/fDs7+bVHAxk0bt3Ar6wTPmk/ppphjcQTxNuPlH7+Pr9yT1DaWb5iGbdsA0dNsvHehk2ayq9sAw02e8B/t3XxQkWJLYPBfTHitPO45Vgcetjl4eXF9sT2BNaxpyl4YQl11Q4vBou0O5w42gIn2whfoCvC3kB+NWr/mdyyDbomOvqAy8PLkz0kQ0ePlfaTkygseyIFZ2VTYHIq+YSFc+kgdbo8iIKVUMzBRwpUqSG7LpuqpZWWpaODj+wm+eTTZVNA0XVx5+vPssNNe2nN30GNG9ezskqfMGVabiwDUXqPlbSnVQOHOjJOp8ME9jiDQeig8LVnqeKbz/jI8OhtaWapd3Lghti7rA0xyKyrbhYqretuaqS8Zx5xSJ4uQnaQ3sHyLu38BRR72GyKmHqg9F5P/v/KofCJU5liStxR6AB5VH+ecp+FOir7a4M1BQ8PyTHDJ9t+gAI8RLEaatz0Nx/pB9phaedfyS3rNG78i2p/+4Vb9tPdUE81q1eyvtUQQlAC3vOO0l3UPsREoBUOc+SEE+ax6iUlIEMod+mDrJxQLdDYDTMywge28IuO20d6J+mkf1OY4Klpycdvs7I4LUFhPpw36/Ib2QEdQmsiMW2EXBA2g2NHzjhYcmhpFtqZx/9UG9qKCthDHHpfcqD4om7dmj2qo5B0g2QMOSq/X87iu2rR8M866mlqkF3F7Q0yweo3/KG4wsteHOLIEfsdQGnnXs4tMerXraWcJ+7X5I3AYVuozGGVp48PtUv7OzQcA8jmybryFiFHwU3LlncaknTSfMpacAtrXTMcfKTZHLN1hOQkkA5WktWmFMxyUQccyi3bYPUDEYIBkk4+g/zjE7llHSQDiXThVAIeDC3SpBKx3/7svhDB09uHfTY1v4rVXQ8XzQ+78ARG0rkSatesorznxFU2lIL9jwgR03arbyItULRwvuwr7boa4LBwzC33UaJg3FUUtEHFISTkg7UCmVaiapaI0SOmD7B1CBc46GrJz9Esjx0n4TuW3MfCnqJgZZF2jrIJzF40d+SkE+czVQ9RIAlb8MpSbmkDdLY6q+U1siKnHsD2w6hPFd0WNG7eIHyzKgXhuuxF97PiDq2ABjjOMrSi/CtxpdD4Y05i39GoTYTGf7TV3kJXxxzJmTtrxQXvERsPGTOeW9qhqSNDmiVaQbVI1Y/fUNGbL3BLW+oHLdusARED3EQDN5QIWvUYChk5hkZddzv5hGrYEYODTDvsu7UAHRarV4vF/yP3n8nixpHTpH28ACKf6XBBG96cx+6lLgU51krClfaiqSMreQFIryx65yVuaU/DX2IfevTBRzAJHxGQ+KFF2AErAhSU7NvxQTsipAcYGqRpgRL9bqzoRFYgeEC0lznmlLijsowKX3maW/LgFFs0ZGkvmjkyDgZE9jUAT7edr4q/MWqA2KaIBK2SZVH5N2KJD0pJO+9KFgZxNOhyiFCW2uBADYULIoQKqojUr3esAmbTlg1U/P5r3JKHZa1piGaOrCSRfOerz7AWKY5GTbVESPe0FalfBZMwZ64q9dn2MuKMC1i5ptqUr/hMKMYuKvPQ4ATlSyQpiVbKQWk0+hDtRAk0cWT80iEjxfKoK39YzkQAnEH9ujX8aviUq5SwMhjMwgi7OBMc9ql9Qg5w+lvx7RfcGh5YXbUPqj13JJBt6mlp5pZtomaIHdrZgyaOHDF5f35lG+hXaRmqkQPxQdu1pGLzAQ5voFelNgmzT2Jprc4G5wRa6FWVf/O5dA90cWsoxN7/+j/VeyArBUIF5V99xC3boNJPqzY52jjyfjP4lW3KvvyEepoaueUcrFcm4SYSy9cV3e8pATNh9BHq70/tJebQo/mVekDfuvJ7W++d2Ptf96dzq8sqvl9O7aW7uGWbiClivqEU1R3ZPz5JqN2mBU8yHXQfrPvDWl6u2E2Ejgla5NQidRJChHpBVJdMKRXSQxC9ne0F5xzIa3c22C+LEC44ySlFdUeGmLwIjoj5idBZW8Pyae0FT2MtEC3ZcxRokCciuKAU7C9R3G8vdSoUSKiBaN8oe4U05NBkRhZBNI7rCGp/W82vlAEFjPbSIm6pS+ho7bOBlBJsp+63HBV2OnJ3Q51mWXRKwTYBwo9yiKb5KkX1v9U3Uj7eifaa9Rv00/kO++TuZuU9mKBUogWoavIODuGWfghO06apORROIVm7G8FtzRp9iRk2OPGeVt+RI+TL1KA82GcR+7AcRc3/lN0UWI5DkVELUBihR/CA0YqKHwc/FMVOq6GHrSe6apX3DFML1R1ZJAMJjqw3atco68VU9dM3/Ep9fELD+JW+UKqWoQSE7+p+/5Vb8qCSSouQ33Bw5n2tuiOLCMx319fxK/0ADWTU44rQ09y4j4KFmkBbW48Mv+m4bWp/k1ZFgqlc0M3WG9giOAvVHRmtL+VQUtboKHAIgSJ7EbyDQ8lHYAthNxYLv9AXfZZefqUNASPSRbfH5BuufRWYUjwDg/iV41HdkUVmW5F9tKNBIbtwdZGHB8UdeSw31KfHweJ4ovS0avt7xR0h1nkTk3bUzCM1OwG2Fz8BGSOtUP2dENknaDqb2UnUwUfwKzFQGaTVEni4SqFagZi7VqB9ruh9gUkbaqjD6VCiBc68r9WfkQW6/eNDCEwV65nkCAJT0llfKCH4Hg4CdiI9iOyhvUws3c/RiKYh2kPsLLGa78F7aDQK0BMhAk3rtEL9GblB7CArfLI2qWr2EHWgmCAcY9AeTitHtnR1U2tBLrf0A/SetQCCfGh5KsSg9x9ZhEzWVyc4855W3ZFbBG9ArZLH7UFU2XHvE1UspbRy5sYt8h0xHA0a5mkBtLbF2PdIW6sccKVAgEJE6hfqIlqguiMjvidSn4myuNCxE7nlPCDVK1xaNsSJqojYvT3Ur1/Lr/QBpJiUiM6JAk00kSKbfvb9ACL314cji3bmrNcoNVl1RwYNggnkjhAlkyMKAu0CWOtAAlH4WA1OsNGyptHOHkZaUPvrj/xKXeJnD+9BCPUSLYo5lABhRNRsi9CgoKG7EjRxZCjsi4COhs48ecShG0TmZJGc2JYuffzR2vTHrRIsjdMaFIbU2FlYYgs2G2eM5pYMNt7/yOliD2OtSBCckKARB+1tLdBmRv5nvXAsNPHEU52mghExfbcAvU1s3EQAOcha7JUbNq7fo9uCs4AAhBbECcoMs7ffyooIsIexp3PuITyMRPuZ1Ws0GwNNHBlUrxpczWId/7hESr/gKm45lsip6mkooUujFqCHFKrFnAVKNbVQ4MABY3C6fK9jYMOHGRBgiJx2ALccR0BSKqVfKH7vVv+iXfsYzRy57IuPhUsDEf5xdMd3FHeg7agcokLkvlHRlHDcydxSD4jK7XzLMaL9e4NOjbve1kZrPF7wvRLNX8ahpUPx9JSceAF5Cqq4QA5qoI+YFmjmyMi5LlewJENXwYipYqJ9aiCqKwYpn+Zcsa6KuDm1EJHH71DuYJFCS2cHFb78pLRFauUj6hF7+GzWr1mE0i8/Ekr7jZTuHUcWm2RIM7Fos3405S/76mNuaYNmjgxQeI8WG6JkXnYDhU10zAlk+BSxhwZEByq/E5Nt9Q4KocTjT+GWupQse5c1TncE0FPLXfqQcE6AUuLniL1HHdJqBLrRdSIqmdIeWaTtqhqknHmhokPasq8+0jxPXVNHBuVfij+JPLy8adS1t7PmaVqCUsswgRh2a0EOS0uEHpNoK5gE6Sb1jYzmlroUf/gm2zNrCZZ/2x+9i8WNtSBhzjxhwftyrntdt05sj+6IzKq0866guFmiCSz972fFN9o/gDV35Lr1a6lqDxkXeTKvvFlZ2qRCIgSbVg/uRFEhKkDv4aFpe5DyFcso54nF0mylfoYQumVsue8WVRuFDwYP0MQTxGbjtpIiquHN3hCyEdlfRmgsWJhxybUUo6ApISh692V+pS2aOzJA8+nm7coKwTMuvpZij9Qm/VG8n9BuR0ZITbQjBlppoougViB7btPt11CZtH/s6+nmo/bTUpjLltKFrz7N9sZagVCj6BlCxYo9H5wiInue/gEUNkHss1WCd1Bw/+QimsrL2fXuK9TkoKQer8jo+Lv5taY079jSr9UsvdmihEsOh06ETI1DpWJ7D2nGTL/watnYNQ649t4bo0RTNIMHsjh1v//CLW3AwxGrHUtbq/TvhSuWCGr4+08q+fRtKv7gDU1m+MGgwkw0zNiSv4N2vfcqt/rpbW+VHpDygv3Yi6qp3oIt2MhrFiqubIIUVOnnH3BLexzmyL3tbUxOR+mSGTdA+JTp1F5cqIomEp7YIs5Y9ePX1JK3Z7VPV201BSQkC1Xc+McnsjafHWXFfEQbEB1A7yM4NFJj8W9CisjS1cmapOHLIr336OTftrNAWln8SRXffUVFbz7PltJahkQGk3rOZdJ7JyaVXPT2S/sUF3Q31LOJQE7FxTs4mKpUUjdFA730i65hM7IS8IDNf/4xbjkGj8zRk+Ti7aqCXsOpZ13MLWUUvfOy5GAruGUfI06/gOIFCh023Xb1kLNUYHIajbtH7ENql5x48x3Xcct9QYw3a8HN3LIN1Elzn3qQW3sy4t/nUvyx8ok3eM/x3tuLT0g4pZ59MUVME8z8G0RHVQXl/PduTQpMbOGQPfJg4Ih44toDHgCjbrxrWPvPMIEkEDR2s7bUbCvZKaxnjRpbnNK6O0knz+dX8thq6lcv2BEkbJz9VXWYaCY8sNQuJ8YBXc6Sex3uxMDhjgywf8DBij1gzzL2todoxGnnKVZ19JX22yIF7DhMsgVCali6ipA09zRN+gu7CgjHIZVRhOqfV7KQnzVacrZSd5N8pl1ItnJHhkJM9q33scnCHnFIxNxz4cTVlXzEsTjFkQH2Z/kvLOGWcuJnn0QTFi+lqIPEA/Nhgn2pGmQcuVvag5Z9IdZK08PTi5JOOZNb7oVvTBwlzxXs72yxsMQJORo3yQsuhGSLN4aHZBOcd4zkxMGick97gYPcnMfvo65G5d1K1MJpjgyQNZW79GGydNsXQkF+c8ZF11D2wsUUOVV+KYSySTnQ2a9FICUT8VxRgXSELRyVdaQnkk+RnFhQ6RInvDiQk0NEOQVFFHIabJh10cB98n9fZMtpe0G/px1L7qNeDVJZleBURwYNG/6grffdOqw6zeCsMZR55U2UvehBm3ubYAFHVhL3K/1CPLyAXHJ3AgdcUTPE1DtwHiGai9y0WUwCKXhkNr/aE+/AYGnPfgZNfuxlSjppPos920v518so98nFqsTyh4vDwk+2QLgEhQEILQQJlrYNBTSTUB8aPmEK6yQ/+OTSPzaeEk+Uz7hClYpofjj+/qDUDKEOlIjxIoaNZZg7MPLqW4Ub0RW98xILTYqAcFvYuMmyabAIuw3usonfBYo0mVfcRKFjJ7B0YHtBrX3By0up6gdtWuragy4ceQAcMiFWGz5hv2GJj0MAP3LaQUyYzcsvgDoryyk0ezxFCBRKIBsHMW9ROspLmCazCFjaI47b7cS9lCNIPvUcihDcSiAppXTZe9wSwy8mVnbp7Bsazhrp4+eSTj6dMi+9jl0PV8QC8kt5Tz1ILXliFXGOQleODDAb1ksfbkDSiGGf9uIpDIE/xB5xWi03Q2DPiw9fCd1NDeTp7S17Yw2ATou1a/XVDlRNsM1Jv2ABt+TJe/4x6mlq5JYYWNnIid15ePuwBJKEY09mQo9qgHORwleWOn0/PBRO3yMPBTSitj98B0vTQ0mdGvjHJfAr6zQJVjjtTYk0oyARQASEz8TlX12PEfPP5VfyIFe8vUR5o/gmbE8EUnaRhacGqATb9sBCzSvPhoMuHXmAypXLaeOiq6haFQVHGeEtiZZc+xwZEpsln7zDDXmQoYQ9u9FIPGEeBWeKielh9VP62fvcUojkxEhLlcWWYqIAkHUuevMF2vHfuzUTzVMLXTsywH5y52vPsDhda5E25XUD+MUm2t1grn7dGqoV7O/rIS3FR5x2PreMQVBqJiXNFT+ZL/7E/tktZFS2WDKQNQ1jAZC0tGnR1VT183d8RN84PNd6uMQffTzFzT5JYfE+XqL40xntWpq2b2JLKlZgL3hD4Hcav/gpFscUQY3ccb2Qfct9FDxa7Jyg+tcfpIfzs9ySB9GI0DETKDS7/wsdPpR9ouJAuRQllKJCEnrB5Rx5AOwz42afKHYghk/czleJcAeaasOxm7dtpLZdtkNTEKtPPesSbtkGIZItd97ABPZcGYT1cDIsQk9zE6ulttWNxNPXR3LYicx5kaU1vMMqsQ+/YQOqwr502fCgyzryALGz5lCC5NDIox4WmHUF9lQQgkNebevOPOlL+l6Yv0+4atR1twkXuDdu3sC2Da4KTqmRWScKTn1r1qziVj/QBYc0blBaFgWmZ1KIlWSOvcGNO9xZGeGviu9d14EHcHlHHgAzIXoWC3f1UxHoerUU5lGb9AUH7+vpoXH3iOeR46BMadhLL4y781EKTM3glm2QkgvpGzhscDqcNouCJMdF2aB9CLiylQmZSVCtXC4toQUOzVwAwzjyAFD9h3AAYojKUOP5vhsUVviEiCt2bHtw0T5CBnpHtLabYbFQd1sL+QTbFgZQAhZQSs6z0EAexTrV0ldXjXOqlLTCcI48AA6e4NBx0iztHWbvE99xtJeXsJxzLTWz1CTmkFmUdv6V3NI3yBiEAwvJ6roohnXkAdBfKGX+edyyhpX1lxoo+aul6QV5vF11teyrV7qGQDx0qCy4bpWuJZuNs+sW6uvu/n9Jn76eXuoT1DZDrjHSFZGVhnAYRPFQUOAVFEhe0ndcewcF9V8HwQ4i79Aw8o2IZA9JZE4Jo+HbK8L6K8+WHpDqJBbpFcM7ctrZl1LMEWK50Eagz9InObXk3HBq6HVJX0hpZM7KnLffcR2Gxk4svTLpr7f9D2y5+0ZFjRJcEd0nhAyXYZ9mq4CS+5j97DBufA9PD5Ys4RUQwHLLfcMiWCN3zLCYdR3qxEBDJwa93V38yjpQYjU6hndkkThzzhP3M7USSM2gh63aYFLq/z95lPysu9KyYyuVff4BbX/o9j20x63h6wZSS4ZfWk999m1pJrJdPL7hpkv2aBSGZPuQ7PH9mURjJtql4TRsNF6SKkf6ZdgxMTflUPH3R63yQKZds/SFWvMBkIgiV2eOnllot2NkDO3IcMD9lr7FraGBzND6y21nJSFBIWTMeApicc8stlS1B8Gck0HozpsdAtQoWwvzmFA9nLerpor/yb7EzJxFaRfYPj1HDnzBi49zy5gY2pEhEg+BPltgKb1xoXj9LEAmEhw6OLU/EwnXShU9TfpBbLe1KI857sDX4BlXDpSFQiLZFngYoILJyBjakTGTjvnP/dwaGuy3tj1yB7fsB9U/AanprJuCf3wy++4XE8f/dDdsjjX0RDv0i0POOkoX28tLmaoKOmIgC05EcM8WAYnJNP6+J7k1NMi823zn9dwyJoZ2ZLTZhHaULer/XMNUKrQA3ez90WIGzi1995e+B0irBL/oOGnfLlYhxcAnpGhJ7iz6qLu+gTprK7mzSk5b0e+8Wuk9oyf1lKde59bQdDXW0z832NfdxFUwtCNDDib9oqu5NTTomYRukY4GAvvQ5jYMfX207YH/UEtBHh9wHNNe/Ig8vKwHYCxdXbT+CkF9bRfF0I4s0mcKLUpKl73LLccy6pqFFCbYqxmgzK4ldxvLskLGlae/v7Q350kePNGDJX1I3wdsFje29LJCDktv//eBZJH+sYGssB6WQQY9KmSOJZ44X1FrHnQOQRqkM5jyxGus97It1l16GnudRsXQjpxw3FxKPvVsbg1N8UdvOqSj/FDg5ht724NMkE8UNDmXa2kzXNLOvZxiDjuaW/I4O7wz8cFn2AGkLf6++lyW3mpUDJ0Q4ukrf5LszCIFFNkXvvoMt8TIuPQ6CkwW66VkD9B+VuLEUNRwdoy2t0v+M/TwNnZUwdCOLKJhjKIDZwJJmcLXn+OWPFhWZ1x2vbD4uxJQ0ZQk2qtJAj2MIRTgbCzd8ktmD+/h6VnrHWOnaApkX1gEq4W0pOaXlVS2XFxYAOIJmZffyC11CJ80VVFZIqqsCl5+yqZkj8OQ9v5yoHDEyBjbkUVQUpmuIaWfvkN1f4ipcAKkj2ZedgO3hkdQxijKUPhgKHj5SSZSqA8Me8wjjKEduU/kST2M1jRqA+dAWqIoUEFJPedSbtkH+lZlXXGTsPInKPn4LaoTlP51BCKfocUify+4MsZ2ZIEueYoK5DWmr1darr7wOHUqyHZC3yn0WrIH3/AIylpwM5ObFaXyh6+pfMVn3NIHHl7ynyHCa0bG0I7c2yVfq+rpryDDygF01lZTwfOPKbrxEo47WajT5GBQUJK14FZFYoUQ4UeTO70h8hn2dXbyK2NibEdul0++9/YP4lf6Ae1JlKaNopwPDctEQIHHyKsXKkr4gFxsvrRa0CNeATJlphaL9FA3Hdll6W1t4VfWkcsIchYNf/9Bha+Ld2MAyf8+h4n22wIhuZHXLBTuHgnQBzr/OWmVoIMT/qGQU+ZExprRMbQjd7c28Svr2Ftb7AjQ/F1pskXKaedblaiFE4+69jbWalaU7vpayn/2USbvq0eY5LDMYVd3s/x94OoY2pF7Gur5lXV8o5T0kHI8SH9E+1ElML3pvQoy0IZl1HV3UOi4SXxEHmxN8iQnRvWSXhH5/Lobdqu/GBVDOzIkZeUYqmZYb6D9aMV3X3BLDFRXJcyZx66RDTYaTjx2ArNF6LP0Ut7TD7H2OHrGT6DvdZfpyK4NitlRi2oLaDb7hEdwS78Uf/AGVf34DbfESJ53Jo0440IadcOdFDx6HB8VI/eph6hp+2Zu6RfEweWwJRVkFAztyKCropxfWSdwRDq/0jdF77xE1Qr79cYfdTyTIlJC7tKHNa+wUguRAhLkhBsdwztyW0UJv7JOUFomv9I/O998gapXf88tW9iXW5z3zMPUsOEPbukfkc9Oz3t8tTC8I7eXFPEr6wRnjeZXrsHON56nqlXfcssayvOPc6U9cf1fruPE/rEJrH2NHO0lu/iVcTH+jFxUwK+sEzpmPOvQ4EoUvfUiS5fcFzteh8VCuU8uZr2CXQkUjsjRtqvA0MogAxjekVm/YplEBuRbh00Ql9zRC0iX3CPvmfmwspkYIaYdS+6lho2usScejEgz+ZZ8fZ+6q4XhHRmFCNC5kiNivxn8yrVAJVLFimX9hsLVdG97G+UsuYfpPrsaSMsMnzKdW9ZpyTNGI3M5DO/IQCSMEjljpkuKzGN5GTFdaVN3afKWZm9vyRliDj/G5bYVIOqAQ/mVbZq2b+FXxsYtHLlx8wZ+ZR3oe0UfMotbrkH8Mf+i0TfdrbzboOS30FPABI5m8GPveJSCFYaonE30zCP5lXVaCnPdIqsLuIUjtxbksPJAOWKPPJZf6RsUekAMYMT8c/mIQvZaggempFP27Q9T3Kw5fETfYEktEnZq/GcdvzI+buHIoGHdWn5lHXRhjD1C384cMe0gGn/3Eun7gXxECbaX0ClnXsQeEBAc0DOi5Zr163/nV8bHbRy59s//8SvbJJ40n7wC9Vej7OkfQGnnXS452o3DSCmVPw3DA2LcvY+zJbcegSJKcNYYblmnOWcbK790F7wio+ON3aaOg71S6NhJ5CdTLePl50/eoWHUsEE/MdWoAw+lkVfdyuLdSrF0tCmWM0LPqogpMyhwRCq17SrUTT0vClxGLrhZ6PWUffWxUA6BUXAbRwaIJ0fstz+3rBMk7RlRf9u2M5+POIeAlDRKP/dySphzirwKxhA0bdlAO5bcR+3SDQ25Ww9PZdrO2GrEHXkc3jimv+1sMi+/iXVflKO7qYEKXnyCW+6BWzlye/FOitp/JnnLKEqA8IlTqb1kJ3U4IU8XK4LkU86kjAuvFqruGYrybz5j4vHoNYzG4Q0b1lFQagb5RogL7TE8PKSVwAQW7rG0t1Gb9B46g/Tzr6RIwXOB8uWfCuUOGAm3cmRg6emmiMnyiQQAseWO0mJqL5cvvFAD1A0nnHAq2wejt7M9YBlc+OpSqvx+OR/pB7NU9S8ryScklILSxbW6BkBnC6xmwidMoZ72dupw4P4TZwMxhx7FLdugDU8+xAsNLn+7N27nyNg34WYUnZkipx9Els5ORXrTSkEDssTjT6HMy25kCR4irW6GouGfdZT71IM2f1eUJ3ZWllNI9ni7EmDwvuE9CZ80jeUwazlD41Av89Ib2CpKlJJP3qaWvO3cch8M3Y3RGtCsGn3jXdwSo+Gf9VT62Xvs8Ect0Ig96qBDKXKqPaGkPdn14RtU+a24igiqhlLOuECaZQ/gI/aBQ0S0U635bbU0S6u3cok59GhKnneWoh5XzbnbaftDt3HLvXBLRwYp88+nuGNsK04ORc2aVVSzeqV00yjfg2GmDRs3icKk/Xe45EC+YcMX/mvcupFKJCe2d2aMPXw2jZh/Hnn6+fMR+2nJ28FqmRs3/c325UrBaXTUgYdR7BGzpf288hrxrYsXsuQfd8RtHRlkL3qQgjNHcUsZUJ1o2rKRpQFivwh9sN72VtamBjckZhKf8Cjyj0+gwOQUCkrLouCsbMmZ1QndW7q6pWXkW1S5cs+9sD1AwC553tnSEvYQPjJ8uupqmD43ygjbS0uos6aSuhvr2eEbTsE9vP3IJzSU/GJipfcnnYJHZlP4xCmKQ2UDFEsPswoFKxKj4daOjPBK9sLF5BUUzEdcg1ppVVCy7D3mLGoSOfUASpp7Jvkn2HdS7iyqf/2Bdr6mTAPcaLjdYddgelqaqLWogKIPOpyP6BssXdFLGTMPShDVBqfzVT+uYKuKkJFjFMednQEarRc8v4Rb7otbz8gDhE+cRllX3yrU1c8ZdFSWU/nXn1LNrz/yEe3B/j3++Hm6LqRo3Pg35S59QFY4wh0wHZkTMnocZV56va6kcTurK6ni+y+p6ocVfMTxBMQnUdzskyjmMLE4rqOoXfsza7Ru0o/pyINASCbtvCsobPxkPuIc2nbtpKqfVlD16pV8xPlA6C521rGsOszDy5uPOoeST9+l8uWfcMsEmI48BPHH/ovFMB29R6z/6ze2fEbMWq+gMizmkFmssF9JS1Y1QKILpI1Q2WSyJ6YjWwGzc8JxczUXG2gtyqf6P9dS7e+/qH4KrTXIQoucPpMiph9A3oHanfx3VJSyljnVP+tnhaI3TEeWASmJmH2iZswkf4HKG1n6+qhp+yZq2ryBKVcapWY2bOIUCp8wlULGTmT7ajVo2LhO2guvpro/xGrJ3RnTkRUQmJJGIdIsFJIxigJS0tm+0RaWrk7qqKpghRdtJTuptSCPmvO2U19PN/8JY+IXFUNBWaNZtVVgchr5JSSRn4yQPBJFkOLZujOfKV82SA86kf7WJv2YjmxiYgDcRurHxMTImI5sYmIATEc2MTEApiObmBgA05FNTAyA6cgmJgbAdGQTEwNgOrKJiQEwHdnExACYjmxiYgBMRzYxMQCmI5uYGADTkU1MDIDpyCYmBsB0ZBMTA2A6somJATAd2cTEAJiObGJiAExHNjExAKYjm5gYANORTUwMgOnIJiYGwHRkExOXh+j/ADwrjr9GKlRMAAAAAElFTkSuQmCC;" parent="-04ID43S7tZkHjtVrY1N-1" vertex="1">
                    <mxGeometry x="447" y="239" width="82.79" height="77.32" as="geometry"/>
                </mxCell>
                <mxCell id="rYBwMgKa4S3AZHbmEtn9-46" value="" style="endArrow=classic;html=1;rounded=0;" parent="-04ID43S7tZkHjtVrY1N-1" edge="1">
                    <mxGeometry width="50" height="50" relative="1" as="geometry">
                        <mxPoint x="311" y="-69" as="sourcePoint"/>
                        <mxPoint x="75" y="80" as="targetPoint"/>
                    </mxGeometry>
                </mxCell>
                <mxCell id="rYBwMgKa4S3AZHbmEtn9-14" value="" style="sketch=0;outlineConnect=0;fontColor=#232F3E;gradientColor=none;fillColor=#232F3D;strokeColor=none;dashed=0;verticalLabelPosition=bottom;verticalAlign=top;align=center;html=1;fontSize=12;fontStyle=0;aspect=fixed;pointerEvents=1;shape=mxgraph.aws4.user;" parent="1" vertex="1">
                    <mxGeometry x="414" y="100" width="79" height="79" as="geometry"/>
                </mxCell>
                <mxCell id="rYBwMgKa4S3AZHbmEtn9-22" value="名前解決" style="text;html=1;align=center;verticalAlign=middle;resizable=0;points=[];autosize=1;strokeColor=none;fillColor=none;rotation=-30;" parent="1" vertex="1">
                    <mxGeometry x="292" y="187" width="66" height="26" as="geometry"/>
                </mxCell>
                <mxCell id="rYBwMgKa4S3AZHbmEtn9-31" value="①" style="text;html=1;align=center;verticalAlign=middle;resizable=0;points=[];autosize=1;strokeColor=none;fillColor=none;fontSize=24;rotation=-30;fontStyle=0" parent="1" vertex="1">
                    <mxGeometry x="268" y="201" width="42" height="41" as="geometry"/>
                </mxCell>
                <mxCell id="rYBwMgKa4S3AZHbmEtn9-41" value="" style="endArrow=classic;html=1;rounded=0;" parent="1" edge="1">
                    <mxGeometry width="50" height="50" relative="1" as="geometry">
                        <mxPoint x="475" y="200" as="sourcePoint"/>
                        <mxPoint x="580" y="447" as="targetPoint"/>
                    </mxGeometry>
                </mxCell>
                <mxCell id="rYBwMgKa4S3AZHbmEtn9-43" value="" style="endArrow=classic;html=1;rounded=0;" parent="1" edge="1">
                    <mxGeometry width="50" height="50" relative="1" as="geometry">
                        <mxPoint x="556" y="449" as="sourcePoint"/>
                        <mxPoint x="451" y="202" as="targetPoint"/>
                    </mxGeometry>
                </mxCell>
                <mxCell id="rYBwMgKa4S3AZHbmEtn9-44" value="②" style="text;html=1;align=center;verticalAlign=middle;resizable=0;points=[];autosize=1;strokeColor=none;fillColor=none;fontSize=24;rotation=0;" parent="1" vertex="1">
                    <mxGeometry x="501" y="203" width="42" height="41" as="geometry"/>
                </mxCell>
                <mxCell id="rYBwMgKa4S3AZHbmEtn9-45" value="HTML" style="text;html=1;align=center;verticalAlign=middle;resizable=0;points=[];autosize=1;strokeColor=none;fillColor=none;" parent="1" vertex="1">
                    <mxGeometry x="529" y="210.5" width="51" height="26" as="geometry"/>
                </mxCell>
                <mxCell id="rYBwMgKa4S3AZHbmEtn9-49" value="" style="endArrow=classic;html=1;rounded=0;" parent="1" edge="1">
                    <mxGeometry width="50" height="50" relative="1" as="geometry">
                        <mxPoint x="167" y="350" as="sourcePoint"/>
                        <mxPoint x="403" y="201" as="targetPoint"/>
                    </mxGeometry>
                </mxCell>
                <mxCell id="rYBwMgKa4S3AZHbmEtn9-50" value="user" style="text;html=1;align=center;verticalAlign=middle;resizable=0;points=[];autosize=1;strokeColor=none;fillColor=none;" parent="1" vertex="1">
                    <mxGeometry x="433" y="74" width="41" height="26" as="geometry"/>
                </mxCell>
            </root>
        </mxGraphModel>
    </diagram>
</mxfile>